<!--
    Copyright (C) 2023 Jacek Lewański

    This program is free software: you can redistribute it and/or modify
    it under the terms of the GNU General Public License as published by
    the Free Software Foundation, either version 3 of the License, or
    (at your option) any later version.

    This program is distributed in the hope that it will be useful,
    but WITHOUT ANY WARRANTY; without even the implied warranty of
    MERCHANTABILITY or FITNESS FOR A PARTICULAR PURPOSE.  See the
    GNU General Public License for more details.

    You should have received a copy of the GNU General Public License
    along with this program. If not, see <https://www.gnu.org/licenses/>.
-->
<svg width="203.2mm" height="128.5mm" viewBox="5.08 0 203.2 128.5" version="1.1" xmlns="http://www.w3.org/2000/svg" xmlns:svg="http://www.w3.org/2000/svg">
<rect style="fill:#cccccc" width="203.2" height="128.5" x="5.08" y="0"/><rect style="fill:#212121" width="203.2" height="40" x="5.08" y="6.25"/>
<g style="stroke-width:0.511;stroke-linejoin:round"><g style="stroke:#212121">
<path d="m 15.24,44.25 v 70"/>
<path d="m 35.56,44.25 v 70"/>
<path d="m 55.88,44.25 v 70"/>
<path d="m 76.2,44.25 v 70"/>
<path d="m 96.52,44.25 v 70"/>
<path d="m 116.84,44.25 v 70"/>
<path d="m 137.16,44.25 v 70"/>
<path d="m 157.48,44.25 v 70"/>
<path d="m 177.8,94.25 v 20"/>
<path d="m 198.12,94.25 v 20"/>
</g><g style="stroke:#cccccc">
<path d="m 15.24,34.25 v 10"/>
<path d="m 35.56,34.25 v 10"/>
<path d="m 55.88,34.25 v 10"/>
<path d="m 76.2,34.25 v 10"/>
<path d="m 96.52,34.25 v 10"/>
<path d="m 116.84,34.25 v 10"/>
<path d="m 137.16,34.25 v 10"/>
<path d="m 157.48,34.25 v 10"/>
<path d="m 147.32,14.25 h 40.64"/>
</g></g><g style="fill:#cc0000">
<circle cx="15.24" cy="34.25" r="5.5"/>
<circle cx="15.24" cy="54.25" r="5.5"/>
<circle cx="35.56" cy="34.25" r="5.5"/>
<circle cx="35.56" cy="54.25" r="5.5"/>
<circle cx="55.88" cy="34.25" r="5.5"/>
<circle cx="55.88" cy="54.25" r="5.5"/>
<circle cx="76.2" cy="34.25" r="5.5"/>
<circle cx="76.2" cy="54.25" r="5.5"/>
<circle cx="96.52" cy="34.25" r="5.5"/>
<circle cx="96.52" cy="54.25" r="5.5"/>
<circle cx="116.84" cy="34.25" r="5.5"/>
<circle cx="116.84" cy="54.25" r="5.5"/>
<circle cx="137.16" cy="34.25" r="5.5"/>
<circle cx="137.16" cy="54.25" r="5.5"/>
<circle cx="157.48" cy="34.25" r="5.5"/>
<circle cx="157.48" cy="54.25" r="5.5"/>
<circle cx="177.8" cy="34.25" r="5.5"/>
<circle cx="177.8" cy="54.25" r="5.5"/>
<circle cx="177.8" cy="74.25" r="5.5"/>
<circle cx="177.8" cy="94.25" r="5.5"/>
<circle cx="198.12" cy="54.25" r="5.5"/>
<circle cx="198.12" cy="74.25" r="5.5"/>
<circle cx="198.12" cy="94.25" r="5.5"/>
</g><g style="fill:#ffffff">
<circle cx="25.4" cy="14.25" r="5.5"/>
<circle cx="45.72" cy="14.25" r="5.5"/>
<circle cx="66.04" cy="14.25" r="5.5"/>
<circle cx="86.36" cy="14.25" r="5.5"/>
<circle cx="106.68" cy="14.25" r="5.5"/>
<circle cx="127" cy="14.25" r="5.5"/>
<circle cx="147.32" cy="14.25" r="5.5"/>
</g><g style="fill:#cccccc"><circle cx="167.64" cy="14.25" r="3"/><circle cx="187.96" cy="14.25" r="3"/></g><g style="stroke-width:0.3;stroke-linejoin:round"><g style="fill:#cccccc">
<path d="m 188.91187,33.853214 q -0.5302,0 -0.90537,-0.375171 -0.0465,-0.04651 -0.0465,-0.111621 0,-0.06511 0.0465,-0.111621 0.0465,-0.04651 0.11162,-0.04651 0.0651,0 0.11163,0.04651 0.28215,0.282153 0.68212,0.282153 0.26355,0 0.44959,-0.186035 0.18604,-0.186035 0.18604,-0.449585 0,-0.139526 -0.0744,-0.254248 -0.0744,-0.117822 -0.19844,-0.176733 l -0.74724,-0.353467 q -0.18913,-0.08992 -0.30075,-0.26355 -0.10853,-0.173633 -0.10853,-0.381372 0,-0.328662 0.23255,-0.561206 0.23254,-0.232544 0.5612,-0.232544 0.43719,0 0.74725,0.310059 0.0465,0.04651 0.0465,0.111621 0,0.06511 -0.0465,0.111621 -0.0465,0.04651 -0.11162,0.04651 -0.0651,0 -0.11163,-0.04651 -0.21704,-0.217041 -0.524,-0.217041 -0.19843,0 -0.33796,0.139526 -0.13953,0.139527 -0.13953,0.337964 0,0.114722 0.062,0.213941 0.062,0.09612 0.16433,0.145727 l 0.74724,0.353467 q 0.20774,0.09922 0.33176,0.294556 0.12402,0.192236 0.12402,0.421679 0,0.393775 -0.27905,0.672827 -0.27905,0.279053 -0.67283,0.279053 z"/>
<path d="m 190.97376,33.695084 v -2.70061 h -0.63562 q -0.0651,0 -0.11162,-0.04651 -0.0465,-0.04651 -0.0465,-0.111621 0,-0.06511 0.0465,-0.111621 0.0465,-0.04651 0.11162,-0.04651 h 1.5875 q 0.0651,0 0.11163,0.04651 0.0465,0.04651 0.0465,0.111621 0,0.06511 -0.0465,0.111621 -0.0465,0.04651 -0.11163,0.04651 h -0.63562 v 2.70061 q 0,0.06511 -0.0465,0.111621 -0.0465,0.04651 -0.11163,0.04651 -0.0651,0 -0.11162,-0.04651 -0.0465,-0.04651 -0.0465,-0.111621 z"/>
<path d="m 192.55816,33.853214 q -0.0651,0 -0.11162,-0.04651 -0.0465,-0.04651 -0.0465,-0.111621 0,-0.0186 0.006,-0.04651 l 0.79375,-2.855639 q 0.0124,-0.04961 0.0558,-0.08062 0.0434,-0.03411 0.0961,-0.03411 0.0527,0 0.0961,0.03411 0.0434,0.03101 0.0558,0.08062 l 0.79375,2.85874 q 0.006,0.02481 0.006,0.04341 0,0.06511 -0.0465,0.111621 -0.0465,0.04651 -0.11163,0.04651 -0.0465,0 -0.093,-0.03101 -0.0465,-0.03411 -0.0589,-0.08062 l -0.14573,-0.523999 h -0.99219 l -0.14573,0.523999 q -0.0124,0.04651 -0.062,0.08062 -0.0465,0.03101 -0.0899,0.03101 z m 0.38448,-0.95188 h 0.81855 l -0.40928,-1.469678 z"/>
<path d="m 195.88819,33.853214 q -0.45888,0 -0.78444,-0.325561 -0.4837,-0.483692 -0.4837,-1.261939 0,-0.778247 0.4837,-1.261938 0.32556,-0.325562 0.78444,-0.325562 0.43719,0 0.74724,0.310059 0.0465,0.04651 0.0465,0.111621 0,0.06511 -0.0465,0.111621 -0.0465,0.04651 -0.11162,0.04651 -0.0651,0 -0.11162,-0.04651 -0.21704,-0.217041 -0.524,-0.217041 -0.32866,0 -0.5612,0.232544 -0.39068,0.390674 -0.39068,1.038696 0,0.648023 0.39068,1.038696 0.23254,0.232544 0.5612,0.232544 0.26975,0 0.47749,-0.173632 v -0.781348 h -0.31626 q -0.0651,0 -0.11162,-0.04651 -0.0465,-0.04651 -0.0465,-0.111621 0,-0.06511 0.0465,-0.111621 0.0465,-0.04651 0.11162,-0.04651 h 0.47439 q 0.0651,0 0.11162,0.04651 0.0465,0.04651 0.0465,0.111621 v 1.00769 q 0,0.06511 -0.0465,0.111621 -0.31005,0.310059 -0.74724,0.31006 z"/>
<path d="m 197.32066,33.695084 v -2.85874 q 0,-0.06511 0.0465,-0.111621 0.0465,-0.04651 0.11162,-0.04651 h 1.5875 q 0.0651,-0.0031 0.11163,0.04651 0.0465,0.04651 0.0465,0.111621 0,0.06511 -0.0465,0.111621 -0.0465,0.04651 -0.11473,0.04651 h -1.42627 v 0.95498 h 1.11311 q 0.0651,0 0.11163,0.04651 0.0465,0.04651 0.0465,0.111621 0,0.06511 -0.0465,0.111621 -0.0465,0.04651 -0.11163,0.04651 h -1.11311 v 1.27124 h 1.42937 q 0.0651,0 0.11163,0.04651 0.0465,0.04651 0.0465,0.111621 0,0.06511 -0.0465,0.111621 -0.0465,0.04651 -0.11163,0.04651 h -1.5875 q -0.0651,0 -0.11162,-0.04651 -0.0465,-0.04651 -0.0465,-0.111621 z"/>
<path d="m 188.91187,37.821964 q -0.5302,0 -0.90537,-0.375171 -0.0465,-0.04651 -0.0465,-0.111621 0,-0.06511 0.0465,-0.111621 0.0465,-0.04651 0.11162,-0.04651 0.0651,0 0.11163,0.04651 0.28215,0.282153 0.68212,0.282153 0.26355,0 0.44959,-0.186035 0.18604,-0.186035 0.18604,-0.449585 0,-0.139526 -0.0744,-0.254248 -0.0744,-0.117822 -0.19844,-0.176733 l -0.74724,-0.353467 q -0.18913,-0.08992 -0.30075,-0.26355 -0.10853,-0.173633 -0.10853,-0.381372 0,-0.328662 0.23255,-0.561206 0.23254,-0.232544 0.5612,-0.232544 0.43719,0 0.74725,0.310059 0.0465,0.04651 0.0465,0.111621 0,0.06511 -0.0465,0.111621 -0.0465,0.04651 -0.11162,0.04651 -0.0651,0 -0.11163,-0.04651 -0.21704,-0.217041 -0.524,-0.217041 -0.19843,0 -0.33796,0.139526 -0.13953,0.139527 -0.13953,0.337964 0,0.114722 0.062,0.21394 0.062,0.09612 0.16433,0.145728 l 0.74724,0.353467 q 0.20774,0.09922 0.33176,0.294555 0.12402,0.192237 0.12402,0.42168 0,0.393775 -0.27905,0.672827 -0.27905,0.279053 -0.67283,0.279053 z"/>
<path d="m 190.33814,37.663834 v -2.85874 q 0,-0.06511 0.0465,-0.111621 0.0465,-0.04651 0.11162,-0.04651 h 1.5875 q 0.0651,-0.0031 0.11163,0.04651 0.0465,0.04651 0.0465,0.111621 0,0.06511 -0.0465,0.111621 -0.0465,0.04651 -0.11473,0.04651 h -1.42627 v 0.95498 h 1.11311 q 0.0651,0 0.11163,0.04651 0.0465,0.04651 0.0465,0.111621 0,0.06511 -0.0465,0.111621 -0.0465,0.04651 -0.11163,0.04651 h -1.11311 v 1.27124 h 1.42937 q 0.0651,0 0.11163,0.04651 0.0465,0.04651 0.0465,0.111621 0,0.06511 -0.0465,0.111621 -0.0465,0.04651 -0.11163,0.04651 h -1.5875 q -0.0651,0 -0.11162,-0.04651 -0.0465,-0.04651 -0.0465,-0.111621 z"/>
<path d="m 192.71939,37.663834 v -2.85874 q 0,-0.06511 0.0465,-0.111621 0.0465,-0.04651 0.11162,-0.04651 0.0651,0 0.11163,0.04651 0.0465,0.04651 0.0465,0.111621 v 2.70061 h 1.42937 q 0.0651,0 0.11163,0.04651 0.0465,0.04651 0.0465,0.111621 0,0.06511 -0.0465,0.111621 -0.0465,0.04651 -0.11163,0.04651 h -1.5875 q -0.0651,0 -0.11162,-0.04651 -0.0465,-0.04651 -0.0465,-0.111622 z"/>
<path d="m 195.10064,37.663834 v -2.85874 q 0,-0.06511 0.0465,-0.111621 0.0465,-0.04651 0.11162,-0.04651 h 1.5875 q 0.0651,-0.0031 0.11163,0.04651 0.0465,0.04651 0.0465,0.111621 0,0.06511 -0.0465,0.111621 -0.0465,0.04651 -0.11473,0.04651 h -1.42627 v 0.95498 H 196.53 q 0.0651,0 0.11163,0.04651 0.0465,0.04651 0.0465,0.111621 0,0.06511 -0.0465,0.111621 -0.0465,0.04651 -0.11163,0.04651 h -1.11311 v 1.27124 h 1.42937 q 0.0651,0 0.11163,0.04651 0.0465,0.04651 0.0465,0.111621 0,0.06511 -0.0465,0.111621 -0.0465,0.04651 -0.11163,0.04651 h -1.5875 q -0.0651,0 -0.11162,-0.04651 -0.0465,-0.04651 -0.0465,-0.111621 z"/>
<path d="m 198.5919,37.821964 q -0.45888,0 -0.78444,-0.325561 -0.4837,-0.483692 -0.4837,-1.261939 0,-0.778247 0.4837,-1.261938 0.32556,-0.325562 0.78444,-0.325562 0.43719,0 0.74725,0.310059 0.0465,0.04651 0.0465,0.111621 0,0.06511 -0.0465,0.111621 -0.0465,0.04651 -0.11163,0.04651 -0.0651,0 -0.11162,-0.04651 -0.21704,-0.217041 -0.524,-0.217041 -0.32866,0 -0.5612,0.232544 -0.39068,0.390674 -0.39068,1.038696 0,0.648022 0.39068,1.038696 0.23254,0.232544 0.5612,0.232544 0.30696,0 0.524,-0.217041 0.0465,-0.04651 0.11162,-0.04651 0.0651,0 0.11163,0.04651 0.0465,0.04651 0.0465,0.111621 0,0.06511 -0.0465,0.111621 -0.31006,0.310059 -0.74725,0.310059 z"/>
<path d="m 200.49876,37.663834 v -2.70061 h -0.63562 q -0.0651,0 -0.11162,-0.04651 -0.0465,-0.04651 -0.0465,-0.111621 0,-0.06511 0.0465,-0.111621 0.0465,-0.04651 0.11162,-0.04651 h 1.5875 q 0.0651,0 0.11162,0.04651 0.0465,0.04651 0.0465,0.111621 0,0.06511 -0.0465,0.111621 -0.0465,0.04651 -0.11162,0.04651 h -0.63562 v 2.70061 q 0,0.06511 -0.0465,0.111621 -0.0465,0.04651 -0.11162,0.04651 -0.0651,0 -0.11162,-0.04651 -0.0465,-0.04651 -0.0465,-0.111621 z"/>
<path d="m 202.08316,37.663834 v -2.85874 q 0,-0.06511 0.0465,-0.111621 0.0465,-0.04651 0.11162,-0.04651 h 1.5875 q 0.0651,-0.0031 0.11162,0.04651 0.0465,0.04651 0.0465,0.111621 0,0.06511 -0.0465,0.111621 -0.0465,0.04651 -0.11472,0.04651 h -1.42627 v 0.95498 h 1.11311 q 0.0651,0 0.11162,0.04651 0.0465,0.04651 0.0465,0.111621 0,0.06511 -0.0465,0.111621 -0.0465,0.04651 -0.11162,0.04651 h -1.11311 v 1.27124 h 1.42937 q 0.0651,0 0.11162,0.04651 0.0465,0.04651 0.0465,0.111621 0,0.06511 -0.0465,0.111621 -0.0465,0.04651 -0.11162,0.04651 h -1.5875 q -0.0651,0 -0.11162,-0.04651 -0.0465,-0.04651 -0.0465,-0.111621 z"/>
<path d="m 205.10003,37.821964 h -0.47749 q -0.0651,0 -0.11162,-0.04651 -0.0465,-0.04651 -0.0465,-0.111621 v -2.85874 q 0,-0.06511 0.0465,-0.111621 0.0465,-0.04651 0.11162,-0.04651 h 0.47749 q 0.45889,0 0.78445,0.325562 0.48369,0.483691 0.48369,1.261938 0,0.778247 -0.48369,1.261939 -0.32556,0.325561 -0.78445,0.325561 z m -0.31936,-0.31626 h 0.31936 q 0.32867,0 0.56121,-0.232544 0.39067,-0.390674 0.39067,-1.038696 0,-0.648022 -0.39067,-1.038696 -0.23254,-0.232544 -0.56121,-0.232544 h -0.31936 z"/>
<path d="m 166.84647,24.837501 q -0.0651,0 -0.11162,-0.04651 -0.0465,-0.04651 -0.0465,-0.111621 0,-0.0186 0.006,-0.04651 l 0.79375,-2.85564 q 0.0124,-0.04961 0.0558,-0.08061 0.0434,-0.03411 0.0961,-0.03411 0.0527,0 0.0961,0.03411 0.0434,0.03101 0.0558,0.08061 l 0.79375,2.858741 q 0.006,0.02481 0.006,0.04341 0,0.06511 -0.0465,0.111621 -0.0465,0.04651 -0.11162,0.04651 -0.0465,0 -0.093,-0.03101 -0.0465,-0.03411 -0.0589,-0.08062 l -0.14573,-0.523999 h -0.99219 l -0.14572,0.523999 q -0.0124,0.04651 -0.062,0.08062 -0.0465,0.03101 -0.0899,0.03101 z m 0.38447,-0.95188 h 0.81856 l -0.40928,-1.469677 z"/>
<path d="m 187.00812,24.679371 v -2.85874 q 0,-0.06511 0.0465,-0.111621 0.0465,-0.04651 0.11162,-0.04651 h 0.79375 q 0.32867,0 0.56121,0.232544 0.23254,0.232544 0.23254,0.561206 0,0.328662 -0.23254,0.561206 -0.031,0.03101 -0.0651,0.05581 0.0961,0.05891 0.17673,0.139526 0.27905,0.279053 0.27905,0.672828 0,0.393774 -0.27905,0.672827 Q 188.35378,24.8375 187.96,24.8375 h -0.79375 q -0.0651,0 -0.11162,-0.04651 -0.0465,-0.04651 -0.0465,-0.111622 z m 1.42937,-2.22312 q 0,-0.198437 -0.13952,-0.337964 -0.13953,-0.139526 -0.33797,-0.139526 h -0.63562 v 0.95498 H 187.96 q 0.19844,0 0.33797,-0.139526 0.13952,-0.139526 0.13952,-0.337964 z m -0.47749,0.79375 h -0.63562 v 1.27124 H 187.96 q 0.26355,0 0.44959,-0.176733 0.18603,-0.179834 0.18603,-0.458887 0,-0.26355 -0.18603,-0.449585 -0.18604,-0.189135 -0.44959,-0.186035 z"/>
<path d="m 24.606251,24.837501 q -0.06511,0 -0.111621,-0.04651 -0.04651,-0.04651 -0.04651,-0.111621 0,-0.0186 0.0062,-0.04651 l 0.79375,-2.85564 q 0.0124,-0.04961 0.05581,-0.08061 0.04341,-0.03411 0.09612,-0.03411 0.05271,0 0.09612,0.03411 0.04341,0.03101 0.05581,0.08061 l 0.79375,2.858741 q 0.0062,0.02481 0.0062,0.04341 0,0.06511 -0.04651,0.111621 -0.04651,0.04651 -0.111621,0.04651 -0.04651,0 -0.09302,-0.03101 -0.04651,-0.03411 -0.05891,-0.08062 l -0.145727,-0.523999 h -0.992188 l -0.145727,0.523999 q -0.0124,0.04651 -0.06201,0.08062 -0.04651,0.03101 -0.08992,0.03101 z m 0.384473,-0.95188 h 0.818554 l -0.409277,-1.469677 z"/>
<path d="m 44.768118,24.679371 v -2.85874 q 0,-0.06511 0.04651,-0.111621 0.04651,-0.04651 0.111621,-0.04651 h 0.79375 q 0.328662,0 0.561206,0.232544 0.232544,0.232544 0.232544,0.561206 0,0.328662 -0.232544,0.561206 -0.03101,0.03101 -0.06511,0.05581 0.09612,0.05891 0.176733,0.139526 0.279053,0.279053 0.279053,0.672828 0,0.393774 -0.279053,0.672827 -0.279052,0.279053 -0.672827,0.279053 h -0.79375 q -0.06511,0 -0.111621,-0.04651 -0.04651,-0.04651 -0.04651,-0.111622 z m 1.42937,-2.22312 q 0,-0.198437 -0.139526,-0.337964 -0.139526,-0.139526 -0.337964,-0.139526 h -0.63562 v 0.95498 h 0.63562 q 0.198438,0 0.337964,-0.139526 0.139526,-0.139526 0.139526,-0.337964 z m -0.47749,0.79375 h -0.63562 v 1.27124 h 0.63562 q 0.26355,0 0.449585,-0.176733 0.186035,-0.179834 0.186035,-0.458887 0,-0.26355 -0.186035,-0.449585 -0.186035,-0.189135 -0.449585,-0.186035 z"/>
<path d="m 63.50217,24.837501 q -0.06511,0 -0.111622,-0.04651 -0.04651,-0.04651 -0.04651,-0.111621 0,-0.0186 0.0062,-0.04651 l 0.79375,-2.85564 q 0.0124,-0.04961 0.05581,-0.08061 0.04341,-0.03411 0.09612,-0.03411 0.05271,0 0.09612,0.03411 0.04341,0.03101 0.05581,0.08061 l 0.79375,2.858741 q 0.0062,0.02481 0.0062,0.04341 0,0.06511 -0.04651,0.111621 -0.04651,0.04651 -0.111621,0.04651 -0.04651,0 -0.09302,-0.03101 -0.04651,-0.03411 -0.05891,-0.08062 l -0.145724,-0.523999 h -0.992187 l -0.145728,0.523999 q -0.0124,0.04651 -0.06201,0.08062 -0.04651,0.03101 -0.08992,0.03101 z m 0.384472,-0.95188 h 0.818555 L 64.29592,22.415944 Z"/>
<path d="m 65.560959,23.724391 q 0,-0.06201 0.04651,-0.108521 0.04651,-0.04961 0.111622,-0.04961 h 0.47749 q 0.06511,0 0.111621,0.04651 0.04651,0.04651 0.04651,0.111621 0,0.06511 -0.04651,0.111621 -0.04651,0.04651 -0.111621,0.04651 h -0.47749 q -0.06511,0 -0.111622,-0.04651 -0.04651,-0.04651 -0.04651,-0.111621 z"/>
<path d="m 66.832199,24.679371 v -2.85874 q 0,-0.06511 0.04651,-0.111621 0.04651,-0.04651 0.111621,-0.04651 h 0.79375 q 0.328662,0 0.561206,0.232544 0.232544,0.232544 0.232544,0.561206 0,0.328662 -0.232544,0.561206 -0.03101,0.03101 -0.06511,0.05581 0.09612,0.05891 0.176733,0.139526 0.279053,0.279053 0.279053,0.672828 0,0.393774 -0.279053,0.672827 -0.279053,0.279053 -0.672827,0.279053 h -0.79375 q -0.06511,0 -0.111621,-0.04651 -0.04651,-0.04651 -0.04651,-0.111622 z m 1.42937,-2.22312 q 0,-0.198437 -0.139526,-0.337964 -0.139527,-0.139526 -0.337964,-0.139526 h -0.63562 v 0.95498 h 0.63562 q 0.198437,0 0.337964,-0.139526 0.139526,-0.139526 0.139526,-0.337964 z m -0.47749,0.79375 h -0.63562 v 1.27124 h 0.63562 q 0.26355,0 0.449585,-0.176733 0.186035,-0.179834 0.186035,-0.458887 0,-0.26355 -0.186035,-0.449585 -0.186035,-0.189135 -0.449585,-0.186035 z"/>
<path d="m 83.502808,24.837501 q -0.06511,0 -0.10852,-0.04651 -0.04341,-0.04651 -0.04961,-0.111621 v -2.85874 q 0,-0.06511 0.04651,-0.111621 0.04651,-0.04651 0.111621,-0.04651 0.04961,0 0.08992,0.02791 0.04031,0.02791 0.05891,0.07441 l 0.964282,2.480469 0.970483,-2.480469 q 0.0186,-0.05271 0.05891,-0.07752 0.04031,-0.0248 0.08992,-0.0248 0.06511,0 0.108521,0.04651 0.04341,0.04651 0.04341,0.111621 v 2.85874 q 0,0.06511 -0.04651,0.111621 -0.04651,0.04651 -0.111621,0.04651 -0.06511,0 -0.111621,-0.04651 -0.04651,-0.04651 -0.04651,-0.111621 v -2.037084 l -0.806152,2.092896 q -0.0186,0.04651 -0.05891,0.07441 -0.04031,0.02791 -0.08992,0.02791 -0.04961,0 -0.08992,-0.02791 -0.04031,-0.02791 -0.05891,-0.07441 l -0.806153,-2.092896 v 2.037085 q 0,0.06511 -0.04651,0.111621 -0.04651,0.04651 -0.111622,0.04651 z"/>
<path d="m 86.519679,24.679371 v -2.85874 q 0,-0.06511 0.04651,-0.111621 0.04651,-0.04651 0.111621,-0.04651 0.06511,0 0.111622,0.04651 0.04651,0.04651 0.04651,0.111621 v 2.85874 q 0,0.06511 -0.04651,0.111621 -0.04651,0.04651 -0.111622,0.04651 -0.06511,0 -0.111621,-0.04651 -0.04651,-0.04651 -0.04651,-0.111621 z"/>
<path d="m 87.629688,24.837501 q -0.06511,0 -0.111621,-0.04651 -0.04651,-0.04651 -0.04651,-0.111621 v -2.85874 q 0,-0.06511 0.04651,-0.111621 0.04651,-0.04651 0.111621,-0.04651 0.04341,0 0.08062,0.0217 0.03721,0.0217 0.05891,0.05891 l 1.289843,2.322339 v -2.244824 q 0,-0.06511 0.04651,-0.111621 0.04651,-0.04651 0.111621,-0.04651 0.06511,0 0.111621,0.04651 0.04651,0.04651 0.04651,0.111621 v 2.85874 q 0,0.06511 -0.04651,0.111621 -0.04651,0.04651 -0.111621,0.04651 -0.04341,0 -0.08061,-0.0217 -0.03721,-0.0217 -0.05891,-0.05891 l -1.289854,-2.322339 v 2.244824 q 0,0.06511 -0.04651,0.111621 -0.04651,0.04651 -0.11162,0.04651 z"/>
<path d="m 103.26783,24.837501 q -0.0651,0 -0.10852,-0.04651 -0.0434,-0.04651 -0.0496,-0.111621 v -2.85874 q 0,-0.06511 0.0465,-0.111621 0.0465,-0.04651 0.11162,-0.04651 0.0496,0 0.0899,0.02791 0.0403,0.02791 0.0589,0.07441 l 0.96428,2.480469 0.97048,-2.480469 q 0.0186,-0.05271 0.0589,-0.07752 0.0403,-0.0248 0.0899,-0.0248 0.0651,0 0.10852,0.04651 0.0434,0.04651 0.0434,0.111621 v 2.85874 q 0,0.06511 -0.0465,0.111621 -0.0465,0.04651 -0.11162,0.04651 -0.0651,0 -0.11162,-0.04651 -0.0465,-0.04651 -0.0465,-0.111621 v -2.037084 l -0.80615,2.092896 q -0.0186,0.04651 -0.0589,0.07441 -0.0403,0.02791 -0.0899,0.02791 -0.0496,0 -0.0899,-0.02791 -0.0403,-0.02791 -0.0589,-0.07441 l -0.80615,-2.092896 v 2.037085 q 0,0.06511 -0.0465,0.111621 -0.0465,0.04651 -0.11162,0.04651 z"/>
<path d="m 106.2847,24.837501 q -0.0651,0 -0.11162,-0.04651 -0.0465,-0.04651 -0.0465,-0.111621 0,-0.0186 0.006,-0.04651 l 0.79375,-2.85564 q 0.0124,-0.04961 0.0558,-0.08061 0.0434,-0.03411 0.0961,-0.03411 0.0527,0 0.0961,0.03411 0.0434,0.03101 0.0558,0.08061 l 0.79375,2.858741 q 0.006,0.02481 0.006,0.04341 0,0.06511 -0.0465,0.111621 -0.0465,0.04651 -0.11162,0.04651 -0.0465,0 -0.093,-0.03101 -0.0465,-0.03411 -0.0589,-0.08062 l -0.14573,-0.523999 h -0.99219 l -0.14572,0.523999 q -0.0124,0.04651 -0.062,0.08062 -0.0465,0.03101 -0.0899,0.03101 z m 0.38447,-0.95188 h 0.81856 l -0.40928,-1.469677 z"/>
<path d="m 108.50472,24.837501 q -0.0651,0 -0.11162,-0.04651 -0.0465,-0.04651 -0.0465,-0.111621 0,-0.04031 0.0186,-0.07751 l 0.75034,-1.351855 -0.75034,-1.351856 q -0.0186,-0.03721 -0.0186,-0.07751 0,-0.06511 0.0465,-0.111621 0.0465,-0.04651 0.11162,-0.04651 0.0434,0 0.0806,0.0217 0.0372,0.0217 0.0589,0.05891 l 0.65423,1.178223 0.65422,-1.178223 q 0.0217,-0.03721 0.0589,-0.05891 0.0372,-0.0217 0.0806,-0.0217 0.0651,0 0.11162,0.04651 0.0465,0.04651 0.0465,0.111621 0,0.04031 -0.0186,0.07751 l -0.75034,1.351856 0.75034,1.351855 q 0.0186,0.03721 0.0186,0.07751 0,0.06511 -0.0465,0.111621 -0.0465,0.04651 -0.11162,0.04651 -0.0434,0 -0.0806,-0.0217 -0.0372,-0.0217 -0.0589,-0.05891 l -0.65422,-1.178223 -0.65423,1.178223 q -0.0217,0.03721 -0.0589,0.05891 -0.0372,0.0217 -0.0806,0.0217 z"/>
<path d="m 122.31967,24.837591 q -0.5302,0 -0.90537,-0.375171 -0.0465,-0.04651 -0.0465,-0.111621 0,-0.06511 0.0465,-0.111621 0.0465,-0.04651 0.11162,-0.04651 0.0651,0 0.11162,0.04651 0.28215,0.282154 0.68213,0.282154 0.26355,0 0.44958,-0.186036 0.18604,-0.186035 0.18604,-0.449585 0,-0.139526 -0.0744,-0.254248 -0.0744,-0.117822 -0.19843,-0.176733 l -0.74725,-0.353467 q -0.18913,-0.08992 -0.30075,-0.26355 -0.10852,-0.173632 -0.10852,-0.381372 0,-0.328662 0.23254,-0.561206 0.23254,-0.232544 0.56121,-0.232544 0.43718,0 0.74724,0.310059 0.0465,0.04651 0.0465,0.111621 0,0.06511 -0.0465,0.111621 -0.0465,0.04651 -0.11162,0.04651 -0.0651,0 -0.11162,-0.04651 -0.21704,-0.217041 -0.524,-0.217041 -0.19844,0 -0.33797,0.139526 -0.13952,0.139527 -0.13952,0.337964 0,0.114722 0.062,0.213941 0.062,0.09612 0.16433,0.145727 l 0.74724,0.353467 q 0.20774,0.09922 0.33176,0.294556 0.12403,0.192236 0.12403,0.421679 0,0.393775 -0.27906,0.672828 -0.27905,0.279052 -0.67282,0.279052 z"/>
<path d="m 124.38156,24.679462 v -2.700611 h -0.63562 q -0.0651,0 -0.11162,-0.04651 -0.0465,-0.04651 -0.0465,-0.111621 0,-0.06511 0.0465,-0.111621 0.0465,-0.04651 0.11162,-0.04651 h 1.5875 q 0.0651,0 0.11162,0.04651 0.0465,0.04651 0.0465,0.111621 0,0.06511 -0.0465,0.111621 -0.0465,0.04651 -0.11162,0.04651 h -0.63562 v 2.700611 q 0,0.06511 -0.0465,0.111621 -0.0465,0.04651 -0.11162,0.04651 -0.0651,0 -0.11162,-0.04651 -0.0465,-0.04651 -0.0465,-0.111621 z"/>
<path d="m 125.96596,24.837591 q -0.0651,0 -0.11162,-0.04651 -0.0465,-0.04651 -0.0465,-0.111621 0,-0.0186 0.006,-0.04651 l 0.79375,-2.855639 q 0.0124,-0.04961 0.0558,-0.08061 0.0434,-0.03411 0.0961,-0.03411 0.0527,0 0.0961,0.03411 0.0434,0.03101 0.0558,0.08061 l 0.79375,2.85874 q 0.006,0.02481 0.006,0.04341 0,0.06511 -0.0465,0.111621 -0.0465,0.04651 -0.11162,0.04651 -0.0465,0 -0.093,-0.03101 -0.0465,-0.03411 -0.0589,-0.08061 l -0.14532,-0.523999 h -0.99219 l -0.14573,0.523999 q -0.0124,0.04651 -0.062,0.08061 -0.0465,0.03101 -0.0899,0.03101 z m 0.38447,-0.95188 h 0.81855 l -0.40927,-1.469677 z"/>
<path d="m 129.29599,24.837591 q -0.45889,0 -0.78445,-0.325561 -0.48369,-0.483692 -0.48369,-1.261939 0,-0.778247 0.48369,-1.261938 0.32556,-0.325562 0.78445,-0.325562 0.43718,0 0.74724,0.310059 0.0465,0.04651 0.0465,0.111621 0,0.06511 -0.0465,0.111621 -0.0465,0.04651 -0.11162,0.04651 -0.0651,0 -0.11163,-0.04651 -0.21704,-0.217041 -0.52399,-0.217041 -0.32867,0 -0.56121,0.232544 -0.39067,0.390674 -0.39067,1.038696 0,0.648023 0.39067,1.038697 0.23254,0.232544 0.56121,0.232544 0.26975,0 0.47749,-0.173633 v -0.781348 h -0.31626 q -0.0651,0 -0.11162,-0.04651 -0.0465,-0.04651 -0.0465,-0.111621 0,-0.06511 0.0465,-0.111621 0.0465,-0.04651 0.11162,-0.04651 h 0.47439 q 0.0651,0 0.11162,0.04651 0.0465,0.04651 0.0465,0.111621 v 1.00769 q 0,0.06511 -0.0465,0.111622 -0.31006,0.310058 -0.74724,0.310058 z"/>
<path d="m 130.72846,24.679462 v -2.858741 q 0,-0.06511 0.0465,-0.111621 0.0465,-0.04651 0.11162,-0.04651 h 1.5875 q 0.0651,-0.0031 0.11162,0.04651 0.0465,0.04651 0.0465,0.111621 0,0.06511 -0.0465,0.111621 -0.0465,0.04651 -0.11472,0.04651 h -1.42627 v 0.954981 h 1.11311 q 0.0651,0 0.11162,0.04651 0.0465,0.04651 0.0465,0.111621 0,0.06511 -0.0465,0.111621 -0.0465,0.04651 -0.11162,0.04651 h -1.11311 v 1.27124 h 1.42937 q 0.0651,0 0.11162,0.04651 0.0465,0.04651 0.0465,0.111621 0,0.06511 -0.0465,0.111621 -0.0465,0.04651 -0.11162,0.04651 h -1.5875 q -0.0651,0 -0.11162,-0.04651 -0.0465,-0.04651 -0.0465,-0.111621 z"/>
</g><g style="fill:#212121">
<path d="m 15.081869,124.67937 v -2.85874 q 0,-0.0651 0.04651,-0.11162 0.04651,-0.0465 0.111621,-0.0465 0.06511,0 0.111621,0.0465 0.04651,0.0465 0.04651,0.11162 v 2.85874 q 0,0.0651 -0.04651,0.11162 -0.04651,0.0465 -0.111621,0.0465 -0.06511,0 -0.111621,-0.0465 -0.04651,-0.0465 -0.04651,-0.11162 z"/>
<path d="m 34.766249,122.08419 q 0,-0.0651 0.04651,-0.11162 0.310059,-0.31006 0.747241,-0.31006 0.328662,0 0.561206,0.23255 0.232544,0.23254 0.232544,0.5612 0,0.32866 -0.232544,0.56121 l -0.868164,0.86816 q -0.26355,0.26355 -0.31626,0.63562 h 1.416968 q 0.06511,0 0.111621,0.0465 0.04651,0.0465 0.04651,0.11162 0,0.0651 -0.04651,0.11162 -0.04651,0.0465 -0.111621,0.0465 h -1.5875 q -0.06511,0 -0.111621,-0.0465 -0.04651,-0.0465 -0.04651,-0.11162 0,-0.59531 0.42168,-1.01699 l 0.868164,-0.86816 q 0.139526,-0.13953 0.139526,-0.33797 0,-0.19844 -0.139526,-0.33796 -0.139526,-0.13953 -0.337964,-0.13953 -0.303857,0 -0.523999,0.21704 -0.04651,0.0465 -0.111621,0.0465 -0.06511,0 -0.111621,-0.0465 -0.04651,-0.0465 -0.04651,-0.11162 z"/>
<path d="m 24.448119,95.679372 v -2.858741 q 0,-0.06511 0.04651,-0.111621 0.04651,-0.04651 0.111621,-0.04651 H 25.4 q 0.328662,0 0.561206,0.232544 0.232544,0.232543 0.232544,0.561206 0,0.328662 -0.232544,0.561206 -0.03101,0.031 -0.06511,0.05581 0.09612,0.05891 0.176733,0.139527 0.279053,0.279052 0.279053,0.672827 0,0.393774 -0.279053,0.672827 Q 25.793776,95.8375 25.400002,95.8375 H 24.60625 q -0.06511,0 -0.111621,-0.04651 -0.04651,-0.04651 -0.04651,-0.111621 z m 1.42937,-2.22312 q 0,-0.198438 -0.139526,-0.337964 -0.139527,-0.139527 -0.337964,-0.139527 h -0.63562 v 0.954981 h 0.63562 q 0.198438,0 0.337964,-0.139527 0.139526,-0.139526 0.139526,-0.337963 z m -0.47749,0.79375 h -0.63562 v 1.27124 h 0.63562 q 0.26355,0 0.449585,-0.176734 0.186035,-0.179834 0.186035,-0.458886 0,-0.26355 -0.186035,-0.449585 -0.186035,-0.189136 -0.449585,-0.186035 z"/>
<path d="m 24.606252,75.837501 q -0.06511,0 -0.111621,-0.04651 -0.04651,-0.04651 -0.04651,-0.111621 0,-0.0186 0.0062,-0.04651 l 0.79375,-2.85564 q 0.0124,-0.04961 0.05581,-0.08062 0.04341,-0.03411 0.09612,-0.03411 0.05271,0 0.09612,0.03411 0.04341,0.03101 0.05581,0.08062 l 0.793749,2.85874 q 0.0062,0.02481 0.0062,0.04341 0,0.06511 -0.04651,0.111621 -0.04651,0.04651 -0.111621,0.04651 -0.04651,0 -0.09302,-0.03101 -0.04651,-0.03411 -0.05891,-0.08062 L 25.896096,75.20188 h -0.992188 l -0.145727,0.523999 q -0.0124,0.04651 -0.06201,0.08062 -0.04651,0.03101 -0.08992,0.03101 z m 0.384472,-0.95188 h 0.818555 l -0.409277,-1.469678 z"/>
<path d="m 55.086253,121.82063 q 0,-0.0651 0.04651,-0.11162 0.04651,-0.0465 0.111621,-0.0465 h 1.27124 q 0.06511,0 0.111621,0.0465 0.04651,0.0465 0.04651,0.11162 0,0.0496 -0.03101,0.093 l -0.641821,0.89917 q 0.291455,0.0744 0.505396,0.28835 0.325561,0.32556 0.325561,0.78445 0,0.39378 -0.279053,0.67283 -0.279052,0.27905 -0.672827,0.27905 -0.5302,0 -0.905371,-0.37517 -0.04651,-0.0465 -0.04651,-0.11162 0,-0.0651 0.04651,-0.11162 0.04651,-0.0465 0.111621,-0.0465 0.06511,0 0.111621,0.0465 0.282154,0.28215 0.682129,0.28215 0.26355,0 0.449585,-0.18603 0.186035,-0.18604 0.186035,-0.44959 0,-0.32866 -0.232544,-0.5612 -0.232544,-0.23255 -0.561206,-0.23255 -0.06511,0 -0.111621,-0.0465 -0.04651,-0.0465 -0.04651,-0.11162 0,-0.0496 0.03101,-0.093 l 0.613916,-0.86196 h -0.964282 q -0.06511,0 -0.111621,-0.0465 -0.04651,-0.0465 -0.04651,-0.11162 z"/>
<path d="m 76.677493,124.83748 q -0.06511,0 -0.111621,-0.0465 -0.04651,-0.0465 -0.04651,-0.11162 v -1.11311 h -1.11311 q -0.06511,0 -0.111621,-0.0465 -0.04651,-0.0465 -0.04651,-0.11162 0,-0.10852 0.07441,-0.19534 l 1.212329,-1.49758 q 0.04341,-0.0465 0.142627,-0.0527 0.06511,0 0.111621,0.0465 0.04651,0.0465 0.04651,0.11162 v 1.42935 h 0.15813 q 0.06511,0 0.111621,0.0465 0.04651,0.0465 0.04651,0.11162 0,0.0651 -0.04651,0.11162 -0.04651,0.0465 -0.111621,0.0465 h -0.15813 v 1.11311 q 0,0.0651 -0.04651,0.11162 -0.04651,0.0465 -0.111621,0.0465 z m -0.15813,-1.5875 v -1.03249 l -0.843359,1.03249 z"/>
<path d="m 96.520001,122.7756 q 0.384472,0 0.666626,0.28526 0.285254,0.28215 0.285254,0.74414 0,0.43408 -0.300757,0.73484 -0.297657,0.29765 -0.682129,0.29765 -0.499195,0 -0.874365,-0.37517 -0.04651,-0.0465 -0.04651,-0.11162 0,-0.0651 0.04651,-0.11162 0.04651,-0.0465 0.111621,-0.0465 0.06511,0 0.111621,0.0465 0.282153,0.28215 0.651123,0.28215 0.254248,0 0.458887,-0.20464 0.207739,-0.20774 0.207739,-0.51159 0,-0.33177 -0.192237,-0.5209 -0.189135,-0.19224 -0.443383,-0.19224 -0.306958,0 -0.523999,0.21704 -0.04651,0.0465 -0.111621,0.0465 -0.06511,0 -0.111622,-0.0465 -0.04651,-0.0465 -0.04651,-0.11162 v -1.37666 q 0,-0.0651 0.04651,-0.11162 0.04651,-0.0465 0.111622,-0.0465 h 1.27124 q 0.06511,0 0.111621,0.0465 0.04651,0.0465 0.04651,0.11162 0,0.0651 -0.04651,0.11162 -0.04651,0.0465 -0.111621,0.0465 H 96.04251 v 0.90847 q 0.217041,-0.11162 0.477491,-0.11162 z"/>
<path d="m 116.91911,124.8375 q -0.39377,0 -0.67283,-0.27905 -0.43718,-0.43718 -0.43718,-1.30845 0,-0.87126 0.43718,-1.30535 0.27906,-0.28215 0.67283,-0.28215 0.43718,0 0.74724,0.31006 0.0465,0.0465 0.0465,0.11162 0,0.0651 -0.0465,0.11162 -0.0465,0.0465 -0.11162,0.0465 -0.0651,0 -0.11162,-0.0465 -0.21704,-0.21704 -0.524,-0.21704 -0.26355,0 -0.44958,0.18604 -0.34417,0.34416 -0.34417,1.0852 0,0.0558 0.003,0.10852 0.28216,-0.42478 0.79065,-0.42478 0.39378,0 0.67283,0.27905 0.27905,0.27906 0.27905,0.67283 0,0.39378 -0.27905,0.67283 -0.27905,0.27905 -0.67283,0.27905 z m 0,-0.31626 q 0.26355,0 0.44959,-0.18603 0.18603,-0.18604 0.18603,-0.44959 0,-0.26355 -0.18603,-0.44958 -0.18604,-0.18604 -0.44959,-0.18604 -0.26355,0 -0.44958,0.18604 -0.18604,0.18603 -0.18604,0.44958 0,0.26355 0.18604,0.44959 0.18603,0.18603 0.44958,0.18603 z"/>
<path d="m 137.00187,124.67936 v -0.94258 q 0,-1.00149 0.60151,-1.75803 h -1.23713 q -0.0651,0 -0.11163,-0.0465 -0.0465,-0.0465 -0.0465,-0.11162 0,-0.0651 0.0465,-0.11162 0.0465,-0.0465 0.11163,-0.0465 h 1.5875 q 0.0651,0 0.11162,0.0465 0.0465,0.0465 0.0465,0.11162 0,0.0651 -0.0465,0.11162 -0.74724,0.74724 -0.74724,1.80454 v 0.94258 q 0,0.0651 -0.0465,0.11162 -0.0465,0.0465 -0.11162,0.0465 -0.0651,0 -0.11163,-0.0465 -0.0465,-0.0465 -0.0465,-0.11162 z"/>
<path d="m 157.47999,124.83749 q -0.39378,0 -0.67283,-0.27905 -0.27905,-0.27905 -0.27905,-0.67283 0,-0.39377 0.27905,-0.67283 0.0806,-0.0806 0.17673,-0.13952 -0.0341,-0.0248 -0.0651,-0.0558 -0.23254,-0.23255 -0.23254,-0.56121 0,-0.32866 0.23254,-0.5612 0.23255,-0.23255 0.56121,-0.23255 0.32866,0 0.5612,0.23255 0.23255,0.23254 0.23255,0.5612 0,0.32866 -0.23255,0.56121 -0.031,0.031 -0.0651,0.0558 0.0961,0.0589 0.17673,0.13952 0.27906,0.27906 0.27906,0.67283 0,0.39378 -0.27906,0.67283 -0.27905,0.27905 -0.67282,0.27905 z m 0,-0.31626 q 0.26355,0 0.44958,-0.18603 0.18604,-0.18604 0.18604,-0.44959 0,-0.26355 -0.18604,-0.44958 -0.18603,-0.18604 -0.44958,-0.18604 -0.26355,0 -0.44959,0.18604 -0.18603,0.18603 -0.18603,0.44958 0,0.26355 0.18603,0.44959 0.18604,0.18603 0.44959,0.18603 z m 0,-1.5875 q 0.19844,0 0.33796,-0.13952 0.13953,-0.13953 0.13953,-0.33797 0,-0.19844 -0.13953,-0.33796 -0.13952,-0.13953 -0.33796,-0.13953 -0.19844,0 -0.33797,0.13953 -0.13952,0.13952 -0.13952,0.33796 0,0.19844 0.13952,0.33797 0.13953,0.13952 0.33797,0.13952 z"/>
<path d="m 86.915272,1.5375921 q 0.04341,0 0.08992,0.034106 0.04961,0.031006 0.06201,0.077515 l 0.641821,2.3099365 0.641821,-2.3099365 q 0.0124,-0.046509 0.05891,-0.077515 0.04651,-0.034106 0.09302,-0.034106 0.06511,0 0.111621,0.046509 0.04651,0.046509 0.04651,0.111621 0,0.018603 -0.0062,0.043408 l -0.79375,2.8587402 q -0.0124,0.049609 -0.05581,0.083716 -0.04341,0.031006 -0.09612,0.031006 -0.05271,0 -0.09612,-0.031006 -0.04341,-0.034106 -0.05581,-0.083716 l -0.79375,-2.8556397 q -0.0062,-0.027905 -0.0062,-0.046509 0,-0.065112 0.04651,-0.111621 0.04651,-0.046509 0.111621,-0.046509 z"/>
<path d="m 88.980262,3.1250921 q 0,-0.8712646 0.440283,-1.3084474 0.275953,-0.2790526 0.669727,-0.2790526 0.393774,0 0.672827,0.2790526 0.437183,0.4371827 0.437183,1.3084474 0,0.8712646 -0.437183,1.3084471 -0.279053,0.2790528 -0.672827,0.2790528 -0.393774,0 -0.672827,-0.2790528 -0.437183,-0.4371826 -0.437183,-1.3084471 z m 1.11001,-1.2712403 q -0.26355,0 -0.449585,0.1860352 -0.344165,0.3441651 -0.344165,1.0852051 0,0.74104 0.344165,1.085205 0.186035,0.1860352 0.449585,0.1860352 0.26355,0 0.449585,-0.1860351 0.344165,-0.3441651 0.344165,-1.0852051 0,-0.74104 -0.344165,-1.0852051 -0.186035,-0.1860352 -0.449585,-0.1860352 z"/>
<path d="M 91.677772,4.5544621 V 1.695722 q 0,-0.065112 0.04651,-0.1116211 0.04651,-0.046509 0.111621,-0.046509 0.06511,0 0.111621,0.046509 0.04651,0.046509 0.04651,0.1116211 v 2.7006103 h 1.42937 q 0.06511,0 0.111621,0.046509 0.04651,0.046509 0.04651,0.1116211 0,0.065112 -0.04651,0.1116212 -0.04651,0.046509 -0.111621,0.046509 h -1.5875 q -0.06511,0 -0.111621,-0.046509 -0.04651,-0.046509 -0.04651,-0.1116211 z"/>
<path d="M 94.694642,4.5544621 V 1.8538518 h -0.63562 q -0.06511,0 -0.111621,-0.046509 -0.04651,-0.046509 -0.04651,-0.111621 0,-0.065112 0.04651,-0.1116211 0.04651,-0.046509 0.111621,-0.046509 h 1.5875 q 0.06511,0 0.111621,0.046509 0.04651,0.046509 0.04651,0.1116211 0,0.065112 -0.04651,0.111621 -0.04651,0.046509 -0.111621,0.046509 h -0.63562 v 2.7006103 q 0,0.065112 -0.04651,0.1116211 -0.04651,0.046509 -0.111621,0.046509 -0.06511,0 -0.111621,-0.046509 -0.04651,-0.046509 -0.04651,-0.1116211 z"/>
<path d="m 96.279041,4.7125921 q -0.06511,0 -0.111621,-0.046509 -0.04651,-0.046509 -0.04651,-0.111621 0,-0.018603 0.0062,-0.046509 l 0.79375,-2.8556395 q 0.0124,-0.049609 0.05581,-0.080615 0.04341,-0.034106 0.09612,-0.034106 0.05271,0 0.09612,0.034106 0.04341,0.031006 0.05581,0.080615 l 0.79375,2.8587402 q 0.0062,0.024805 0.0062,0.043408 0,0.065112 -0.04651,0.1116212 -0.04651,0.046509 -0.111622,0.046509 -0.04651,0 -0.09302,-0.031006 -0.04651,-0.034106 -0.05891,-0.080615 L 97.568885,4.0769719 h -0.992187 l -0.145728,0.523999 q -0.0124,0.046509 -0.06201,0.080615 -0.04651,0.031006 -0.08992,0.031006 z m 0.384473,-0.9518799 h 0.818555 L 97.072791,2.2910345 Z"/>
<path d="m 99.609071,4.7125921 q -0.458887,0 -0.784449,-0.3255615 -0.483691,-0.4836914 -0.483691,-1.2619385 0,-0.7782471 0.483691,-1.2619386 0.325562,-0.3255614 0.784449,-0.3255614 0.437179,0 0.747239,0.3100585 0.0465,0.046509 0.0465,0.1116211 0,0.065112 -0.0465,0.1116212 -0.0465,0.046509 -0.11162,0.046509 -0.0651,0 -0.11163,-0.046509 -0.217031,-0.2170411 -0.523989,-0.2170411 -0.328663,0 -0.561206,0.232544 -0.390674,0.3906738 -0.390674,1.0386963 0,0.6480224 0.390674,1.0386962 0.232543,0.2325439 0.561206,0.2325439 0.269751,0 0.477489,-0.1736328 V 3.4413519 h -0.316259 q -0.06511,0 -0.111621,-0.046509 -0.04651,-0.046509 -0.04651,-0.1116211 0,-0.065112 0.04651,-0.1116211 0.04651,-0.046509 0.111621,-0.046509 h 0.474389 q 0.0651,0 0.11162,0.046509 0.0465,0.046509 0.0465,0.1116211 v 1.0076904 q 0,0.065112 -0.0465,0.111621 -0.31006,0.3100586 -0.747239,0.3100589 z"/>
<path d="M 101.04154,4.5544621 V 1.695722 q 0,-0.065112 0.0465,-0.1116211 0.0465,-0.046509 0.11162,-0.046509 h 1.5875 q 0.0651,-0.0031 0.11162,0.046509 0.0465,0.046509 0.0465,0.1116211 0,0.065112 -0.0465,0.111621 -0.0465,0.046509 -0.11472,0.046509 h -1.42627 v 0.9549805 h 1.11311 q 0.0651,0 0.11162,0.046509 0.0465,0.046509 0.0465,0.1116211 0,0.065112 -0.0465,0.111621 -0.0465,0.046509 -0.11162,0.046509 h -1.11311 v 1.2712402 h 1.42937 q 0.0651,0 0.11162,0.046509 0.0465,0.046509 0.0465,0.1116211 0,0.065112 -0.0465,0.1116211 -0.0465,0.046509 -0.11162,0.046509 h -1.5875 q -0.0651,0 -0.11162,-0.046509 -0.0465,-0.046509 -0.0465,-0.1116219 z"/>
<path d="m 106.1203,4.7125921 q -0.5302,0 -0.90537,-0.375171 -0.0465,-0.046509 -0.0465,-0.1116211 0,-0.065112 0.0465,-0.111621 0.0465,-0.046509 0.11162,-0.046509 0.0651,0 0.11162,0.046509 0.28215,0.2821533 0.68213,0.2821533 0.26355,0 0.44958,-0.1860351 0.18604,-0.1860352 0.18604,-0.449585 0,-0.1395264 -0.0744,-0.254248 -0.0744,-0.1178223 -0.19843,-0.1767334 L 105.73584,2.976264 q -0.18913,-0.089917 -0.30075,-0.2635498 -0.10852,-0.1736328 -0.10852,-0.3813721 0,-0.3286621 0.23254,-0.561206 0.23254,-0.232544 0.56121,-0.232544 0.43718,0 0.74724,0.3100586 0.0465,0.046509 0.0465,0.1116211 0,0.065112 -0.0465,0.1116211 -0.0465,0.046509 -0.11162,0.046509 -0.0651,0 -0.11162,-0.046509 -0.21705,-0.217041 -0.524,-0.217041 -0.19844,0 -0.33797,0.1395263 -0.13952,0.1395264 -0.13952,0.3379639 0,0.1147217 0.062,0.2139404 0.062,0.096118 0.16433,0.1457276 l 0.74724,0.3534668 q 0.20774,0.099219 0.33176,0.2945556 0.12403,0.1922363 0.12403,0.4216797 0,0.3937744 -0.27906,0.6728271 -0.27905,0.2790528 -0.67282,0.2790528 z"/>
<path d="M 107.54656,4.5544621 V 1.695722 q 0,-0.065112 0.0465,-0.1116211 0.0465,-0.046509 0.11162,-0.046509 h 1.5875 q 0.0651,-0.0031 0.11163,0.046509 0.0465,0.046509 0.0465,0.1116211 0,0.065112 -0.0465,0.111621 -0.0465,0.046509 -0.11473,0.046509 h -1.42627 v 0.9549805 h 1.11312 q 0.0651,0 0.11162,0.046509 0.0465,0.046509 0.0465,0.1116211 0,0.065112 -0.0465,0.111621 -0.0465,0.046509 -0.11162,0.046509 h -1.11312 v 1.2712402 h 1.42937 q 0.0651,0 0.11163,0.046509 0.0465,0.046509 0.0465,0.1116211 0,0.065112 -0.0465,0.1116211 -0.0465,0.046509 -0.11163,0.046509 h -1.5875 q -0.0651,0 -0.11162,-0.046509 -0.0465,-0.046509 -0.0465,-0.1116219 z"/>
<path d="m 109.78209,3.1250921 q 0,-0.8712646 0.44028,-1.3084474 0.27595,-0.2790526 0.66973,-0.2790526 0.39377,0 0.67282,0.2790526 0.43719,0.4371827 0.43719,1.3084474 0,0.7627441 -0.33487,1.1906249 l 0.12713,0.127124 q 0.0465,0.046509 0.0465,0.1116211 0,0.065112 -0.0465,0.1116211 -0.0465,0.046509 -0.11162,0.046509 -0.0651,0 -0.11162,-0.046509 L 111.444,4.5389592 q -0.24804,0.1736328 -0.5519,0.1736328 -0.39378,0 -0.67283,-0.2790528 -0.43718,-0.4371826 -0.43718,-1.3084471 z m 1.53169,0.8402588 0.12402,0.1240233 q 0.24495,-0.3410643 0.24495,-0.9642821 0,-0.74104 -0.34417,-1.0852051 -0.18603,-0.1860352 -0.44958,-0.1860352 -0.26355,0 -0.44959,0.1860352 -0.34416,0.3441651 -0.34416,1.0852051 0,0.74104 0.34416,1.085205 0.18604,0.1860352 0.44959,0.1860352 0.20774,0 0.32246,-0.086816 l -0.12092,-0.1209228 q -0.0465,-0.046509 -0.0465,-0.1116211 0,-0.065112 0.0465,-0.1116211 0.0465,-0.046509 0.11162,-0.046509 0.0651,0 0.11162,0.046509 z"/>
<path d="M 112.4734,3.7607122 V 1.695722 q 0,-0.065112 0.0465,-0.1116211 0.0465,-0.046509 0.11162,-0.046509 0.0651,0 0.11162,0.046509 0.0465,0.046509 0.0465,0.1116211 v 2.0649902 q 0,0.2635497 0.18603,0.4495849 0.18604,0.1860352 0.44959,0.1860352 0.26355,0 0.44958,-0.1860351 0.18604,-0.1860352 0.18604,-0.449585 V 1.695722 q 0,-0.065112 0.0465,-0.1116211 0.0465,-0.046509 0.11162,-0.046509 0.0651,0 0.11162,0.046509 0.0465,0.046509 0.0465,0.1116211 v 2.0649902 q 0,0.3937743 -0.27906,0.672827 -0.27905,0.2790529 -0.67282,0.2790529 -0.39378,0 -0.67283,-0.2790529 -0.27905,-0.2790526 -0.27905,-0.672827 z"/>
<path d="M 115.01278,4.5544621 V 1.695722 q 0,-0.065112 0.0465,-0.1116211 0.0465,-0.046509 0.11162,-0.046509 h 1.5875 q 0.0651,-0.0031 0.11162,0.046509 0.0465,0.046509 0.0465,0.1116211 0,0.065112 -0.0465,0.111621 -0.0465,0.046509 -0.11472,0.046509 h -1.42627 v 0.9549805 h 1.11311 q 0.0651,0 0.11162,0.046509 0.0465,0.046509 0.0465,0.1116211 0,0.065112 -0.0465,0.111621 -0.0465,0.046509 -0.11162,0.046509 h -1.11311 v 1.2712402 h 1.42937 q 0.0651,0 0.11162,0.046509 0.0465,0.046509 0.0465,0.1116211 0,0.065112 -0.0465,0.1116211 -0.0465,0.046509 -0.11162,0.046509 h -1.5875 q -0.0651,0 -0.11162,-0.046509 -0.0465,-0.046509 -0.0465,-0.1116219 z"/>
<path d="m 117.55526,4.7125921 q -0.0651,0 -0.11162,-0.046509 -0.0465,-0.046509 -0.0465,-0.111621 v -2.85874 q 0,-0.065112 0.0465,-0.1116211 0.0465,-0.046509 0.11162,-0.046509 0.0434,0 0.0806,0.021704 0.0372,0.021704 0.0589,0.058911 l 1.28985,2.3223389 V 1.695722 q 0,-0.065112 0.0465,-0.1116211 0.0465,-0.046509 0.11162,-0.046509 0.0651,0 0.11162,0.046509 0.0465,0.046509 0.0465,0.1116211 v 2.8587401 q 0,0.065112 -0.0465,0.1116212 -0.0465,0.046509 -0.11162,0.046509 -0.0434,0 -0.0806,-0.021704 -0.0372,-0.021704 -0.0589,-0.058911 l -1.28984,-2.3223388 v 2.2448242 q 0,0.065112 -0.0465,0.1116211 -0.0465,0.046509 -0.11162,0.046509 z"/>
<path d="m 121.04652,4.7125921 q -0.45889,0 -0.78445,-0.3255615 -0.48369,-0.4836914 -0.48369,-1.2619385 0,-0.7782471 0.48369,-1.2619386 0.32556,-0.3255614 0.78445,-0.3255614 0.43718,0 0.74724,0.3100585 0.0465,0.046509 0.0465,0.1116211 0,0.065112 -0.0465,0.1116212 -0.0465,0.046509 -0.11162,0.046509 -0.0651,0 -0.11162,-0.046509 -0.21705,-0.2170411 -0.524,-0.2170411 -0.32867,0 -0.56121,0.232544 -0.39067,0.3906738 -0.39067,1.0386963 0,0.6480224 0.39067,1.0386962 0.23254,0.2325439 0.56121,0.2325439 0.30695,0 0.524,-0.217041 0.0465,-0.046509 0.11162,-0.046509 0.0651,0 0.11162,0.046509 0.0465,0.046509 0.0465,0.1116211 0,0.065112 -0.0465,0.1116211 -0.31006,0.3100586 -0.74724,0.3100587 z"/>
<path d="M 122.31776,4.5544621 V 1.695722 q 0,-0.065112 0.0465,-0.1116211 0.0465,-0.046509 0.11163,-0.046509 h 1.5875 q 0.0651,-0.0031 0.11162,0.046509 0.0465,0.046509 0.0465,0.1116211 0,0.065112 -0.0465,0.111621 -0.0465,0.046509 -0.11473,0.046509 h -1.42626 v 0.9549805 h 1.11311 q 0.0651,0 0.11162,0.046509 0.0465,0.046509 0.0465,0.1116211 0,0.065112 -0.0465,0.111621 -0.0465,0.046509 -0.11162,0.046509 h -1.11311 v 1.2712402 h 1.42937 q 0.0651,0 0.11162,0.046509 0.0465,0.046509 0.0465,0.1116211 0,0.065112 -0.0465,0.1116211 -0.0465,0.046509 -0.11162,0.046509 h -1.5875 q -0.0651,0 -0.11163,-0.046509 -0.0465,-0.046509 -0.0465,-0.1116219 z"/>
<path d="m 126.28651,2.3313421 q 0,-0.1984375 -0.13953,-0.3379639 -0.13952,-0.1395263 -0.33796,-0.1395263 h -0.79375 v 0.9549804 h 0.79375 q 0.19844,0 0.33796,-0.1395263 0.13953,-0.1395265 0.13953,-0.3379639 z m 0.15813,2.38125 q -0.0465,0 -0.0868,-0.024805 -0.0372,-0.024805 -0.0589,-0.068213 l -0.66663,-1.4944824 h -0.61701 v 1.4293701 q 0,0.065112 -0.0465,0.1116211 -0.0465,0.046509 -0.11162,0.046509 -0.0651,0 -0.11162,-0.046509 -0.0465,-0.046509 -0.0465,-0.1116211 V 1.695722 q 0,-0.065112 0.0465,-0.1116211 0.0465,-0.046509 0.11162,-0.046509 h 0.95188 q 0.32866,0 0.5612,0.232544 0.23255,0.2325439 0.23255,0.5581054 0.003,0.3317627 -0.22945,0.5643067 -0.16743,0.164331 -0.39687,0.2139404 l 0.61392,1.3828612 q 0.0124,0.031006 0.0124,0.065112 0,0.065112 -0.0465,0.1116211 -0.0465,0.046509 -0.11162,0.046509 z"/>
<path d="m 173.83279,62.456337 q 0,-0.198437 -0.13952,-0.337964 -0.13953,-0.139526 -0.33797,-0.139526 h -0.79375 v 0.954981 h 0.79375 q 0.19844,0 0.33797,-0.139527 0.13952,-0.139526 0.13952,-0.337964 z m 0.15813,2.38125 q -0.0465,0 -0.0868,-0.0248 -0.0372,-0.02481 -0.0589,-0.06821 l -0.66663,-1.494483 h -0.61702 v 1.42937 q 0,0.06511 -0.0465,0.111621 -0.0465,0.04651 -0.11163,0.04651 -0.0651,0 -0.11162,-0.04651 -0.0465,-0.04651 -0.0465,-0.111621 v -2.85874 q 0,-0.06511 0.0465,-0.111621 0.0465,-0.04651 0.11162,-0.04651 h 0.95188 q 0.32867,0 0.56121,0.232544 0.23254,0.232544 0.23254,0.558106 0.003,0.331762 -0.22944,0.564306 -0.16743,0.164331 -0.39687,0.213941 l 0.61391,1.382861 q 0.0124,0.03101 0.0124,0.06511 0,0.06511 -0.0465,0.111621 -0.0465,0.04651 -0.11163,0.04651 z"/>
<path d="m 174.62654,64.679457 v -2.85874 q 0,-0.06511 0.0465,-0.111621 0.0465,-0.04651 0.11162,-0.04651 h 1.5875 q 0.0651,-0.0031 0.11162,0.04651 0.0465,0.04651 0.0465,0.111621 0,0.06511 -0.0465,0.111621 -0.0465,0.04651 -0.11472,0.04651 h -1.42627 v 0.954981 h 1.11311 q 0.0651,0 0.11163,0.04651 0.0465,0.04651 0.0465,0.111621 0,0.06511 -0.0465,0.111621 -0.0465,0.04651 -0.11163,0.04651 h -1.11311 v 1.271241 h 1.42937 q 0.0651,0 0.11162,0.04651 0.0465,0.04651 0.0465,0.111621 0,0.06511 -0.0465,0.111621 -0.0465,0.04651 -0.11162,0.04651 h -1.5875 q -0.0651,0 -0.11162,-0.04651 -0.0465,-0.04651 -0.0465,-0.111621 z"/>
<path d="m 177.8,64.8375 q -0.5302,0 -0.90537,-0.375171 -0.0465,-0.04651 -0.0465,-0.111621 0,-0.06511 0.0465,-0.111621 0.0465,-0.04651 0.11162,-0.04651 0.0651,0 0.11162,0.04651 0.28216,0.282154 0.68213,0.282154 0.26355,0 0.44959,-0.186036 0.18603,-0.186035 0.18603,-0.449585 0,-0.139526 -0.0744,-0.254248 -0.0744,-0.117822 -0.19844,-0.176733 l -0.74724,-0.353467 q -0.18913,-0.08992 -0.30076,-0.26355 -0.10852,-0.173632 -0.10852,-0.381372 0,-0.328662 0.23255,-0.561206 0.23254,-0.232544 0.5612,-0.232544 0.43719,0 0.74725,0.310059 0.0465,0.04651 0.0465,0.111621 0,0.06511 -0.0465,0.111621 -0.0465,0.04651 -0.11163,0.04651 -0.0651,0 -0.11162,-0.04651 -0.21704,-0.217041 -0.524,-0.217041 -0.19843,0 -0.33796,0.139526 -0.13953,0.139527 -0.13953,0.337964 0,0.114722 0.062,0.213941 0.062,0.09612 0.16433,0.145727 l 0.74724,0.353467 q 0.20774,0.09922 0.33176,0.294556 0.12402,0.192236 0.12402,0.421679 0,0.393775 -0.27905,0.672828 -0.27905,0.279052 -0.67283,0.279052 z"/>
<path d="m 179.22781,64.679457 v -2.85874 q 0,-0.06511 0.0465,-0.111621 0.0465,-0.04651 0.11162,-0.04651 h 1.5875 q 0.0651,-0.0031 0.11162,0.04651 0.0465,0.04651 0.0465,0.111621 0,0.06511 -0.0465,0.111621 -0.0465,0.04651 -0.11472,0.04651 h -1.42627 v 0.954981 h 1.11311 q 0.0651,0 0.11162,0.04651 0.0465,0.04651 0.0465,0.111621 0,0.06511 -0.0465,0.111621 -0.0465,0.04651 -0.11162,0.04651 h -1.11311 v 1.271241 h 1.42937 q 0.0651,0 0.11162,0.04651 0.0465,0.04651 0.0465,0.111621 0,0.06511 -0.0465,0.111621 -0.0465,0.04651 -0.11162,0.04651 h -1.5875 q -0.0651,0 -0.11162,-0.04651 -0.0465,-0.04651 -0.0465,-0.111621 z"/>
<path d="m 182.24468,64.679457 v -2.70061 h -0.63562 q -0.0651,0 -0.11162,-0.04651 -0.0465,-0.04651 -0.0465,-0.111621 0,-0.06511 0.0465,-0.111621 0.0465,-0.04651 0.11162,-0.04651 h 1.5875 q 0.0651,0 0.11162,0.04651 0.0465,0.04651 0.0465,0.111621 0,0.06511 -0.0465,0.111621 -0.0465,0.04651 -0.11162,0.04651 h -0.63562 v 2.70061 q 0,0.06511 -0.0465,0.111621 -0.0465,0.04651 -0.11162,0.04651 -0.0651,0 -0.11162,-0.04651 -0.0465,-0.04651 -0.0465,-0.111621 z"/>
<path d="m 191.37468,64.679457 v -2.85874 q 0,-0.06511 0.0465,-0.111621 0.0465,-0.04651 0.11162,-0.04651 h 0.95188 q 0.32867,0 0.56121,0.232544 0.23254,0.232544 0.23254,0.561206 0,0.328662 -0.23254,0.561206 -0.23254,0.232544 -0.56121,0.232544 h -0.79375 v 1.42937 q 0,0.06511 -0.0465,0.111621 -0.0465,0.04651 -0.11162,0.04651 -0.0651,0 -0.11162,-0.04651 -0.0465,-0.04651 -0.0465,-0.111621 z m 1.5875,-2.22312 q 0,-0.198437 -0.13952,-0.337964 -0.13953,-0.139526 -0.33797,-0.139526 h -0.79375 v 0.954981 h 0.79375 q 0.19844,0 0.33797,-0.139527 0.13952,-0.139526 0.13952,-0.337964 z"/>
<path d="m 195.34343,62.456337 q 0,-0.198437 -0.13952,-0.337964 -0.13953,-0.139526 -0.33797,-0.139526 h -0.79375 v 0.954981 h 0.79375 q 0.19844,0 0.33797,-0.139527 0.13952,-0.139526 0.13952,-0.337964 z m 0.15813,2.38125 q -0.0465,0 -0.0868,-0.0248 -0.0372,-0.02481 -0.0589,-0.06821 l -0.66663,-1.494483 h -0.61702 v 1.42937 q 0,0.06511 -0.0465,0.111621 -0.0465,0.04651 -0.11162,0.04651 -0.0651,0 -0.11162,-0.04651 -0.0465,-0.04651 -0.0465,-0.111621 v -2.85874 q 0,-0.06511 0.0465,-0.111621 0.0465,-0.04651 0.11162,-0.04651 h 0.95188 q 0.32867,0 0.56121,0.232544 0.23254,0.232544 0.23254,0.558106 0.003,0.331762 -0.22944,0.564306 -0.16743,0.164331 -0.39688,0.213941 l 0.61392,1.382861 q 0.0124,0.03101 0.0124,0.06511 0,0.06511 -0.0465,0.111621 -0.0465,0.04651 -0.11162,0.04651 z"/>
<path d="m 196.13718,64.679457 v -2.85874 q 0,-0.06511 0.0465,-0.111621 0.0465,-0.04651 0.11162,-0.04651 h 1.5875 q 0.0651,-0.0031 0.11162,0.04651 0.0465,0.04651 0.0465,0.111621 0,0.06511 -0.0465,0.111621 -0.0465,0.04651 -0.11472,0.04651 h -1.42627 v 0.954981 h 1.11311 q 0.0651,0 0.11162,0.04651 0.0465,0.04651 0.0465,0.111621 0,0.06511 -0.0465,0.111621 -0.0465,0.04651 -0.11162,0.04651 h -1.11311 v 1.271241 h 1.42937 q 0.0651,0 0.11162,0.04651 0.0465,0.04651 0.0465,0.111621 0,0.06511 -0.0465,0.111621 -0.0465,0.04651 -0.11162,0.04651 h -1.5875 q -0.0651,0 -0.11162,-0.04651 -0.0465,-0.04651 -0.0465,-0.111621 z"/>
<path d="m 199.31218,64.837587 q -0.5302,0 -0.90537,-0.375171 -0.0465,-0.04651 -0.0465,-0.111621 0,-0.06511 0.0465,-0.111621 0.0465,-0.04651 0.11162,-0.04651 0.0651,0 0.11162,0.04651 0.28216,0.282154 0.68213,0.282154 0.26355,0 0.44959,-0.186036 0.18603,-0.186035 0.18603,-0.449585 0,-0.139526 -0.0744,-0.254248 -0.0744,-0.117822 -0.19844,-0.176733 l -0.74724,-0.353467 q -0.18914,-0.08992 -0.30076,-0.26355 -0.10852,-0.173632 -0.10852,-0.381372 0,-0.328662 0.23255,-0.561206 0.23254,-0.232544 0.5612,-0.232544 0.43719,0 0.74724,0.310059 0.0465,0.04651 0.0465,0.111621 0,0.06511 -0.0465,0.111621 -0.0465,0.04651 -0.11162,0.04651 -0.0651,0 -0.11162,-0.04651 -0.21704,-0.217041 -0.524,-0.217041 -0.19843,0 -0.33796,0.139526 -0.13953,0.139527 -0.13953,0.337964 0,0.114722 0.062,0.213941 0.062,0.09612 0.16434,0.145727 l 0.74724,0.353467 q 0.20774,0.09922 0.33176,0.294556 0.12402,0.192236 0.12402,0.421679 0,0.393775 -0.27905,0.672828 -0.27905,0.279052 -0.67283,0.279052 z"/>
<path d="m 200.73845,64.679457 v -2.85874 q 0,-0.06511 0.0465,-0.111621 0.0465,-0.04651 0.11162,-0.04651 h 1.5875 q 0.0651,-0.0031 0.11162,0.04651 0.0465,0.04651 0.0465,0.111621 0,0.06511 -0.0465,0.111621 -0.0465,0.04651 -0.11472,0.04651 h -1.42627 v 0.954981 h 1.11311 q 0.0651,0 0.11162,0.04651 0.0465,0.04651 0.0465,0.111621 0,0.06511 -0.0465,0.111621 -0.0465,0.04651 -0.11162,0.04651 h -1.11311 v 1.271241 h 1.42937 q 0.0651,0 0.11162,0.04651 0.0465,0.04651 0.0465,0.111621 0,0.06511 -0.0465,0.111621 -0.0465,0.04651 -0.11162,0.04651 h -1.5875 q -0.0651,0 -0.11162,-0.04651 -0.0465,-0.04651 -0.0465,-0.111621 z"/>
<path d="m 203.75532,64.679457 v -2.70061 h -0.63562 q -0.0651,0 -0.11162,-0.04651 -0.0465,-0.04651 -0.0465,-0.111621 0,-0.06511 0.0465,-0.111621 0.0465,-0.04651 0.11162,-0.04651 h 1.5875 q 0.0651,0 0.11162,0.04651 0.0465,0.04651 0.0465,0.111621 0,0.06511 -0.0465,0.111621 -0.0465,0.04651 -0.11162,0.04651 h -0.63562 v 2.70061 q 0,0.06511 -0.0465,0.111621 -0.0465,0.04651 -0.11162,0.04651 -0.0651,0 -0.11162,-0.04651 -0.0465,-0.04651 -0.0465,-0.111621 z"/>
<path d="M 173.11656,84.679371 V 81.82063 q 0,-0.06511 0.0465,-0.111621 0.0465,-0.04651 0.11162,-0.04651 0.0651,0 0.11162,0.04651 0.0465,0.04651 0.0465,0.111621 v 1.113111 h 1.27124 V 81.82063 q 0,-0.06511 0.0465,-0.111621 0.0465,-0.04651 0.11162,-0.04651 0.0651,0 0.11162,0.04651 0.0465,0.04651 0.0465,0.111621 v 2.858741 q 0,0.06511 -0.0465,0.111621 -0.0465,0.04651 -0.11162,0.04651 -0.0651,0 -0.11162,-0.04651 -0.0465,-0.04651 -0.0465,-0.111621 v -1.42937 h -1.27124 v 1.42937 q 0,0.06511 -0.0465,0.111621 -0.0465,0.04651 -0.11162,0.04651 -0.0651,0 -0.11162,-0.04651 -0.0465,-0.04651 -0.0465,-0.111621 z"/>
<path d="m 175.50091,83.250001 q 0,-0.871265 0.44028,-1.308448 0.27595,-0.279052 0.66973,-0.279052 0.39377,0 0.67283,0.279052 0.43718,0.437183 0.43718,1.308448 0,0.871264 -0.43718,1.308447 -0.27906,0.279053 -0.67283,0.279053 -0.39378,0 -0.67283,-0.279053 -0.43718,-0.437183 -0.43718,-1.308447 z m 1.11001,-1.271241 q -0.26355,0 -0.44959,0.186035 -0.34416,0.344166 -0.34416,1.085206 0,0.74104 0.34416,1.085205 0.18604,0.186035 0.44959,0.186035 0.26355,0 0.44958,-0.186035 0.34417,-0.344165 0.34417,-1.085205 0,-0.74104 -0.34417,-1.085206 -0.18603,-0.186035 -0.44958,-0.186035 z"/>
<path d="M 178.19842,84.679371 V 81.82063 q 0,-0.06511 0.0465,-0.111621 0.0465,-0.04651 0.11162,-0.04651 0.0651,0 0.11162,0.04651 0.0465,0.04651 0.0465,0.111621 v 2.700611 h 1.42937 q 0.0651,0 0.11162,0.04651 0.0465,0.04651 0.0465,0.111621 0,0.06511 -0.0465,0.111621 -0.0465,0.04651 -0.11162,0.04651 h -1.5875 q -0.0651,0 -0.11162,-0.04651 -0.0465,-0.04651 -0.0465,-0.111621 z"/>
<path d="m 181.21529,84.837501 h -0.47749 q -0.0651,0 -0.11162,-0.04651 -0.0465,-0.04651 -0.0465,-0.111621 v -2.858741 q 0,-0.06511 0.0465,-0.111621 0.0465,-0.04651 0.11162,-0.04651 h 0.47749 q 0.45889,0 0.78445,0.325561 0.48369,0.483691 0.48369,1.261939 0,0.778247 -0.48369,1.261938 -0.32556,0.325562 -0.78445,0.325562 z m -0.31936,-0.31626 h 0.31936 q 0.32866,0 0.56121,-0.232544 0.39067,-0.390674 0.39067,-1.038696 0,-0.648023 -0.39067,-1.038697 -0.23255,-0.232544 -0.56121,-0.232544 h -0.31936 z"/>
<path d="m 189.70968,84.83759 h -0.4775 q -0.0651,0 -0.11162,-0.04651 -0.0465,-0.04651 -0.0465,-0.111621 v -2.85874 q 0,-0.06511 0.0465,-0.111621 0.0465,-0.04651 0.11162,-0.04651 h 0.4775 q 0.45888,0 0.78444,0.325562 0.48369,0.483691 0.48369,1.261938 0,0.778247 -0.48369,1.261939 -0.32556,0.325561 -0.78444,0.325561 z m -0.31937,-0.31626 h 0.31937 q 0.32866,0 0.5612,-0.232544 0.39067,-0.390673 0.39067,-1.038696 0,-0.648022 -0.39067,-1.038696 -0.23254,-0.232544 -0.5612,-0.232544 h -0.31937 z"/>
<path d="m 191.4553,84.67946 v -2.85874 q 0,-0.06511 0.0465,-0.111621 0.0465,-0.04651 0.11162,-0.04651 0.0651,0 0.11163,0.04651 0.0465,0.04651 0.0465,0.111621 v 2.85874 q 0,0.06511 -0.0465,0.111621 -0.0465,0.04651 -0.11163,0.04651 -0.0651,0 -0.11162,-0.04651 -0.0465,-0.04651 -0.0465,-0.111621 z"/>
<path d="m 193.99158,82.45634 q 0,-0.198437 -0.13952,-0.337964 -0.13953,-0.139526 -0.33797,-0.139526 h -0.79375 v 0.95498 h 0.79375 q 0.19844,0 0.33797,-0.139526 0.13952,-0.139526 0.13952,-0.337964 z m 0.15813,2.38125 q -0.0465,0 -0.0868,-0.02481 -0.0372,-0.0248 -0.0589,-0.06821 l -0.66663,-1.494483 h -0.61702 v 1.42937 q 0,0.06511 -0.0465,0.111621 -0.0465,0.04651 -0.11163,0.04651 -0.0651,0 -0.11162,-0.04651 -0.0465,-0.04651 -0.0465,-0.111621 v -2.85874 q 0,-0.06511 0.0465,-0.111621 0.0465,-0.04651 0.11162,-0.04651 h 0.95188 q 0.32867,0 0.56121,0.232544 0.23254,0.232544 0.23254,0.558106 0.003,0.331762 -0.22944,0.564306 -0.16743,0.164331 -0.39687,0.213941 l 0.61391,1.382861 q 0.0124,0.03101 0.0124,0.06511 0,0.06511 -0.0465,0.111621 -0.0465,0.04651 -0.11163,0.04651 z"/>
<path d="m 194.78533,84.67946 v -2.85874 q 0,-0.06511 0.0465,-0.111621 0.0465,-0.04651 0.11162,-0.04651 h 1.5875 q 0.0651,-0.0031 0.11162,0.04651 0.0465,0.04651 0.0465,0.111621 0,0.06511 -0.0465,0.111621 -0.0465,0.04651 -0.11472,0.04651 h -1.42627 v 0.95498 h 1.11311 q 0.0651,0 0.11163,0.04651 0.0465,0.04651 0.0465,0.111621 0,0.06511 -0.0465,0.111621 -0.0465,0.04651 -0.11163,0.04651 h -1.11311 v 1.27124 h 1.42937 q 0.0651,0 0.11162,0.04651 0.0465,0.04651 0.0465,0.111621 0,0.06511 -0.0465,0.111621 -0.0465,0.04651 -0.11162,0.04651 h -1.5875 q -0.0651,0 -0.11162,-0.04651 -0.0465,-0.04651 -0.0465,-0.111621 z"/>
<path d="m 198.27659,84.83759 q -0.45888,0 -0.78444,-0.325561 -0.4837,-0.483692 -0.4837,-1.261939 0,-0.778247 0.4837,-1.261938 0.32556,-0.325562 0.78444,-0.325562 0.43719,0 0.74725,0.310059 0.0465,0.04651 0.0465,0.111621 0,0.06511 -0.0465,0.111621 -0.0465,0.04651 -0.11163,0.04651 -0.0651,0 -0.11162,-0.04651 -0.21704,-0.217041 -0.524,-0.217041 -0.32866,0 -0.5612,0.232544 -0.39068,0.390674 -0.39068,1.038696 0,0.648023 0.39068,1.038696 0.23254,0.232544 0.5612,0.232544 0.30696,0 0.524,-0.217041 0.0465,-0.04651 0.11162,-0.04651 0.0651,0 0.11163,0.04651 0.0465,0.04651 0.0465,0.111621 0,0.06511 -0.0465,0.111621 -0.31006,0.310059 -0.74725,0.310059 z"/>
<path d="m 200.18345,84.67946 v -2.70061 h -0.63562 q -0.0651,0 -0.11162,-0.04651 -0.0465,-0.04651 -0.0465,-0.111621 0,-0.06511 0.0465,-0.111621 0.0465,-0.04651 0.11162,-0.04651 h 1.5875 q 0.0651,0 0.11162,0.04651 0.0465,0.04651 0.0465,0.111621 0,0.06511 -0.0465,0.111621 -0.0465,0.04651 -0.11162,0.04651 h -0.63562 v 2.70061 q 0,0.06511 -0.0465,0.111621 -0.0465,0.04651 -0.11162,0.04651 -0.0651,0 -0.11162,-0.04651 -0.0465,-0.04651 -0.0465,-0.111621 z"/>
<path d="m 201.76785,84.67946 v -2.85874 q 0,-0.06511 0.0465,-0.111621 0.0465,-0.04651 0.11162,-0.04651 0.0651,0 0.11162,0.04651 0.0465,0.04651 0.0465,0.111621 v 2.85874 q 0,0.06511 -0.0465,0.111621 -0.0465,0.04651 -0.11162,0.04651 -0.0651,0 -0.11162,-0.04651 -0.0465,-0.04651 -0.0465,-0.111621 z"/>
<path d="m 202.5616,83.25009 q 0,-0.871265 0.44029,-1.308447 0.27595,-0.279053 0.66972,-0.279053 0.39378,0 0.67283,0.279053 0.43718,0.437182 0.43718,1.308447 0,0.871265 -0.43718,1.308447 -0.27905,0.279053 -0.67283,0.279053 -0.39377,0 -0.67282,-0.279053 -0.43719,-0.437182 -0.43719,-1.308447 z m 1.11001,-1.27124 q -0.26355,0 -0.44958,0.186035 -0.34417,0.344165 -0.34417,1.085205 0,0.74104 0.34417,1.085205 0.18603,0.186035 0.44958,0.186035 0.26355,0 0.44959,-0.186035 0.34416,-0.344165 0.34416,-1.085205 0,-0.74104 -0.34416,-1.085205 -0.18604,-0.186035 -0.44959,-0.186035 z"/>
<path d="m 205.42034,84.83759 q -0.0651,0 -0.11162,-0.04651 -0.0465,-0.04651 -0.0465,-0.111621 v -2.85874 q 0,-0.06511 0.0465,-0.111621 0.0465,-0.04651 0.11162,-0.04651 0.0434,0 0.0806,0.0217 0.0372,0.0217 0.0589,0.05891 l 1.28984,2.322339 v -2.244824 q 0,-0.06511 0.0465,-0.111621 0.0465,-0.04651 0.11162,-0.04651 0.0651,0 0.11163,0.04651 0.0465,0.04651 0.0465,0.111621 v 2.85874 q 0,0.06511 -0.0465,0.111621 -0.0465,0.04651 -0.11163,0.04651 -0.0434,0 -0.0806,-0.0217 -0.0372,-0.0217 -0.0589,-0.05891 l -1.28985,-2.322339 v 2.244824 q 0,0.06511 -0.0465,0.111621 -0.0465,0.04651 -0.11163,0.04651 z"/>
<path d="m 173.19408,124.8375 q -0.45888,0 -0.78444,-0.32557 -0.48369,-0.48369 -0.48369,-1.26193 0,-0.77825 0.48369,-1.26194 0.32556,-0.32556 0.78444,-0.32556 0.43719,0 0.74725,0.31005 0.0465,0.0465 0.0465,0.11163 0,0.0651 -0.0465,0.11162 -0.0465,0.0465 -0.11163,0.0465 -0.0651,0 -0.11162,-0.0465 -0.21704,-0.21704 -0.524,-0.21704 -0.32866,0 -0.5612,0.23254 -0.39068,0.39067 -0.39068,1.0387 0,0.64802 0.39068,1.03869 0.23254,0.23255 0.5612,0.23255 0.30696,0 0.524,-0.21704 0.0465,-0.0465 0.11162,-0.0465 0.0651,0 0.11163,0.0465 0.0465,0.0465 0.0465,0.11162 0,0.0651 -0.0465,0.11162 -0.31006,0.31006 -0.74725,0.31006 z"/>
<path d="m 174.46532,124.67937 v -2.85874 q 0,-0.0651 0.0465,-0.11163 0.0465,-0.0465 0.11162,-0.0465 0.0651,0 0.11163,0.0465 0.0465,0.0465 0.0465,0.11163 v 2.70061 h 1.42937 q 0.0651,0 0.11163,0.0465 0.0465,0.0465 0.0465,0.11162 0,0.0651 -0.0465,0.11162 -0.0465,0.0465 -0.11163,0.0465 h -1.5875 q -0.0651,0 -0.11162,-0.0465 -0.0465,-0.0465 -0.0465,-0.11162 z"/>
<path d="m 176.69155,123.25 q 0,-0.87127 0.44028,-1.30845 0.27595,-0.27905 0.66973,-0.27905 0.39377,0 0.67282,0.27905 0.43718,0.43718 0.43718,1.30845 0,0.87126 -0.43718,1.30844 -0.27905,0.27906 -0.67282,0.27906 -0.39378,0 -0.67283,-0.27906 -0.43718,-0.43718 -0.43718,-1.30844 z m 1.11001,-1.27125 q -0.26355,0 -0.44959,0.18604 -0.34416,0.34417 -0.34416,1.08521 0,0.74104 0.34416,1.0852 0.18604,0.18604 0.44959,0.18604 0.26355,0 0.44958,-0.18604 0.34417,-0.34416 0.34417,-1.0852 0,-0.74104 -0.34417,-1.08521 -0.18603,-0.18604 -0.44958,-0.18604 z"/>
<path d="m 180.49907,124.8375 q -0.45889,0 -0.78445,-0.32557 -0.48369,-0.48369 -0.48369,-1.26193 0,-0.77825 0.48369,-1.26194 0.32556,-0.32556 0.78445,-0.32556 0.43718,0 0.74724,0.31005 0.0465,0.0465 0.0465,0.11163 0,0.0651 -0.0465,0.11162 -0.0465,0.0465 -0.11162,0.0465 -0.0651,0 -0.11163,-0.0465 -0.21704,-0.21704 -0.52399,-0.21704 -0.32867,0 -0.56121,0.23254 -0.39067,0.39067 -0.39067,1.0387 0,0.64802 0.39067,1.03869 0.23254,0.23255 0.56121,0.23255 0.30695,0 0.52399,-0.21704 0.0465,-0.0465 0.11163,-0.0465 0.0651,0 0.11162,0.0465 0.0465,0.0465 0.0465,0.11162 0,0.0651 -0.0465,0.11162 -0.31006,0.31006 -0.74724,0.31006 z"/>
<path d="m 181.7703,124.67937 v -2.85874 q 0,-0.0651 0.0465,-0.11163 0.0465,-0.0465 0.11162,-0.0465 0.0651,0 0.11163,0.0465 0.0465,0.0465 0.0465,0.11163 v 1.20612 l 1.31775,-1.31775 q 0.0465,-0.0465 0.11162,-0.0465 0.0651,0 0.11163,0.0465 0.0465,0.0465 0.0465,0.11163 0,0.0651 -0.0465,0.11162 l -1.0542,1.0542 1.0728,1.6061 q 0.0279,0.0403 0.0279,0.0868 0,0.0651 -0.0465,0.11162 -0.0465,0.0465 -0.11163,0.0465 -0.0837,0 -0.13022,-0.0713 l -1.0387,-1.55339 -0.26045,0.26045 v 1.20612 q 0,0.0651 -0.0465,0.11163 -0.0465,0.0465 -0.11163,0.0465 -0.0651,0 -0.11162,-0.0465 -0.0465,-0.0465 -0.0465,-0.11163 z"/>
<path d="m 190.97761,121.6625 q 0.0434,0 0.0899,0.0341 0.0496,0.031 0.062,0.0775 l 0.64182,2.30993 0.64182,-2.30993 q 0.0124,-0.0465 0.0589,-0.0775 0.0465,-0.0341 0.093,-0.0341 0.0651,0 0.11162,0.0465 0.0465,0.0465 0.0465,0.11162 0,0.0186 -0.006,0.0434 l -0.79375,2.85874 q -0.0124,0.0496 -0.0558,0.0837 -0.0434,0.031 -0.0961,0.031 -0.0527,0 -0.0961,-0.031 -0.0434,-0.0341 -0.0558,-0.0837 l -0.79375,-2.85564 q -0.006,-0.0279 -0.006,-0.0465 0,-0.0651 0.0465,-0.11162 0.0465,-0.0465 0.11162,-0.0465 z"/>
<path d="m 193.0395,124.67937 q 0,-0.062 0.0434,-0.10853 0.0434,-0.0496 0.11472,-0.0496 0.0651,0 0.11162,0.0496 0.0465,0.0465 0.0465,0.10853 0,0.0651 -0.0465,0.11162 -0.0465,0.0465 -0.11162,0.0465 -0.0651,0 -0.11162,-0.0465 -0.0465,-0.0465 -0.0465,-0.11162 z"/>
<path d="m 194.94016,124.8375 q -0.45889,0 -0.78445,-0.32557 -0.48369,-0.48369 -0.48369,-1.26193 0,-0.77825 0.48369,-1.26194 0.32556,-0.32556 0.78445,-0.32556 0.43718,0 0.74724,0.31005 0.0465,0.0465 0.0465,0.11162 0,0.0651 -0.0465,0.11163 -0.0465,0.0465 -0.11162,0.0465 -0.0651,0 -0.11162,-0.0465 -0.21704,-0.21705 -0.524,-0.21705 -0.32866,0 -0.5612,0.23255 -0.39068,0.39067 -0.39068,1.0387 0,0.64802 0.39068,1.03869 0.23254,0.23255 0.5612,0.23255 0.30696,0 0.524,-0.21705 0.0465,-0.0465 0.11162,-0.0465 0.0651,0 0.11162,0.0465 0.0465,0.0465 0.0465,0.11163 0,0.0651 -0.0465,0.11162 -0.31006,0.31006 -0.74724,0.31006 z"/>
<path d="m 196.2114,124.67937 v -2.85875 q 0,-0.0651 0.0465,-0.11162 0.0465,-0.0465 0.11162,-0.0465 0.0651,0 0.11162,0.0465 0.0465,0.0465 0.0465,0.11162 v 2.70062 h 1.42937 q 0.0651,0 0.11162,0.0465 0.0465,0.0465 0.0465,0.11162 0,0.0651 -0.0465,0.11162 -0.0465,0.0465 -0.11162,0.0465 h -1.5875 q -0.0651,0 -0.11162,-0.0465 -0.0465,-0.0465 -0.0465,-0.11162 z"/>
<path d="m 198.43762,123.25 q 0,-0.87127 0.44029,-1.30845 0.27595,-0.27905 0.66972,-0.27905 0.39378,0 0.67283,0.27905 0.43718,0.43718 0.43718,1.30845 0,0.87126 -0.43718,1.30844 -0.27905,0.27906 -0.67283,0.27906 -0.39377,0 -0.67283,-0.27906 -0.43718,-0.43718 -0.43718,-1.30844 z m 1.11001,-1.27125 q -0.26355,0 -0.44958,0.18604 -0.34417,0.34417 -0.34417,1.08521 0,0.74103 0.34417,1.0852 0.18603,0.18604 0.44958,0.18604 0.26355,0 0.44959,-0.18604 0.34416,-0.34417 0.34416,-1.0852 0,-0.74104 -0.34416,-1.08521 -0.18604,-0.18604 -0.44959,-0.18604 z"/>
<path d="m 202.24514,124.8375 q -0.45889,0 -0.78445,-0.32557 -0.48369,-0.48369 -0.48369,-1.26193 0,-0.77825 0.48369,-1.26194 0.32556,-0.32556 0.78445,-0.32556 0.43718,0 0.74724,0.31005 0.0465,0.0465 0.0465,0.11162 0,0.0651 -0.0465,0.11163 -0.0465,0.0465 -0.11162,0.0465 -0.0651,0 -0.11162,-0.0465 -0.21704,-0.21705 -0.524,-0.21705 -0.32866,0 -0.5612,0.23255 -0.39068,0.39067 -0.39068,1.0387 0,0.64802 0.39068,1.03869 0.23254,0.23255 0.5612,0.23255 0.30696,0 0.524,-0.21705 0.0465,-0.0465 0.11162,-0.0465 0.0651,0 0.11162,0.0465 0.0465,0.0465 0.0465,0.11163 0,0.0651 -0.0465,0.11162 -0.31006,0.31006 -0.74724,0.31006 z"/>
<path d="m 203.51638,124.67937 v -2.85875 q 0,-0.0651 0.0465,-0.11162 0.0465,-0.0465 0.11162,-0.0465 0.0651,0 0.11162,0.0465 0.0465,0.0465 0.0465,0.11162 v 1.20613 l 1.31775,-1.31775 q 0.0465,-0.0465 0.11162,-0.0465 0.0651,0 0.11162,0.0465 0.0465,0.0465 0.0465,0.11162 0,0.0651 -0.0465,0.11163 l -1.0542,1.0542 1.07281,1.6061 q 0.0279,0.0403 0.0279,0.0868 0,0.0651 -0.0465,0.11162 -0.0465,0.0465 -0.11162,0.0465 -0.0837,0 -0.13022,-0.0713 l -1.0387,-1.55339 -0.26045,0.26045 v 1.20612 q 0,0.0651 -0.0465,0.11162 -0.0465,0.0465 -0.11162,0.0465 -0.0651,0 -0.11162,-0.0465 -0.0465,-0.0465 -0.0465,-0.11162 z"/>
</g></g></svg>