<!--
    Copyright (C) 2023 Jacek Lewański

    This program is free software: you can redistribute it and/or modify
    it under the terms of the GNU General Public License as published by
    the Free Software Foundation, either version 3 of the License, or
    (at your option) any later version.

    This program is distributed in the hope that it will be useful,
    but WITHOUT ANY WARRANTY; without even the implied warranty of
    MERCHANTABILITY or FITNESS FOR A PARTICULAR PURPOSE.  See the
    GNU General Public License for more details.

    You should have received a copy of the GNU General Public License
    along with this program. If not, see <https://www.gnu.org/licenses/>.
-->
<svg width="81.28mm" height="128.5mm" viewBox="0 0 81.28 128.5" version="1.1" xmlns="http://www.w3.org/2000/svg" xmlns:svg="http://www.w3.org/2000/svg">
<rect style="fill:#cccccc" width="81.28" height="128.5" x="0" y="0"/><rect style="fill:#212121" width="81.28" height="40" x="0" y="6.25"/>
<g style="stroke-width:0.511"><g style="stroke:#212121">
<path d="m 10.16,74.25 v 40"/>
<path d="m 30.48,94.25 v 20"/>
<path d="m 40.64,46.25 0,58"/>
<path d="m 50.8,94.25 v 20"/>
<path d="m 71.12,74.25 v 40"/>
</g><g style="stroke:#cccccc"><path d="M 10.16,14.25 H 30.48"/><path d="M 50.8,14.25 H 71.12"/></g></g><g style="fill:#ffffff">
<circle cx="10.16" cy="14.25" r="5.5"/>
<circle cx="10.16" cy="54.25" r="5.5"/>
<circle cx="10.16" cy="74.25" r="5.5"/>
<circle cx="30.48" cy="74.25" r="5.5"/>
<circle cx="50.8" cy="74.25" r="5.5"/>
<circle cx="71.12" cy="14.25" r="5.5"/>
<circle cx="71.12" cy="54.25" r="5.5"/>
<circle cx="71.12" cy="74.25" r="5.5"/>
</g><g style="fill:#cc0000">
<circle cx="10.16" cy="34.25" r="5.5"/>
<circle cx="30.48" cy="54.25" r="5.5"/>
<circle cx="30.48" cy="94.25" r="5.5"/>
<circle cx="40.64" cy="34.25" r="5.5"/>
<circle cx="50.8" cy="54.25" r="5.5"/>
<circle cx="50.8" cy="94.25" r="5.5"/>
<circle cx="71.12" cy="34.25" r="5.5"/>
</g><g style="fill:#cccccc"><circle cx="30.48" cy="14.25" r="3"/><circle cx="50.8" cy="14.25" r="3"/></g><g style="fill:#212121"><circle cx="30.48" cy="104.25" r="2"/><circle cx="50.8" cy="104.25" r="2"/></g><g style="stroke-width:0.3"><g style="fill:#cccccc">
<path d="m 16.82719,23.249998 q 0,-0.871265 0.440283,-1.308448 0.275952,-0.279052 0.669727,-0.279052 0.393774,0 0.672827,0.279052 0.437182,0.437183 0.437182,1.308448 0,0.871264 -0.437182,1.308447 -0.279053,0.279053 -0.672827,0.279053 -0.393775,0 -0.672828,-0.279053 -0.437182,-0.437183 -0.437182,-1.308447 z m 1.11001,-1.271241 q -0.26355,0 -0.449585,0.186036 -0.344165,0.344165 -0.344165,1.085205 0,0.74104 0.344165,1.085205 0.186035,0.186035 0.449585,0.186035 0.263549,0 0.449585,-0.186035 0.344165,-0.344165 0.344165,-1.085205 0,-0.74104 -0.344165,-1.085205 -0.186036,-0.186036 -0.449585,-0.186036 z"/>
<path d="m 19.5278,23.885618 v -2.064991 q 0,-0.06511 0.04651,-0.111621 0.04651,-0.04651 0.111621,-0.04651 0.06511,0 0.111621,0.04651 0.04651,0.04651 0.04651,0.111621 v 2.064991 q 0,0.26355 0.186035,0.449585 0.186035,0.186035 0.449585,0.186035 0.26355,0 0.449585,-0.186035 0.186033,-0.186035 0.186033,-0.449585 v -2.064991 q 0,-0.06511 0.04651,-0.111621 0.04651,-0.04651 0.111621,-0.04651 0.06511,0 0.111621,0.04651 0.04651,0.04651 0.04651,0.111621 v 2.064991 q 0,0.393774 -0.279053,0.672827 -0.279054,0.279053 -0.672829,0.279053 -0.393774,0 -0.672827,-0.279053 Q 19.5278,24.279392 19.5278,23.885618 Z"/>
<path d="m 22.7028,24.679368 v -2.700611 h -0.63562 q -0.06511,0 -0.111621,-0.04651 -0.04651,-0.04651 -0.04651,-0.111621 0,-0.06511 0.04651,-0.111621 0.04651,-0.04651 0.111621,-0.04651 h 1.5875 q 0.06511,0 0.111621,0.04651 0.04651,0.04651 0.04651,0.111621 0,0.06511 -0.04651,0.111621 -0.04651,0.04651 -0.111621,0.04651 h -0.63562 v 2.700611 q 0,0.06511 -0.04651,0.111621 -0.04651,0.04651 -0.111621,0.04651 -0.06511,0 -0.111621,-0.04651 -0.04651,-0.04651 -0.04651,-0.111621 z"/>
<path d="m 57.46719,23.249998 q 0,-0.871265 0.440283,-1.308448 0.275952,-0.279052 0.669727,-0.279052 0.393774,0 0.672827,0.279052 0.437182,0.437183 0.437182,1.308448 0,0.871264 -0.437182,1.308447 -0.279053,0.279053 -0.672827,0.279053 -0.393775,0 -0.672828,-0.279053 -0.437182,-0.437183 -0.437182,-1.308447 z m 1.11001,-1.271241 q -0.26355,0 -0.449585,0.186036 -0.344165,0.344165 -0.344165,1.085205 0,0.74104 0.344165,1.085205 0.186035,0.186035 0.449585,0.186035 0.263549,0 0.449585,-0.186035 0.344165,-0.344165 0.344165,-1.085205 0,-0.74104 -0.344165,-1.085205 -0.186036,-0.186036 -0.449585,-0.186036 z"/>
<path d="m 60.1678,23.885618 v -2.064991 q 0,-0.06511 0.04651,-0.111621 0.04651,-0.04651 0.111621,-0.04651 0.06511,0 0.111621,0.04651 0.04651,0.04651 0.04651,0.111621 v 2.064991 q 0,0.26355 0.186035,0.449585 0.186035,0.186035 0.449585,0.186035 0.26355,0 0.449585,-0.186035 0.186033,-0.186035 0.186033,-0.449585 v -2.064991 q 0,-0.06511 0.04651,-0.111621 0.04651,-0.04651 0.111621,-0.04651 0.06511,0 0.111621,0.04651 0.04651,0.04651 0.04651,0.111621 v 2.064991 q 0,0.393774 -0.279053,0.672827 -0.279054,0.279053 -0.672829,0.279053 -0.393774,0 -0.672827,-0.279053 Q 60.1678,24.279392 60.1678,23.885618 Z"/>
<path d="m 63.3428,24.679368 v -2.700611 h -0.63562 q -0.06511,0 -0.111621,-0.04651 -0.04651,-0.04651 -0.04651,-0.111621 0,-0.06511 0.04651,-0.111621 0.04651,-0.04651 0.111621,-0.04651 h 1.5875 q 0.06511,0 0.111621,0.04651 0.04651,0.04651 0.04651,0.111621 0,0.06511 -0.04651,0.111621 -0.04651,0.04651 -0.111621,0.04651 h -0.63562 v 2.700611 q 0,0.06511 -0.04651,0.111621 -0.04651,0.04651 -0.111621,0.04651 -0.06511,0 -0.111621,-0.04651 -0.04651,-0.04651 -0.04651,-0.111621 z"/>
<path d="m 6.746255,44.67946 v -2.85874 q 0,-0.06511 0.04651,-0.111621 0.04651,-0.04651 0.111621,-0.04651 h 1.5875 q 0.06511,-0.0031 0.111621,0.04651 0.04651,0.04651 0.04651,0.111621 0,0.06511 -0.04651,0.111621 -0.04651,0.04651 -0.114722,0.04651 H 7.062516 v 0.954981 h 1.11311 q 0.06511,0 0.111621,0.04651 0.04651,0.04651 0.04651,0.111621 0,0.06511 -0.04651,0.111621 -0.04651,0.04651 -0.111621,0.04651 h -1.11311 v 1.27124 h 1.42937 q 0.06511,0 0.111621,0.04651 0.04651,0.04651 0.04651,0.111621 0,0.06511 -0.04651,0.111621 -0.04651,0.04651 -0.111621,0.04651 h -1.5875 q -0.06511,0 -0.111621,-0.04651 -0.04651,-0.04651 -0.04651,-0.111622 z"/>
<path d="m 9.288735,44.83759 q -0.06511,0 -0.111621,-0.04651 -0.04651,-0.04651 -0.04651,-0.111621 V 41.82072 q 0,-0.06511 0.04651,-0.111621 0.04651,-0.04651 0.111621,-0.04651 0.04341,0 0.08062,0.0217 0.03721,0.0217 0.05891,0.05891 l 1.289843,2.322339 V 41.82072 q 0,-0.06511 0.04651,-0.111621 0.04651,-0.04651 0.111621,-0.04651 0.06511,0 0.111621,0.04651 0.04651,0.04651 0.04651,0.111621 v 2.85874 q 0,0.06511 -0.04651,0.111621 -0.04651,0.04651 -0.111621,0.04651 -0.04341,0 -0.08062,-0.0217 -0.03721,-0.0217 -0.05891,-0.05891 L 9.446865,42.434636 v 2.244824 q 0,0.06511 -0.04651,0.111621 -0.04651,0.04651 -0.111621,0.04651 z"/>
<path d="m 12.305605,44.83759 h -0.47749 q -0.06511,0 -0.111621,-0.04651 -0.04651,-0.04651 -0.04651,-0.111621 V 41.82072 q 0,-0.06511 0.04651,-0.111621 0.04651,-0.04651 0.111621,-0.04651 h 0.47749 q 0.458887,0 0.784449,0.325561 0.483691,0.483692 0.483691,1.261939 0,0.778247 -0.483691,1.261938 -0.325562,0.325562 -0.784449,0.325562 z m -0.31936,-0.31626 h 0.31936 q 0.328662,0 0.561206,-0.232544 0.390674,-0.390673 0.390674,-1.038696 0,-0.648022 -0.390674,-1.038696 -0.232544,-0.232544 -0.561206,-0.232544 h -0.31936 z"/>
<path d="m 67.706255,44.67946 v -2.85874 q 0,-0.06511 0.04651,-0.111621 0.04651,-0.04651 0.111621,-0.04651 h 1.5875 q 0.06511,-0.0031 0.111621,0.04651 0.04651,0.04651 0.04651,0.111621 0,0.06511 -0.04651,0.111621 -0.04651,0.04651 -0.114722,0.04651 h -1.426269 v 0.954981 h 1.11311 q 0.06511,0 0.111621,0.04651 0.04651,0.04651 0.04651,0.111621 0,0.06511 -0.04651,0.111621 -0.04651,0.04651 -0.111621,0.04651 h -1.11311 v 1.27124 h 1.42937 q 0.06511,0 0.111621,0.04651 0.04651,0.04651 0.04651,0.111621 0,0.06511 -0.04651,0.111621 -0.04651,0.04651 -0.111621,0.04651 h -1.5875 q -0.06511,0 -0.111621,-0.04651 -0.04651,-0.04651 -0.04651,-0.111622 z"/>
<path d="m 70.248735,44.83759 q -0.06511,0 -0.111621,-0.04651 -0.04651,-0.04651 -0.04651,-0.111621 V 41.82072 q 0,-0.06511 0.04651,-0.111621 0.04651,-0.04651 0.111621,-0.04651 0.04341,0 0.08062,0.0217 0.03721,0.0217 0.05891,0.05891 l 1.289843,2.322339 V 41.82072 q 0,-0.06511 0.04651,-0.111621 0.04651,-0.04651 0.111621,-0.04651 0.06511,0 0.111621,0.04651 0.04651,0.04651 0.04651,0.111621 v 2.85874 q 0,0.06511 -0.04651,0.111621 -0.04651,0.04651 -0.111621,0.04651 -0.04341,0 -0.08062,-0.0217 -0.03721,-0.0217 -0.05891,-0.05891 l -1.289844,-2.322345 v 2.244824 q 0,0.06511 -0.04651,0.111621 -0.04651,0.04651 -0.111621,0.04651 z"/>
<path d="m 73.265605,44.83759 h -0.47749 q -0.06511,0 -0.111621,-0.04651 -0.04651,-0.04651 -0.04651,-0.111621 V 41.82072 q 0,-0.06511 0.04651,-0.111621 0.04651,-0.04651 0.111621,-0.04651 h 0.47749 q 0.458887,0 0.784449,0.325561 0.483691,0.483692 0.483691,1.261939 0,0.778247 -0.483691,1.261938 -0.325562,0.325562 -0.784449,0.325562 z m -0.31936,-0.31626 h 0.31936 q 0.328662,0 0.561206,-0.232544 0.390674,-0.390673 0.390674,-1.038696 0,-0.648022 -0.390674,-1.038696 -0.232544,-0.232544 -0.561206,-0.232544 h -0.31936 z"/>
<path d="m 36.827831,44.837502 q -0.458886,0 -0.784448,-0.325562 -0.483691,-0.483691 -0.483691,-1.261938 0,-0.778248 0.483691,-1.261939 0.325562,-0.325561 0.784448,-0.325561 0.437183,0 0.747241,0.310058 0.04651,0.04651 0.04651,0.111621 0,0.06511 -0.04651,0.111621 -0.04651,0.04651 -0.111621,0.04651 -0.06511,0 -0.111621,-0.04651 -0.217041,-0.217041 -0.523999,-0.217041 -0.328662,0 -0.561206,0.232544 -0.390674,0.390674 -0.390674,1.038697 0,0.648022 0.390674,1.038696 0.232544,0.232544 0.561206,0.232544 0.306958,0 0.523999,-0.217041 0.04651,-0.04651 0.111621,-0.04651 0.06511,0 0.111621,0.04651 0.04651,0.04651 0.04651,0.111621 0,0.06511 -0.04651,0.111621 -0.310058,0.310059 -0.747241,0.310059 z"/>
<path d="m 37.944042,43.250002 q 0,-0.871265 0.440283,-1.308448 0.275952,-0.279052 0.669727,-0.279052 0.393774,0 0.672827,0.279052 0.437183,0.437183 0.437183,1.308448 0,0.871264 -0.437183,1.308447 -0.279053,0.279053 -0.672827,0.279053 -0.393775,0 -0.672827,-0.279053 -0.437183,-0.437183 -0.437183,-1.308447 z m 1.11001,-1.271241 q -0.26355,0 -0.449585,0.186035 -0.344165,0.344166 -0.344165,1.085206 0,0.74104 0.344165,1.085205 0.186035,0.186035 0.449585,0.186035 0.26355,0 0.449585,-0.186035 0.344165,-0.344165 0.344165,-1.085205 0,-0.74104 -0.344165,-1.085206 -0.186035,-0.186035 -0.449585,-0.186035 z"/>
<path d="m 40.799682,44.837502 q -0.06511,0 -0.108521,-0.04651 -0.04341,-0.04651 -0.04961,-0.111621 V 41.82063 q 0,-0.06511 0.04651,-0.111621 0.04651,-0.04651 0.111621,-0.04651 0.04961,0 0.08992,0.0279 0.04031,0.0279 0.05891,0.07441 l 0.964282,2.480469 0.970483,-2.480469 q 0.0186,-0.05271 0.05891,-0.07751 0.04031,-0.0248 0.08992,-0.0248 0.06511,0 0.10852,0.04651 0.04341,0.04651 0.04341,0.111621 v 2.858741 q 0,0.06511 -0.04651,0.111621 -0.04651,0.04651 -0.111622,0.04651 -0.06511,0 -0.111621,-0.04651 -0.04651,-0.04651 -0.04651,-0.111621 v -2.037085 l -0.806153,2.092895 q -0.0186,0.04651 -0.05891,0.07441 -0.04031,0.02791 -0.08992,0.02791 -0.04961,0 -0.08992,-0.02791 -0.04031,-0.0279 -0.05891,-0.07441 l -0.806152,-2.092895 v 2.037085 q 0,0.06511 -0.04651,0.111621 -0.04651,0.04651 -0.111621,0.04651 z"/>
<path d="m 43.816552,44.679372 v -2.858741 q 0,-0.06511 0.04651,-0.111621 0.04651,-0.04651 0.111621,-0.04651 h 0.95188 q 0.328662,0 0.561206,0.232544 0.232544,0.232543 0.232544,0.561206 0,0.328662 -0.232544,0.561206 Q 45.255225,43.25 44.926563,43.25 h -0.79375 v 1.42937 q 0,0.06511 -0.04651,0.111621 -0.04651,0.04651 -0.111622,0.04651 -0.06511,0 -0.111621,-0.04651 -0.04651,-0.04651 -0.04651,-0.111621 z m 1.5875,-2.22312 q 0,-0.198438 -0.139527,-0.337964 -0.139526,-0.139527 -0.337964,-0.139527 h -0.79375 v 0.954981 h 0.79375 q 0.198438,0 0.337964,-0.139527 0.139527,-0.139526 0.139527,-0.337963 z"/>
</g><g style="fill:#212121">
<path d="m 7.384975,122.45633 q 0,-0.19844 -0.1395264,-0.33797 -0.1395264,-0.13952 -0.3379639,-0.13952 H 6.1137348 v 0.95498 h 0.7937499 q 0.1984375,0 0.3379639,-0.13953 0.1395264,-0.13953 0.1395264,-0.33796 z m 0.1581298,2.38125 q -0.04651,0 -0.086816,-0.0248 -0.037207,-0.0248 -0.058911,-0.0682 l -0.6666264,-1.4945 H 6.1137348 v 1.42937 q 0,0.0651 -0.046509,0.11162 -0.046509,0.0465 -0.1116211,0.0465 -0.065112,0 -0.1116211,-0.0465 -0.046509,-0.0465 -0.046509,-0.11162 v -2.85874 q 0,-0.0651 0.046509,-0.11162 0.046509,-0.0465 0.1116211,-0.0465 h 0.9518798 q 0.3286622,0 0.5612063,0.23254 0.232544,0.23255 0.232544,0.55811 0.0031,0.33176 -0.229443,0.5643 -0.1674323,0.16433 -0.3968756,0.21394 l 0.6139166,1.38287 q 0.0124,0.031 0.0124,0.0651 0,0.0651 -0.04651,0.11162 -0.04651,0.0465 -0.111621,0.0465 z"/>
<path d="m 8.1787248,124.83758 q -0.06511,0 -0.111621,-0.0465 -0.04651,-0.0465 -0.04651,-0.11162 0,-0.0186 0.0062,-0.0465 l 0.79375,-2.85564 q 0.0124,-0.0496 0.05581,-0.0806 0.04341,-0.0341 0.09612,-0.0341 0.05271,0 0.09612,0.0341 0.04341,0.031 0.05581,0.0806 l 0.79375,2.85874 q 0.0062,0.0248 0.0062,0.0434 0,0.0651 -0.04651,0.11162 -0.04651,0.0465 -0.111621,0.0465 -0.04651,0 -0.09302,-0.031 -0.04651,-0.0341 -0.05891,-0.0806 l -0.145727,-0.524 h -0.992188 l -0.145727,0.524 q -0.0124,0.0465 -0.06201,0.0806 -0.04651,0.031 -0.08992,0.031 z m 0.384473,-0.95188 h 0.818554 l -0.409277,-1.46968 z"/>
<path d="m 11.034365,124.67945 v -2.70061 h -0.63562 q -0.06511,0 -0.111621,-0.0465 -0.04651,-0.0465 -0.04651,-0.11162 0,-0.0651 0.04651,-0.11162 0.04651,-0.0465 0.111621,-0.0465 h 1.5875 q 0.06511,0 0.111621,0.0465 0.04651,0.0465 0.04651,0.11162 0,0.0651 -0.04651,0.11162 -0.04651,0.0465 -0.111621,0.0465 h -0.63562 v 2.70061 q 0,0.0651 -0.04651,0.11162 -0.04651,0.0465 -0.111621,0.0465 -0.06511,0 -0.111621,-0.0465 -0.04651,-0.0465 -0.04651,-0.11162 z"/>
<path d="m 12.618764,124.67945 v -2.85874 q 0,-0.0651 0.04651,-0.11162 0.04651,-0.0465 0.111621,-0.0465 h 1.5875 q 0.06511,-0.003 0.111621,0.0465 0.04651,0.0465 0.04651,0.11162 0,0.0651 -0.04651,0.11162 -0.04651,0.0465 -0.114721,0.0465 h -1.42627 v 0.95498 h 1.11311 q 0.06511,0 0.111621,0.0465 0.04651,0.0465 0.04651,0.11162 0,0.0651 -0.04651,0.11162 -0.04651,0.0465 -0.111621,0.0465 h -1.11311 v 1.27124 h 1.42937 q 0.06511,0 0.111621,0.0465 0.04651,0.0465 0.04651,0.11162 0,0.0651 -0.04651,0.11162 -0.04651,0.0465 -0.111621,0.0465 h -1.5875 q -0.06511,0 -0.111621,-0.0465 -0.04651,-0.0465 -0.04651,-0.11162 z"/>
<path d="m 68.344974,122.45633 q 0,-0.19844 -0.139526,-0.33797 -0.139527,-0.13952 -0.337964,-0.13952 h -0.79375 v 0.95498 h 0.79375 q 0.198437,0 0.337964,-0.13953 0.139526,-0.13953 0.139526,-0.33796 z m 0.15813,2.38125 q -0.04651,0 -0.08682,-0.0248 -0.03721,-0.0248 -0.05891,-0.0682 l -0.666626,-1.4945 h -0.617017 v 1.42937 q 0,0.0651 -0.04651,0.11162 -0.04651,0.0465 -0.111621,0.0465 -0.06511,0 -0.111621,-0.0465 -0.04651,-0.0465 -0.04651,-0.11162 v -2.85874 q 0,-0.0651 0.04651,-0.11162 0.04651,-0.0465 0.111621,-0.0465 h 0.95188 q 0.328662,0 0.561206,0.23254 0.232544,0.23255 0.232544,0.55811 0.0031,0.33176 -0.229443,0.5643 -0.167432,0.16433 -0.396876,0.21394 l 0.613917,1.38287 q 0.0124,0.031 0.0124,0.0651 0,0.0651 -0.04651,0.11162 -0.04651,0.0465 -0.111621,0.0465 z"/>
<path d="m 69.138724,124.83758 q -0.06511,0 -0.111621,-0.0465 -0.04651,-0.0465 -0.04651,-0.11162 0,-0.0186 0.0062,-0.0465 l 0.79375,-2.85564 q 0.0124,-0.0496 0.05581,-0.0806 0.04341,-0.0341 0.09612,-0.0341 0.05271,0 0.09612,0.0341 0.04341,0.031 0.05581,0.0806 l 0.79375,2.85874 q 0.0062,0.0248 0.0062,0.0434 0,0.0651 -0.04651,0.11162 -0.04651,0.0465 -0.111621,0.0465 -0.04651,0 -0.09302,-0.031 -0.04651,-0.0341 -0.05891,-0.0806 l -0.145727,-0.524 h -0.992188 l -0.145727,0.524 q -0.0124,0.0465 -0.06201,0.0806 -0.04651,0.031 -0.08992,0.031 z m 0.384473,-0.95188 h 0.818554 l -0.409277,-1.46968 z"/>
<path d="m 71.994364,124.67945 v -2.70061 h -0.63562 q -0.06511,0 -0.111621,-0.0465 -0.04651,-0.0465 -0.04651,-0.11162 0,-0.0651 0.04651,-0.11162 0.04651,-0.0465 0.111621,-0.0465 h 1.5875 q 0.06511,0 0.111621,0.0465 0.04651,0.0465 0.04651,0.11162 0,0.0651 -0.04651,0.11162 -0.04651,0.0465 -0.111621,0.0465 h -0.63562 v 2.70061 q 0,0.0651 -0.04651,0.11162 -0.04651,0.0465 -0.111621,0.0465 -0.06511,0 -0.111621,-0.0465 -0.04651,-0.0465 -0.04651,-0.11162 z"/>
<path d="m 73.578763,124.67945 v -2.85874 q 0,-0.0651 0.04651,-0.11162 0.04651,-0.0465 0.111621,-0.0465 h 1.5875 q 0.06511,-0.003 0.111621,0.0465 0.04651,0.0465 0.04651,0.11162 0,0.0651 -0.04651,0.11162 -0.04651,0.0465 -0.114721,0.0465 h -1.42627 v 0.95498 h 1.11311 q 0.06511,0 0.111621,0.0465 0.04651,0.0465 0.04651,0.11162 0,0.0651 -0.04651,0.11162 -0.04651,0.0465 -0.111621,0.0465 h -1.11311 v 1.27124 h 1.42937 q 0.06511,0 0.111621,0.0465 0.04651,0.0465 0.04651,0.11162 0,0.0651 -0.04651,0.11162 -0.04651,0.0465 -0.111621,0.0465 h -1.5875 q -0.06511,0 -0.111621,-0.0465 -0.04651,-0.0465 -0.04651,-0.11162 z"/>
<path d="m 8.7321822,64.679374 v -2.858741 q 0,-0.06511 0.04651,-0.111621 0.04651,-0.04651 0.111621,-0.04651 0.06511,0 0.111621,0.04651 0.04651,0.04651 0.04651,0.111621 v 2.858741 q 0,0.06511 -0.04651,0.111621 -0.04651,0.04651 -0.111621,0.04651 -0.06511,0 -0.111621,-0.04651 -0.04651,-0.04651 -0.04651,-0.111621 z"/>
<path d="m 9.8421922,64.837504 q -0.06511,0 -0.111621,-0.04651 -0.04651,-0.04651 -0.04651,-0.111621 v -2.858741 q 0,-0.06511 0.04651,-0.111621 0.04651,-0.04651 0.111621,-0.04651 0.04341,0 0.08061,0.0217 0.03721,0.0217 0.05891,0.05891 l 1.2898438,2.322339 v -2.244825 q 0,-0.06511 0.04651,-0.111621 0.04651,-0.04651 0.111621,-0.04651 0.06511,0 0.111621,0.04651 0.04651,0.04651 0.04651,0.111621 v 2.858741 q 0,0.06511 -0.04651,0.111621 -0.04651,0.04651 -0.111621,0.04651 -0.04341,0 -0.08062,-0.0217 -0.03721,-0.0217 -0.05891,-0.05891 l -1.289835,-2.322338 v 2.244825 q 0,0.06511 -0.04651,0.111621 -0.04651,0.04651 -0.111621,0.04651 z"/>
<path d="m 69.692182,64.679374 v -2.858741 q 0,-0.06511 0.04651,-0.111621 0.04651,-0.04651 0.111621,-0.04651 0.06511,0 0.111621,0.04651 0.04651,0.04651 0.04651,0.111621 v 2.858741 q 0,0.06511 -0.04651,0.111621 -0.04651,0.04651 -0.111621,0.04651 -0.06511,0 -0.111621,-0.04651 -0.04651,-0.04651 -0.04651,-0.111621 z"/>
<path d="m 70.802192,64.837504 q -0.06511,0 -0.111621,-0.04651 -0.04651,-0.04651 -0.04651,-0.111621 v -2.858741 q 0,-0.06511 0.04651,-0.111621 0.04651,-0.04651 0.111621,-0.04651 0.04341,0 0.08061,0.0217 0.03721,0.0217 0.05891,0.05891 l 1.289844,2.322339 v -2.244825 q 0,-0.06511 0.04651,-0.111621 0.04651,-0.04651 0.111621,-0.04651 0.06511,0 0.111621,0.04651 0.04651,0.04651 0.04651,0.111621 v 2.858741 q 0,0.06511 -0.04651,0.111621 -0.04651,0.04651 -0.111621,0.04651 -0.04341,0 -0.08062,-0.0217 -0.03721,-0.0217 -0.05891,-0.05891 l -1.289835,-2.322338 v 2.244825 q 0,0.06511 -0.04651,0.111621 -0.04651,0.04651 -0.111621,0.04651 z"/>
<path d="m 27.225934,64.837589 q -0.458887,0 -0.784448,-0.325561 -0.483692,-0.483692 -0.483692,-1.261939 0,-0.778247 0.483692,-1.261938 0.325561,-0.325562 0.784448,-0.325562 0.437183,0 0.747241,0.310059 0.04651,0.04651 0.04651,0.111621 0,0.06511 -0.04651,0.111621 -0.04651,0.04651 -0.111621,0.04651 -0.06511,0 -0.111621,-0.04651 -0.217041,-0.217041 -0.523999,-0.217041 -0.328662,0 -0.561206,0.232544 -0.390674,0.390674 -0.390674,1.038696 0,0.648023 0.390674,1.038696 0.232544,0.232544 0.561206,0.232544 0.269751,0 0.47749,-0.173632 v -0.781348 h -0.316259 q -0.06511,0 -0.111622,-0.04651 -0.04651,-0.04651 -0.04651,-0.111621 0,-0.06511 0.04651,-0.111621 0.04651,-0.04651 0.111622,-0.04651 h 0.474389 q 0.06511,0 0.111621,0.04651 0.04651,0.04651 0.04651,0.111621 v 1.00769 q 0,0.06511 -0.04651,0.111621 -0.310058,0.310059 -0.747241,0.31006 z"/>
<path d="m 28.658405,64.837589 q -0.06511,0 -0.111621,-0.04651 -0.04651,-0.04651 -0.04651,-0.111621 0,-0.0186 0.0062,-0.04651 l 0.79375,-2.855639 q 0.0124,-0.04961 0.05581,-0.08062 0.04341,-0.03411 0.09612,-0.03411 0.05271,0 0.09612,0.03411 0.04341,0.03101 0.05581,0.08062 l 0.79375,2.85874 q 0.0062,0.02481 0.0062,0.04341 0,0.06511 -0.04651,0.111621 -0.04651,0.04651 -0.111621,0.04651 -0.04651,0 -0.09302,-0.03101 -0.04651,-0.03411 -0.05891,-0.08062 L 29.948245,64.201961 H 28.956058 L 28.81033,64.72596 q -0.0124,0.04651 -0.06201,0.08062 -0.04651,0.03101 -0.08992,0.03101 z m 0.384472,-0.95188 h 0.818555 l -0.409277,-1.469678 z"/>
<path d="m 31.514044,64.679459 v -2.70061 h -0.63562 q -0.06511,0 -0.111621,-0.04651 -0.04651,-0.04651 -0.04651,-0.111621 0,-0.06511 0.04651,-0.111621 0.04651,-0.04651 0.111621,-0.04651 h 1.5875 q 0.06511,0 0.111621,0.04651 0.04651,0.04651 0.04651,0.111621 0,0.06511 -0.04651,0.111621 -0.04651,0.04651 -0.111621,0.04651 h -0.63562 v 2.70061 q 0,0.06511 -0.04651,0.111621 -0.04651,0.04651 -0.111621,0.04651 -0.06511,0 -0.111621,-0.04651 -0.04651,-0.04651 -0.04651,-0.111621 z"/>
<path d="m 33.098444,64.679459 v -2.85874 q 0,-0.06511 0.04651,-0.111621 0.04651,-0.04651 0.111621,-0.04651 h 1.5875 q 0.06511,-0.0031 0.111621,0.04651 0.04651,0.04651 0.04651,0.111621 0,0.06511 -0.04651,0.111621 -0.04651,0.04651 -0.114722,0.04651 h -1.426269 v 0.95498 h 1.11311 q 0.06511,0 0.111621,0.04651 0.04651,0.04651 0.04651,0.111621 0,0.06511 -0.04651,0.111621 -0.04651,0.04651 -0.111621,0.04651 h -1.11311 v 1.27124 h 1.42937 q 0.06511,0 0.111621,0.04651 0.04651,0.04651 0.04651,0.111621 0,0.06511 -0.04651,0.111621 -0.04651,0.04651 -0.111621,0.04651 h -1.5875 q -0.06511,0 -0.111621,-0.04651 -0.04651,-0.04651 -0.04651,-0.111621 z"/>
<path d="m 47.545934,64.837589 q -0.458887,0 -0.784448,-0.325561 -0.483692,-0.483692 -0.483692,-1.261939 0,-0.778247 0.483692,-1.261938 0.325561,-0.325562 0.784448,-0.325562 0.437183,0 0.747241,0.310059 0.04651,0.04651 0.04651,0.111621 0,0.06511 -0.04651,0.111621 -0.04651,0.04651 -0.111621,0.04651 -0.06511,0 -0.111621,-0.04651 -0.217041,-0.217041 -0.523999,-0.217041 -0.328662,0 -0.561206,0.232544 -0.390674,0.390674 -0.390674,1.038696 0,0.648023 0.390674,1.038696 0.232544,0.232544 0.561206,0.232544 0.269751,0 0.47749,-0.173632 v -0.781348 h -0.316259 q -0.06511,0 -0.111622,-0.04651 -0.04651,-0.04651 -0.04651,-0.111621 0,-0.06511 0.04651,-0.111621 0.04651,-0.04651 0.111622,-0.04651 h 0.474389 q 0.06511,0 0.111621,0.04651 0.04651,0.04651 0.04651,0.111621 v 1.00769 q 0,0.06511 -0.04651,0.111621 -0.310058,0.310059 -0.747241,0.31006 z"/>
<path d="m 48.978405,64.837589 q -0.06511,0 -0.111621,-0.04651 -0.04651,-0.04651 -0.04651,-0.111621 0,-0.0186 0.0062,-0.04651 l 0.79375,-2.855639 q 0.0124,-0.04961 0.05581,-0.08062 0.04341,-0.03411 0.09612,-0.03411 0.05271,0 0.09612,0.03411 0.04341,0.03101 0.05581,0.08062 l 0.79375,2.85874 q 0.0062,0.02481 0.0062,0.04341 0,0.06511 -0.04651,0.111621 -0.04651,0.04651 -0.111621,0.04651 -0.04651,0 -0.09302,-0.03101 -0.04651,-0.03411 -0.05891,-0.08062 L 50.268245,64.201961 H 49.276058 L 49.13033,64.72596 q -0.0124,0.04651 -0.06201,0.08062 -0.04651,0.03101 -0.08992,0.03101 z m 0.384472,-0.95188 h 0.818555 l -0.409277,-1.469678 z"/>
<path d="m 51.834044,64.679459 v -2.70061 h -0.63562 q -0.06511,0 -0.111621,-0.04651 -0.04651,-0.04651 -0.04651,-0.111621 0,-0.06511 0.04651,-0.111621 0.04651,-0.04651 0.111621,-0.04651 h 1.5875 q 0.06511,0 0.111621,0.04651 0.04651,0.04651 0.04651,0.111621 0,0.06511 -0.04651,0.111621 -0.04651,0.04651 -0.111621,0.04651 h -0.63562 v 2.70061 q 0,0.06511 -0.04651,0.111621 -0.04651,0.04651 -0.111621,0.04651 -0.06511,0 -0.111621,-0.04651 -0.04651,-0.04651 -0.04651,-0.111621 z"/>
<path d="m 53.418444,64.679459 v -2.85874 q 0,-0.06511 0.04651,-0.111621 0.04651,-0.04651 0.111621,-0.04651 h 1.5875 q 0.06511,-0.0031 0.111621,0.04651 0.04651,0.04651 0.04651,0.111621 0,0.06511 -0.04651,0.111621 -0.04651,0.04651 -0.114722,0.04651 h -1.426269 v 0.95498 h 1.11311 q 0.06511,0 0.111621,0.04651 0.04651,0.04651 0.04651,0.111621 0,0.06511 -0.04651,0.111621 -0.04651,0.04651 -0.111621,0.04651 h -1.11311 v 1.27124 h 1.42937 q 0.06511,0 0.111621,0.04651 0.04651,0.04651 0.04651,0.111621 0,0.06511 -0.04651,0.111621 -0.04651,0.04651 -0.111621,0.04651 h -1.5875 q -0.06511,0 -0.111621,-0.04651 -0.04651,-0.04651 -0.04651,-0.111621 z"/>
<path d="m 19.445632,75.837494 q -0.458886,0 -0.784448,-0.325562 -0.483691,-0.483691 -0.483691,-1.261938 0,-0.778247 0.483691,-1.261939 0.325562,-0.325561 0.784448,-0.325561 0.437183,0 0.747242,0.310058 0.04651,0.04651 0.04651,0.111621 0,0.06511 -0.04651,0.111621 -0.04651,0.04651 -0.111622,0.04651 -0.06511,0 -0.111621,-0.04651 -0.217041,-0.217041 -0.523999,-0.217041 -0.328662,0 -0.561206,0.232544 -0.390674,0.390674 -0.390674,1.038697 0,0.648022 0.390674,1.038696 0.232544,0.232544 0.561206,0.232544 0.306958,0 0.523999,-0.217041 0.04651,-0.04651 0.111621,-0.04651 0.06511,0 0.111622,0.04651 0.04651,0.04651 0.04651,0.111621 0,0.06511 -0.04651,0.111621 -0.310059,0.310059 -0.747242,0.310059 z"/>
<path d="m 20.716873,72.662494 q 0.04341,0 0.08992,0.03411 0.04961,0.03101 0.06201,0.07751 l 0.641822,2.309936 0.641821,-2.309936 q 0.0124,-0.04651 0.05891,-0.07751 0.04651,-0.03411 0.09302,-0.03411 0.06511,0 0.111622,0.04651 0.04651,0.04651 0.04651,0.111622 0,0.0186 -0.0062,0.04341 l -0.79375,2.85874 q -0.0124,0.04961 -0.05581,0.08372 -0.04341,0.03101 -0.09612,0.03101 -0.05271,0 -0.09612,-0.03101 -0.04341,-0.03411 -0.05581,-0.08372 l -0.79375,-2.85564 q -0.0062,-0.02791 -0.0062,-0.04651 0,-0.06511 0.04651,-0.111622 0.04651,-0.04651 0.111622,-0.04651 z"/>
<path d="m 60.085632,75.837494 q -0.458886,0 -0.784448,-0.325562 -0.483691,-0.483691 -0.483691,-1.261938 0,-0.778247 0.483691,-1.261939 0.325562,-0.325561 0.784448,-0.325561 0.437183,0 0.747242,0.310058 0.04651,0.04651 0.04651,0.111621 0,0.06511 -0.04651,0.111621 -0.04651,0.04651 -0.111622,0.04651 -0.06511,0 -0.111621,-0.04651 -0.217041,-0.217041 -0.523999,-0.217041 -0.328662,0 -0.561206,0.232544 -0.390674,0.390674 -0.390674,1.038697 0,0.648022 0.390674,1.038696 0.232544,0.232544 0.561206,0.232544 0.306958,0 0.523999,-0.217041 0.04651,-0.04651 0.111621,-0.04651 0.06511,0 0.111622,0.04651 0.04651,0.04651 0.04651,0.111621 0,0.06511 -0.04651,0.111621 -0.310059,0.310059 -0.747242,0.310059 z"/>
<path d="m 61.356873,72.662494 q 0.04341,0 0.08992,0.03411 0.04961,0.03101 0.06201,0.07751 l 0.641822,2.309936 0.641821,-2.309936 q 0.0124,-0.04651 0.05891,-0.07751 0.04651,-0.03411 0.09302,-0.03411 0.06511,0 0.111622,0.04651 0.04651,0.04651 0.04651,0.111622 0,0.0186 -0.0062,0.04341 l -0.79375,2.85874 q -0.0124,0.04961 -0.05581,0.08372 -0.04341,0.03101 -0.09612,0.03101 -0.05271,0 -0.09612,-0.03101 -0.04341,-0.03411 -0.05581,-0.08372 l -0.79375,-2.85564 q -0.0062,-0.02791 -0.0062,-0.04651 0,-0.06511 0.04651,-0.111622 0.04651,-0.04651 0.111622,-0.04651 z"/>
<path d="m 38.211464,110.81502 q -0.5302,0 -0.905371,-0.37517 -0.04651,-0.0465 -0.04651,-0.11162 0,-0.0651 0.04651,-0.11162 0.04651,-0.0465 0.111621,-0.0465 0.06511,0 0.111621,0.0465 0.282153,0.28215 0.682129,0.28215 0.26355,0 0.449585,-0.18603 0.186035,-0.18604 0.186035,-0.44959 0,-0.13952 -0.07441,-0.25425 -0.07441,-0.11782 -0.198438,-0.17673 l -0.747241,-0.35347 q -0.189136,-0.0899 -0.300757,-0.26355 -0.10852,-0.17363 -0.10852,-0.38137 0,-0.32866 0.232544,-0.5612 0.232544,-0.23255 0.561206,-0.23255 0.437182,0 0.747241,0.31006 0.04651,0.0465 0.04651,0.11162 0,0.0651 -0.04651,0.11162 -0.04651,0.0465 -0.111621,0.0465 -0.06511,0 -0.111621,-0.0465 -0.217041,-0.21704 -0.523999,-0.21704 -0.198438,0 -0.337964,0.13953 -0.139526,0.13952 -0.139526,0.33796 0,0.11472 0.06201,0.21394 0.06201,0.0961 0.164331,0.14573 l 0.747242,0.35347 q 0.207739,0.0992 0.331762,0.29455 0.124024,0.19224 0.124024,0.42168 0,0.39378 -0.279053,0.67283 -0.279053,0.27905 -0.672827,0.27905 z"/>
<path d="m 40.09352,109.57014 q -0.141077,0.12557 -0.20774,0.25114 -0.06511,0.12403 -0.06511,0.26045 0,0.22635 0.164331,0.37672 0.164331,0.15038 0.412378,0.15038 0.147278,0 0.275952,-0.0481 0.128674,-0.0496 0.241846,-0.14882 z m 0.218591,-0.17364 0.787549,0.80616 q 0.09147,-0.13798 0.142627,-0.29456 0.05116,-0.15813 0.06046,-0.33486 h 0.288355 q -0.0186,0.20464 -0.09922,0.40462 -0.08062,0.19999 -0.224793,0.39533 l 0.432532,0.44183 h -0.390672 l -0.221692,-0.22789 q -0.16123,0.13798 -0.337964,0.20619 -0.176733,0.0667 -0.379821,0.0667 -0.373621,0 -0.610816,-0.21239 -0.237195,-0.21394 -0.237195,-0.54725 0,-0.19844 0.10387,-0.37208 0.10387,-0.17518 0.311609,-0.32866 -0.07441,-0.0977 -0.113171,-0.19378 -0.03876,-0.0977 -0.03876,-0.19069 0,-0.25115 0.172083,-0.40308 0.172082,-0.15348 0.457336,-0.15348 0.128674,0 0.255799,0.0279 0.128674,0.0279 0.260449,0.0837 v 0.28215 q -0.134876,-0.0729 -0.257349,-0.11007 -0.122473,-0.0388 -0.227893,-0.0388 -0.162781,0 -0.2651,0.0868 -0.100769,0.0853 -0.100769,0.22169 0,0.0791 0.04496,0.15968 0.04651,0.0791 0.187586,0.22479 z"/>
<path d="m 42.116652,110.65689 v -2.85874 q 0,-0.0651 0.04651,-0.11162 0.04651,-0.0465 0.111621,-0.0465 0.06511,0 0.111621,0.0465 0.04651,0.0465 0.04651,0.11162 v 1.11311 h 1.27124 v -1.11311 q 0,-0.0651 0.04651,-0.11162 0.04651,-0.0465 0.111621,-0.0465 0.06511,0 0.111621,0.0465 0.04651,0.0465 0.04651,0.11162 v 2.85874 q 0,0.0651 -0.04651,0.11162 -0.04651,0.0465 -0.111621,0.0465 -0.06511,0 -0.111621,-0.0465 -0.04651,-0.0465 -0.04651,-0.11162 v -1.42937 h -1.27124 v 1.42937 q 0,0.0651 -0.04651,0.11162 -0.04651,0.0465 -0.111621,0.0465 -0.06511,0 -0.111621,-0.0465 -0.04651,-0.0465 -0.04651,-0.11162 z"/>
<path d="m 38.053334,120.65689 v -2.70061 h -0.63562 q -0.06511,0 -0.111621,-0.0465 -0.04651,-0.0465 -0.04651,-0.11162 0,-0.0651 0.04651,-0.11162 0.04651,-0.0465 0.111621,-0.0465 h 1.5875 q 0.06511,0 0.111621,0.0465 0.04651,0.0465 0.04651,0.11162 0,0.0651 -0.04651,0.11162 -0.04651,0.0465 -0.111621,0.0465 h -0.63562 v 2.70061 q 0,0.0651 -0.04651,0.11162 -0.04651,0.0465 -0.111621,0.0465 -0.06511,0 -0.111621,-0.0465 -0.04651,-0.0465 -0.04651,-0.11162 z"/>
<path d="m 40.09352,119.57014 q -0.141077,0.12557 -0.20774,0.25115 -0.06511,0.12402 -0.06511,0.26045 0,0.22634 0.164331,0.37672 0.164331,0.15037 0.412378,0.15037 0.147278,0 0.275952,-0.0481 0.128674,-0.0496 0.241846,-0.14882 z m 0.218591,-0.17363 0.787549,0.80615 q 0.09147,-0.13798 0.142627,-0.29456 0.05116,-0.15813 0.06046,-0.33486 h 0.288355 q -0.0186,0.20464 -0.09922,0.40463 -0.08062,0.19998 -0.224793,0.39532 l 0.432532,0.44183 h -0.390672 l -0.221692,-0.22789 q -0.16123,0.13798 -0.337964,0.20619 -0.176733,0.0667 -0.379821,0.0667 -0.373621,0 -0.610816,-0.21239 -0.237195,-0.21394 -0.237195,-0.54725 0,-0.19844 0.10387,-0.37207 0.10387,-0.17519 0.311609,-0.32867 -0.07441,-0.0977 -0.113171,-0.19378 -0.03876,-0.0977 -0.03876,-0.19069 0,-0.25115 0.172083,-0.40308 0.172082,-0.15347 0.457336,-0.15347 0.128674,0 0.255799,0.0279 0.128674,0.0279 0.260449,0.0837 v 0.28215 q -0.134876,-0.0729 -0.257349,-0.11007 -0.122473,-0.0388 -0.227893,-0.0388 -0.162781,0 -0.2651,0.0868 -0.100769,0.0853 -0.100769,0.22169 0,0.0791 0.04496,0.15968 0.04651,0.0791 0.187586,0.22479 z"/>
<path d="m 42.116652,120.65689 v -2.85874 q 0,-0.0651 0.04651,-0.11162 0.04651,-0.0465 0.111621,-0.0465 0.06511,0 0.111621,0.0465 0.04651,0.0465 0.04651,0.11162 v 1.11311 h 1.27124 v -1.11311 q 0,-0.0651 0.04651,-0.11162 0.04651,-0.0465 0.111621,-0.0465 0.06511,0 0.111621,0.0465 0.04651,0.0465 0.04651,0.11162 v 2.85874 q 0,0.0651 -0.04651,0.11162 -0.04651,0.0465 -0.111621,0.0465 -0.06511,0 -0.111621,-0.0465 -0.04651,-0.0465 -0.04651,-0.11162 v -1.42937 h -1.27124 v 1.42937 q 0,0.0651 -0.04651,0.11162 -0.04651,0.0465 -0.111621,0.0465 -0.06511,0 -0.111621,-0.0465 -0.04651,-0.0465 -0.04651,-0.11162 z"/>
<path d="m 6.0880361,103.11452 v 0.27096 H 4.0719639 v -0.27096 z"/>
<path d="m 67.048037,103.11452 v 0.27096 h -2.016072 v -0.27096 z"/>
<path d="m 15.370225,102.25471 v 0.86351 h 0.863513 v 0.26355 h -0.863513 v 0.86352 h -0.26045 v -0.86352 h -0.863513 v -0.26355 h 0.863513 v -0.86351 z"/>
<path d="m 76.330225,102.25471 v 0.86351 h 0.863513 v 0.26355 h -0.863513 v 0.86352 h -0.26045 v -0.86352 h -0.863513 v -0.26355 h 0.863513 v -0.86351 z"/>
<path d="m 24.609951,4.7125883 h -0.47749 q -0.06511,0 -0.111621,-0.046509 -0.04651,-0.046509 -0.04651,-0.1116211 v -2.85874 q 0,-0.065112 0.04651,-0.1116211 0.04651,-0.046509 0.111621,-0.046509 h 0.47749 q 0.458887,0 0.784449,0.3255615 0.483691,0.4836914 0.483691,1.2619384 0,0.7782471 -0.483691,1.2619385 -0.325562,0.3255615 -0.784449,0.3255618 z m -0.31936,-0.3162598 h 0.31936 q 0.328662,0 0.561206,-0.2325439 0.390674,-0.3906738 0.390674,-1.0386963 0,-0.6480224 -0.390674,-1.0386962 -0.232544,-0.232544 -0.561206,-0.232544 h -0.31936 z"/>
<path d="M 26.358682,3.7607084 V 1.6957182 q 0,-0.065112 0.04651,-0.1116211 0.04651,-0.046509 0.111621,-0.046509 0.06511,0 0.111621,0.046509 0.04651,0.046509 0.04651,0.1116211 v 2.0649902 q 0,0.2635498 0.186035,0.449585 0.186035,0.1860351 0.449585,0.1860351 0.263549,0 0.449585,-0.1860351 0.186035,-0.1860352 0.186035,-0.449585 V 1.6957182 q 0,-0.065112 0.04651,-0.1116211 0.04651,-0.046509 0.111621,-0.046509 0.06511,0 0.111621,0.046509 0.04651,0.046509 0.04651,0.1116211 v 2.0649902 q 0,0.3937744 -0.279053,0.6728272 -0.279053,0.2790527 -0.672827,0.2790527 -0.393775,0 -0.672828,-0.2790527 -0.279052,-0.2790528 -0.279052,-0.6728272 z"/>
<path d="m 28.898062,4.7125883 q -0.06511,0 -0.111621,-0.046509 -0.04651,-0.046509 -0.04651,-0.1116211 0,-0.018603 0.0062,-0.046509 L 29.539883,1.65231 q 0.0124,-0.049609 0.05581,-0.080615 0.04341,-0.034106 0.09612,-0.034106 0.05271,0 0.09612,0.034106 0.04341,0.031006 0.05581,0.080615 l 0.79375,2.8587402 q 0.0062,0.024805 0.0062,0.043408 0,0.065112 -0.04651,0.1116211 -0.04651,0.046509 -0.111621,0.046509 -0.04651,0 -0.09302,-0.031006 -0.04651,-0.034107 -0.05891,-0.080615 l -0.145728,-0.523999 h -0.992187 l -0.145728,0.523999 q -0.0124,0.046509 -0.06201,0.080615 -0.04651,0.031006 -0.08992,0.031006 z m 0.384472,-0.9518799 h 0.818555 L 29.691812,2.2910307 Z"/>
<path d="M 31.118081,4.5544584 V 1.6957182 q 0,-0.065112 0.04651,-0.1116211 0.04651,-0.046509 0.111621,-0.046509 0.06511,0 0.111621,0.046509 0.04651,0.046509 0.04651,0.1116211 v 2.7006103 h 1.42937 q 0.06511,0 0.111621,0.046509 0.04651,0.046509 0.04651,0.1116211 0,0.065112 -0.04651,0.1116211 -0.04651,0.046509 -0.111621,0.046509 h -1.5875 q -0.06511,0 -0.111621,-0.046509 -0.04651,-0.046509 -0.04651,-0.1116211 z"/>
<path d="M 35.403091,4.5544584 V 1.6957182 q 0,-0.065112 0.04651,-0.1116211 0.04651,-0.046509 0.111621,-0.046509 0.06511,0 0.111621,0.046509 0.04651,0.046509 0.04651,0.1116211 v 2.8587402 q 0,0.065112 -0.04651,0.1116211 -0.04651,0.046509 -0.111621,0.046509 -0.06511,0 -0.111621,-0.046509 -0.04651,-0.046509 -0.04651,-0.1116211 z"/>
<path d="m 36.5131,4.7125883 q -0.06511,0 -0.111621,-0.046509 -0.04651,-0.046509 -0.04651,-0.1116211 v -2.85874 q 0,-0.065112 0.04651,-0.1116211 0.04651,-0.046509 0.111621,-0.046509 0.04341,0 0.08062,0.021704 0.03721,0.021704 0.05891,0.058911 l 1.289844,2.3223388 V 1.6957182 q 0,-0.065112 0.04651,-0.1116211 0.04651,-0.046509 0.111621,-0.046509 0.06511,0 0.111621,0.046509 0.04651,0.046509 0.04651,0.1116211 v 2.8587402 q 0,0.065112 -0.04651,0.1116211 -0.04651,0.046509 -0.111621,0.046509 -0.04341,0 -0.08062,-0.021704 -0.03721,-0.021704 -0.05891,-0.058911 L 36.67123,2.3096342 v 2.2448242 q 0,0.065112 -0.04651,0.1116211 -0.04651,0.046509 -0.111622,0.046509 z"/>
<path d="M 39.529971,4.5544584 V 1.8538481 H 38.89435 q -0.06511,0 -0.111621,-0.046509 -0.04651,-0.046509 -0.04651,-0.1116211 0,-0.065112 0.04651,-0.1116211 0.04651,-0.046509 0.111621,-0.046509 h 1.5875 q 0.06511,0 0.111621,0.046509 0.04651,0.046509 0.04651,0.1116211 0,0.065112 -0.04651,0.1116211 -0.04651,0.046509 -0.111621,0.046509 h -0.63562 v 2.7006103 q 0,0.065112 -0.04651,0.1116211 -0.04651,0.046509 -0.111622,0.046509 -0.06511,0 -0.111621,-0.046509 -0.04651,-0.046509 -0.04651,-0.1116211 z"/>
<path d="M 41.114371,4.5544584 V 1.6957182 q 0,-0.065112 0.04651,-0.1116211 0.04651,-0.046509 0.111621,-0.046509 h 1.5875 q 0.06511,-0.0031 0.111621,0.046509 0.04651,0.046509 0.04651,0.1116211 0,0.065112 -0.04651,0.1116211 -0.04651,0.046509 -0.114722,0.046509 h -1.42627 v 0.9549805 h 1.113111 q 0.06511,0 0.111621,0.046509 0.04651,0.046509 0.04651,0.1116211 0,0.065112 -0.04651,0.111621 -0.04651,0.046509 -0.111621,0.046509 H 41.43063 v 1.2712402 h 1.429371 q 0.06511,0 0.111621,0.046509 0.04651,0.046509 0.04651,0.1116211 0,0.065112 -0.04651,0.1116211 -0.04651,0.046509 -0.111621,0.046509 h -1.5875 q -0.06511,0 -0.111621,-0.046509 -0.04651,-0.046509 -0.04651,-0.1116211 z"/>
<path d="m 44.605629,4.7125883 q -0.458887,0 -0.784448,-0.3255615 -0.483692,-0.4836914 -0.483692,-1.2619385 0,-0.778247 0.483692,-1.2619384 0.325561,-0.3255615 0.784448,-0.3255615 0.437183,0 0.747241,0.3100585 0.04651,0.046509 0.04651,0.1116211 0,0.065112 -0.04651,0.1116211 -0.04651,0.046509 -0.111621,0.046509 -0.06511,0 -0.111621,-0.046509 -0.217041,-0.217041 -0.523999,-0.217041 -0.328662,0 -0.561206,0.232544 -0.390674,0.3906738 -0.390674,1.0386962 0,0.6480225 0.390674,1.0386963 0.232544,0.2325439 0.561206,0.2325439 0.269751,0 0.47749,-0.1736328 V 3.4413481 h -0.31626 q -0.06511,0 -0.111621,-0.046509 -0.04651,-0.046509 -0.04651,-0.1116211 0,-0.065112 0.04651,-0.1116211 0.04651,-0.046509 0.111621,-0.046509 h 0.47439 q 0.06511,0 0.111621,0.046509 0.04651,0.046509 0.04651,0.1116211 v 1.0076904 q 0,0.065112 -0.04651,0.1116211 -0.310058,0.3100586 -0.747241,0.3100588 z"/>
<path d="m 47.6256,2.3313383 q 0,-0.1984375 -0.139527,-0.3379638 -0.139526,-0.1395264 -0.337964,-0.1395264 h -0.79375 v 0.9549805 h 0.79375 q 0.198438,0 0.337964,-0.1395264 Q 47.6256,2.5297758 47.6256,2.3313383 Z m 0.15813,2.38125 q -0.04651,0 -0.08682,-0.024805 Q 47.6597,4.6629783 47.638,4.6195703 l -0.666624,-1.494482 h -0.617017 v 1.4293701 q 0,0.065112 -0.04651,0.1116211 -0.04651,0.046509 -0.111621,0.046509 -0.06511,0 -0.111622,-0.046509 Q 46.0381,4.6195707 46.0381,4.5544584 V 1.6957182 q 0,-0.065112 0.04651,-0.1116211 0.04651,-0.046509 0.111622,-0.046509 h 0.951879 q 0.328663,0 0.561206,0.2325439 0.232544,0.2325439 0.232544,0.5581055 0.0031,0.3317627 -0.229443,0.5643066 -0.167432,0.164331 -0.396875,0.2139404 l 0.613916,1.3828613 q 0.0124,0.031006 0.0124,0.065112 0,0.065112 -0.04651,0.1116211 -0.04651,0.046509 -0.111621,0.046509 z"/>
<path d="m 48.41935,4.7125883 q -0.06511,0 -0.111621,-0.046509 -0.04651,-0.046509 -0.04651,-0.1116211 0,-0.018603 0.0062,-0.046509 L 49.061171,1.65231 q 0.0124,-0.049609 0.05581,-0.080615 0.04341,-0.034106 0.09612,-0.034106 0.05271,0 0.09612,0.034106 0.04341,0.031006 0.05581,0.080615 l 0.79375,2.8587402 q 0.0062,0.024805 0.0062,0.043408 0,0.065112 -0.04651,0.1116211 -0.04651,0.046509 -0.111621,0.046509 -0.04651,0 -0.09302,-0.031006 -0.04651,-0.034107 -0.05891,-0.080615 l -0.145727,-0.523999 h -0.992188 l -0.145727,0.523999 q -0.0124,0.046509 -0.06201,0.080615 -0.04651,0.031006 -0.08992,0.031006 z m 0.384473,-0.9518799 h 0.818554 L 49.2131,2.2910307 Z"/>
<path d="M 51.27499,4.5544584 V 1.8538481 h -0.63562 q -0.06511,0 -0.111621,-0.046509 -0.04651,-0.046509 -0.04651,-0.1116211 0,-0.065112 0.04651,-0.1116211 0.04651,-0.046509 0.111621,-0.046509 h 1.5875 q 0.06511,0 0.111621,0.046509 0.04651,0.046509 0.04651,0.1116211 0,0.065112 -0.04651,0.1116211 -0.04651,0.046509 -0.111621,0.046509 h -0.63562 v 2.7006103 q 0,0.065112 -0.04651,0.1116211 -0.04651,0.046509 -0.111621,0.046509 -0.06511,0 -0.111621,-0.046509 -0.04651,-0.046509 -0.04651,-0.1116211 z"/>
<path d="m 52.704359,3.1250883 q 0,-0.8712646 0.440284,-1.3084472 0.275952,-0.2790527 0.669726,-0.2790527 0.393775,0 0.672827,0.2790527 0.437183,0.4371826 0.437183,1.3084472 0,0.8712647 -0.437183,1.3084473 -0.279052,0.2790527 -0.672827,0.2790527 -0.393774,0 -0.672827,-0.2790527 Q 52.704359,3.996353 52.704359,3.1250883 Z m 1.11001,-1.2712402 q -0.26355,0 -0.449585,0.1860352 -0.344165,0.344165 -0.344165,1.085205 0,0.7410401 0.344165,1.0852051 0.186035,0.1860351 0.449585,0.1860351 0.26355,0 0.449585,-0.1860351 0.344165,-0.344165 0.344165,-1.0852051 0,-0.74104 -0.344165,-1.085205 -0.186035,-0.1860352 -0.449585,-0.1860352 z"/>
<path d="m 56.989369,2.3313383 q 0,-0.1984375 -0.139526,-0.3379638 -0.139527,-0.1395264 -0.337964,-0.1395264 h -0.79375 v 0.9549805 h 0.79375 q 0.198437,0 0.337964,-0.1395264 0.139526,-0.1395264 0.139526,-0.3379639 z m 0.15813,2.38125 q -0.04651,0 -0.08682,-0.024805 -0.03721,-0.024805 -0.05891,-0.068213 l -0.666623,-1.494482 h -0.617017 v 1.4293701 q 0,0.065112 -0.04651,0.1116211 -0.04651,0.046509 -0.111621,0.046509 -0.06511,0 -0.111621,-0.046509 -0.04651,-0.046509 -0.04651,-0.1116211 V 1.6957182 q 0,-0.065112 0.04651,-0.1116211 0.04651,-0.046509 0.111621,-0.046509 h 0.95188 q 0.328662,0 0.561206,0.2325439 0.232544,0.2325439 0.232544,0.5581055 0.0031,0.3317627 -0.229443,0.5643066 -0.167432,0.164331 -0.396875,0.2139404 l 0.613916,1.3828613 q 0.0124,0.031006 0.0124,0.065112 0,0.065112 -0.04651,0.1116211 -0.04651,0.046509 -0.111621,0.046509 z"/>
</g></g></svg>