<!--
    Copyright (C) 2023 Jacek Lewański

    This program is free software: you can redistribute it and/or modify
    it under the terms of the GNU General Public License as published by
    the Free Software Foundation, either version 3 of the License, or
    (at your option) any later version.

    This program is distributed in the hope that it will be useful,
    but WITHOUT ANY WARRANTY; without even the implied warranty of
    MERCHANTABILITY or FITNESS FOR A PARTICULAR PURPOSE.  See the
    GNU General Public License for more details.

    You should have received a copy of the GNU General Public License
    along with this program. If not, see <https://www.gnu.org/licenses/>.
-->
<svg width="60.96mm" height="128.5mm" viewBox="0 0 60.96 128.5" version="1.1" xmlns="http://www.w3.org/2000/svg" xmlns:svg="http://www.w3.org/2000/svg">
<rect style="fill:#cccccc" width="60.96" height="128.5" x="0" y="0"/><rect style="fill:#212121" width="60.96" height="40" x="0" y="6.25"/>
<g style="stroke:#212121;stroke-width:0.511">
<path d="M 10.16,94.25 V 114.25"/><path d="M 30.48,74.25 V 94.25 114.25"/><path d="m 50.8,74.25 v 19.75 L 50.8,114"/>
</g><circle style="fill:#cc0000" cx="10.16" cy="74.25" r="5.5"/><g style="fill:#ffffff">
<circle cx="10.16" cy="24.25" r="5.5"/>
<circle cx="10.16" cy="94.25" r="5.5"/>
<circle cx="30.48" cy="14.25" r="5.5"/>
<circle cx="30.48" cy="34.25" r="5.5"/>
<circle cx="30.48" cy="54.25" r="5.5"/>
<circle cx="30.48" cy="74.25" r="5.5"/>
<circle cx="50.8" cy="24.25" r="5.5"/>
<circle cx="50.8" cy="74.25" r="5.5"/>
</g><g style="stroke-width:0.3"><g style="fill:#212121">
<path d="m 8.4952765,4.7125895 q -0.065112,0 -0.111621,-0.046509 -0.046509,-0.046509 -0.046509,-0.1116211 v -2.85874 q 0,-0.065112 0.046509,-0.1116211 0.046509,-0.046509 0.111621,-0.046509 0.043408,0 0.080615,0.021704 0.037207,0.021704 0.058911,0.058911 L 9.9246466,3.9405436 V 1.6957194 q 0,-0.065112 0.046509,-0.1116211 0.046509,-0.046509 0.1116204,-0.046509 0.06511,0 0.111621,0.046509 0.04651,0.046509 0.04651,0.1116211 v 2.8587402 q 0,0.065112 -0.04651,0.1116211 -0.04651,0.046509 -0.111621,0.046509 -0.04341,0 -0.08061,-0.021704 -0.037212,-0.021704 -0.058916,-0.058911 L 8.6534064,2.3096355 v 2.2448241 q 0,0.065112 -0.046509,0.1116211 -0.046509,0.046509 -0.1116209,0.046509 z"/>
<path d="m 10.721497,3.1250895 q 0,-0.8712646 0.440283,-1.3084472 0.275952,-0.2790528 0.669727,-0.2790528 0.393774,0 0.672827,0.2790528 0.437183,0.4371826 0.437183,1.3084472 0,0.8712647 -0.437183,1.3084473 -0.279053,0.2790527 -0.672827,0.2790527 -0.393775,0 -0.672827,-0.2790527 -0.437183,-0.4371826 -0.437183,-1.3084473 z m 1.11001,-1.2712402 q -0.26355,0 -0.449585,0.1860352 -0.344165,0.344165 -0.344165,1.085205 0,0.7410401 0.344165,1.0852051 0.186035,0.1860352 0.449585,0.1860352 0.26355,0 0.449585,-0.1860352 0.344165,-0.344165 0.344165,-1.0852051 0,-0.74104 -0.344165,-1.085205 -0.186035,-0.1860352 -0.449585,-0.1860352 z"/>
<path d="m 13.580237,4.7125895 q -0.06511,0 -0.111621,-0.046509 -0.04651,-0.046509 -0.04651,-0.1116211 v -2.85874 q 0,-0.065112 0.04651,-0.1116211 0.04651,-0.046509 0.111621,-0.046509 0.04341,0 0.08062,0.021704 0.03721,0.021704 0.05891,0.058911 L 15.00961,3.9405435 V 1.6957194 q 0,-0.065112 0.04651,-0.1116211 0.04651,-0.046509 0.111621,-0.046509 0.06511,0 0.111621,0.046509 0.04651,0.046509 0.04651,0.1116211 v 2.8587402 q 0,0.065112 -0.04651,0.1116211 -0.04651,0.046509 -0.111621,0.046509 -0.04341,0 -0.08061,-0.021704 -0.03721,-0.021704 -0.05891,-0.058911 L 13.738367,2.3096355 v 2.2448241 q 0,0.065112 -0.04651,0.1116211 -0.04651,0.046509 -0.111621,0.046509 z"/>
<path d="M 15.961487,4.5544596 V 1.6957194 q 0,-0.065112 0.04651,-0.1116211 0.04651,-0.046509 0.111621,-0.046509 0.06511,0 0.111621,0.046509 0.04651,0.046509 0.04651,0.1116211 v 2.7006104 h 1.42937 q 0.06511,0 0.111621,0.046509 0.04651,0.046509 0.04651,0.1116211 0,0.065112 -0.04651,0.1116211 -0.04651,0.046509 -0.111621,0.046509 h -1.5875 q -0.06511,0 -0.111621,-0.046509 -0.04651,-0.046509 -0.04651,-0.1116211 z"/>
<path d="M 18.342738,4.5544596 V 1.6957194 q 0,-0.065112 0.04651,-0.1116211 0.04651,-0.046509 0.111622,-0.046509 0.06511,0 0.111621,0.046509 0.04651,0.046509 0.04651,0.1116211 v 2.8587402 q 0,0.065112 -0.04651,0.1116211 -0.04651,0.046509 -0.111621,0.046509 -0.06511,0 -0.111622,-0.046509 -0.04651,-0.046509 -0.04651,-0.1116211 z"/>
<path d="m 19.452747,4.7125895 q -0.06511,0 -0.111621,-0.046509 -0.04651,-0.046509 -0.04651,-0.1116211 v -2.85874 q 0,-0.065112 0.04651,-0.1116211 0.04651,-0.046509 0.111621,-0.046509 0.04341,0 0.08061,0.021704 0.03721,0.021704 0.05891,0.058911 L 20.88211,3.9405435 V 1.6957194 q 0,-0.065112 0.04651,-0.1116211 0.04651,-0.046509 0.111621,-0.046509 0.06511,0 0.111621,0.046509 0.04651,0.046509 0.04651,0.1116211 v 2.8587402 q 0,0.065112 -0.04651,0.1116211 -0.04651,0.046509 -0.111621,0.046509 -0.04341,0 -0.08061,-0.021704 -0.03721,-0.021704 -0.05891,-0.058911 L 19.610877,2.3096355 v 2.2448241 q 0,0.065112 -0.04651,0.1116211 -0.04651,0.046509 -0.111621,0.046509 z"/>
<path d="M 21.833997,4.5544596 V 1.6957194 q 0,-0.065112 0.04651,-0.1116211 0.04651,-0.046509 0.111621,-0.046509 h 1.5875 q 0.06511,-0.0031 0.111621,0.046509 0.04651,0.046509 0.04651,0.1116211 0,0.065112 -0.04651,0.1116211 -0.04651,0.046509 -0.114721,0.046509 h -1.42627 V 2.80883 h 1.11311 q 0.06511,0 0.111621,0.046509 0.04651,0.046509 0.04651,0.1116211 0,0.065112 -0.04651,0.1116211 -0.04651,0.046509 -0.111621,0.046509 h -1.11311 v 1.2712403 h 1.42937 q 0.06511,0 0.111621,0.046509 0.04651,0.046509 0.04651,0.1116211 0,0.065112 -0.04651,0.1116211 -0.04651,0.046509 -0.111621,0.046509 h -1.5875 q -0.06511,0 -0.111621,-0.046509 -0.04651,-0.046509 -0.04651,-0.1116221 z"/>
<path d="m 24.215247,4.7125895 q -0.06511,0 -0.111621,-0.046509 -0.04651,-0.046509 -0.04651,-0.1116211 0,-0.018604 0.0062,-0.046509 l 0.79375,-2.8556396 q 0.0124,-0.049609 0.05581,-0.080615 0.04341,-0.034106 0.09612,-0.034106 0.05271,0 0.09612,0.034106 0.04341,0.031006 0.05581,0.080615 l 0.79375,2.8587402 q 0.0062,0.024805 0.0062,0.043408 0,0.065112 -0.04651,0.1116211 -0.04651,0.046509 -0.111621,0.046509 -0.04651,0 -0.09302,-0.031006 -0.04651,-0.034107 -0.05891,-0.080615 L 25.505087,4.0769691 H 24.5129 l -0.145728,0.523999 q -0.0124,0.046509 -0.06201,0.080615 -0.04651,0.031006 -0.08992,0.031006 z m 0.384472,-0.9518799 h 0.818555 L 25.008997,2.2910319 Z"/>
<path d="m 28.022767,2.3313396 q 0,-0.1984375 -0.139526,-0.3379639 -0.139527,-0.1395264 -0.337964,-0.1395264 h -0.79375 v 0.9549805 h 0.79375 q 0.198437,0 0.337964,-0.1395264 0.139526,-0.1395263 0.139526,-0.3379638 z m 0.15813,2.3812499 q -0.04651,0 -0.08682,-0.024805 -0.03721,-0.024805 -0.05891,-0.068213 l -0.666624,-1.494482 h -0.617016 v 1.4293701 q 0,0.065112 -0.04651,0.1116211 -0.04651,0.046509 -0.111621,0.046509 -0.06511,0 -0.111621,-0.046509 -0.04651,-0.046509 -0.04651,-0.1116211 V 1.6957194 q 0,-0.065112 0.04651,-0.1116211 0.04651,-0.046509 0.111621,-0.046509 h 0.95188 q 0.328662,0 0.561206,0.232544 0.232544,0.2325439 0.232544,0.5581055 0.0031,0.3317627 -0.229444,0.5643066 -0.167431,0.1643311 -0.396875,0.2139404 l 0.613916,1.3828613 q 0.0124,0.031006 0.0124,0.065112 0,0.065112 -0.04651,0.1116211 -0.04651,0.046509 -0.111621,0.046509 z"/>
<path d="M 30.720276,4.5544596 V 1.6957194 q 0,-0.065112 0.04651,-0.1116211 0.04651,-0.046509 0.111621,-0.046509 0.06511,0 0.111621,0.046509 0.04651,0.046509 0.04651,0.1116211 v 2.8587402 q 0,0.065112 -0.04651,0.1116211 -0.04651,0.046509 -0.111621,0.046509 -0.06511,0 -0.111621,-0.046509 -0.04651,-0.046509 -0.04651,-0.1116211 z"/>
<path d="m 31.830285,4.7125895 q -0.06511,0 -0.111621,-0.046509 -0.04651,-0.046509 -0.04651,-0.1116211 v -2.85874 q 0,-0.065112 0.04651,-0.1116211 0.04651,-0.046509 0.111621,-0.046509 0.04341,0 0.08061,0.021704 0.03721,0.021704 0.05891,0.058911 l 1.289844,2.3223388 V 1.6957194 q 0,-0.065112 0.04651,-0.1116211 0.04651,-0.046509 0.111621,-0.046509 0.06511,0 0.111621,0.046509 0.04651,0.046509 0.04651,0.1116211 v 2.8587402 q 0,0.065112 -0.04651,0.1116211 -0.04651,0.046509 -0.111621,0.046509 -0.04341,0 -0.08062,-0.021704 -0.03721,-0.021704 -0.05891,-0.058911 L 31.988415,2.3096355 v 2.2448241 q 0,0.065112 -0.04651,0.1116211 -0.04651,0.046509 -0.111621,0.046509 z"/>
<path d="M 34.847155,4.5544596 V 1.8538493 h -0.63562 q -0.06511,0 -0.111621,-0.046509 -0.04651,-0.046509 -0.04651,-0.1116211 0,-0.065112 0.04651,-0.1116211 0.04651,-0.046509 0.111621,-0.046509 h 1.5875 q 0.06511,0 0.111621,0.046509 0.04651,0.046509 0.04651,0.1116211 0,0.065112 -0.04651,0.1116211 -0.04651,0.046509 -0.111621,0.046509 h -0.63562 v 2.7006103 q 0,0.065112 -0.04651,0.1116211 -0.04651,0.046509 -0.111621,0.046509 -0.06511,0 -0.111621,-0.046509 -0.04651,-0.046509 -0.04651,-0.1116211 z"/>
<path d="M 36.431555,4.5544596 V 1.6957194 q 0,-0.065112 0.04651,-0.1116211 0.04651,-0.046509 0.111621,-0.046509 h 1.5875 q 0.06511,-0.0031 0.111621,0.046509 0.04651,0.046509 0.04651,0.1116211 0,0.065112 -0.04651,0.1116211 -0.04651,0.046509 -0.114721,0.046509 h -1.42627 V 2.80883 h 1.11311 q 0.06511,0 0.111621,0.046509 0.04651,0.046509 0.04651,0.1116211 0,0.065112 -0.04651,0.1116211 -0.04651,0.046509 -0.111621,0.046509 h -1.11311 v 1.2712403 h 1.42937 q 0.06511,0 0.111621,0.046509 0.04651,0.046509 0.04651,0.1116211 0,0.065112 -0.04651,0.1116211 -0.04651,0.046509 -0.111621,0.046509 h -1.5875 q -0.06511,0 -0.111621,-0.046509 -0.04651,-0.046509 -0.04651,-0.1116221 z"/>
<path d="m 39.922815,4.7125895 q -0.458886,0 -0.784448,-0.3255615 -0.483691,-0.4836914 -0.483691,-1.2619385 0,-0.778247 0.483691,-1.2619384 0.325562,-0.3255616 0.784448,-0.3255616 0.437183,0 0.747242,0.3100587 0.04651,0.046509 0.04651,0.111621 0,0.065112 -0.04651,0.1116211 -0.04651,0.046509 -0.111621,0.046509 -0.06511,0 -0.111622,-0.046509 -0.217041,-0.217041 -0.523999,-0.217041 -0.328662,0 -0.561206,0.232544 -0.390673,0.3906738 -0.390673,1.0386962 0,0.6480225 0.390673,1.0386963 0.232544,0.232544 0.561206,0.232544 0.269751,0 0.477491,-0.1736329 V 3.4413493 h -0.31626 q -0.06511,0 -0.111621,-0.046509 -0.04651,-0.046509 -0.04651,-0.1116211 0,-0.065112 0.04651,-0.1116211 0.04651,-0.046509 0.111621,-0.046509 h 0.47439 q 0.06511,0 0.111621,0.046509 0.04651,0.046509 0.04651,0.1116211 v 1.0076904 q 0,0.065112 -0.04651,0.1116211 -0.310059,0.3100586 -0.747242,0.3100588 z"/>
<path d="m 42.942786,2.3313396 q 0,-0.1984375 -0.139526,-0.3379639 -0.139527,-0.1395264 -0.337964,-0.1395264 h -0.79375 v 0.9549805 h 0.79375 q 0.198437,0 0.337964,-0.1395264 0.139526,-0.1395263 0.139526,-0.3379638 z m 0.15813,2.3812499 q -0.04651,0 -0.08682,-0.024805 -0.03721,-0.024805 -0.05891,-0.068213 l -0.666624,-1.494482 h -0.617016 v 1.4293701 q 0,0.065112 -0.04651,0.1116211 -0.04651,0.046509 -0.111621,0.046509 -0.06511,0 -0.111621,-0.046509 -0.04651,-0.046509 -0.04651,-0.1116211 V 1.6957194 q 0,-0.065112 0.04651,-0.1116211 0.04651,-0.046509 0.111621,-0.046509 h 0.95188 q 0.328662,0 0.561206,0.232544 0.232544,0.2325439 0.232544,0.5581055 0.0031,0.3317627 -0.229444,0.5643066 -0.167431,0.1643311 -0.396874,0.2139404 l 0.613916,1.3828613 q 0.0124,0.031006 0.0124,0.065112 0,0.065112 -0.04651,0.1116211 -0.04651,0.046509 -0.111621,0.046509 z"/>
<path d="m 43.736535,4.7125895 q -0.06511,0 -0.111622,-0.046509 -0.04651,-0.046509 -0.04651,-0.1116211 0,-0.018604 0.0062,-0.046509 l 0.79375,-2.8556396 q 0.0124,-0.049609 0.05581,-0.080615 0.04341,-0.034106 0.09612,-0.034106 0.05271,0 0.09612,0.034106 0.04341,0.031006 0.05581,0.080615 l 0.79375,2.8587402 q 0.0062,0.024805 0.0062,0.043408 0,0.065112 -0.04651,0.1116211 -0.04651,0.046509 -0.111621,0.046509 -0.04651,0 -0.09302,-0.031006 -0.04651,-0.034107 -0.05891,-0.080615 l -0.145728,-0.523999 h -0.992187 l -0.145728,0.523999 q -0.0124,0.046509 -0.06201,0.080615 -0.04651,0.031006 -0.08992,0.031006 z m 0.384472,-0.9518799 h 0.818555 L 44.530285,2.2910319 Z"/>
<path d="M 46.592175,4.5544596 V 1.8538493 h -0.63562 q -0.06511,0 -0.111621,-0.046509 -0.04651,-0.046509 -0.04651,-0.1116211 0,-0.065112 0.04651,-0.1116211 0.04651,-0.046509 0.111621,-0.046509 h 1.5875 q 0.06511,0 0.111621,0.046509 0.04651,0.046509 0.04651,0.1116211 0,0.065112 -0.04651,0.1116211 -0.04651,0.046509 -0.111621,0.046509 h -0.63562 v 2.7006103 q 0,0.065112 -0.04651,0.1116211 -0.04651,0.046509 -0.111621,0.046509 -0.06511,0 -0.111621,-0.046509 -0.04651,-0.046509 -0.04651,-0.1116211 z"/>
<path d="m 48.021546,3.1250895 q 0,-0.8712646 0.440283,-1.3084472 0.275952,-0.2790528 0.669727,-0.2790528 0.393774,0 0.672827,0.2790528 0.437182,0.4371826 0.437182,1.3084472 0,0.8712647 -0.437182,1.3084473 -0.279053,0.2790527 -0.672827,0.2790527 -0.393775,0 -0.672828,-0.2790527 -0.437182,-0.4371826 -0.437182,-1.3084473 z m 1.11001,-1.2712402 q -0.26355,0 -0.449585,0.1860352 -0.344165,0.344165 -0.344165,1.085205 0,0.7410401 0.344165,1.0852051 0.186035,0.1860352 0.449585,0.1860352 0.263549,0 0.449585,-0.1860352 0.344165,-0.344165 0.344165,-1.0852051 0,-0.74104 -0.344165,-1.085205 -0.186036,-0.1860352 -0.449585,-0.1860352 z"/>
<path d="m 52.306556,2.3313396 q 0,-0.1984375 -0.139527,-0.3379639 -0.139526,-0.1395264 -0.337964,-0.1395264 h -0.79375 v 0.9549805 h 0.79375 q 0.198438,0 0.337964,-0.1395264 0.139527,-0.1395263 0.139527,-0.3379638 z m 0.15813,2.3812499 q -0.04651,0 -0.08682,-0.024805 -0.03721,-0.024805 -0.05891,-0.068213 l -0.666624,-1.494482 h -0.617017 v 1.4293701 q 0,0.065112 -0.04651,0.1116211 -0.04651,0.046509 -0.111621,0.046509 -0.06511,0 -0.111622,-0.046509 -0.04651,-0.046509 -0.04651,-0.1116211 V 1.6957194 q 0,-0.065112 0.04651,-0.1116211 0.04651,-0.046509 0.111622,-0.046509 h 0.951879 q 0.328662,0 0.561206,0.232544 0.232544,0.2325439 0.232544,0.5581055 0.0031,0.3317627 -0.229443,0.5643066 -0.167432,0.1643311 -0.396875,0.2139404 l 0.613916,1.3828613 q 0.0124,0.031006 0.0124,0.065112 0,0.065112 -0.04651,0.1116211 -0.04651,0.046509 -0.111621,0.046509 z"/>
<path d="m 6.2718648,84.679374 v -2.858741 q 0,-0.06511 0.046509,-0.111621 0.046509,-0.04651 0.1116211,-0.04651 h 0.9518799 q 0.3286621,0 0.561206,0.232544 0.2325439,0.232543 0.2325439,0.561206 0,0.328662 -0.2325439,0.561206 -0.2325439,0.232544 -0.561206,0.232544 h -0.79375 v 1.42937 q 0,0.06511 -0.046509,0.111621 -0.046509,0.04651 -0.1116211,0.04651 -0.065112,0 -0.1116211,-0.04651 -0.046509,-0.04651 -0.046509,-0.111621 z m 1.5875,-2.22312 q 0,-0.198438 -0.1395264,-0.337964 -0.1395263,-0.139527 -0.3379638,-0.139527 h -0.79375 v 0.954981 h 0.79375 q 0.1984375,0 0.3379638,-0.139527 0.1395264,-0.139526 0.1395264,-0.337963 z"/>
<path d="m 8.6531147,84.679374 v -2.858741 q 0,-0.06511 0.046509,-0.111621 0.046509,-0.04651 0.1116211,-0.04651 0.065112,0 0.1116211,0.04651 0.046509,0.04651 0.046509,0.111621 v 2.858741 q 0,0.06511 -0.046509,0.111621 -0.046509,0.04651 -0.1116211,0.04651 -0.065112,0 -0.1116211,-0.04651 -0.046509,-0.04651 -0.046509,-0.111621 z"/>
<path d="m 9.7631245,84.837504 q -0.065112,0 -0.1116211,-0.04651 -0.046509,-0.04651 -0.046509,-0.111621 v -2.858741 q 0,-0.06511 0.046509,-0.111621 0.046509,-0.04651 0.1116211,-0.04651 0.043408,0 0.080615,0.0217 0.037207,0.0217 0.058911,0.05891 l 1.2898435,2.322339 v -2.244825 q 0,-0.06511 0.04651,-0.111621 0.04651,-0.04651 0.111621,-0.04651 0.06511,0 0.111621,0.04651 0.04651,0.04651 0.04651,0.111621 v 2.858741 q 0,0.06511 -0.04651,0.111621 -0.04651,0.04651 -0.111621,0.04651 -0.04341,0 -0.08061,-0.0217 -0.03721,-0.0217 -0.05891,-0.05891 L 9.9212544,82.434549 v 2.244825 q 0,0.06511 -0.046509,0.111621 -0.046509,0.04651 -0.1116211,0.04651 z"/>
<path d="m 13.254385,84.837504 q -0.458887,0 -0.784449,-0.325562 -0.483692,-0.483691 -0.483692,-1.261938 0,-0.778248 0.483692,-1.261939 0.325562,-0.325561 0.784449,-0.325561 0.437182,0 0.747241,0.310058 0.04651,0.04651 0.04651,0.111621 0,0.06511 -0.04651,0.111621 -0.04651,0.04651 -0.111621,0.04651 -0.06511,0 -0.111621,-0.04651 -0.217041,-0.217041 -0.523999,-0.217041 -0.328663,0 -0.561207,0.232544 -0.390674,0.390674 -0.390674,1.038697 0,0.648022 0.390674,1.038696 0.232544,0.232544 0.561207,0.232544 0.269751,0 0.47749,-0.173633 v -0.781348 h -0.31626 q -0.06511,0 -0.111621,-0.04651 -0.04651,-0.04651 -0.04651,-0.111622 0,-0.06511 0.04651,-0.111621 Q 13.350504,83.25 13.415615,83.25 h 0.47439 q 0.06511,0 0.111621,0.04651 0.04651,0.04651 0.04651,0.111621 v 1.007691 q 0,0.06511 -0.04651,0.111621 -0.310059,0.310059 -0.747241,0.310059 z"/>
<path d="m 23.574993,64.67946 v -2.85874 q 0,-0.06511 0.04651,-0.111621 0.04651,-0.04651 0.111621,-0.04651 h 1.5875 q 0.06511,-0.0031 0.111621,0.04651 0.04651,0.04651 0.04651,0.111621 0,0.06511 -0.04651,0.111621 -0.04651,0.04651 -0.114721,0.04651 h -1.42627 v 0.95498 h 1.113111 q 0.06511,0 0.111621,0.04651 0.04651,0.04651 0.04651,0.111621 0,0.06511 -0.04651,0.111621 -0.04651,0.04651 -0.111621,0.04651 h -1.113111 v 1.27124 h 1.42937 q 0.06511,0 0.111621,0.04651 0.04651,0.04651 0.04651,0.111621 0,0.06511 -0.04651,0.111621 -0.04651,0.04651 -0.111621,0.04651 h -1.5875 q -0.06511,0 -0.111621,-0.04651 -0.04651,-0.04651 -0.04651,-0.111621 z"/>
<path d="m 25.956242,64.83759 q -0.06511,0 -0.111621,-0.04651 -0.04651,-0.04651 -0.04651,-0.111621 0,-0.04031 0.0186,-0.07751 l 0.750342,-1.351856 -0.750342,-1.351855 q -0.0186,-0.03721 -0.0186,-0.07751 0,-0.06511 0.04651,-0.111621 0.04651,-0.04651 0.111621,-0.04651 0.04341,0 0.08062,0.0217 0.03721,0.0217 0.05891,0.05891 l 0.654223,1.178223 0.654224,-1.178223 q 0.0217,-0.03721 0.05891,-0.05891 0.03721,-0.0217 0.08062,-0.0217 0.06511,0 0.111622,0.04651 0.04651,0.04651 0.04651,0.111621 0,0.04031 -0.0186,0.07751 l -0.750342,1.351855 0.750342,1.351856 q 0.0186,0.03721 0.0186,0.07751 0,0.06511 -0.04651,0.111621 -0.04651,0.04651 -0.111622,0.04651 -0.04341,0 -0.08062,-0.0217 -0.03721,-0.0217 -0.05891,-0.05891 l -0.654224,-1.178223 -0.654223,1.178223 q -0.0217,0.03721 -0.05891,0.05891 -0.03721,0.0217 -0.08062,0.0217 z"/>
<path d="m 28.176262,64.67946 v -2.85874 q 0,-0.06511 0.04651,-0.111621 0.04651,-0.04651 0.111621,-0.04651 h 0.95188 q 0.328662,0 0.561206,0.232544 0.232544,0.232544 0.232544,0.561206 0,0.328662 -0.232544,0.561206 -0.232544,0.232544 -0.561206,0.232544 h -0.79375 v 1.42937 q 0,0.06511 -0.04651,0.111621 -0.04651,0.04651 -0.111621,0.04651 -0.06511,0 -0.111621,-0.04651 -0.04651,-0.04651 -0.04651,-0.111621 z m 1.5875,-2.22312 q 0,-0.198437 -0.139526,-0.337964 Q 29.48471,61.97885 29.286272,61.97885 h -0.79375 v 0.95498 h 0.79375 q 0.198438,0 0.337964,-0.139526 0.139526,-0.139526 0.139526,-0.337964 z"/>
<path d="m 32.461272,64.67946 v -2.85874 q 0,-0.06511 0.04651,-0.111621 0.04651,-0.04651 0.111622,-0.04651 h 1.587499 q 0.06511,-0.0031 0.111622,0.04651 0.04651,0.04651 0.04651,0.111621 0,0.06511 -0.04651,0.111621 -0.04651,0.04651 -0.114722,0.04651 h -1.42627 v 0.95498 h 1.113111 q 0.06511,0 0.111621,0.04651 0.04651,0.04651 0.04651,0.111621 0,0.06511 -0.04651,0.111621 -0.04651,0.04651 -0.111621,0.04651 h -1.113111 v 1.42937 q 0,0.06511 -0.04651,0.111621 -0.04651,0.04651 -0.111621,0.04651 -0.06511,0 -0.111622,-0.04651 -0.04651,-0.04651 -0.04651,-0.111621 z"/>
<path d="m 35.000651,64.83759 q -0.06511,0 -0.108521,-0.04651 -0.04341,-0.04651 -0.04961,-0.111621 v -2.85874 q 0,-0.06511 0.04651,-0.111621 0.04651,-0.04651 0.111621,-0.04651 0.04961,0 0.08992,0.0279 0.04031,0.02791 0.05891,0.07441 l 0.964282,2.480469 0.970484,-2.480469 q 0.0186,-0.05271 0.05891,-0.07751 0.04031,-0.02481 0.08992,-0.02481 0.06511,0 0.10852,0.04651 0.04341,0.04651 0.04341,0.111621 v 2.85874 q 0,0.06511 -0.04651,0.111621 -0.04651,0.04651 -0.111621,0.04651 -0.06511,0 -0.111621,-0.04651 -0.04651,-0.04651 -0.04651,-0.111621 v -2.037085 l -0.806153,2.092896 q -0.0186,0.04651 -0.05891,0.07441 -0.04031,0.0279 -0.08992,0.0279 -0.04961,0 -0.08992,-0.0279 -0.04031,-0.02791 -0.05891,-0.07441 L 35.15878,62.642364 v 2.037085 q 0,0.06511 -0.04651,0.111621 -0.04651,0.04651 -0.111621,0.04651 z"/>
<path d="m 39.765633,84.837494 q -0.458887,0 -0.784448,-0.325561 -0.483692,-0.483692 -0.483692,-1.261939 0,-0.778247 0.483692,-1.261938 0.325561,-0.325562 0.784448,-0.325562 0.437182,0 0.747241,0.310059 0.04651,0.04651 0.04651,0.111621 0,0.06511 -0.04651,0.111621 -0.04651,0.04651 -0.111621,0.04651 -0.06511,0 -0.111621,-0.04651 -0.217041,-0.217041 -0.523999,-0.217041 -0.328662,0 -0.561206,0.232544 -0.390674,0.390674 -0.390674,1.038696 0,0.648023 0.390674,1.038696 0.232544,0.232544 0.561206,0.232544 0.306958,0 0.523999,-0.217041 0.04651,-0.04651 0.111621,-0.04651 0.06511,0 0.111621,0.04651 0.04651,0.04651 0.04651,0.111621 0,0.06511 -0.04651,0.111621 -0.310059,0.310059 -0.747241,0.310059 z"/>
<path d="m 41.036873,81.662494 q 0.04341,0 0.08992,0.03411 0.04961,0.03101 0.06201,0.07751 l 0.641821,2.309937 0.641822,-2.309937 q 0.0124,-0.04651 0.05891,-0.07751 0.04651,-0.03411 0.09302,-0.03411 0.06511,0 0.111622,0.04651 0.04651,0.04651 0.04651,0.111621 0,0.0186 -0.0062,0.04341 l -0.79375,2.85874 q -0.0124,0.04961 -0.05581,0.08372 -0.04341,0.03101 -0.09612,0.03101 -0.05271,0 -0.09612,-0.03101 -0.04341,-0.03411 -0.05581,-0.08372 l -0.79375,-2.855639 q -0.0062,-0.02791 -0.0062,-0.04651 0,-0.06511 0.04651,-0.111621 0.04651,-0.04651 0.111621,-0.04651 z"/>
<path d="m 13.812177,105.67937 v -2.85874 q 0,-0.0651 0.04651,-0.11162 0.04651,-0.0465 0.111621,-0.0465 0.06511,0 0.111621,0.0465 0.04651,0.0465 0.04651,0.11162 v 2.85874 q 0,0.0651 -0.04651,0.11163 -0.04651,0.0465 -0.111621,0.0465 -0.06511,0 -0.111621,-0.0465 -0.04651,-0.0465 -0.04651,-0.11163 z"/>
<path d="m 14.922187,105.8375 q -0.06511,0 -0.111622,-0.0465 -0.04651,-0.0465 -0.04651,-0.11162 v -2.85874 q 0,-0.0651 0.04651,-0.11162 0.04651,-0.0465 0.111622,-0.0465 0.04341,0 0.08062,0.0217 0.03721,0.0217 0.05891,0.0589 l 1.289844,2.32234 v -2.24482 q 0,-0.0651 0.04651,-0.11163 0.04651,-0.0465 0.111622,-0.0465 0.06511,0 0.111621,0.0465 0.04651,0.0465 0.04651,0.11163 v 2.85874 q 0,0.0651 -0.04651,0.11162 -0.04651,0.0465 -0.111621,0.0465 -0.04341,0 -0.08062,-0.0217 -0.03721,-0.0217 -0.05891,-0.0589 l -1.289847,-2.32234 v 2.24482 q 0,0.0651 -0.04651,0.11163 -0.04651,0.0465 -0.111621,0.0465 z"/>
<path d="m 25.870981,124.67945 v -2.85874 q 0,-0.0651 0.04651,-0.11162 0.04651,-0.0465 0.111621,-0.0465 h 1.5875 q 0.06511,-0.003 0.111621,0.0465 0.04651,0.0465 0.04651,0.11162 0,0.0651 -0.04651,0.11162 -0.04651,0.0465 -0.114721,0.0465 h -1.42627 v 0.95498 h 1.113111 q 0.06511,0 0.111621,0.0465 0.04651,0.0465 0.04651,0.11162 0,0.0651 -0.04651,0.11162 -0.04651,0.0465 -0.111621,0.0465 H 26.18724 v 1.42937 q 0,0.0651 -0.04651,0.11162 -0.04651,0.0465 -0.111621,0.0465 -0.06511,0 -0.111621,-0.0465 -0.04651,-0.0465 -0.04651,-0.11162 z"/>
<path d="m 29.83973,122.45633 q 0,-0.19843 -0.139526,-0.33796 -0.139526,-0.13953 -0.337964,-0.13953 h -0.79375 v 0.95498 h 0.79375 q 0.198438,0 0.337964,-0.13952 0.139526,-0.13953 0.139526,-0.33797 z m 0.15813,2.38125 q -0.04651,0 -0.08682,-0.0248 -0.03721,-0.0248 -0.05891,-0.0682 l -0.666626,-1.49449 H 28.56849 v 1.42937 q 0,0.0651 -0.04651,0.11162 -0.04651,0.0465 -0.111621,0.0465 -0.06511,0 -0.111621,-0.0465 -0.04651,-0.0465 -0.04651,-0.11162 v -2.85874 q 0,-0.0651 0.04651,-0.11162 0.04651,-0.0465 0.111621,-0.0465 h 0.95188 q 0.328662,0 0.561206,0.23255 0.232544,0.23254 0.232544,0.5581 0.0031,0.33177 -0.229443,0.56431 -0.167432,0.16433 -0.396875,0.21394 l 0.613916,1.38286 q 0.0124,0.031 0.0124,0.0651 0,0.0651 -0.04651,0.11162 -0.04651,0.0465 -0.111621,0.0465 z"/>
<path d="m 30.63348,124.67945 v -2.85874 q 0,-0.0651 0.04651,-0.11162 0.04651,-0.0465 0.111621,-0.0465 h 1.5875 q 0.06511,-0.003 0.111621,0.0465 0.04651,0.0465 0.04651,0.11162 0,0.0651 -0.04651,0.11162 -0.04651,0.0465 -0.114721,0.0465 h -1.42627 v 0.95498 h 1.11311 q 0.06511,0 0.111622,0.0465 0.04651,0.0465 0.04651,0.11162 0,0.0651 -0.04651,0.11162 -0.04651,0.0465 -0.111622,0.0465 h -1.11311 v 1.27124 h 1.42937 q 0.06511,0 0.111621,0.0465 0.04651,0.0465 0.04651,0.11162 0,0.0651 -0.04651,0.11162 -0.04651,0.0465 -0.111621,0.0465 h -1.5875 q -0.06511,0 -0.111621,-0.0465 -0.04651,-0.0465 -0.04651,-0.11162 z"/>
<path d="m 32.869003,123.25008 q 0,-0.87126 0.440283,-1.30844 0.275952,-0.27906 0.669726,-0.27906 0.393775,0 0.672828,0.27906 0.437182,0.43718 0.437182,1.30844 0,0.76275 -0.334863,1.19063 l 0.127124,0.12712 q 0.04651,0.0465 0.04651,0.11162 0,0.0651 -0.04651,0.11162 -0.04651,0.0465 -0.111621,0.0465 -0.06511,0 -0.111621,-0.0465 l -0.127124,-0.12712 q -0.248047,0.17363 -0.551905,0.17363 -0.393774,0 -0.672827,-0.27905 -0.437182,-0.43718 -0.437182,-1.30845 z m 1.531689,0.84026 0.124024,0.12403 q 0.244946,-0.34107 0.244946,-0.96429 0,-0.74104 -0.344165,-1.0852 -0.186035,-0.18604 -0.449585,-0.18604 -0.26355,0 -0.449585,0.18604 -0.344165,0.34416 -0.344165,1.0852 0,0.74104 0.344165,1.08521 0.186035,0.18603 0.449585,0.18603 0.207739,0 0.322461,-0.0868 l -0.120923,-0.12093 q -0.04651,-0.0465 -0.04651,-0.11162 0,-0.0651 0.04651,-0.11162 0.04651,-0.0465 0.111621,-0.0465 0.06511,0 0.111621,0.0465 z"/>
<path d="m 49.133438,122.45633 q 0,-0.19843 -0.139527,-0.33796 -0.139526,-0.13953 -0.337964,-0.13953 h -0.79375 v 0.95498 h 0.79375 q 0.198438,0 0.337964,-0.13952 0.139527,-0.13953 0.139527,-0.33797 z m 0.158129,2.38125 q -0.04651,0 -0.08682,-0.0248 -0.03721,-0.0248 -0.05891,-0.0682 l -0.666626,-1.49449 h -0.617017 v 1.42937 q 0,0.0651 -0.04651,0.11162 -0.04651,0.0465 -0.111622,0.0465 -0.06511,0 -0.111621,-0.0465 -0.04651,-0.0465 -0.04651,-0.11162 v -2.85874 q 0,-0.0651 0.04651,-0.11162 0.04651,-0.0465 0.111621,-0.0465 h 0.95188 q 0.328662,0 0.561206,0.23255 0.232544,0.23254 0.232544,0.5581 0.0031,0.33177 -0.229443,0.56431 -0.167432,0.16433 -0.396876,0.21394 l 0.613917,1.38286 q 0.0124,0.031 0.0124,0.0651 0,0.0651 -0.04651,0.11162 -0.04651,0.0465 -0.111622,0.0465 z"/>
<path d="m 49.927187,124.67945 v -2.85874 q 0,-0.0651 0.04651,-0.11162 0.04651,-0.0465 0.111621,-0.0465 h 1.5875 q 0.06511,-0.003 0.111621,0.0465 0.04651,0.0465 0.04651,0.11162 0,0.0651 -0.04651,0.11162 -0.04651,0.0465 -0.114721,0.0465 h -1.42627 v 0.95498 h 1.113111 q 0.06511,0 0.111621,0.0465 0.04651,0.0465 0.04651,0.11162 0,0.0651 -0.04651,0.11162 -0.04651,0.0465 -0.111621,0.0465 h -1.113111 v 1.27124 h 1.42937 q 0.06511,0 0.111621,0.0465 0.04651,0.0465 0.04651,0.11162 0,0.0651 -0.04651,0.11162 -0.04651,0.0465 -0.111621,0.0465 h -1.5875 q -0.06511,0 -0.111621,-0.0465 -0.04651,-0.0465 -0.04651,-0.11162 z"/>
<path d="m 53.102187,124.83758 q -0.5302,0 -0.905371,-0.37517 -0.04651,-0.0465 -0.04651,-0.11162 0,-0.0651 0.04651,-0.11162 0.04651,-0.0465 0.111621,-0.0465 0.06511,0 0.111621,0.0465 0.282154,0.28215 0.682129,0.28215 0.263551,0 0.449585,-0.18603 0.186035,-0.18604 0.186035,-0.44959 0,-0.13952 -0.07441,-0.25424 -0.07441,-0.11783 -0.198437,-0.17674 l -0.747241,-0.35347 q -0.189136,-0.0899 -0.300757,-0.26354 -0.108521,-0.17364 -0.108521,-0.38138 0,-0.32866 0.232544,-0.5612 0.232544,-0.23255 0.561206,-0.23255 0.437183,0 0.747242,0.31006 0.04651,0.0465 0.04651,0.11162 0,0.0651 -0.04651,0.11162 -0.04651,0.0465 -0.111622,0.0465 -0.06511,0 -0.111621,-0.0465 -0.217041,-0.21704 -0.523999,-0.21704 -0.198437,0 -0.337963,0.13953 -0.139527,0.13953 -0.139527,0.33796 0,0.11472 0.06201,0.21394 0.06201,0.0961 0.164331,0.14573 l 0.747241,0.35347 q 0.207739,0.0992 0.331763,0.29455 0.124023,0.19224 0.124023,0.42168 0,0.39378 -0.279052,0.67283 -0.279053,0.27905 -0.672828,0.27905 z"/>
<path d="m 56.010225,102.25471 v 0.86351 h 0.863513 v 0.26355 h -0.863513 v 0.86352 h -0.260449 v -0.86352 h -0.863513 v -0.26355 h 0.863513 v -0.86351 z"/>
<path d="m 46.728036,103.11452 v 0.27096 h -2.016072 v -0.27096 z"/>
<path d="m 35.690225,102.25471 v 0.86351 h 0.863513 v 0.26355 h -0.863513 v 0.86352 h -0.260449 v -0.86352 h -0.863513 v -0.26355 h 0.863513 v -0.86351 z"/>
<path d="m 26.408036,103.11452 v 0.27096 h -2.016072 v -0.27096 z"/></g><g style="fill:#cccccc">
<path d="m 6.3478291,34.679367 v -2.858741 q 0,-0.06511 0.046509,-0.111621 0.046509,-0.04651 0.1116211,-0.04651 0.065112,0 0.1116211,0.04651 0.046509,0.04651 0.046509,0.111621 v 2.700611 h 1.4293701 q 0.065112,0 0.1116211,0.04651 0.046509,0.04651 0.046509,0.111621 0,0.06511 -0.046509,0.111621 -0.046509,0.04651 -0.1116211,0.04651 h -1.5875 q -0.065112,0 -0.1116211,-0.04651 -0.046509,-0.04651 -0.046509,-0.111621 z"/>
<path d="m 8.5740497,33.249997 q 0,-0.871265 0.4402832,-1.308448 0.2759521,-0.279052 0.6697265,-0.279052 0.3937746,0 0.6728276,0.279052 0.437182,0.437183 0.437182,1.308448 0,0.871264 -0.437182,1.308447 -0.279053,0.279053 -0.6728276,0.279053 -0.3937744,0 -0.6728271,-0.279053 -0.4371826,-0.437183 -0.4371826,-1.308447 z m 1.1100097,-1.271241 q -0.2635498,0 -0.4495849,0.186035 -0.3441651,0.344166 -0.3441651,1.085206 0,0.74104 0.3441651,1.085205 0.1860351,0.186035 0.4495849,0.186035 0.2635498,0 0.4495846,-0.186035 0.344165,-0.344165 0.344165,-1.085205 0,-0.74104 -0.344165,-1.085206 -0.1860348,-0.186035 -0.4495846,-0.186035 z"/>
<path d="m 11.271559,31.662497 q 0.05581,0 0.09922,0.03411 0.04341,0.03411 0.05581,0.08992 l 0.480591,2.161108 0.480591,-2.161108 q 0.0124,-0.05581 0.05581,-0.08992 0.04341,-0.03411 0.09922,-0.03411 0.05581,0 0.09922,0.03411 0.04341,0.03411 0.05581,0.08992 l 0.48059,2.161108 0.480591,-2.161108 q 0.0124,-0.05581 0.05581,-0.08992 0.04341,-0.03411 0.09922,-0.03411 0.06511,0 0.111621,0.04651 0.04651,0.04651 0.04651,0.111621 0,0.0186 -0.0031,0.03411 l -0.63562,2.85874 q -0.0124,0.05581 -0.05581,0.08992 -0.04341,0.03411 -0.09922,0.03411 -0.05581,0 -0.09922,-0.03411 -0.04341,-0.03411 -0.05581,-0.08992 l -0.480592,-2.164214 -0.48059,2.164209 q -0.0124,0.05581 -0.05581,0.08992 -0.04341,0.03411 -0.09922,0.03411 -0.05581,0 -0.09922,-0.03411 -0.04341,-0.03411 -0.05581,-0.08992 l -0.63562,-2.85874 q -0.0031,-0.0155 -0.0031,-0.03411 0,-0.06511 0.04651,-0.111621 0.04651,-0.04651 0.111621,-0.04651 z"/>
<path d="M 46.831248,34.679371 V 31.82063 q 0,-0.06511 0.04651,-0.111621 0.04651,-0.04651 0.111621,-0.04651 0.06511,0 0.111621,0.04651 0.04651,0.04651 0.04651,0.111621 v 1.113111 h 1.27124 V 31.82063 q 0,-0.06511 0.04651,-0.111621 0.04651,-0.04651 0.111621,-0.04651 0.06511,0 0.111621,0.04651 0.04651,0.04651 0.04651,0.111621 v 2.858741 q 0,0.06511 -0.04651,0.111621 -0.04651,0.04651 -0.111621,0.04651 -0.06511,0 -0.111621,-0.04651 -0.04651,-0.04651 -0.04651,-0.111621 v -1.42937 h -1.27124 v 1.42937 q 0,0.06511 -0.04651,0.111621 -0.04651,0.04651 -0.111621,0.04651 -0.06511,0 -0.111621,-0.04651 -0.04651,-0.04651 -0.04651,-0.111621 z"/>
<path d="M 49.370628,34.679371 V 31.82063 q 0,-0.06511 0.04651,-0.111621 0.04651,-0.04651 0.111621,-0.04651 0.06511,0 0.111621,0.04651 0.04651,0.04651 0.04651,0.111621 v 2.858741 q 0,0.06511 -0.04651,0.111621 -0.04651,0.04651 -0.111621,0.04651 -0.06511,0 -0.111621,-0.04651 -0.04651,-0.04651 -0.04651,-0.111621 z"/>
<path d="m 51.429417,34.837501 q -0.458887,0 -0.784448,-0.325562 -0.483692,-0.483691 -0.483692,-1.261938 0,-0.778248 0.483692,-1.261939 0.325561,-0.325561 0.784448,-0.325561 0.437183,0 0.747241,0.310058 0.04651,0.04651 0.04651,0.111621 0,0.06511 -0.04651,0.111621 -0.04651,0.04651 -0.111621,0.04651 -0.06511,0 -0.111621,-0.04651 -0.217041,-0.217041 -0.523999,-0.217041 -0.328662,0 -0.561206,0.232544 -0.390674,0.390674 -0.390674,1.038697 0,0.648022 0.390674,1.038696 0.232544,0.232544 0.561206,0.232544 0.269751,0 0.47749,-0.173633 V 33.56626 h -0.31626 q -0.06511,0 -0.111621,-0.04651 -0.04651,-0.04651 -0.04651,-0.111622 0,-0.06511 0.04651,-0.111621 0.04651,-0.04651 0.111621,-0.04651 h 0.47439 q 0.06511,0 0.111621,0.04651 0.04651,0.04651 0.04651,0.111621 v 1.007691 q 0,0.06511 -0.04651,0.111621 -0.310058,0.310059 -0.747241,0.310059 z"/>
<path d="M 52.864988,34.679371 V 31.82063 q 0,-0.06511 0.04651,-0.111621 0.04651,-0.04651 0.111621,-0.04651 0.06511,0 0.111621,0.04651 0.04651,0.04651 0.04651,0.111621 v 1.113111 h 1.27124 V 31.82063 q 0,-0.06511 0.04651,-0.111621 0.04651,-0.04651 0.111621,-0.04651 0.06511,0 0.111621,0.04651 0.04651,0.04651 0.04651,0.111621 v 2.858741 q 0,0.06511 -0.04651,0.111621 -0.04651,0.04651 -0.111621,0.04651 -0.06511,0 -0.111621,-0.04651 -0.04651,-0.04651 -0.04651,-0.111621 v -1.42937 h -1.27124 v 1.42937 q 0,0.06511 -0.04651,0.111621 -0.04651,0.04651 -0.111621,0.04651 -0.06511,0 -0.111621,-0.04651 -0.04651,-0.04651 -0.04651,-0.111621 z"/>
<path d="m 25.956245,24.679374 v -2.858741 q 0,-0.06511 0.04651,-0.111621 0.04651,-0.04651 0.111621,-0.04651 h 0.79375 q 0.328662,0 0.561206,0.232544 0.232544,0.232543 0.232544,0.561206 0,0.328662 -0.232544,0.561206 -0.03101,0.03101 -0.06511,0.05581 0.09612,0.05891 0.176733,0.139527 0.279053,0.279052 0.279053,0.672827 0,0.393774 -0.279053,0.672827 -0.279053,0.279053 -0.672827,0.279053 h -0.79375 q -0.06511,0 -0.111621,-0.04651 -0.04651,-0.04651 -0.04651,-0.111621 z m 1.42937,-2.22312 q 0,-0.198438 -0.139526,-0.337964 -0.139527,-0.139527 -0.337964,-0.139527 h -0.63562 v 0.954981 h 0.63562 q 0.198437,0 0.337964,-0.139527 0.139526,-0.139526 0.139526,-0.337963 z m -0.47749,0.79375 h -0.63562 v 1.27124 h 0.63562 q 0.26355,0 0.449585,-0.176734 0.186035,-0.179834 0.186035,-0.458886 0,-0.26355 -0.186035,-0.449585 -0.186035,-0.189136 -0.449585,-0.186035 z"/>
<path d="m 28.337495,24.837504 q -0.06511,0 -0.111621,-0.04651 -0.04651,-0.04651 -0.04651,-0.111621 0,-0.0186 0.0062,-0.04651 l 0.79375,-2.85564 q 0.0124,-0.04961 0.05581,-0.08061 0.04341,-0.03411 0.09612,-0.03411 0.05271,0 0.09612,0.03411 0.04341,0.03101 0.05581,0.08061 l 0.79375,2.85874 q 0.0062,0.02481 0.0062,0.04341 0,0.06511 -0.04651,0.111621 -0.04651,0.04651 -0.111621,0.04651 -0.04651,0 -0.09302,-0.03101 -0.04651,-0.03411 -0.05891,-0.08062 l -0.145727,-0.523999 h -0.992188 l -0.145727,0.523999 q -0.0124,0.04651 -0.06201,0.08062 -0.04651,0.03101 -0.08992,0.03101 z m 0.384473,-0.95188 h 0.818554 l -0.409277,-1.469678 z"/>
<path d="m 30.718745,24.837504 q -0.06511,0 -0.111621,-0.04651 -0.04651,-0.04651 -0.04651,-0.111621 v -2.858741 q 0,-0.06511 0.04651,-0.111621 0.04651,-0.04651 0.111621,-0.04651 0.04341,0 0.08061,0.0217 0.03721,0.0217 0.05891,0.05891 l 1.289843,2.322339 v -2.244825 q 0,-0.06511 0.04651,-0.111621 0.04651,-0.04651 0.111621,-0.04651 0.06511,0 0.111621,0.04651 0.04651,0.04651 0.04651,0.111621 v 2.858741 q 0,0.06511 -0.04651,0.111621 -0.04651,0.04651 -0.111621,0.04651 -0.04341,0 -0.08061,-0.02171 -0.03721,-0.0217 -0.05891,-0.05891 l -1.289844,-2.322339 v 2.244825 q 0,0.06511 -0.04651,0.111621 -0.04651,0.04651 -0.111621,0.04651 z"/>
<path d="m 33.735615,24.837504 h -0.47749 q -0.06511,0 -0.111621,-0.04651 -0.04651,-0.04651 -0.04651,-0.111621 v -2.858741 q 0,-0.06511 0.04651,-0.111621 0.04651,-0.04651 0.111621,-0.04651 h 0.47749 q 0.458887,0 0.784448,0.325561 0.483692,0.483691 0.483692,1.261939 0,0.778247 -0.483692,1.261938 -0.325561,0.325562 -0.784448,0.325562 z m -0.31936,-0.31626 h 0.31936 q 0.328662,0 0.561206,-0.232544 0.390674,-0.390674 0.390674,-1.038696 0,-0.648023 -0.390674,-1.038697 -0.232544,-0.232544 -0.561206,-0.232544 h -0.31936 z"/>
<path d="m 24.843133,44.837505 q -0.06511,0 -0.111621,-0.04651 -0.04651,-0.04651 -0.04651,-0.111621 v -2.858741 q 0,-0.06511 0.04651,-0.111621 0.04651,-0.04651 0.111621,-0.04651 0.04341,0 0.08062,0.0217 0.03721,0.0217 0.05891,0.05891 l 1.289844,2.322339 v -2.244825 q 0,-0.06511 0.04651,-0.111621 0.04651,-0.04651 0.111621,-0.04651 0.06511,0 0.111621,0.04651 0.04651,0.04651 0.04651,0.111621 v 2.858741 q 0,0.06511 -0.04651,0.111621 -0.04651,0.04651 -0.111621,0.04651 -0.04341,0 -0.08061,-0.02171 -0.03721,-0.0217 -0.05891,-0.05891 l -1.289844,-2.322339 v 2.244825 q 0,0.06511 -0.04651,0.111621 -0.04651,0.04651 -0.111621,0.04651 z"/>
<path d="m 27.069354,43.250005 q 0,-0.871265 0.440283,-1.308448 0.275952,-0.279052 0.669726,-0.279052 0.393775,0 0.672828,0.279052 0.437182,0.437183 0.437182,1.308448 0,0.871264 -0.437182,1.308447 -0.279053,0.279053 -0.672828,0.279053 -0.393774,0 -0.672827,-0.279053 -0.437182,-0.437183 -0.437182,-1.308447 z m 1.110009,-1.271241 q -0.263549,0 -0.449585,0.186035 -0.344165,0.344166 -0.344165,1.085206 0,0.74104 0.344165,1.085205 0.186036,0.186035 0.449585,0.186035 0.26355,0 0.449585,-0.186035 0.344165,-0.344165 0.344165,-1.085205 0,-0.74104 -0.344165,-1.085206 -0.186035,-0.186035 -0.449585,-0.186035 z"/>
<path d="m 30.402484,44.679375 v -2.700611 h -0.635621 q -0.06511,0 -0.111621,-0.04651 -0.04651,-0.04651 -0.04651,-0.111622 0,-0.06511 0.04651,-0.111621 0.04651,-0.04651 0.111621,-0.04651 h 1.5875 q 0.06511,0 0.111622,0.04651 0.04651,0.04651 0.04651,0.111621 0,0.06511 -0.04651,0.111622 -0.04651,0.04651 -0.111622,0.04651 h -0.63562 v 2.700611 q 0,0.06511 -0.04651,0.111621 -0.04651,0.04651 -0.111622,0.04651 -0.06511,0 -0.111621,-0.04651 -0.04651,-0.04651 -0.04651,-0.111621 z"/>
<path d="m 33.096893,44.837505 q -0.458887,0 -0.784449,-0.325562 -0.483691,-0.483691 -0.483691,-1.261938 0,-0.778248 0.483691,-1.261939 0.325562,-0.325561 0.784449,-0.325561 0.437182,0 0.747241,0.310058 0.04651,0.04651 0.04651,0.111621 0,0.06511 -0.04651,0.111621 -0.04651,0.04651 -0.111621,0.04651 -0.06511,0 -0.111621,-0.04651 -0.217041,-0.217041 -0.523999,-0.217041 -0.328663,0 -0.561206,0.232544 -0.390674,0.390674 -0.390674,1.038697 0,0.648022 0.390674,1.038696 0.232543,0.232544 0.561206,0.232544 0.306958,0 0.523999,-0.217041 0.04651,-0.04651 0.111621,-0.04651 0.06511,0 0.111621,0.04651 0.04651,0.04651 0.04651,0.111621 0,0.06511 -0.04651,0.111621 -0.310059,0.310059 -0.747241,0.310059 z"/>
<path d="m 34.371234,44.679375 v -2.858741 q 0,-0.06511 0.04651,-0.111621 0.04651,-0.04651 0.111621,-0.04651 0.06511,0 0.111621,0.04651 0.04651,0.04651 0.04651,0.111621 v 1.113111 h 1.27124 v -1.113111 q 0,-0.06511 0.04651,-0.111621 0.04651,-0.04651 0.111621,-0.04651 0.06511,0 0.111621,0.04651 0.04651,0.04651 0.04651,0.111621 v 2.858741 q 0,0.06511 -0.04651,0.111621 -0.04651,0.04651 -0.111621,0.04651 -0.06511,0 -0.111621,-0.04651 -0.04651,-0.04651 -0.04651,-0.111621 v -1.42937 h -1.27124 v 1.42937 q 0,0.06511 -0.04651,0.111621 -0.04651,0.04651 -0.111621,0.04651 -0.06511,0 -0.111621,-0.04651 -0.04651,-0.04651 -0.04651,-0.111621 z"/>
</g></g></svg>