<!--
    Copyright (C) 2023 Jacek Lewański

    This program is free software: you can redistribute it and/or modify
    it under the terms of the GNU General Public License as published by
    the Free Software Foundation, either version 3 of the License, or
    (at your option) any later version.

    This program is distributed in the hope that it will be useful,
    but WITHOUT ANY WARRANTY; without even the implied warranty of
    MERCHANTABILITY or FITNESS FOR A PARTICULAR PURPOSE.  See the
    GNU General Public License for more details.

    You should have received a copy of the GNU General Public License
    along with this program. If not, see <https://www.gnu.org/licenses/>.
-->
<svg width="101.6mm" height="128.5mm" viewBox="0 0 101.6 128.5" version="1.1" xmlns="http://www.w3.org/2000/svg" xmlns:svg="http://www.w3.org/2000/svg">
<rect style="fill:#cccccc" width="101.6" height="128.5" x="0" y="0"/><rect style="fill:#212121" width="101.6" height="40" x="0" y="6.25"/>
<g style="stroke:#212121;stroke-width:0.511">
<path d="m 10.16,74.25 v 20.32 20"/>
<path d="M 30.48,74.25 v 20.32 20"/>
<path d="M 50.8,74.25 v 20.32 20"/>
<path d="M 71.12,74.25 v 20.32 20"/>
<path d="M 91.44,74.25 v 20.32 20"/>
<path d="M 30.48,54.25 H 20 10"/>
</g><g style="fill:#ffffff">
<circle cx="10.16" cy="14.25" r="5.5"/>
<circle cx="10.16" cy="74.25" r="5.5"/>
<circle cx="30.48" cy="14.25" r="5.5"/>
<circle cx="30.48" cy="74.25" r="5.5"/>
<circle cx="50.8" cy="14.25" r="5.5"/>
<circle cx="50.8" cy="74.25" r="5.5"/>
<circle cx="71.12" cy="14.25" r="5.5"/>
<circle cx="71.12" cy="54.25" r="5.5"/>
<circle cx="71.12" cy="74.25" r="5.5"/>
<circle cx="91.44" cy="74.25" r="5.5"/>
</g><g style="fill:#cc0000">
<circle cx="10.16" cy="34.25" r="5.5"/>
<circle cx="30.48" cy="34.25" r="5.5"/>
<circle cx="30.48" cy="54.25" r="5.5"/>
<circle cx="50.8" cy="34.25" r="5.5"/>
<circle cx="50.8" cy="54.25" r="5.5"/>
<circle cx="71.12" cy="34.25" r="5.5"/>
<circle cx="91.44" cy="14.25" r="5.5"/>
<circle cx="91.44" cy="34.25" r="5.5"/>
</g><g style="stroke-width:0.3"><g style="fill:#212121">
<path d="m 30.875636,1.537592 q 0.05581,0 0.09922,0.034106 0.04341,0.034106 0.05581,0.089917 l 0.480591,2.1611084 0.480591,-2.1611084 q 0.0124,-0.055811 0.05581,-0.089917 0.04341,-0.034106 0.09922,-0.034106 0.05581,0 0.09922,0.034106 0.04341,0.034106 0.05581,0.089917 l 0.480591,2.1611084 0.480591,-2.1611084 q 0.0124,-0.055811 0.05581,-0.089917 0.04341,-0.034106 0.09922,-0.034106 0.06511,0 0.111621,0.046509 0.04651,0.046509 0.04651,0.111621 0,0.018604 -0.0031,0.034107 l -0.63562,2.8587402 q -0.0124,0.055811 -0.05581,0.089917 -0.04341,0.034106 -0.09922,0.034106 -0.05581,0 -0.09922,-0.034106 -0.04341,-0.034107 -0.05581,-0.089917 L 32.14688,2.42436 31.666289,4.588569 q -0.0124,0.055811 -0.05581,0.089917 -0.04341,0.034106 -0.09922,0.034106 -0.05581,0 -0.09922,-0.034106 -0.04341,-0.034107 -0.05581,-0.089917 L 30.720606,1.7298283 q -0.0031,-0.015503 -0.0031,-0.034107 0,-0.065112 0.04651,-0.111621 0.04651,-0.046509 0.111621,-0.046509 z"/>
<path d="M 34.050636,4.554462 V 1.6957218 q 0,-0.065112 0.04651,-0.111621 0.04651,-0.046509 0.111621,-0.046509 0.06511,0 0.111621,0.046509 0.04651,0.046509 0.04651,0.111621 V 4.554462 q 0,0.065112 -0.04651,0.1116211 -0.04651,0.046509 -0.111621,0.046509 -0.06511,0 -0.111621,-0.046509 -0.04651,-0.046509 -0.04651,-0.1116211 z"/>
<path d="m 35.160646,4.7125919 q -0.06511,0 -0.111622,-0.046509 -0.04651,-0.046509 -0.04651,-0.1116211 v -2.85874 q 0,-0.065112 0.04651,-0.111621 0.04651,-0.046509 0.111622,-0.046509 0.04341,0 0.08062,0.021704 0.03721,0.021704 0.05891,0.058911 L 36.59002,3.9405459 V 1.6957218 q 0,-0.065112 0.04651,-0.111621 0.04651,-0.046509 0.111622,-0.046509 0.06511,0 0.111621,0.046509 0.04651,0.046509 0.04651,0.111621 V 4.554462 q 0,0.065112 -0.04651,0.1116211 -0.04651,0.046509 -0.111621,0.046509 -0.04341,0 -0.08062,-0.021704 -0.03721,-0.021704 -0.05891,-0.058911 L 35.318775,2.3096379 V 4.554462 q 0,0.065112 -0.04651,0.1116211 -0.04651,0.046509 -0.111621,0.046509 z"/>
<path d="m 38.177516,4.7125919 h -0.477491 q -0.06511,0 -0.111621,-0.046509 -0.04651,-0.046509 -0.04651,-0.1116211 v -2.85874 q 0,-0.065112 0.04651,-0.111621 0.04651,-0.046509 0.111621,-0.046509 h 0.477491 q 0.458886,0 0.784448,0.3255615 0.483691,0.4836914 0.483691,1.2619384 0,0.7782471 -0.483691,1.2619385 -0.325562,0.3255615 -0.784448,0.3255615 z M 37.858155,4.3963322 h 0.319361 q 0.328662,0 0.561206,-0.232544 0.390674,-0.3906738 0.390674,-1.0386963 0,-0.6480224 -0.390674,-1.0386962 -0.232544,-0.232544 -0.561206,-0.232544 h -0.319361 z"/>
<path d="m 39.768116,3.1250919 q 0,-0.8712646 0.440283,-1.3084472 0.275952,-0.2790527 0.669726,-0.2790527 0.393775,0 0.672828,0.2790527 0.437182,0.4371826 0.437182,1.3084472 0,0.8712647 -0.437182,1.3084473 -0.279053,0.2790527 -0.672828,0.2790527 -0.393774,0 -0.672827,-0.2790527 -0.437182,-0.4371826 -0.437182,-1.3084473 z m 1.110009,-1.2712402 q -0.263549,0 -0.449585,0.1860352 -0.344165,0.344165 -0.344165,1.085205 0,0.7410401 0.344165,1.0852051 0.186036,0.1860352 0.449585,0.1860352 0.26355,0 0.449585,-0.1860352 0.344165,-0.344165 0.344165,-1.0852051 0,-0.74104 -0.344165,-1.085205 -0.186035,-0.1860352 -0.449585,-0.1860352 z"/>
<path d="m 42.465625,1.537592 q 0.05581,0 0.09922,0.034106 0.04341,0.034106 0.05581,0.089917 l 0.480591,2.1611084 0.48059,-2.1611084 q 0.0124,-0.055811 0.05581,-0.089917 0.04341,-0.034106 0.09922,-0.034106 0.05581,0 0.09922,0.034106 0.04341,0.034106 0.05581,0.089917 l 0.480591,2.1611084 0.480591,-2.1611084 q 0.0124,-0.055811 0.05581,-0.089917 0.04341,-0.034106 0.09922,-0.034106 0.06511,0 0.111621,0.046509 0.04651,0.046509 0.04651,0.111621 0,0.018604 -0.0031,0.034107 l -0.63562,2.8587402 q -0.0124,0.055811 -0.05581,0.089917 -0.04341,0.034106 -0.09922,0.034106 -0.05581,0 -0.09922,-0.034106 -0.04341,-0.034107 -0.05581,-0.089917 L 43.736869,2.42436 43.256278,4.588569 q -0.0124,0.055811 -0.05581,0.089917 -0.04341,0.034106 -0.09922,0.034106 -0.05581,0 -0.09922,-0.034106 -0.04341,-0.034107 -0.05581,-0.089917 l -0.63562,-2.8587402 q -0.0031,-0.015503 -0.0031,-0.034107 0,-0.065112 0.04651,-0.111621 0.04651,-0.046509 0.111621,-0.046509 z"/>
<path d="m 48.654394,4.7125919 q -0.458886,0 -0.784448,-0.3255615 -0.483691,-0.4836914 -0.483691,-1.2619385 0,-0.778247 0.483691,-1.2619384 0.325562,-0.3255615 0.784448,-0.3255615 0.437183,0 0.747242,0.3100586 0.04651,0.046509 0.04651,0.111621 0,0.065112 -0.04651,0.1116211 -0.04651,0.046509 -0.111622,0.046509 -0.06511,0 -0.111621,-0.046509 -0.217041,-0.217041 -0.523999,-0.217041 -0.328662,0 -0.561206,0.232544 -0.390674,0.3906738 -0.390674,1.0386962 0,0.6480225 0.390674,1.0386963 0.232544,0.232544 0.561206,0.232544 0.269751,0 0.477491,-0.1736329 V 3.4413517 h -0.31626 q -0.06511,0 -0.111621,-0.046509 -0.04651,-0.046509 -0.04651,-0.1116211 0,-0.065112 0.04651,-0.1116211 0.04651,-0.046509 0.111621,-0.046509 h 0.474389 q 0.06511,0 0.111622,0.046509 0.04651,0.046509 0.04651,0.1116211 V 4.290912 q 0,0.065112 -0.04651,0.1116211 -0.310059,0.3100586 -0.747242,0.3100588 z"/>
<path d="M 50.086865,4.554462 V 1.6957218 q 0,-0.065112 0.04651,-0.111621 0.04651,-0.046509 0.111621,-0.046509 h 1.5875 q 0.06511,-0.0031 0.111621,0.046509 0.04651,0.046509 0.04651,0.111621 0,0.065112 -0.04651,0.1116211 -0.04651,0.046509 -0.114722,0.046509 h -1.426269 v 0.9549805 h 1.11311 q 0.06511,0 0.111621,0.046509 0.04651,0.046509 0.04651,0.1116211 0,0.065112 -0.04651,0.1116211 -0.04651,0.046509 -0.111621,0.046509 h -1.11311 v 1.2712403 h 1.42937 q 0.06511,0 0.111621,0.046509 0.04651,0.046509 0.04651,0.1116211 0,0.065112 -0.04651,0.1116211 -0.04651,0.046509 -0.111621,0.046509 h -1.5875 q -0.06511,0 -0.111621,-0.046509 -0.04651,-0.046509 -0.04651,-0.1116221 z"/>
<path d="m 52.629346,4.7125919 q -0.06511,0 -0.111621,-0.046509 -0.04651,-0.046509 -0.04651,-0.1116211 v -2.85874 q 0,-0.065112 0.04651,-0.111621 0.04651,-0.046509 0.111621,-0.046509 0.04341,0 0.08062,0.021704 0.03721,0.021704 0.05891,0.058911 L 54.05872,3.9405459 V 1.6957218 q 0,-0.065112 0.04651,-0.111621 0.04651,-0.046509 0.111621,-0.046509 0.06511,0 0.111621,0.046509 0.04651,0.046509 0.04651,0.111621 V 4.554462 q 0,0.065112 -0.04651,0.1116211 -0.04651,0.046509 -0.111621,0.046509 -0.04341,0 -0.08062,-0.021704 -0.03721,-0.021704 -0.05891,-0.058911 L 52.787476,2.3096379 V 4.554462 q 0,0.065112 -0.04651,0.1116211 -0.04651,0.046509 -0.111621,0.046509 z"/>
<path d="M 55.010596,4.554462 V 1.6957218 q 0,-0.065112 0.04651,-0.111621 0.04651,-0.046509 0.111621,-0.046509 h 1.5875 q 0.06511,-0.0031 0.111621,0.046509 0.04651,0.046509 0.04651,0.111621 0,0.065112 -0.04651,0.1116211 -0.04651,0.046509 -0.114722,0.046509 h -1.426269 v 0.9549805 h 1.11311 q 0.06511,0 0.111621,0.046509 0.04651,0.046509 0.04651,0.1116211 0,0.065112 -0.04651,0.1116211 -0.04651,0.046509 -0.111621,0.046509 h -1.11311 v 1.2712403 h 1.42937 q 0.06511,0 0.111621,0.046509 0.04651,0.046509 0.04651,0.1116211 0,0.065112 -0.04651,0.1116211 -0.04651,0.046509 -0.111621,0.046509 h -1.5875 q -0.06511,0 -0.111621,-0.046509 -0.04651,-0.046509 -0.04651,-0.1116221 z"/>
<path d="m 58.979346,2.331342 q 0,-0.1984375 -0.139526,-0.3379639 -0.139526,-0.1395264 -0.337964,-0.1395264 h -0.79375 v 0.9549805 h 0.79375 q 0.198438,0 0.337964,-0.1395264 0.139526,-0.1395263 0.139526,-0.3379638 z m 0.15813,2.3812499 q -0.04651,0 -0.08682,-0.024805 -0.03721,-0.024805 -0.05891,-0.068213 L 58.325123,3.1250919 H 57.708106 V 4.554462 q 0,0.065112 -0.04651,0.1116211 -0.04651,0.046509 -0.111621,0.046509 -0.06511,0 -0.111621,-0.046509 -0.04651,-0.046509 -0.04651,-0.1116211 V 1.6957218 q 0,-0.065112 0.04651,-0.111621 0.04651,-0.046509 0.111621,-0.046509 h 0.95188 q 0.328662,0 0.561206,0.2325439 0.232544,0.2325439 0.232544,0.5581055 0.0031,0.3317627 -0.229443,0.5643066 -0.167432,0.1643311 -0.396875,0.2139404 l 0.613916,1.3828613 q 0.0124,0.031006 0.0124,0.065112 0,0.065112 -0.04651,0.1116211 -0.04651,0.046509 -0.111621,0.046509 z"/>
<path d="m 59.773097,4.7125919 q -0.06511,0 -0.111621,-0.046509 -0.04651,-0.046509 -0.04651,-0.1116211 0,-0.018604 0.0062,-0.046509 l 0.79375,-2.8556396 q 0.0124,-0.049609 0.05581,-0.080615 0.04341,-0.034106 0.09612,-0.034106 0.05271,0 0.09612,0.034106 0.04341,0.031006 0.05581,0.080615 l 0.79375,2.8587402 q 0.0062,0.024805 0.0062,0.043408 0,0.065112 -0.04651,0.1116211 -0.04651,0.046509 -0.111621,0.046509 -0.04651,0 -0.09302,-0.031006 -0.04651,-0.034107 -0.05891,-0.080615 L 61.062937,4.0769715 H 60.07075 l -0.145728,0.523999 q -0.0124,0.046509 -0.06201,0.080615 -0.04651,0.031006 -0.08992,0.031006 z M 60.157569,3.760712 h 0.818555 L 60.566847,2.2910343 Z"/>
<path d="M 62.628735,4.554462 V 1.8538517 h -0.63562 q -0.06511,0 -0.111621,-0.046509 -0.04651,-0.046509 -0.04651,-0.1116211 0,-0.065112 0.04651,-0.111621 0.04651,-0.046509 0.111621,-0.046509 h 1.5875 q 0.06511,0 0.111621,0.046509 0.04651,0.046509 0.04651,0.111621 0,0.065112 -0.04651,0.1116211 -0.04651,0.046509 -0.111621,0.046509 h -0.63562 V 4.554462 q 0,0.065112 -0.04651,0.1116211 -0.04651,0.046509 -0.111621,0.046509 -0.06511,0 -0.111621,-0.046509 -0.04651,-0.046509 -0.04651,-0.1116211 z"/>
<path d="m 64.058104,3.1250919 q 0,-0.8712646 0.440283,-1.3084472 0.275953,-0.2790527 0.669727,-0.2790527 0.393774,0 0.672827,0.2790527 0.437183,0.4371826 0.437183,1.3084472 0,0.8712647 -0.437183,1.3084473 -0.279053,0.2790527 -0.672827,0.2790527 -0.393774,0 -0.672827,-0.2790527 -0.437183,-0.4371826 -0.437183,-1.3084473 z m 1.11001,-1.2712402 q -0.26355,0 -0.449585,0.1860352 -0.344165,0.344165 -0.344165,1.085205 0,0.7410401 0.344165,1.0852051 0.186035,0.1860352 0.449585,0.1860352 0.26355,0 0.449585,-0.1860352 0.344165,-0.344165 0.344165,-1.0852051 0,-0.74104 -0.344165,-1.085205 -0.186035,-0.1860352 -0.449585,-0.1860352 z"/>
<path d="m 68.343114,2.331342 q 0,-0.1984375 -0.139526,-0.3379639 -0.139527,-0.1395264 -0.337964,-0.1395264 h -0.79375 v 0.9549805 h 0.79375 q 0.198437,0 0.337964,-0.1395264 0.139526,-0.1395263 0.139526,-0.3379638 z m 0.15813,2.3812499 q -0.04651,0 -0.08682,-0.024805 -0.03721,-0.024805 -0.05891,-0.068213 L 67.68889,3.1250919 H 67.071874 V 4.554462 q 0,0.065112 -0.04651,0.1116211 -0.04651,0.046509 -0.111621,0.046509 -0.06511,0 -0.111621,-0.046509 -0.04651,-0.046509 -0.04651,-0.1116211 V 1.6957218 q 0,-0.065112 0.04651,-0.111621 0.04651,-0.046509 0.111621,-0.046509 h 0.95188 q 0.328662,0 0.561206,0.2325439 0.232544,0.2325439 0.232544,0.5581055 0.0031,0.3317627 -0.229444,0.5643066 -0.167431,0.1643311 -0.396875,0.2139404 l 0.613917,1.3828613 q 0.0124,0.031006 0.0124,0.065112 0,0.065112 -0.04651,0.1116211 -0.04651,0.046509 -0.111621,0.046509 z"/>
<path d="m 69.930616,4.7125919 q -0.5302,0 -0.905371,-0.3751709 -0.04651,-0.046509 -0.04651,-0.1116211 0,-0.065112 0.04651,-0.1116211 0.04651,-0.046509 0.111621,-0.046509 0.06511,0 0.111621,0.046509 0.282154,0.2821534 0.682129,0.2821534 0.26355,0 0.449585,-0.1860352 0.186035,-0.1860352 0.186035,-0.449585 0,-0.1395263 -0.07441,-0.254248 -0.07442,-0.1178223 -0.198441,-0.1767334 L 69.546144,2.9762638 Q 69.357008,2.8863468 69.245387,2.712714 69.136866,2.5390812 69.136866,2.331342 q 0,-0.3286622 0.232544,-0.5612061 0.232544,-0.2325439 0.561206,-0.2325439 0.437183,0 0.747241,0.3100586 0.04651,0.046509 0.04651,0.111621 0,0.065112 -0.04651,0.1116211 -0.04651,0.046509 -0.111621,0.046509 -0.06511,0 -0.111621,-0.046509 -0.217041,-0.217041 -0.523999,-0.217041 -0.198437,0 -0.337964,0.1395264 -0.139526,0.1395264 -0.139526,0.3379639 0,0.1147216 0.06201,0.2139404 0.06201,0.096118 0.164331,0.1457275 l 0.747241,0.3534668 q 0.207739,0.099219 0.331763,0.2945557 0.124023,0.1922363 0.124023,0.4216796 0,0.3937745 -0.279053,0.6728272 -0.279052,0.2790527 -0.672827,0.2790527 z"/>
<path d="m 9.6065442,124.67937 v -2.70061 H 8.9709241 q -0.065112,0 -0.1116211,-0.0465 -0.046509,-0.0465 -0.046509,-0.11162 0,-0.0651 0.046509,-0.11162 0.046509,-0.0465 0.1116211,-0.0465 h 1.5874999 q 0.06511,0 0.111621,0.0465 0.04651,0.0465 0.04651,0.11162 0,0.0651 -0.04651,0.11162 -0.04651,0.0465 -0.111621,0.0465 h -0.63562 v 2.70061 q 0,0.0651 -0.046509,0.11162 -0.046509,0.0465 -0.1116211,0.0465 -0.065112,0 -0.1116211,-0.0465 -0.046509,-0.0465 -0.046509,-0.11162 z"/>
<path d="m 11.190944,124.67937 v -2.85874 q 0,-0.0651 0.04651,-0.11162 0.04651,-0.0465 0.111621,-0.0465 0.06511,0 0.111621,0.0465 0.04651,0.0465 0.04651,0.11162 v 2.85874 q 0,0.0651 -0.04651,0.11162 -0.04651,0.0465 -0.111621,0.0465 -0.06511,0 -0.111621,-0.0465 -0.04651,-0.0465 -0.04651,-0.11162 z"/>
<path d="m 29.211859,124.67937 v -2.70061 h -0.63562 q -0.06511,0 -0.111621,-0.0465 -0.04651,-0.0465 -0.04651,-0.11162 0,-0.0651 0.04651,-0.11162 0.04651,-0.0465 0.111621,-0.0465 h 1.5875 q 0.06511,0 0.111621,0.0465 0.04651,0.0465 0.04651,0.11162 0,0.0651 -0.04651,0.11162 -0.04651,0.0465 -0.111621,0.0465 h -0.63562 v 2.70061 q 0,0.0651 -0.04651,0.11162 -0.04651,0.0465 -0.111621,0.0465 -0.06511,0 -0.111621,-0.0465 -0.04651,-0.0465 -0.04651,-0.11162 z"/>
<path d="m 30.796259,122.08418 q 0,-0.0651 0.04651,-0.11162 0.310058,-0.31006 0.747241,-0.31006 0.328662,0 0.561206,0.23255 0.232544,0.23254 0.232544,0.5612 0,0.32866 -0.232544,0.56121 l -0.868164,0.86816 q -0.26355,0.26355 -0.31626,0.63562 h 1.416968 q 0.06511,0 0.111621,0.0465 0.04651,0.0465 0.04651,0.11162 0,0.0651 -0.04651,0.11162 -0.04651,0.0465 -0.111621,0.0465 h -1.5875 q -0.06511,0 -0.111621,-0.0465 -0.04651,-0.0465 -0.04651,-0.11162 0,-0.59531 0.42168,-1.01699 l 0.868164,-0.86816 q 0.139526,-0.13953 0.139526,-0.33797 0,-0.19844 -0.139526,-0.33796 -0.139527,-0.13953 -0.337964,-0.13953 -0.303857,0 -0.523999,0.21704 -0.04651,0.0465 -0.111621,0.0465 -0.06511,0 -0.111621,-0.0465 -0.04651,-0.0465 -0.04651,-0.11162 z"/>
<path d="m 49.531862,124.67937 v -2.70061 h -0.63562 q -0.06511,0 -0.111621,-0.0465 -0.04651,-0.0465 -0.04651,-0.11162 0,-0.0651 0.04651,-0.11162 0.04651,-0.0465 0.111621,-0.0465 h 1.5875 q 0.06511,0 0.111621,0.0465 0.04651,0.0465 0.04651,0.11162 0,0.0651 -0.04651,0.11162 -0.04651,0.0465 -0.111621,0.0465 h -0.63562 v 2.70061 q 0,0.0651 -0.04651,0.11162 -0.04651,0.0465 -0.111621,0.0465 -0.06511,0 -0.111621,-0.0465 -0.04651,-0.0465 -0.04651,-0.11162 z"/>
<path d="m 51.116261,121.82063 q 0,-0.0651 0.04651,-0.11162 0.04651,-0.0465 0.111621,-0.0465 h 1.27124 q 0.06511,0 0.111622,0.0465 0.04651,0.0465 0.04651,0.11162 0,0.0496 -0.03101,0.093 l -0.641821,0.89917 q 0.291455,0.0744 0.505396,0.28835 0.325561,0.32556 0.325561,0.78445 0,0.39378 -0.279053,0.67283 -0.279052,0.27905 -0.672827,0.27905 -0.5302,0 -0.905371,-0.37517 -0.04651,-0.0465 -0.04651,-0.11162 0,-0.0651 0.04651,-0.11162 0.04651,-0.0465 0.111621,-0.0465 0.06511,0 0.111621,0.0465 0.282154,0.28215 0.682129,0.28215 0.26355,0 0.449585,-0.18603 0.186035,-0.18604 0.186035,-0.44959 0,-0.32866 -0.232544,-0.5612 -0.232543,-0.23255 -0.561206,-0.23255 -0.06511,0 -0.111621,-0.0465 -0.04651,-0.0465 -0.04651,-0.11162 0,-0.0496 0.03101,-0.093 l 0.613916,-0.86196 h -0.964282 q -0.06511,0 -0.111621,-0.0465 -0.04651,-0.0465 -0.04651,-0.11162 z"/>
<path d="m 64.853713,124.8375 q -0.5302,0 -0.905371,-0.37517 -0.04651,-0.0465 -0.04651,-0.11162 0,-0.0651 0.04651,-0.11162 0.04651,-0.0465 0.111621,-0.0465 0.06511,0 0.111621,0.0465 0.282154,0.28215 0.682129,0.28215 0.26355,0 0.449585,-0.18603 0.186035,-0.18604 0.186035,-0.44959 0,-0.13952 -0.07441,-0.25425 -0.07441,-0.11782 -0.198437,-0.17673 l -0.747241,-0.35347 q -0.189136,-0.0899 -0.300757,-0.26355 -0.108521,-0.17363 -0.108521,-0.38137 0,-0.32866 0.232544,-0.5612 0.232544,-0.23255 0.561206,-0.23255 0.437183,0 0.747242,0.31006 0.04651,0.0465 0.04651,0.11162 0,0.0651 -0.04651,0.11162 -0.04651,0.0465 -0.111622,0.0465 -0.06511,0 -0.111621,-0.0465 -0.217041,-0.21704 -0.523999,-0.21704 -0.198437,0 -0.337964,0.13953 -0.139526,0.13952 -0.139526,0.33796 0,0.11472 0.06201,0.21394 0.06201,0.0961 0.164331,0.14573 l 0.747241,0.35347 q 0.207739,0.0992 0.331763,0.29455 0.124023,0.19224 0.124023,0.42168 0,0.39378 -0.279053,0.67283 -0.279052,0.27905 -0.672827,0.27905 z"/>
<path d="m 66.283084,123.88562 v -2.06499 q 0,-0.0651 0.04651,-0.11162 0.04651,-0.0465 0.111621,-0.0465 0.06511,0 0.111621,0.0465 0.04651,0.0465 0.04651,0.11162 v 2.06499 q 0,0.26355 0.186035,0.44959 0.186036,0.18603 0.449585,0.18603 0.26355,0 0.449585,-0.18603 0.186035,-0.18604 0.186035,-0.44959 v -2.06499 q 0,-0.0651 0.04651,-0.11162 0.04651,-0.0465 0.111621,-0.0465 0.06511,0 0.111621,0.0465 0.04651,0.0465 0.04651,0.11162 v 2.06499 q 0,0.39378 -0.279052,0.67283 -0.279053,0.27905 -0.672828,0.27905 -0.393774,0 -0.672827,-0.27905 -0.279052,-0.27905 -0.279052,-0.67283 z"/>
<path d="m 69.616213,124.8375 q -0.5302,0 -0.905371,-0.37517 -0.04651,-0.0465 -0.04651,-0.11162 0,-0.0651 0.04651,-0.11162 0.04651,-0.0465 0.111621,-0.0465 0.06511,0 0.111621,0.0465 0.282154,0.28215 0.682129,0.28215 0.26355,0 0.449585,-0.18603 0.186035,-0.18604 0.186035,-0.44959 0,-0.13952 -0.07441,-0.25425 -0.07441,-0.11782 -0.198437,-0.17673 l -0.747242,-0.35347 q -0.189135,-0.0899 -0.300756,-0.26355 -0.108521,-0.17363 -0.108521,-0.38137 0,-0.32866 0.232544,-0.5612 0.232544,-0.23255 0.561206,-0.23255 0.437183,0 0.747241,0.31006 0.04651,0.0465 0.04651,0.11162 0,0.0651 -0.04651,0.11162 -0.04651,0.0465 -0.111621,0.0465 -0.06511,0 -0.111621,-0.0465 -0.217041,-0.21704 -0.523999,-0.21704 -0.198437,0 -0.337964,0.13953 -0.139526,0.13952 -0.139526,0.33796 0,0.11472 0.06201,0.21394 0.06201,0.0961 0.164331,0.14573 l 0.747241,0.35347 q 0.207739,0.0992 0.331763,0.29455 0.124023,0.19224 0.124023,0.42168 0,0.39378 -0.279053,0.67283 -0.279052,0.27905 -0.672827,0.27905 z"/>
<path d="m 71.678103,124.67937 v -2.70061 h -0.63562 q -0.06511,0 -0.111621,-0.0465 -0.04651,-0.0465 -0.04651,-0.11162 0,-0.0651 0.04651,-0.11162 0.04651,-0.0465 0.111621,-0.0465 h 1.5875 q 0.06511,0 0.111621,0.0465 0.04651,0.0465 0.04651,0.11162 0,0.0651 -0.04651,0.11162 -0.04651,0.0465 -0.111621,0.0465 h -0.63562 v 2.70061 q 0,0.0651 -0.04651,0.11162 -0.04651,0.0465 -0.111621,0.0465 -0.06511,0 -0.111621,-0.0465 -0.04651,-0.0465 -0.04651,-0.11162 z"/>
<path d="m 73.262503,124.8375 q -0.06511,0 -0.111621,-0.0465 -0.04651,-0.0465 -0.04651,-0.11162 0,-0.0186 0.0062,-0.0465 l 0.79375,-2.85564 q 0.0124,-0.0496 0.05581,-0.0806 0.04341,-0.0341 0.09612,-0.0341 0.05271,0 0.09612,0.0341 0.04341,0.031 0.05581,0.0806 l 0.79375,2.85874 q 0.0062,0.0248 0.0062,0.0434 0,0.0651 -0.04651,0.11162 -0.04651,0.0465 -0.111621,0.0465 -0.04651,0 -0.09302,-0.031 -0.04651,-0.0341 -0.05891,-0.0806 l -0.145727,-0.524 h -0.992188 l -0.145728,0.524 q -0.0124,0.0465 -0.06201,0.0806 -0.04651,0.031 -0.08992,0.031 z m 0.384472,-0.95188 h 0.818555 l -0.409277,-1.46968 z"/>
<path d="m 75.482522,124.67937 v -2.85874 q 0,-0.0651 0.04651,-0.11162 0.04651,-0.0465 0.111621,-0.0465 0.06511,0 0.111621,0.0465 0.04651,0.0465 0.04651,0.11162 v 2.85874 q 0,0.0651 -0.04651,0.11162 -0.04651,0.0465 -0.111621,0.0465 -0.06511,0 -0.111621,-0.0465 -0.04651,-0.0465 -0.04651,-0.11162 z"/>
<path d="m 76.592532,124.8375 q -0.06511,0 -0.111621,-0.0465 -0.04651,-0.0465 -0.04651,-0.11162 v -2.85874 q 0,-0.0651 0.04651,-0.11162 0.04651,-0.0465 0.111621,-0.0465 0.04341,0 0.08062,0.0217 0.03721,0.0217 0.05891,0.0589 l 1.289844,2.32234 v -2.24483 q 0,-0.0651 0.04651,-0.11162 0.04651,-0.0465 0.111621,-0.0465 0.06511,0 0.111621,0.0465 0.04651,0.0465 0.04651,0.11162 v 2.85874 q 0,0.0651 -0.04651,0.11162 -0.04651,0.0465 -0.111621,0.0465 -0.04341,0 -0.08062,-0.0217 -0.03721,-0.0217 -0.05891,-0.0589 l -1.289843,-2.32234 v 2.24482 q 0,0.0651 -0.04651,0.11162 -0.04651,0.0465 -0.111621,0.0465 z"/>
<path d="m 90.171863,124.67936 v -2.70061 h -0.63562 q -0.06511,0 -0.111621,-0.0465 -0.04651,-0.0465 -0.04651,-0.11162 0,-0.0651 0.04651,-0.11162 0.04651,-0.0465 0.111621,-0.0465 h 1.5875 q 0.06511,0 0.111621,0.0465 0.04651,0.0465 0.04651,0.11162 0,0.0651 -0.04651,0.11162 -0.04651,0.0465 -0.111621,0.0465 h -0.63562 v 2.70061 q 0,0.0651 -0.04651,0.11162 -0.04651,0.0465 -0.111621,0.0465 -0.06511,0 -0.111621,-0.0465 -0.04651,-0.0465 -0.04651,-0.11162 z"/>
<path d="m 93.027502,124.83749 q -0.06511,0 -0.111621,-0.0465 -0.04651,-0.0465 -0.04651,-0.11162 v -1.11311 H 91.75626 q -0.06511,0 -0.111621,-0.0465 -0.04651,-0.0465 -0.04651,-0.11162 0,-0.10852 0.07441,-0.19534 l 1.21233,-1.49758 q 0.04341,-0.0465 0.142626,-0.0527 0.06511,0 0.111622,0.0465 0.04651,0.0465 0.04651,0.11162 v 1.42935 h 0.15813 q 0.06511,0 0.111621,0.0465 0.04651,0.0465 0.04651,0.11162 0,0.0651 -0.04651,0.11162 -0.04651,0.0465 -0.111621,0.0465 h -0.15813 v 1.11311 q 0,0.0651 -0.04651,0.11162 -0.04651,0.0465 -0.111622,0.0465 z m -0.158129,-1.5875 v -1.03249 l -0.84336,1.03249 z"/>
<path d="m 17.065933,64.837587 q -0.458886,0 -0.784448,-0.325561 -0.483691,-0.483692 -0.483691,-1.261939 0,-0.778247 0.483691,-1.261938 0.325562,-0.325562 0.784448,-0.325562 0.437183,0 0.747242,0.310059 0.04651,0.04651 0.04651,0.111621 0,0.06511 -0.04651,0.111621 -0.04651,0.04651 -0.111621,0.04651 -0.06511,0 -0.111622,-0.04651 -0.217041,-0.217041 -0.523999,-0.217041 -0.328662,0 -0.561206,0.232544 -0.390673,0.390674 -0.390673,1.038696 0,0.648023 0.390673,1.038696 0.232544,0.232544 0.561206,0.232544 0.269751,0 0.477491,-0.173632 v -0.781348 h -0.31626 q -0.06511,0 -0.111621,-0.04651 -0.04651,-0.04651 -0.04651,-0.111621 0,-0.06511 0.04651,-0.111621 0.04651,-0.04651 0.111621,-0.04651 h 0.47439 q 0.06511,0 0.111621,0.04651 0.04651,0.04651 0.04651,0.111621 v 1.00769 q 0,0.06511 -0.04651,0.111621 -0.310059,0.310059 -0.747242,0.31006 z"/>
<path d="m 18.498404,64.837587 q -0.06511,0 -0.111621,-0.04651 -0.04651,-0.04651 -0.04651,-0.111621 0,-0.0186 0.0062,-0.04651 l 0.79375,-2.855639 q 0.0124,-0.04961 0.05581,-0.08062 0.04341,-0.03411 0.09612,-0.03411 0.05271,0 0.09612,0.03411 0.04341,0.03101 0.05581,0.08062 l 0.79375,2.85874 q 0.0062,0.02481 0.0062,0.04341 0,0.06511 -0.04651,0.111621 -0.04651,0.04651 -0.111621,0.04651 -0.04651,0 -0.09302,-0.03101 -0.04651,-0.03411 -0.05891,-0.08062 L 19.788248,64.201967 H 18.79606 l -0.145727,0.523999 q -0.0124,0.04651 -0.06201,0.08062 -0.04651,0.03101 -0.08992,0.03101 z m 0.384473,-0.95188 h 0.818554 l -0.409277,-1.469678 z"/>
<path d="m 21.354044,64.679457 v -2.70061 h -0.635621 q -0.06511,0 -0.111621,-0.04651 -0.04651,-0.04651 -0.04651,-0.111621 0,-0.06511 0.04651,-0.111621 0.04651,-0.04651 0.111621,-0.04651 h 1.5875 q 0.06511,0 0.111622,0.04651 0.04651,0.04651 0.04651,0.111621 0,0.06511 -0.04651,0.111621 -0.04651,0.04651 -0.111622,0.04651 h -0.63562 v 2.70061 q 0,0.06511 -0.04651,0.111621 -0.04651,0.04651 -0.111622,0.04651 -0.06511,0 -0.111621,-0.04651 -0.04651,-0.04651 -0.04651,-0.111621 z"/>
<path d="m 22.938443,64.679457 v -2.85874 q 0,-0.06511 0.04651,-0.111621 0.04651,-0.04651 0.111621,-0.04651 h 1.5875 q 0.06511,-0.0031 0.111621,0.04651 0.04651,0.04651 0.04651,0.111621 0,0.06511 -0.04651,0.111621 -0.04651,0.04651 -0.114721,0.04651 h -1.42627 v 0.95498 h 1.11311 q 0.06511,0 0.111621,0.04651 0.04651,0.04651 0.04651,0.111621 0,0.06511 -0.04651,0.111621 -0.04651,0.04651 -0.111621,0.04651 h -1.11311 v 1.27124 h 1.42937 q 0.06511,0 0.111621,0.04651 0.04651,0.04651 0.04651,0.111621 0,0.06511 -0.04651,0.111621 -0.04651,0.04651 -0.111621,0.04651 h -1.5875 q -0.06511,0 -0.111621,-0.04651 -0.04651,-0.04651 -0.04651,-0.111621 z"/>
<path d="m 44.054657,64.679459 v -2.70061 h -0.63562 q -0.06511,0 -0.111622,-0.04651 -0.04651,-0.04651 -0.04651,-0.111621 0,-0.06511 0.04651,-0.111621 0.04651,-0.04651 0.111622,-0.04651 h 1.5875 q 0.06511,0 0.111621,0.04651 0.04651,0.04651 0.04651,0.111621 0,0.06511 -0.04651,0.111621 -0.04651,0.04651 -0.111621,0.04651 h -0.635621 v 2.70061 q 0,0.06511 -0.04651,0.111621 -0.04651,0.04651 -0.111621,0.04651 -0.06511,0 -0.111622,-0.04651 -0.04651,-0.04651 -0.04651,-0.111621 z"/>
<path d="m 47.226556,62.456339 q 0,-0.198437 -0.139526,-0.337964 -0.139527,-0.139526 -0.337964,-0.139526 h -0.79375 v 0.95498 h 0.79375 q 0.198437,0 0.337964,-0.139526 0.139526,-0.139526 0.139526,-0.337964 z m 0.15813,2.38125 q -0.04651,0 -0.08682,-0.02481 -0.03721,-0.0248 -0.05891,-0.06821 l -0.666625,-1.494483 h -0.617017 v 1.42937 q 0,0.06511 -0.04651,0.111621 -0.04651,0.04651 -0.111621,0.04651 -0.06511,0 -0.111621,-0.04651 -0.04651,-0.04651 -0.04651,-0.111621 v -2.85874 q 0,-0.06511 0.04651,-0.111621 0.04651,-0.04651 0.111621,-0.04651 h 0.95188 q 0.328662,0 0.561206,0.232544 0.232544,0.232544 0.232544,0.558106 0.0031,0.331762 -0.229443,0.564306 -0.167432,0.164331 -0.396875,0.213941 l 0.613916,1.382861 q 0.0124,0.03101 0.0124,0.06511 0,0.06511 -0.04651,0.111621 -0.04651,0.04651 -0.111621,0.04651 z"/>
<path d="m 48.020306,64.679459 v -2.85874 q 0,-0.06511 0.04651,-0.111621 0.04651,-0.04651 0.111621,-0.04651 0.06511,0 0.111621,0.04651 0.04651,0.04651 0.04651,0.111621 v 2.85874 q 0,0.06511 -0.04651,0.111621 -0.04651,0.04651 -0.111621,0.04651 -0.06511,0 -0.111621,-0.04651 -0.04651,-0.04651 -0.04651,-0.111621 z"/>
<path d="m 50.079095,64.837589 q -0.458887,0 -0.784448,-0.325561 -0.483691,-0.483692 -0.483691,-1.261939 0,-0.778247 0.483691,-1.261938 0.325561,-0.325562 0.784448,-0.325562 0.437183,0 0.747241,0.310059 0.04651,0.04651 0.04651,0.111621 0,0.06511 -0.04651,0.111621 -0.04651,0.04651 -0.111621,0.04651 -0.06511,0 -0.111621,-0.04651 -0.217041,-0.217041 -0.523999,-0.217041 -0.328662,0 -0.561206,0.232544 -0.390674,0.390674 -0.390674,1.038696 0,0.648023 0.390674,1.038696 0.232544,0.232544 0.561206,0.232544 0.269751,0 0.47749,-0.173632 v -0.781348 h -0.316259 q -0.06511,0 -0.111621,-0.04651 -0.04651,-0.04651 -0.04651,-0.111621 0,-0.06511 0.04651,-0.111621 0.04651,-0.04651 0.111621,-0.04651 h 0.474389 q 0.06511,0 0.111621,0.04651 0.04651,0.04651 0.04651,0.111621 v 1.00769 q 0,0.06511 -0.04651,0.111621 -0.310058,0.310059 -0.747241,0.31006 z"/>
<path d="m 52.621576,64.837589 q -0.458887,0 -0.784449,-0.325561 -0.483691,-0.483692 -0.483691,-1.261939 0,-0.778247 0.483691,-1.261938 0.325562,-0.325562 0.784449,-0.325562 0.437182,0 0.747241,0.310059 0.04651,0.04651 0.04651,0.111621 0,0.06511 -0.04651,0.111621 -0.04651,0.04651 -0.111621,0.04651 -0.06511,0 -0.111621,-0.04651 -0.217041,-0.217041 -0.523999,-0.217041 -0.328662,0 -0.561206,0.232544 -0.390674,0.390674 -0.390674,1.038696 0,0.648023 0.390674,1.038696 0.232544,0.232544 0.561206,0.232544 0.269751,0 0.47749,-0.173632 v -0.781348 h -0.31626 q -0.06511,0 -0.111621,-0.04651 -0.04651,-0.04651 -0.04651,-0.111621 0,-0.06511 0.04651,-0.111621 0.04651,-0.04651 0.111621,-0.04651 h 0.47439 q 0.06511,0 0.111621,0.04651 0.04651,0.04651 0.04651,0.111621 v 1.00769 q 0,0.06511 -0.04651,0.111621 -0.310059,0.310059 -0.747241,0.31006 z"/>
<path d="m 54.054046,64.679459 v -2.85874 q 0,-0.06511 0.04651,-0.111621 0.04651,-0.04651 0.111621,-0.04651 h 1.5875 q 0.06511,-0.0031 0.111621,0.04651 0.04651,0.04651 0.04651,0.111621 0,0.06511 -0.04651,0.111621 -0.04651,0.04651 -0.114721,0.04651 h -1.42627 v 0.95498 h 1.11311 q 0.06511,0 0.111622,0.04651 0.04651,0.04651 0.04651,0.111621 0,0.06511 -0.04651,0.111621 -0.04651,0.04651 -0.111622,0.04651 h -1.11311 v 1.27124 h 1.42937 q 0.06511,0 0.111621,0.04651 0.04651,0.04651 0.04651,0.111621 0,0.06511 -0.04651,0.111621 -0.04651,0.04651 -0.111621,0.04651 h -1.5875 q -0.06511,0 -0.111621,-0.04651 -0.04651,-0.04651 -0.04651,-0.111621 z"/>
<path d="m 58.022796,62.456339 q 0,-0.198437 -0.139527,-0.337964 -0.139526,-0.139526 -0.337963,-0.139526 h -0.79375 v 0.95498 h 0.79375 q 0.198437,0 0.337963,-0.139526 0.139527,-0.139526 0.139527,-0.337964 z m 0.15813,2.38125 q -0.04651,0 -0.08682,-0.02481 -0.03721,-0.0248 -0.05891,-0.06821 l -0.666624,-1.49448 h -0.617016 v 1.42937 q 0,0.06511 -0.04651,0.111621 -0.04651,0.04651 -0.111621,0.04651 -0.06511,0 -0.111621,-0.04651 -0.04651,-0.04651 -0.04651,-0.111621 v -2.85874 q 0,-0.06511 0.04651,-0.111621 0.04651,-0.04651 0.111621,-0.04651 h 0.95188 q 0.328662,0 0.561206,0.232544 0.232544,0.232544 0.232544,0.558106 0.0031,0.331762 -0.229444,0.564306 -0.167431,0.164331 -0.396875,0.213941 l 0.613916,1.382861 q 0.0124,0.03101 0.0124,0.06511 0,0.06511 -0.04651,0.111621 -0.04651,0.04651 -0.111621,0.04651 z"/>
<path d="m 86.67905,64.837589 q -0.5302,0 -0.905371,-0.375171 -0.04651,-0.04651 -0.04651,-0.111621 0,-0.06511 0.04651,-0.111621 0.04651,-0.04651 0.111621,-0.04651 0.06511,0 0.111621,0.04651 0.282153,0.282153 0.682129,0.282153 0.26355,0 0.449585,-0.186035 0.186035,-0.186035 0.186035,-0.449585 0,-0.139526 -0.07441,-0.254248 -0.07441,-0.117822 -0.198438,-0.176733 l -0.747241,-0.353467 q -0.189136,-0.08992 -0.300757,-0.26355 -0.10852,-0.173633 -0.10852,-0.381372 0,-0.328662 0.232544,-0.561206 0.232544,-0.232544 0.561206,-0.232544 0.437182,0 0.747241,0.310059 0.04651,0.04651 0.04651,0.111621 0,0.06511 -0.04651,0.111621 -0.04651,0.04651 -0.111621,0.04651 -0.06511,0 -0.111621,-0.04651 -0.217041,-0.217041 -0.523999,-0.217041 -0.198438,0 -0.337964,0.139526 -0.139526,0.139527 -0.139526,0.337964 0,0.114722 0.06201,0.213941 0.06201,0.09612 0.164331,0.145727 l 0.747241,0.353467 q 0.20774,0.09922 0.331763,0.294556 0.124024,0.192236 0.124024,0.421679 0,0.393775 -0.279053,0.672827 -0.279053,0.279053 -0.672827,0.279053 z"/>
<path d="m 88.10842,64.679459 v -2.85874 q 0,-0.06511 0.04651,-0.111621 0.04651,-0.04651 0.111621,-0.04651 0.06511,0 0.111621,0.04651 0.04651,0.04651 0.04651,0.111621 v 1.11311 h 1.27124 v -1.11311 q 0,-0.06511 0.04651,-0.111621 0.04651,-0.04651 0.111621,-0.04651 0.06511,0 0.111621,0.04651 0.04651,0.04651 0.04651,0.111621 v 2.85874 q 0,0.06511 -0.04651,0.111621 -0.04651,0.04651 -0.111621,0.04651 -0.06511,0 -0.111621,-0.04651 -0.04651,-0.04651 -0.04651,-0.111621 v -1.42937 h -1.27124 v 1.42937 q 0,0.06511 -0.04651,0.111621 -0.04651,0.04651 -0.111621,0.04651 -0.06511,0 -0.111621,-0.04651 -0.04651,-0.04651 -0.04651,-0.111621 z"/>
<path d="m 90.6478,64.837589 q -0.06511,0 -0.111622,-0.04651 -0.04651,-0.04651 -0.04651,-0.111621 0,-0.0186 0.0062,-0.04651 l 0.79375,-2.855639 q 0.0124,-0.04961 0.05581,-0.08062 0.04341,-0.03411 0.09612,-0.03411 0.05271,0 0.09612,0.03411 0.04341,0.03101 0.05581,0.08062 l 0.79375,2.85874 q 0.0062,0.02481 0.0062,0.04341 0,0.06511 -0.04651,0.111621 -0.04651,0.04651 -0.111621,0.04651 -0.04651,0 -0.09302,-0.03101 -0.04651,-0.03411 -0.05891,-0.08062 l -0.145728,-0.523999 h -0.992187 l -0.145728,0.523999 q -0.0124,0.04651 -0.06201,0.08062 -0.04651,0.03101 -0.08992,0.03101 z m 0.384472,-0.95188 h 0.818555 L 91.44155,62.416031 Z"/>
<path d="m 92.867819,64.679459 v -2.85874 q 0,-0.06511 0.04651,-0.111621 0.04651,-0.04651 0.111621,-0.04651 h 0.95188 q 0.328662,0 0.561206,0.232544 0.232544,0.232544 0.232544,0.561206 0,0.328662 -0.232544,0.561206 -0.232544,0.232544 -0.561206,0.232544 h -0.79375 v 1.42937 q 0,0.06511 -0.04651,0.111621 -0.04651,0.04651 -0.111621,0.04651 -0.06511,0 -0.111621,-0.04651 -0.04651,-0.04651 -0.04651,-0.111621 z m 1.5875,-2.22312 q 0,-0.198437 -0.139526,-0.337964 -0.139526,-0.139526 -0.337964,-0.139526 h -0.79375 v 0.95498 h 0.79375 q 0.198438,0 0.337964,-0.139526 0.139526,-0.139526 0.139526,-0.337964 z"/>
<path d="m 95.249069,64.679459 v -2.85874 q 0,-0.06511 0.04651,-0.111621 0.04651,-0.04651 0.111621,-0.04651 h 1.5875 q 0.06511,-0.0031 0.111621,0.04651 0.04651,0.04651 0.04651,0.111621 0,0.06511 -0.04651,0.111621 -0.04651,0.04651 -0.114721,0.04651 h -1.42627 v 0.95498 h 1.11311 q 0.06511,0 0.111621,0.04651 0.04651,0.04651 0.04651,0.111621 0,0.06511 -0.04651,0.111621 -0.04651,0.04651 -0.111621,0.04651 h -1.11311 v 1.27124 h 1.42937 q 0.06511,0 0.111621,0.04651 0.04651,0.04651 0.04651,0.111621 0,0.06511 -0.04651,0.111621 -0.04651,0.04651 -0.111621,0.04651 h -1.5875 q -0.06511,0 -0.111621,-0.04651 -0.04651,-0.04651 -0.04651,-0.111621 z"/>
<path d="m 67.94655,64.837504 q -0.06511,0 -0.111622,-0.04651 -0.04651,-0.04651 -0.04651,-0.111621 0,-0.0186 0.0062,-0.04651 l 0.79375,-2.85564 q 0.0124,-0.04961 0.05581,-0.08062 0.04341,-0.03411 0.09612,-0.03411 0.05271,0 0.09612,0.03411 0.04341,0.03101 0.05581,0.08062 l 0.79375,2.85874 q 0.0062,0.02481 0.0062,0.04341 0,0.06511 -0.04651,0.111621 -0.04651,0.04651 -0.111621,0.04651 -0.04651,0 -0.09302,-0.03101 -0.04651,-0.03411 -0.05891,-0.08062 l -0.145728,-0.523999 h -0.992187 l -0.145728,0.523999 q -0.0124,0.04651 -0.06201,0.08062 -0.04651,0.03101 -0.08992,0.03101 z m 0.384472,-0.95188 h 0.818555 L 68.7403,62.415946 Z"/>
<path d="m 70.166569,64.679374 v -2.858741 q 0,-0.06511 0.04651,-0.111621 0.04651,-0.04651 0.111621,-0.04651 0.06511,0 0.111621,0.04651 0.04651,0.04651 0.04651,0.111621 v 2.700611 h 1.42937 q 0.06511,0 0.111621,0.04651 0.04651,0.04651 0.04651,0.111621 0,0.06511 -0.04651,0.111621 -0.04651,0.04651 -0.111621,0.04651 h -1.5875 q -0.06511,0 -0.111621,-0.04651 -0.04651,-0.04651 -0.04651,-0.111621 z"/>
<path d="m 72.547819,64.679374 v -2.858741 q 0,-0.06511 0.04651,-0.111621 0.04651,-0.04651 0.111621,-0.04651 0.06511,0 0.111621,0.04651 0.04651,0.04651 0.04651,0.111621 v 2.700611 h 1.42937 q 0.06511,0 0.111621,0.04651 0.04651,0.04651 0.04651,0.111621 0,0.06511 -0.04651,0.111621 -0.04651,0.04651 -0.111621,0.04651 h -1.5875 q -0.06511,0 -0.111621,-0.04651 -0.04651,-0.04651 -0.04651,-0.111621 z"/>
<path d="m 15.370225,102.25471 v 0.86352 h 0.863513 v 0.26355 h -0.863513 v 0.86351 h -0.260449 v -0.86351 h -0.863514 v -0.26355 h 0.863514 v -0.86352 z"/>
<path d="m 35.690224,102.25471 v 0.86352 h 0.863513 v 0.26355 h -0.863513 v 0.86351 h -0.260449 v -0.86351 h -0.863513 v -0.26355 h 0.863513 v -0.86352 z"/>
<path d="m 56.010225,102.25471 v 0.86352 h 0.863513 v 0.26355 h -0.863513 v 0.86351 h -0.26045 v -0.86351 h -0.863513 v -0.26355 h 0.863513 v -0.86352 z"/>
<path d="m 76.330225,102.25471 v 0.86352 h 0.863513 v 0.26355 h -0.863513 v 0.86351 h -0.260449 v -0.86351 h -0.863513 v -0.26355 h 0.863513 v -0.86352 z"/>
<path d="m 96.650225,102.25471 v 0.86352 h 0.863513 v 0.26355 h -0.863513 v 0.86351 h -0.26045 v -0.86351 h -0.863513 v -0.26355 h 0.863513 v -0.86352 z"/>
<path d="m 26.408036,103.11452 v 0.27096 h -2.016072 v -0.27096 z"/>
<path d="m 46.728036,103.11452 v 0.27096 h -2.016072 v -0.27096 z"/>
<path d="m 67.048037,103.11452 v 0.27096 h -2.016073 v -0.27096 z"/>
<path d="m 87.368036,103.11452 v 0.27096 h -2.016072 v -0.27096 z"/>
<path d="m 6.0880361,103.11452 v 0.27096 H 4.071964 v -0.27096 z"/>
</g><g style="fill:#cccccc">
<path d="M 9.6065443,44.679371 V 41.97876 H 8.9709242 q -0.065112,0 -0.1116211,-0.04651 -0.046509,-0.04651 -0.046509,-0.111622 0,-0.06511 0.046509,-0.111621 0.046509,-0.04651 0.1116211,-0.04651 h 1.5874998 q 0.06511,0 0.111622,0.04651 0.04651,0.04651 0.04651,0.111621 0,0.06511 -0.04651,0.111622 -0.04651,0.04651 -0.111622,0.04651 h -0.63562 v 2.700611 q 0,0.06511 -0.046509,0.111621 -0.046509,0.04651 -0.1116211,0.04651 -0.065112,0 -0.1116211,-0.04651 -0.046509,-0.04651 -0.046508,-0.111621 z"/>
<path d="M 11.190944,44.679371 V 41.82063 q 0,-0.06511 0.04651,-0.111621 0.04651,-0.04651 0.111621,-0.04651 0.06511,0 0.111621,0.04651 0.04651,0.04651 0.04651,0.111621 v 2.858741 q 0,0.06511 -0.04651,0.111621 -0.04651,0.04651 -0.111621,0.04651 -0.06511,0 -0.111621,-0.04651 -0.04651,-0.04651 -0.04651,-0.111621 z"/>
<path d="M 29.211859,44.679371 V 41.97876 h -0.63562 q -0.06511,0 -0.111621,-0.04651 -0.04651,-0.04651 -0.04651,-0.111622 0,-0.06511 0.04651,-0.111621 0.04651,-0.04651 0.111621,-0.04651 h 1.5875 q 0.06511,0 0.111621,0.04651 0.04651,0.04651 0.04651,0.111621 0,0.06511 -0.04651,0.111622 -0.04651,0.04651 -0.111621,0.04651 h -0.63562 v 2.700611 q 0,0.06511 -0.04651,0.111621 -0.04651,0.04651 -0.111621,0.04651 -0.06511,0 -0.111621,-0.04651 -0.04651,-0.04651 -0.04651,-0.111621 z"/>
<path d="m 30.796259,42.08418 q 0,-0.06511 0.04651,-0.111621 0.310058,-0.310058 0.747241,-0.310058 0.328662,0 0.561206,0.232544 0.232544,0.232543 0.232544,0.561206 0,0.328662 -0.232544,0.561206 l -0.868164,0.868164 q -0.26355,0.263549 -0.31626,0.63562 h 1.416968 q 0.06511,0 0.111621,0.04651 0.04651,0.04651 0.04651,0.111621 0,0.06511 -0.04651,0.111621 -0.04651,0.04651 -0.111621,0.04651 h -1.5875 q -0.06511,0 -0.111621,-0.04651 -0.04651,-0.04651 -0.04651,-0.111621 0,-0.595313 0.42168,-1.016993 l 0.868164,-0.868164 q 0.139526,-0.139526 0.139526,-0.337963 0,-0.198438 -0.139526,-0.337964 -0.139527,-0.139527 -0.337964,-0.139527 -0.303857,0 -0.523999,0.217041 -0.04651,0.04651 -0.111621,0.04651 -0.06511,0 -0.111621,-0.04651 -0.04651,-0.04651 -0.04651,-0.111621 z"/>
<path d="M 49.531862,44.679371 V 41.97876 h -0.63562 q -0.06511,0 -0.111621,-0.04651 -0.04651,-0.04651 -0.04651,-0.111622 0,-0.06511 0.04651,-0.111621 0.04651,-0.04651 0.111621,-0.04651 h 1.5875 q 0.06511,0 0.111621,0.04651 0.04651,0.04651 0.04651,0.111621 0,0.06511 -0.04651,0.111622 -0.04651,0.04651 -0.111621,0.04651 h -0.63562 v 2.700611 q 0,0.06511 -0.04651,0.111621 -0.04651,0.04651 -0.111621,0.04651 -0.06511,0 -0.111621,-0.04651 -0.04651,-0.04651 -0.04651,-0.111621 z"/>
<path d="m 51.116261,41.82063 q 0,-0.06511 0.04651,-0.111621 0.04651,-0.04651 0.111621,-0.04651 h 1.27124 q 0.06511,0 0.111622,0.04651 0.04651,0.04651 0.04651,0.111621 0,0.04961 -0.03101,0.09302 l -0.641821,0.89917 q 0.291455,0.07441 0.505396,0.288354 0.325561,0.325562 0.325561,0.784449 0,0.393774 -0.279053,0.672827 -0.279052,0.279053 -0.672827,0.279053 -0.5302,0 -0.905371,-0.375171 -0.04651,-0.04651 -0.04651,-0.111621 0,-0.06511 0.04651,-0.111622 0.04651,-0.04651 0.111621,-0.04651 0.06511,0 0.111621,0.04651 0.282154,0.282154 0.682129,0.282154 0.26355,0 0.449585,-0.186035 0.186035,-0.186036 0.186035,-0.449585 0,-0.328662 -0.232544,-0.561206 -0.232543,-0.232544 -0.561206,-0.232544 -0.06511,0 -0.111621,-0.04651 -0.04651,-0.04651 -0.04651,-0.111621 0,-0.04961 0.03101,-0.09302 l 0.613916,-0.861963 h -0.964282 q -0.06511,0 -0.111621,-0.04651 -0.04651,-0.04651 -0.04651,-0.111622 z"/>
<path d="m 64.853713,44.837505 q -0.5302,0 -0.905371,-0.375171 -0.04651,-0.04651 -0.04651,-0.111621 0,-0.06511 0.04651,-0.111622 0.04651,-0.04651 0.111621,-0.04651 0.06511,0 0.111621,0.04651 0.282154,0.282154 0.682129,0.282154 0.26355,0 0.449585,-0.186035 0.186035,-0.186036 0.186035,-0.449585 0,-0.139527 -0.07441,-0.254248 -0.07441,-0.117823 -0.198437,-0.176734 l -0.747241,-0.353467 q -0.189136,-0.08992 -0.300757,-0.263549 -0.108521,-0.173633 -0.108521,-0.381372 0,-0.328663 0.232544,-0.561206 0.232544,-0.232544 0.561206,-0.232544 0.437183,0 0.747242,0.310058 0.04651,0.04651 0.04651,0.111621 0,0.06511 -0.04651,0.111621 -0.04651,0.04651 -0.111622,0.04651 -0.06511,0 -0.111621,-0.04651 -0.217041,-0.217041 -0.523999,-0.217041 -0.198437,0 -0.337964,0.139527 -0.139526,0.139526 -0.139526,0.337964 0,0.114721 0.06201,0.21394 0.06201,0.09612 0.164331,0.145728 l 0.747241,0.353466 q 0.207739,0.09922 0.331763,0.294556 0.124023,0.192236 0.124023,0.42168 0,0.393774 -0.279053,0.672827 -0.279052,0.279053 -0.672827,0.279053 z"/>
<path d="m 66.283084,43.885625 v -2.064991 q 0,-0.06511 0.04651,-0.111621 0.04651,-0.04651 0.111621,-0.04651 0.06511,0 0.111621,0.04651 0.04651,0.04651 0.04651,0.111621 v 2.064991 q 0,0.263549 0.186035,0.449585 0.186036,0.186035 0.449585,0.186035 0.26355,0 0.449585,-0.186035 0.186035,-0.186036 0.186035,-0.449585 v -2.064991 q 0,-0.06511 0.04651,-0.111621 0.04651,-0.04651 0.111621,-0.04651 0.06511,0 0.111621,0.04651 0.04651,0.04651 0.04651,0.111621 v 2.064991 q 0,0.393774 -0.279052,0.672827 -0.279053,0.279053 -0.672828,0.279053 -0.393774,0 -0.672827,-0.279053 -0.279052,-0.279053 -0.279052,-0.672827 z"/>
<path d="m 69.616213,44.837505 q -0.5302,0 -0.905371,-0.375171 -0.04651,-0.04651 -0.04651,-0.111621 0,-0.06511 0.04651,-0.111622 0.04651,-0.04651 0.111621,-0.04651 0.06511,0 0.111621,0.04651 0.282154,0.282154 0.682129,0.282154 0.26355,0 0.449585,-0.186035 0.186035,-0.186036 0.186035,-0.449585 0,-0.139527 -0.07441,-0.254248 -0.07441,-0.117823 -0.198437,-0.176734 l -0.747242,-0.353467 q -0.189135,-0.08992 -0.300756,-0.263549 -0.108521,-0.173633 -0.108521,-0.381372 0,-0.328663 0.232544,-0.561206 0.232544,-0.232544 0.561206,-0.232544 0.437183,0 0.747241,0.310058 0.04651,0.04651 0.04651,0.111621 0,0.06511 -0.04651,0.111621 -0.04651,0.04651 -0.111621,0.04651 -0.06511,0 -0.111621,-0.04651 -0.217041,-0.217041 -0.523999,-0.217041 -0.198437,0 -0.337964,0.139527 -0.139526,0.139526 -0.139526,0.337964 0,0.114721 0.06201,0.21394 0.06201,0.09612 0.164331,0.145728 l 0.747241,0.353466 q 0.207739,0.09922 0.331763,0.294556 0.124023,0.192236 0.124023,0.42168 0,0.393774 -0.279053,0.672827 -0.279052,0.279053 -0.672827,0.279053 z"/>
<path d="m 71.678103,44.679375 v -2.700611 h -0.63562 q -0.06511,0 -0.111621,-0.04651 -0.04651,-0.04651 -0.04651,-0.111622 0,-0.06511 0.04651,-0.111621 0.04651,-0.04651 0.111621,-0.04651 h 1.5875 q 0.06511,0 0.111621,0.04651 0.04651,0.04651 0.04651,0.111621 0,0.06511 -0.04651,0.111622 -0.04651,0.04651 -0.111621,0.04651 h -0.63562 v 2.700611 q 0,0.06511 -0.04651,0.111621 -0.04651,0.04651 -0.111621,0.04651 -0.06511,0 -0.111621,-0.04651 -0.04651,-0.04651 -0.04651,-0.111621 z"/>
<path d="m 73.262503,44.837505 q -0.06511,0 -0.111621,-0.04651 -0.04651,-0.04651 -0.04651,-0.111621 0,-0.0186 0.0062,-0.04651 l 0.79375,-2.85564 q 0.0124,-0.04961 0.05581,-0.08062 0.04341,-0.03411 0.09612,-0.03411 0.05271,0 0.09612,0.03411 0.04341,0.03101 0.05581,0.08062 l 0.79375,2.85874 q 0.0062,0.02481 0.0062,0.04341 0,0.06511 -0.04651,0.111621 -0.04651,0.04651 -0.111621,0.04651 -0.04651,0 -0.09302,-0.03101 -0.04651,-0.03411 -0.05891,-0.08062 l -0.145727,-0.523999 h -0.992188 l -0.145728,0.523999 q -0.0124,0.04651 -0.06201,0.08062 -0.04651,0.03101 -0.08992,0.03101 z m 0.384472,-0.95188 h 0.818555 l -0.409277,-1.469678 z"/>
<path d="m 75.482522,44.679375 v -2.858741 q 0,-0.06511 0.04651,-0.111621 0.04651,-0.04651 0.111621,-0.04651 0.06511,0 0.111621,0.04651 0.04651,0.04651 0.04651,0.111621 v 2.858741 q 0,0.06511 -0.04651,0.111621 -0.04651,0.04651 -0.111621,0.04651 -0.06511,0 -0.111621,-0.04651 -0.04651,-0.04651 -0.04651,-0.111621 z"/>
<path d="m 76.592532,44.837505 q -0.06511,0 -0.111621,-0.04651 -0.04651,-0.04651 -0.04651,-0.111621 v -2.858741 q 0,-0.06511 0.04651,-0.111621 0.04651,-0.04651 0.111621,-0.04651 0.04341,0 0.08062,0.0217 0.03721,0.0217 0.05891,0.05891 l 1.289844,2.322339 v -2.244825 q 0,-0.06511 0.04651,-0.111621 0.04651,-0.04651 0.111621,-0.04651 0.06511,0 0.111621,0.04651 0.04651,0.04651 0.04651,0.111621 v 2.858741 q 0,0.06511 -0.04651,0.111621 -0.04651,0.04651 -0.111621,0.04651 -0.04341,0 -0.08062,-0.0217 -0.03721,-0.0217 -0.05891,-0.05891 l -1.289843,-2.322339 v 2.244825 q 0,0.06511 -0.04651,0.111621 -0.04651,0.04651 -0.111621,0.04651 z"/>
<path d="m 90.171863,44.67937 v -2.700611 h -0.63562 q -0.06511,0 -0.111621,-0.04651 -0.04651,-0.04651 -0.04651,-0.111622 0,-0.06511 0.04651,-0.111621 0.04651,-0.04651 0.111621,-0.04651 h 1.5875 q 0.06511,0 0.111621,0.04651 0.04651,0.04651 0.04651,0.111621 0,0.06511 -0.04651,0.111622 -0.04651,0.04651 -0.111621,0.04651 h -0.63562 v 2.700611 q 0,0.06511 -0.04651,0.111621 -0.04651,0.04651 -0.111621,0.04651 -0.06511,0 -0.111621,-0.04651 -0.04651,-0.04651 -0.04651,-0.111621 z"/>
<path d="m 93.027502,44.8375 q -0.06511,0 -0.111621,-0.04651 -0.04651,-0.04651 -0.04651,-0.111621 V 43.566258 H 91.75626 q -0.06511,0 -0.111621,-0.04651 -0.04651,-0.04651 -0.04651,-0.111622 0,-0.10852 0.07441,-0.195336 l 1.21233,-1.497583 q 0.04341,-0.04651 0.142626,-0.05271 0.06511,0 0.111622,0.04651 0.04651,0.04651 0.04651,0.111621 v 1.429371 h 0.15813 q 0.06511,0 0.111621,0.04651 0.04651,0.04651 0.04651,0.111621 0,0.06511 -0.04651,0.111622 -0.04651,0.04651 -0.111621,0.04651 h -0.15813 v 1.113111 q 0,0.06511 -0.04651,0.111621 -0.04651,0.04651 -0.111622,0.04651 z M 92.869373,43.25 V 42.217504 L 92.026013,43.25 Z"/>
<path d="m 88.026255,24.67946 v -2.85874 q 0,-0.06511 0.04651,-0.111622 0.04651,-0.04651 0.111622,-0.04651 h 1.587499 q 0.06511,-0.0031 0.111622,0.04651 0.04651,0.04651 0.04651,0.111622 0,0.06511 -0.04651,0.111621 -0.04651,0.04651 -0.114722,0.04651 h -1.42627 v 0.954981 h 1.113111 q 0.06511,0 0.111621,0.04651 0.04651,0.04651 0.04651,0.111621 0,0.06511 -0.04651,0.111621 -0.04651,0.04651 -0.111621,0.04651 h -1.113111 v 1.27124 h 1.42937 q 0.06511,0 0.111622,0.04651 0.04651,0.04651 0.04651,0.111621 0,0.06511 -0.04651,0.111621 -0.04651,0.04651 -0.111622,0.04651 h -1.587499 q -0.06511,0 -0.111622,-0.04651 -0.04651,-0.04651 -0.04651,-0.111621 z"/>
<path d="m 90.568735,24.83759 q -0.06511,0 -0.111621,-0.04651 -0.04651,-0.04651 -0.04651,-0.111621 v -2.85874 q 0,-0.06511 0.04651,-0.111622 0.04651,-0.04651 0.111621,-0.04651 0.04341,0 0.08061,0.0217 0.03721,0.0217 0.05891,0.05891 l 1.289844,2.322339 V 21.82072 q 0,-0.06511 0.04651,-0.111622 0.04651,-0.04651 0.111621,-0.04651 0.06511,0 0.111621,0.04651 0.04651,0.04651 0.04651,0.111622 v 2.85874 q 0,0.06511 -0.04651,0.111621 -0.04651,0.04651 -0.111621,0.04651 -0.04341,0 -0.08062,-0.02171 -0.03721,-0.0217 -0.05891,-0.05891 l -1.289844,-2.322338 v 2.244824 q 0,0.06511 -0.04651,0.111621 -0.04651,0.04651 -0.111621,0.04651 z"/>
<path d="m 93.585605,24.83759 h -0.47749 q -0.06511,0 -0.111621,-0.04651 -0.04651,-0.04651 -0.04651,-0.111621 v -2.85874 q 0,-0.06511 0.04651,-0.111622 0.04651,-0.04651 0.111621,-0.04651 h 0.47749 q 0.458887,0 0.784448,0.325561 0.483692,0.483692 0.483692,1.261939 0,0.778247 -0.483692,1.261938 -0.325561,0.325562 -0.784448,0.325562 z m -0.31936,-0.31626 h 0.31936 q 0.328662,0 0.561206,-0.232544 0.390674,-0.390674 0.390674,-1.038696 0,-0.648023 -0.390674,-1.038697 -0.232544,-0.232544 -0.561206,-0.232544 h -0.31936 z"/>
<path d="M 5.2424506,24.837502 H 4.7649604 q -0.065112,0 -0.1116211,-0.04651 -0.046509,-0.04651 -0.046509,-0.11162 v -2.85874 q 0,-0.06511 0.046509,-0.111621 0.046509,-0.04651 0.1116211,-0.04651 h 0.4774902 q 0.4588867,0 0.7844483,0.325561 0.4836914,0.483692 0.4836914,1.261939 0,0.778247 -0.4836914,1.261938 -0.3255618,0.325563 -0.7844485,0.325563 z m -0.3193603,-0.31626 h 0.3193603 q 0.3286621,0 0.5612061,-0.232544 0.3906738,-0.390674 0.3906738,-1.038696 0,-0.648022 -0.3906738,-1.038696 -0.232544,-0.232544 -0.5612061,-0.232544 H 4.9230903 Z"/>
<path d="m 6.9880804,24.837502 q -0.065112,0 -0.1116211,-0.04651 -0.046509,-0.04651 -0.046509,-0.111621 0,-0.0186 0.0062,-0.04651 l 0.79375,-2.855639 q 0.012402,-0.04961 0.055811,-0.08062 0.043408,-0.03411 0.096118,-0.03411 0.05271,0 0.096118,0.03411 0.043408,0.03101 0.055811,0.08062 l 0.79375,2.85874 q 0.0062,0.02481 0.0062,0.04341 0,0.06511 -0.046509,0.111621 -0.046509,0.04651 -0.1116211,0.04651 -0.046509,0 -0.093018,-0.03101 -0.046509,-0.03411 -0.058911,-0.08062 L 8.2779242,24.201882 H 7.2857367 l -0.1457276,0.523999 q -0.012402,0.04651 -0.062012,0.08062 -0.046509,0.03101 -0.089917,0.03101 z m 0.3844727,-0.95188 H 8.1911078 L 7.7818304,22.415944 Z"/>
<path d="M 9.8437204,24.837502 H 9.3662301 q -0.065112,0 -0.1116211,-0.04651 Q 9.2081,24.744482 9.2081,24.679371 v -2.85874 q 0,-0.06511 0.046509,-0.111621 0.046509,-0.04651 0.1116211,-0.04651 h 0.4774903 q 0.4588866,0 0.7844486,0.325561 0.483691,0.483692 0.483691,1.261939 0,0.778247 -0.483691,1.261938 -0.325562,0.325564 -0.7844486,0.325564 z M 9.52436,24.521242 h 0.3193604 q 0.3286626,0 0.5612056,-0.232544 0.390675,-0.390674 0.390675,-1.038696 0,-0.648022 -0.390675,-1.038696 -0.232544,-0.232544 -0.5612056,-0.232544 H 9.52436 Z"/>
<path d="m 12.3831,24.837502 q -0.530201,0 -0.905371,-0.375171 -0.04651,-0.04651 -0.04651,-0.111621 0,-0.06511 0.04651,-0.111621 0.04651,-0.04651 0.11162,-0.04651 0.06511,0 0.111621,0.04651 0.282154,0.282153 0.682129,0.282153 0.26355,0 0.449585,-0.186035 0.186036,-0.186035 0.186036,-0.449585 0,-0.139526 -0.07441,-0.254248 -0.07441,-0.117822 -0.198437,-0.176733 l -0.747241,-0.353467 q -0.189136,-0.08992 -0.300757,-0.26355 -0.108521,-0.173633 -0.108521,-0.381372 0,-0.328662 0.232544,-0.561206 0.232544,-0.232544 0.561206,-0.232544 0.437183,0 0.747242,0.310059 0.04651,0.04651 0.04651,0.111621 0,0.06511 -0.04651,0.111621 -0.04651,0.04651 -0.111621,0.04651 -0.06511,0 -0.111621,-0.04651 -0.217041,-0.217041 -0.523999,-0.217041 -0.198437,0 -0.337964,0.139526 -0.139526,0.139526 -0.139526,0.337964 0,0.114722 0.06201,0.21394 0.06201,0.09612 0.164331,0.145728 l 0.747241,0.353467 q 0.207739,0.09922 0.331763,0.294555 0.124023,0.192237 0.124023,0.42168 0,0.393774 -0.279053,0.672827 -0.279052,0.279053 -0.672827,0.279053 z"/>
<path d="m 15.39687,22.456252 q 0,-0.198438 -0.139526,-0.337964 -0.139526,-0.139526 -0.337964,-0.139526 h -0.79375 v 0.95498 h 0.79375 q 0.198438,0 0.337964,-0.139526 0.139526,-0.139527 0.139526,-0.337964 z m 0.15813,2.38125 q -0.04651,0 -0.08682,-0.0248 -0.03721,-0.0248 -0.05891,-0.06821 l -0.666623,-1.49449 H 14.12563 v 1.42937 q 0,0.06511 -0.04651,0.111621 -0.04651,0.04651 -0.111621,0.04651 -0.06511,0 -0.111621,-0.04651 -0.04651,-0.04651 -0.04651,-0.111621 v -2.85874 q 0,-0.06511 0.04651,-0.111621 0.04651,-0.04651 0.111621,-0.04651 h 0.95188 q 0.328662,0 0.561206,0.232544 0.232544,0.232544 0.232544,0.558105 0.0031,0.331763 -0.229443,0.564307 -0.167432,0.164331 -0.396875,0.21394 l 0.613916,1.382862 q 0.0124,0.03101 0.0124,0.06511 0,0.06511 -0.04651,0.111621 -0.04651,0.04651 -0.111621,0.04651 z"/>
<path d="m 24.92528,24.837502 q -0.06511,0 -0.111621,-0.04651 -0.04651,-0.04651 -0.04651,-0.111621 0,-0.0186 0.0062,-0.04651 l 0.79375,-2.855639 q 0.0124,-0.04961 0.05581,-0.08062 0.04341,-0.03411 0.09612,-0.03411 0.05271,0 0.09612,0.03411 0.04341,0.03101 0.05581,0.08062 l 0.79375,2.85874 q 0.0062,0.02481 0.0062,0.04341 0,0.06511 -0.04651,0.111621 -0.04651,0.04651 -0.111622,0.04651 -0.04651,0 -0.09302,-0.03101 -0.04651,-0.03411 -0.05891,-0.08062 l -0.145723,-0.523991 h -0.992187 l -0.145728,0.523999 q -0.0124,0.04651 -0.06201,0.08062 -0.04651,0.03101 -0.08992,0.03101 z m 0.384473,-0.95188 h 0.818555 L 25.71903,22.415944 Z"/>
<path d="m 27.148401,24.679372 v -2.85874 q 0,-0.06511 0.04651,-0.111621 0.04651,-0.04651 0.111621,-0.04651 0.06511,0 0.111622,0.04651 0.04651,0.04651 0.04651,0.111621 v 1.11311 h 1.271241 v -1.11311 q 0,-0.06511 0.04651,-0.111621 0.04651,-0.04651 0.111621,-0.04651 0.06511,0 0.111622,0.04651 0.04651,0.04651 0.04651,0.111621 v 2.85874 q 0,0.06511 -0.04651,0.111621 -0.04651,0.04651 -0.111622,0.04651 -0.06511,0 -0.111621,-0.04651 -0.04651,-0.04651 -0.04651,-0.111621 v -1.42937 H 27.46466 v 1.42937 q 0,0.06511 -0.04651,0.111621 -0.04651,0.04651 -0.111622,0.04651 -0.06511,0 -0.111621,-0.04651 -0.04651,-0.04651 -0.04651,-0.111621 z"/>
<path d="m 30.3234,24.837502 h -0.47749 q -0.06511,0 -0.111621,-0.04651 -0.04651,-0.04651 -0.04651,-0.111621 v -2.85874 q 0,-0.06511 0.04651,-0.111621 0.04651,-0.04651 0.111621,-0.04651 h 0.47749 q 0.458887,0 0.784449,0.325561 0.483691,0.483692 0.483691,1.261939 0,0.778247 -0.483691,1.261938 -0.325562,0.325564 -0.784449,0.325564 z m -0.31936,-0.31626 h 0.31936 q 0.328662,0 0.561206,-0.232544 0.390674,-0.390674 0.390674,-1.038696 0,-0.648022 -0.390674,-1.038696 -0.232544,-0.232544 -0.561206,-0.232544 h -0.31936 z"/>
<path d="m 32.862781,24.837502 q -0.530201,0 -0.905371,-0.375171 -0.04651,-0.04651 -0.04651,-0.111621 0,-0.06511 0.04651,-0.111621 0.04651,-0.04651 0.111621,-0.04651 0.06511,0 0.111621,0.04651 0.282153,0.282153 0.682129,0.282153 0.263549,0 0.449585,-0.186035 0.186035,-0.186035 0.186035,-0.449585 0,-0.139526 -0.07441,-0.254248 -0.07441,-0.117822 -0.198438,-0.176733 l -0.747241,-0.353467 q -0.189136,-0.08992 -0.300757,-0.26355 -0.10852,-0.173633 -0.10852,-0.381372 0,-0.328662 0.232544,-0.561206 0.232544,-0.232544 0.561206,-0.232544 0.437182,0 0.747241,0.310059 0.04651,0.04651 0.04651,0.111621 0,0.06511 -0.04651,0.111621 -0.04651,0.04651 -0.111621,0.04651 -0.06511,0 -0.111621,-0.04651 -0.217041,-0.217041 -0.523999,-0.217041 -0.198438,0 -0.337964,0.139526 -0.139527,0.139526 -0.139527,0.337964 0,0.114722 0.06201,0.21394 0.06201,0.09612 0.164331,0.145728 l 0.747241,0.353467 q 0.20774,0.09922 0.331763,0.294555 0.124023,0.192237 0.124023,0.42168 0,0.393774 -0.279052,0.672827 -0.279053,0.279053 -0.672827,0.279053 z"/>
<path d="m 35.87655,22.456252 q 0,-0.198438 -0.139526,-0.337964 -0.139527,-0.139526 -0.337964,-0.139526 h -0.79375 v 0.95498 h 0.79375 q 0.198437,0 0.337964,-0.139526 0.139526,-0.139527 0.139526,-0.337964 z m 0.15813,2.38125 q -0.04651,0 -0.08682,-0.0248 -0.03721,-0.0248 -0.05891,-0.06821 l -0.666624,-1.49449 H 34.60531 v 1.42937 q 0,0.06511 -0.04651,0.111621 -0.04651,0.04651 -0.111621,0.04651 -0.06511,0 -0.111621,-0.04651 -0.04651,-0.04651 -0.04651,-0.111621 v -2.85874 q 0,-0.06511 0.04651,-0.111621 0.04651,-0.04651 0.111621,-0.04651 h 0.95188 q 0.328662,0 0.561206,0.232544 0.232544,0.232544 0.232544,0.558105 0.0031,0.331763 -0.229444,0.564307 -0.167431,0.164331 -0.396875,0.21394 l 0.613916,1.382862 q 0.0124,0.03101 0.0124,0.06511 0,0.06511 -0.04651,0.111621 -0.04651,0.04651 -0.111621,0.04651 z"/>
<path d="m 46.911846,24.837502 h -0.47749 q -0.06511,0 -0.111621,-0.04651 -0.04651,-0.04651 -0.04651,-0.111621 v -2.85874 q 0,-0.06511 0.04651,-0.111621 0.04651,-0.04651 0.111621,-0.04651 h 0.47749 q 0.458887,0 0.784448,0.325561 0.483691,0.483692 0.483691,1.261939 0,0.778247 -0.483691,1.261938 -0.325561,0.325562 -0.784448,0.325562 z m -0.31936,-0.31626 h 0.31936 q 0.328662,0 0.561206,-0.232544 0.390674,-0.390674 0.390674,-1.038696 0,-0.648022 -0.390674,-1.038696 -0.232544,-0.232544 -0.561206,-0.232544 h -0.31936 z"/>
<path d="m 48.657476,24.837502 q -0.06511,0 -0.111621,-0.04651 -0.04651,-0.04651 -0.04651,-0.111621 0,-0.0186 0.0062,-0.04651 l 0.79375,-2.855639 q 0.0124,-0.04961 0.05581,-0.08062 0.04341,-0.03411 0.09612,-0.03411 0.05271,0 0.09612,0.03411 0.04341,0.03101 0.05581,0.08062 l 0.79375,2.85874 q 0.0062,0.02481 0.0062,0.04341 0,0.06511 -0.04651,0.111621 -0.04651,0.04651 -0.111621,0.04651 -0.04651,0 -0.09302,-0.03101 -0.04651,-0.03411 -0.05891,-0.08062 l -0.145725,-0.523991 h -0.992187 l -0.145728,0.523999 q -0.0124,0.04651 -0.06201,0.08062 -0.04651,0.03101 -0.08992,0.03101 z m 0.384472,-0.95188 h 0.818555 l -0.409277,-1.469678 z"/>
<path d="m 50.880596,24.679372 v -2.85874 q 0,-0.06511 0.04651,-0.111621 0.04651,-0.04651 0.111621,-0.04651 0.06511,0 0.111621,0.04651 0.04651,0.04651 0.04651,0.111621 v 1.11311 h 1.27124 v -1.11311 q 0,-0.06511 0.04651,-0.111621 0.04651,-0.04651 0.111621,-0.04651 0.06511,0 0.111621,0.04651 0.04651,0.04651 0.04651,0.111621 v 2.85874 q 0,0.06511 -0.04651,0.111621 -0.04651,0.04651 -0.111621,0.04651 -0.06511,0 -0.111621,-0.04651 -0.04651,-0.04651 -0.04651,-0.111621 v -1.42937 h -1.27124 v 1.42937 q 0,0.06511 -0.04651,0.111621 -0.04651,0.04651 -0.111621,0.04651 -0.06511,0 -0.111621,-0.04651 -0.04651,-0.04651 -0.04651,-0.111621 z"/>
<path d="m 55.007476,22.456252 q 0,-0.198438 -0.139526,-0.337964 -0.139527,-0.139526 -0.337964,-0.139526 h -0.79375 v 0.95498 h 0.79375 q 0.198437,0 0.337964,-0.139526 0.139526,-0.139527 0.139526,-0.337964 z m 0.15813,2.38125 q -0.04651,0 -0.08682,-0.0248 -0.03721,-0.0248 -0.05891,-0.06821 l -0.666624,-1.49449 h -0.617016 v 1.42937 q 0,0.06511 -0.04651,0.111621 -0.04651,0.04651 -0.111621,0.04651 -0.06511,0 -0.111621,-0.04651 -0.04651,-0.04651 -0.04651,-0.111621 v -2.85874 q 0,-0.06511 0.04651,-0.111621 0.04651,-0.04651 0.111621,-0.04651 h 0.95188 q 0.328662,0 0.561206,0.232544 0.232544,0.232544 0.232544,0.558105 0.0031,0.331763 -0.229444,0.564307 -0.167431,0.164331 -0.396875,0.21394 l 0.613916,1.382862 q 0.0124,0.03101 0.0124,0.06511 0,0.06511 -0.04651,0.111621 -0.04651,0.04651 -0.111621,0.04651 z"/>
<path d="m 65.726511,24.837502 q -0.06511,0 -0.111621,-0.04651 -0.04651,-0.04651 -0.04651,-0.111621 0,-0.0186 0.0062,-0.04651 l 0.79375,-2.855639 q 0.0124,-0.04961 0.05581,-0.08062 0.04341,-0.03411 0.09612,-0.03411 0.05271,0 0.09612,0.03411 0.04341,0.03101 0.05581,0.08062 l 0.79375,2.85874 q 0.0062,0.02481 0.0062,0.04341 0,0.06511 -0.04651,0.111621 -0.04651,0.04651 -0.111621,0.04651 -0.04651,0 -0.09302,-0.03101 -0.04651,-0.03411 -0.05891,-0.08062 l -0.145724,-0.523991 h -0.992187 l -0.145728,0.523999 q -0.0124,0.04651 -0.06201,0.08062 -0.04651,0.03101 -0.08992,0.03101 z m 0.384473,-0.95188 h 0.818555 l -0.409278,-1.469678 z"/>
<path d="m 68.582151,24.837502 h -0.47749 q -0.06511,0 -0.111621,-0.04651 -0.04651,-0.04651 -0.04651,-0.111621 v -2.85874 q 0,-0.06511 0.04651,-0.111621 0.04651,-0.04651 0.111621,-0.04651 h 0.47749 q 0.458887,0 0.784448,0.325561 0.483692,0.483692 0.483692,1.261939 0,0.778247 -0.483692,1.261938 -0.325561,0.325562 -0.784448,0.325562 z m -0.31936,-0.31626 h 0.31936 q 0.328662,0 0.561206,-0.232544 0.390674,-0.390674 0.390674,-1.038696 0,-0.648022 -0.390674,-1.038696 -0.232544,-0.232544 -0.561206,-0.232544 h -0.31936 z"/>
<path d="m 70.327781,24.837502 q -0.06511,0 -0.111621,-0.04651 -0.04651,-0.04651 -0.04651,-0.111621 0,-0.0186 0.0062,-0.04651 l 0.79375,-2.855639 q 0.0124,-0.04961 0.05581,-0.08062 0.04341,-0.03411 0.09612,-0.03411 0.05271,0 0.09612,0.03411 0.04341,0.03101 0.05581,0.08062 l 0.79375,2.85874 q 0.0062,0.02481 0.0062,0.04341 0,0.06511 -0.04651,0.111621 -0.04651,0.04651 -0.111621,0.04651 -0.04651,0 -0.09302,-0.03101 -0.04651,-0.03411 -0.05891,-0.08062 l -0.145724,-0.523991 h -0.992188 l -0.145727,0.523999 q -0.0124,0.04651 -0.06201,0.08062 -0.04651,0.03101 -0.08992,0.03101 z m 0.384473,-0.95188 h 0.818554 l -0.409277,-1.469678 z"/>
<path d="m 73.34155,24.837502 q -0.5302,0 -0.905371,-0.375171 -0.04651,-0.04651 -0.04651,-0.111621 0,-0.06511 0.04651,-0.111621 0.04651,-0.04651 0.111621,-0.04651 0.06511,0 0.111622,0.04651 0.282153,0.282153 0.682128,0.282153 0.26355,0 0.449585,-0.186035 0.186036,-0.186035 0.186036,-0.449585 0,-0.139526 -0.07442,-0.254248 -0.07441,-0.117822 -0.198437,-0.176733 l -0.747241,-0.353467 q -0.189136,-0.08992 -0.300757,-0.26355 -0.108521,-0.173633 -0.108521,-0.381372 0,-0.328662 0.232544,-0.561206 0.232544,-0.232544 0.561206,-0.232544 0.437183,0 0.747242,0.310059 0.04651,0.04651 0.04651,0.111621 0,0.06511 -0.04651,0.111621 -0.04651,0.04651 -0.111621,0.04651 -0.06511,0 -0.111622,-0.04651 -0.217041,-0.217041 -0.523999,-0.217041 -0.198437,0 -0.337963,0.139526 -0.139527,0.139526 -0.139527,0.337964 0,0.114722 0.06201,0.21394 0.06201,0.09612 0.164331,0.145728 l 0.747241,0.353467 q 0.207739,0.09922 0.331763,0.294555 0.124023,0.192237 0.124023,0.42168 0,0.393774 -0.279052,0.672827 -0.279053,0.279053 -0.672828,0.279053 z"/>
<path d="m 76.35532,22.456252 q 0,-0.198438 -0.139527,-0.337964 -0.139526,-0.139526 -0.337963,-0.139526 h -0.79375 v 0.95498 h 0.79375 q 0.198437,0 0.337963,-0.139526 0.139527,-0.139527 0.139527,-0.337964 z m 0.15813,2.38125 q -0.04651,0 -0.08682,-0.0248 -0.03721,-0.0248 -0.05891,-0.06821 l -0.666624,-1.49449 H 75.08408 v 1.42937 q 0,0.06511 -0.04651,0.111621 -0.04651,0.04651 -0.111621,0.04651 -0.06511,0 -0.111621,-0.04651 -0.04651,-0.04651 -0.04651,-0.111621 v -2.85874 q 0,-0.06511 0.04651,-0.111621 0.04651,-0.04651 0.111621,-0.04651 h 0.95188 q 0.328662,0 0.561206,0.232544 0.232544,0.232544 0.232544,0.558105 0.0031,0.331763 -0.229444,0.564307 -0.167431,0.164331 -0.396875,0.21394 l 0.613916,1.382862 q 0.0124,0.03101 0.0124,0.06511 0,0.06511 -0.04651,0.111621 -0.04651,0.04651 -0.111621,0.04651 z"/>
</g></g></svg>