<!--
    Copyright (C) 2023 Jacek Lewański

    This program is free software: you can redistribute it and/or modify
    it under the terms of the GNU General Public License as published by
    the Free Software Foundation, either version 3 of the License, or
    (at your option) any later version.

    This program is distributed in the hope that it will be useful,
    but WITHOUT ANY WARRANTY; without even the implied warranty of
    MERCHANTABILITY or FITNESS FOR A PARTICULAR PURPOSE.  See the
    GNU General Public License for more details.

    You should have received a copy of the GNU General Public License
    along with this program. If not, see <https://www.gnu.org/licenses/>.
-->
<svg width="40.64mm" height="128.5mm" viewBox="0 0 40.64 128.5" version="1.1" xmlns="http://www.w3.org/2000/svg" xmlns:svg="http://www.w3.org/2000/svg">
<rect style="fill:#cccccc" width="40.64" height="128.5"/>
<g style="fill:#212121"><rect width="20.32" height="22" x="0" y="24.25"/><rect width="20.32" height="40" x="20.32" y="6.25"/></g>
<g style="fill:none;stroke:#212121;stroke-width:0.511;stroke-linejoin:round"><path d="m 10.16,74.25 v 20"/><path  d="M 20.32,6.25 V 123.25"/><path d="m 30.48,74.25 v 40"/></g>
<g style="fill:#ffffff"><circle cx="10.16" cy="54.25" r="5.5"/><circle cx="10.16" cy="74.25" r="5.5"/><circle cx="30.48" cy="14.25" r="5.5"/><circle cx="30.48" cy="74.25" r="5.5"/></g>
<g style="fill:#cc0000"><circle cx="10.16" cy="34.25" r="5.5"/><circle cx="30.48" cy="34.25" r="5.5"/></g>
<g transform="translate(-5.08)" style="stroke-width:0.3;stroke-linejoin:round"><g style="fill:#cccccc">
<path d="m 10.260458,44.837497 q -0.06511,0 -0.111621,-0.04651 -0.04651,-0.04651 -0.04651,-0.111621 0,-0.0186 0.0062,-0.04651 l 0.79375,-2.85564 q 0.0124,-0.04961 0.05581,-0.08061 0.04341,-0.03411 0.09612,-0.03411 0.05271,0 0.09612,0.03411 0.04341,0.03101 0.05581,0.08061 l 0.79375,2.85874 q 0.0062,0.02481 0.0062,0.04341 0,0.06511 -0.04651,0.111621 -0.04651,0.04651 -0.111621,0.04651 -0.04651,0 -0.09302,-0.03101 -0.04651,-0.03411 -0.05891,-0.08062 l -0.145724,-0.52399 h -0.992188 l -0.145727,0.523999 q -0.0124,0.04651 -0.06201,0.08062 -0.04651,0.03101 -0.08992,0.03101 z m 0.384473,-0.951879 h 0.818554 L 11.054208,42.41594 Z"/>
<path d="m 12.319247,43.724387 q 0,-0.06201 0.04651,-0.10852 0.04651,-0.04961 0.111621,-0.04961 h 0.47749 q 0.06511,0 0.111621,0.04651 0.04651,0.04651 0.04651,0.111621 0,0.06511 -0.04651,0.111621 -0.04651,0.04651 -0.111621,0.04651 h -0.47749 q -0.06511,0 -0.111621,-0.04651 -0.04651,-0.04651 -0.04651,-0.111621 z"/>
<path d="m 13.590487,44.679368 v -2.858741 q 0,-0.06511 0.04651,-0.111621 0.04651,-0.04651 0.111621,-0.04651 h 0.79375 q 0.328662,0 0.561206,0.232543 0.232544,0.232544 0.232544,0.561207 0,0.328662 -0.232544,0.561206 -0.03101,0.03101 -0.06511,0.05581 0.09612,0.05891 0.176733,0.139526 0.279053,0.279053 0.279053,0.672828 0,0.393774 -0.279053,0.672827 -0.279052,0.279052 -0.672827,0.279052 h -0.79375 q -0.06511,0 -0.111621,-0.04651 -0.04651,-0.04651 -0.04651,-0.111621 z m 1.42937,-2.22312 q 0,-0.198438 -0.139526,-0.337964 -0.139526,-0.139527 -0.337964,-0.139527 h -0.63562 v 0.954981 h 0.63562 q 0.198438,0 0.337964,-0.139527 0.139526,-0.139526 0.139526,-0.337963 z m -0.47749,0.79375 h -0.63562 v 1.27124 h 0.63562 q 0.26355,0 0.449585,-0.176734 0.186035,-0.179834 0.186035,-0.458886 0,-0.26355 -0.186035,-0.449585 -0.186035,-0.189136 -0.449585,-0.186035 z"/>
<path d="m 15.991891,43.274802 v -0.282153 l 1.987476,0.720886 v 0.257349 l -1.987476,0.720886 v -0.282153 l 1.596802,-0.565857 z"/>
<path d="m 19.26766,44.679368 v -2.700611 h -0.63562 q -0.06511,0 -0.111621,-0.04651 -0.04651,-0.04651 -0.04651,-0.111622 0,-0.06511 0.04651,-0.111621 0.04651,-0.04651 0.111621,-0.04651 h 1.5875 q 0.06511,0 0.111621,0.04651 0.04651,0.04651 0.04651,0.111621 0,0.06511 -0.04651,0.111622 -0.04651,0.04651 -0.111621,0.04651 h -0.63562 v 2.700611 q 0,0.06511 -0.04651,0.111621 -0.04651,0.04651 -0.111621,0.04651 -0.06511,0 -0.111621,-0.04651 -0.04651,-0.04651 -0.04651,-0.111621 z"/>
<path d="m 30.005298,21.662589 q 0.04341,0 0.08992,0.03411 0.04961,0.03101 0.06201,0.07751 l 0.641821,2.309937 0.641821,-2.309937 q 0.0124,-0.04651 0.05891,-0.07751 0.04651,-0.03411 0.09302,-0.03411 0.06511,0 0.111621,0.04651 0.04651,0.04651 0.04651,0.111621 0,0.0186 -0.0062,0.04341 l -0.793749,2.85874 q -0.0124,0.04961 -0.05581,0.08372 -0.04341,0.03101 -0.09612,0.03101 -0.05271,0 -0.09612,-0.03101 -0.04341,-0.03411 -0.05581,-0.08372 l -0.79375,-2.855639 q -0.0062,-0.0279 -0.0062,-0.04651 0,-0.06511 0.04651,-0.111621 0.04651,-0.04651 0.111621,-0.04651 z"/>
<path d="m 32.225317,24.837589 q -0.06511,0 -0.111621,-0.04651 -0.04651,-0.04651 -0.04651,-0.111621 0,-0.0186 0.0062,-0.04651 l 0.79375,-2.855639 q 0.0124,-0.04961 0.05581,-0.08061 0.04341,-0.03411 0.09612,-0.03411 0.05271,0 0.09612,0.03411 0.04341,0.03101 0.05581,0.08061 l 0.79375,2.85874 q 0.0062,0.0248 0.0062,0.04341 0,0.06511 -0.04651,0.111621 -0.04651,0.04651 -0.111621,0.04651 -0.04651,0 -0.09302,-0.03101 -0.04651,-0.03411 -0.05891,-0.08061 l -0.145724,-0.524001 h -0.992187 l -0.145728,0.523999 q -0.0124,0.04651 -0.06201,0.08061 -0.04651,0.03101 -0.08992,0.03101 z m 0.384473,-0.95188 h 0.818555 l -0.409278,-1.469677 z"/>
<path d="m 34.445337,24.679459 v -2.85874 q 0,-0.06511 0.04651,-0.111621 0.04651,-0.04651 0.111621,-0.04651 0.06511,0 0.111621,0.04651 0.04651,0.04651 0.04651,0.111621 v 2.70061 h 1.42937 q 0.06511,0 0.111621,0.04651 0.04651,0.04651 0.04651,0.111621 0,0.06511 -0.04651,0.111621 -0.04651,0.04651 -0.111621,0.04651 h -1.5875 q -0.06511,0 -0.111621,-0.04651 -0.04651,-0.04651 -0.04651,-0.111621 z"/>
<path d="m 36.829687,23.885709 v -2.06499 q 0,-0.06511 0.04651,-0.111621 0.04651,-0.04651 0.111621,-0.04651 0.06511,0 0.111621,0.04651 0.04651,0.04651 0.04651,0.111621 v 2.06499 q 0,0.26355 0.186035,0.449585 0.186036,0.186035 0.449585,0.186035 0.26355,0 0.449585,-0.186035 0.186035,-0.186035 0.186035,-0.449585 v -2.06499 q 0,-0.06511 0.04651,-0.111621 0.04651,-0.04651 0.111621,-0.04651 0.06511,0 0.111621,0.04651 0.04651,0.04651 0.04651,0.111621 v 2.06499 q 0,0.393775 -0.279053,0.672827 -0.279052,0.279053 -0.672827,0.279053 -0.393774,0 -0.672827,-0.279053 -0.279053,-0.279052 -0.279053,-0.672827 z"/>
<path d="m 39.369067,24.679459 v -2.85874 q 0,-0.06511 0.04651,-0.111621 0.04651,-0.04651 0.111621,-0.04651 h 1.5875 q 0.06511,-0.0031 0.111621,0.04651 0.04651,0.04651 0.04651,0.111621 0,0.06511 -0.04651,0.111621 -0.04651,0.04651 -0.114721,0.04651 h -1.42627 v 0.95498 h 1.11311 q 0.06511,0 0.111622,0.04651 0.04651,0.04651 0.04651,0.111621 0,0.06511 -0.04651,0.111621 -0.04651,0.04651 -0.111622,0.04651 h -1.11311 v 1.27124 h 1.42937 q 0.06511,0 0.111621,0.04651 0.04651,0.04651 0.04651,0.111621 0,0.06511 -0.04651,0.111621 -0.04651,0.04651 -0.111621,0.04651 h -1.5875 q -0.06511,0 -0.111621,-0.04651 -0.04651,-0.04651 -0.04651,-0.111621 z"/>
<path d="M 32.146255,44.679459 V 41.82072 q 0,-0.06511 0.04651,-0.111621 0.04651,-0.04651 0.111621,-0.04651 h 1.5875 q 0.06511,-0.0031 0.111621,0.04651 0.04651,0.04651 0.04651,0.111621 0,0.06511 -0.04651,0.111621 -0.04651,0.04651 -0.114722,0.04651 h -1.426269 v 0.95498 h 1.11311 q 0.06511,0 0.111621,0.04651 0.04651,0.04651 0.04651,0.111621 0,0.06511 -0.04651,0.111621 -0.04651,0.04651 -0.111621,0.04651 h -1.11311 v 1.27124 h 1.42937 q 0.06511,0 0.111621,0.04651 0.04651,0.04651 0.04651,0.111621 0,0.06511 -0.04651,0.111621 -0.04651,0.04651 -0.111621,0.04651 h -1.5875 q -0.06511,0 -0.111621,-0.04651 -0.04651,-0.04651 -0.04651,-0.111621 z"/>
<path d="m 34.688735,44.837589 q -0.06511,0 -0.111621,-0.04651 -0.04651,-0.04651 -0.04651,-0.111621 v -2.85874 q 0,-0.06511 0.04651,-0.111621 0.04651,-0.04651 0.111621,-0.04651 0.04341,0 0.08062,0.0217 0.03721,0.0217 0.05891,0.05891 l 1.289843,2.322339 v -2.244824 q 0,-0.06511 0.04651,-0.111621 0.04651,-0.04651 0.111621,-0.04651 0.06511,0 0.111621,0.04651 0.04651,0.04651 0.04651,0.111621 v 2.85874 q 0,0.06511 -0.04651,0.111621 -0.04651,0.04651 -0.111621,0.04651 -0.04341,0 -0.08062,-0.0217 -0.03721,-0.0217 -0.05891,-0.05891 l -1.289844,-2.322338 v 2.244824 q 0,0.06511 -0.04651,0.111621 -0.04651,0.04651 -0.111621,0.04651 z"/>
<path d="m 37.705605,44.837589 h -0.47749 q -0.06511,0 -0.111621,-0.04651 -0.04651,-0.04651 -0.04651,-0.111621 v -2.85874 q 0,-0.06511 0.04651,-0.111621 0.04651,-0.04651 0.111621,-0.04651 h 0.47749 q 0.458887,0 0.784449,0.325562 0.483691,0.483691 0.483691,1.261938 0,0.778247 -0.483691,1.261938 -0.325562,0.325562 -0.784449,0.325562 z m -0.31936,-0.31626 h 0.31936 q 0.328662,0 0.561206,-0.232543 0.390674,-0.390674 0.390674,-1.038696 0,-0.648022 -0.390674,-1.038697 -0.232544,-0.232543 -0.561206,-0.232543 h -0.31936 z"/>
</g><g style="fill:#212121">
<path d="m 8.4796357,20.749079 q -0.3613331,0.28287 -0.8183695,0.227204 -0.6790246,-0.0827 -1.1587573,-0.695505 -0.4797326,-0.612801 -0.3970292,-1.291825 0.055666,-0.457037 0.4169994,-0.739907 0.3442423,-0.269491 0.779515,-0.216476 0.065292,0.008 0.1054288,0.05922 0.040137,0.05127 0.032184,0.116562 -0.00795,0.06529 -0.059222,0.105427 -0.051268,0.04014 -0.1165611,0.03219 -0.3046907,-0.03711 -0.546393,0.152107 -0.2587924,0.202596 -0.2985539,0.52905 -0.066799,0.548443 0.3326594,1.058704 0.3994587,0.510261 0.947902,0.57706 0.3264543,0.03976 0.5852467,-0.162835 0.2417024,-0.189217 0.278813,-0.493908 0.00795,-0.06529 0.059222,-0.105428 0.051268,-0.04014 0.1165611,-0.03218 0.065292,0.008 0.1054289,0.05922 0.040137,0.05127 0.032184,0.116562 -0.053015,0.435273 -0.3972578,0.704764 z"/>
<path d="M 8.3799752,18.810999 Q 7.8429039,18.124955 7.9200967,17.50931 q 0.045272,-0.389834 0.3553345,-0.632567 0.3100631,-0.242733 0.7018076,-0.195019 0.6137344,0.07475 1.1508052,0.760795 0.537072,0.686044 0.46232,1.299779 -0.04771,0.391744 -0.357776,0.634478 -0.3100626,0.242733 -0.701808,0.195019 -0.6137335,-0.07475 -1.1508048,-0.760796 z m 0.090407,-1.685229 q -0.2075216,0.162459 -0.2393314,0.423623 -0.058847,0.483152 0.3979504,1.066656 0.4567972,0.583503 0.9399496,0.64235 0.261164,0.03181 0.4686861,-0.13065 0.207522,-0.162459 0.239331,-0.423623 Q 10.335815,18.220974 9.8790176,17.63747 9.4222203,17.053967 8.939068,16.99512 8.6779047,16.96331 8.4703823,17.12577 Z"/>
<path d="m 11.607117,18.300722 q -0.05127,0.04013 -0.114119,0.03027 -0.06285,-0.0099 -0.10787,-0.05731 L 9.622923,16.022678 q -0.040137,-0.05127 -0.032184,-0.116562 0.00795,-0.06529 0.059222,-0.105427 0.039063,-0.03058 0.088006,-0.03346 0.048942,-0.0029 0.092257,0.02228 l 2.2883163,1.35874 -0.764859,-2.551382 q -0.01785,-0.05297 -0.0014,-0.09735 0.01645,-0.04438 0.05551,-0.07496 0.05127,-0.04013 0.11412,-0.03027 0.06285,0.0099 0.102988,0.06113 l 1.762206,2.251006 q 0.04014,0.05127 0.03218,0.116562 -0.008,0.06529 -0.05922,0.105428 -0.05127,0.04014 -0.116561,0.03218 -0.06529,-0.008 -0.105429,-0.05922 l -1.255714,-1.604025 0.655344,2.144905 q 0.01402,0.04809 -5.16e-4,0.09491 -0.01454,0.04682 -0.0536,0.0774 -0.03906,0.03058 -0.08801,0.03346 -0.04894,0.0029 -0.09226,-0.02228 l -1.924893,-1.151036 1.255714,1.604025 q 0.04014,0.05127 0.03218,0.116562 -0.008,0.06529 -0.05922,0.105428 z"/>
<path d="m 13.885161,16.316528 -1.762205,-2.251006 q -0.04014,-0.05127 -0.03218,-0.116562 0.008,-0.06529 0.05922,-0.105428 l 0.749522,-0.586765 q 0.258792,-0.202596 0.585247,-0.162834 0.326454,0.03976 0.52905,0.298553 0.202596,0.258793 0.162835,0.585247 -0.03976,0.326454 -0.298554,0.529051 l -0.625008,0.489289 0.881103,1.125503 q 0.04014,0.05127 0.03218,0.116562 -0.008,0.06529 -0.05922,0.105428 -0.05127,0.04013 -0.116561,0.03218 -0.06529,-0.008 -0.105429,-0.05922 z m -0.120375,-2.72909 q -0.122323,-0.156252 -0.318195,-0.180109 -0.195873,-0.02386 -0.352125,0.09847 l -0.625008,0.489289 0.588676,0.751963 0.625008,-0.489289 q 0.156252,-0.122322 0.180109,-0.318195 0.02386,-0.195873 -0.09846,-0.352125 z"/>
<path d="m 15.857661,14.973174 q -0.05127,0.04013 -0.116561,0.03218 -0.06529,-0.008 -0.105429,-0.05922 -0.01147,-0.01465 -0.02379,-0.04044 l -1.135286,-2.737854 q -0.02082,-0.04671 -0.0057,-0.09788 0.01316,-0.05362 0.05466,-0.08611 0.0415,-0.03249 0.09671,-0.0324 0.05329,-0.0023 0.09364,0.02908 l 2.387213,1.761716 q 0.02017,0.01571 0.03164,0.03036 0.04014,0.05127 0.03218,0.116562 -0.008,0.06529 -0.05922,0.105429 -0.03662,0.02867 -0.09236,0.03292 -0.05765,0.0018 -0.09608,-0.02716 l -0.437751,-0.322775 -0.78126,0.611611 0.20826,0.502434 q 0.01891,0.04426 8.65e-4,0.101701 -0.01751,0.05308 -0.05169,0.07984 z m -0.284026,-0.986522 0.64454,-0.504579 -1.22822,-0.904952 z"/>
<path d="m 17.38788,10.75109 q -0.122322,-0.156252 -0.318195,-0.180108 -0.195873,-0.02386 -0.352124,0.09846 l -0.625008,0.48929 0.588676,0.751962 0.625008,-0.489289 q 0.156252,-0.122322 0.180108,-0.318194 0.02386,-0.195873 -0.09847,-0.352125 z m 1.592381,1.777549 q -0.03662,0.02867 -0.08365,0.03399 -0.04459,0.0034 -0.08843,-0.0174 l -1.446147,-0.765847 -0.485846,0.380345 0.881102,1.125503 q 0.04014,0.05127 0.03218,0.116562 -0.008,0.06529 -0.05922,0.105428 -0.05127,0.04013 -0.116561,0.03218 -0.06529,-0.008 -0.105429,-0.05922 l -1.762205,-2.251006 q -0.04014,-0.05127 -0.03218,-0.116562 0.008,-0.06529 0.05922,-0.105428 l 0.749522,-0.586765 q 0.258792,-0.202596 0.585247,-0.162834 0.326454,0.03976 0.527139,0.296112 0.206948,0.259323 0.167187,0.585777 -0.03054,0.232605 -0.180625,0.413104 l 1.335838,0.710447 q 0.02888,0.01677 0.0499,0.04363 0.04014,0.05127 0.03218,0.116562 -0.008,0.06529 -0.05922,0.105428 z"/>
<path d="M 19.383279,12.012313 17.621074,9.7613066 q -0.04014,-0.05127 -0.03218,-0.1165617 0.008,-0.065292 0.05922,-0.1054278 0.05127,-0.040136 0.116561,-0.032185 0.06529,0.00795 0.105428,0.059222 l 1.762206,2.2510059 q 0.04014,0.05127 0.03218,0.116562 -0.008,0.06529 -0.05922,0.105428 -0.05127,0.04013 -0.116561,0.03218 -0.06529,-0.008 -0.105429,-0.05922 z"/>
<path d="m 20.354791,11.452585 q -0.05127,0.04014 -0.116561,0.03218 -0.06529,-0.008 -0.105429,-0.05922 L 18.370596,9.1745419 q -0.04014,-0.05127 -0.03218,-0.1165618 0.008,-0.065292 0.05922,-0.1054278 0.03418,-0.026759 0.07686,-0.032606 0.04268,-0.00585 0.0827,0.010074 l 2.447188,1.0335447 -1.38377,-1.7676012 q -0.04014,-0.05127 -0.03218,-0.1165618 0.008,-0.065292 0.05922,-0.1054278 0.05127,-0.040136 0.116561,-0.032185 0.06529,0.00795 0.105429,0.059222 l 1.762205,2.2510055 q 0.04014,0.05127 0.03218,0.116562 -0.008,0.06529 -0.05922,0.105428 -0.03418,0.02676 -0.07686,0.03261 -0.04268,0.0058 -0.0827,-0.01007 l -2.447189,-1.0335443 1.383771,1.7676013 q 0.04014,0.05127 0.03218,0.116562 -0.008,0.06529 -0.05922,0.105428 z"/>
<path d="m 23.103849,9.3004777 q -0.361332,0.2828698 -0.818368,0.2272041 -0.679025,-0.082704 -1.158758,-0.695505 -0.479732,-0.6128009 -0.397029,-1.2918256 0.05567,-0.4570363 0.416999,-0.7399061 0.344243,-0.2694916 0.779516,-0.2164766 0.06529,0.00795 0.105428,0.059222 0.04014,0.05127 0.03218,0.1165619 -0.008,0.065292 -0.05922,0.1054279 -0.05127,0.040136 -0.116561,0.032185 -0.304692,-0.03711 -0.546394,0.1521072 -0.258792,0.2025963 -0.298554,0.5290505 -0.0668,0.5484428 0.33266,1.0587033 0.399459,0.5102606 0.947902,0.5770603 0.326454,0.039761 0.585246,-0.1628349 0.212405,-0.1662818 0.26895,-0.4310589 L 22.696204,8.0051496 22.447178,8.2001009 q -0.05127,0.040136 -0.116562,0.032184 -0.06529,-0.00795 -0.105428,-0.059222 -0.04014,-0.05127 -0.03218,-0.1165618 0.008,-0.065292 0.05922,-0.105428 l 0.37354,-0.2924269 q 0.05127,-0.040136 0.116562,-0.032184 0.06529,0.00795 0.105428,0.059222 l 0.621168,0.7934673 q 0.04014,0.05127 0.03218,0.1165618 -0.05302,0.4352727 -0.397259,0.7047644 z"/>
<path d="m 12.670578,22.596768 q -0.362305,0.281623 -0.819147,0.224383 -0.678735,-0.08504 -1.156353,-0.699494 -0.477618,-0.614451 -0.392575,-1.293187 0.05724,-0.456841 0.419546,-0.738464 0.345169,-0.268304 0.780257,-0.213789 0.06526,0.0082 0.105224,0.05958 0.03996,0.05141 0.03178,0.116672 -0.0082,0.06526 -0.05959,0.105224 -0.05141,0.03996 -0.116672,0.03178 -0.30456,-0.03816 -0.546914,0.150223 -0.259489,0.201703 -0.300375,0.528018 -0.06869,0.54821 0.329009,1.059844 0.397698,0.511634 0.945908,0.580323 0.326315,0.04089 0.585804,-0.160817 0.242353,-0.188383 0.280514,-0.492944 0.0082,-0.06526 0.05959,-0.105223 0.05141,-0.03996 0.116672,-0.03178 0.06526,0.0082 0.105224,0.05958 0.03996,0.05141 0.03178,0.116672 -0.05452,0.435088 -0.399685,0.703391 z"/>
<path d="m 12.577597,20.658357 q -0.534704,-0.687891 -0.45539,-1.303266 0.04662,-0.389676 0.357513,-0.631339 0.310897,-0.241663 0.702476,-0.1926 0.613473,0.07687 1.148177,0.764757 0.534704,0.68789 0.457837,1.301364 -0.04906,0.391578 -0.35996,0.633241 -0.310897,0.241663 -0.702476,0.1926 -0.613473,-0.07687 -1.148177,-0.764757 z m 0.09621,-1.684908 q -0.208081,0.161743 -0.24079,0.422795 -0.06051,0.482947 0.394272,1.068021 0.454784,0.585075 0.937731,0.645586 0.261052,0.03271 0.469133,-0.129034 0.208081,-0.161743 0.24079,-0.422795 0.06051,-0.482947 -0.394272,-1.068021 -0.454784,-0.585075 -0.937731,-0.645587 -0.261052,-0.03271 -0.469133,0.129035 z"/>
<path d="m 15.099901,19.502807 -1.267305,-1.630375 q -0.03996,-0.05141 -0.03178,-0.116672 0.0082,-0.06526 0.05958,-0.105223 0.05141,-0.03996 0.116672,-0.03178 0.06526,0.0082 0.105224,0.05959 l 1.267306,1.630374 q 0.161743,0.208081 0.422795,0.24079 0.261053,0.03271 0.469133,-0.129034 0.208081,-0.161743 0.24079,-0.422795 0.03271,-0.261053 -0.129034,-0.469134 L 15.08598,16.898165 q -0.03996,-0.05141 -0.03178,-0.116672 0.0082,-0.06526 0.05959,-0.105223 0.05141,-0.03996 0.116672,-0.03178 0.06526,0.0082 0.105224,0.05958 l 1.267305,1.630375 q 0.241663,0.310898 0.1926,0.702476 -0.04906,0.391578 -0.359961,0.633242 -0.310897,0.241663 -0.702476,0.192599 -0.391577,-0.04906 -0.633241,-0.359961 z"/>
<path d="m 17.816296,18.596955 q -0.05141,0.03996 -0.116671,0.03178 -0.06527,-0.0082 -0.105224,-0.05958 l -1.754438,-2.257065 q -0.03996,-0.05141 -0.03178,-0.116672 0.0082,-0.06526 0.05959,-0.105224 0.03427,-0.02664 0.07697,-0.03234 0.0427,-0.0057 0.08267,0.01036 l 2.443615,1.04197 -1.377671,-1.772359 q -0.03996,-0.05141 -0.03178,-0.116672 0.0082,-0.06526 0.05959,-0.105223 0.05141,-0.03996 0.116671,-0.03178 0.06526,0.0082 0.105224,0.05959 l 1.754438,2.257065 q 0.03996,0.05141 0.03178,0.116672 -0.0082,0.06526 -0.05959,0.105223 -0.03427,0.02664 -0.07697,0.03234 -0.0427,0.0057 -0.08267,-0.01036 l -2.443616,-1.041969 1.377671,1.772359 q 0.03996,0.05141 0.03178,0.116672 -0.0082,0.06526 -0.05959,0.105224 z"/>
<path d="m 20.101164,16.620623 -1.657392,-2.132217 -0.501842,0.390086 q -0.05141,0.03996 -0.116671,0.03178 -0.06526,-0.0082 -0.105224,-0.05959 -0.03996,-0.05141 -0.03178,-0.116672 0.0082,-0.06526 0.05959,-0.105223 L 19.00122,13.65453 q 0.05141,-0.03996 0.116671,-0.03178 0.06526,0.0082 0.105224,0.05959 0.03996,0.05141 0.03178,0.116672 -0.0082,0.06526 -0.05958,0.105223 l -0.501842,0.390086 1.657391,2.132217 q 0.03996,0.05141 0.03178,0.116672 -0.0082,0.06526 -0.05959,0.105223 -0.05141,0.03996 -0.116672,0.03178 -0.06526,-0.0082 -0.105224,-0.05959 z"/>
<path d="M 21.352098,15.648261 19.59766,13.391195 q -0.03996,-0.05141 -0.03178,-0.116672 0.0082,-0.06526 0.05959,-0.105223 l 1.253381,-0.974265 q 0.0495,-0.04241 0.116671,-0.03178 0.06526,0.0082 0.105224,0.05959 0.03996,0.05141 0.03178,0.116672 -0.0082,0.06526 -0.06203,0.107126 l -1.126086,0.875316 0.586081,0.753987 0.878837,-0.683127 q 0.05141,-0.03996 0.116671,-0.03178 0.06526,0.0082 0.105224,0.05959 0.03996,0.05141 0.03178,0.116672 -0.0082,0.06526 -0.05959,0.105223 l -0.878836,0.683128 0.780172,1.003684 1.128534,-0.877219 q 0.05141,-0.03996 0.116671,-0.03178 0.06526,0.0082 0.105224,0.05959 0.03996,0.05141 0.03178,0.116672 -0.0082,0.06526 -0.05958,0.105223 l -1.253381,0.974265 q -0.05141,0.03996 -0.116672,0.03178 -0.06526,-0.0082 -0.105224,-0.05959 z"/>
<path d="m 23.121199,11.457376 q -0.121783,-0.156672 -0.317572,-0.181204 -0.19579,-0.02453 -0.352462,0.09725 l -0.626691,0.487133 0.586081,0.753987 0.626691,-0.487133 q 0.156672,-0.121782 0.181205,-0.317572 0.02453,-0.195789 -0.09725,-0.352462 z m 1.586246,1.783026 q -0.03672,0.02854 -0.08377,0.0337 -0.0446,0.0033 -0.08837,-0.0177 l -1.443498,-0.770828 -0.487155,0.37867 0.877219,1.128533 q 0.03996,0.05141 0.03178,0.116672 -0.0082,0.06526 -0.05958,0.105223 -0.05141,0.03996 -0.116672,0.03178 -0.06526,-0.0082 -0.105224,-0.05958 L 21.47773,11.9298 q -0.03996,-0.05141 -0.03178,-0.116672 0.0082,-0.06526 0.05958,-0.105223 l 0.751539,-0.584178 q 0.259489,-0.201703 0.585805,-0.160817 0.326315,0.04089 0.526115,0.297927 0.206054,0.260035 0.165169,0.586349 -0.03134,0.2325 -0.182048,0.412479 l 1.333382,0.715046 q 0.02882,0.01687 0.04975,0.0438 0.03996,0.05141 0.03178,0.116672 -0.0082,0.06526 -0.05959,0.105224 z"/>
<path d="m 14.288119,64.679365 v -2.85874 q 0,-0.0651 0.04651,-0.11162 0.04651,-0.0465 0.111621,-0.0465 h 0.793749 q 0.328662,0 0.561206,0.23254 0.232544,0.23254 0.232544,0.56121 0,0.32866 -0.232544,0.5612 -0.03101,0.031 -0.06511,0.0558 0.09612,0.0589 0.176734,0.13953 0.279052,0.27905 0.279052,0.67283 0,0.39377 -0.279052,0.67282 -0.279056,0.27906 -0.67283,0.27906 h -0.79375 q -0.06511,0 -0.111621,-0.0465 -0.04651,-0.0465 -0.04651,-0.11162 z m 1.42937,-2.22312 q 0,-0.19844 -0.139527,-0.33797 -0.139526,-0.13952 -0.337963,-0.13952 h -0.635621 v 0.95498 h 0.635621 q 0.198437,0 0.337963,-0.13953 0.139527,-0.13953 0.139527,-0.33796 z m -0.47749,0.79375 h -0.635621 v 1.27124 h 0.635621 q 0.263549,0 0.449585,-0.17674 0.186035,-0.17983 0.186035,-0.45888 0,-0.26355 -0.186035,-0.44959 -0.186036,-0.18913 -0.449585,-0.18603 z"/>
<path d="m 19.52625,85.837505 q -0.06511,0 -0.111621,-0.04651 -0.04651,-0.04651 -0.04651,-0.111621 0,-0.0186 0.0062,-0.04651 l 0.79375,-2.855639 q 0.0124,-0.04961 0.05581,-0.08062 0.04341,-0.03411 0.09612,-0.03411 0.05271,0 0.09612,0.03411 0.04341,0.03101 0.05581,0.08062 l 0.79375,2.85874 q 0.0062,0.02481 0.0062,0.04341 0,0.06511 -0.04651,0.111621 -0.04651,0.04651 -0.111621,0.04651 -0.04651,0 -0.09302,-0.03101 -0.04651,-0.03411 -0.05891,-0.08061 l -0.145725,-0.524001 h -0.992187 l -0.145727,0.523999 q -0.0124,0.04651 -0.06201,0.08061 -0.04651,0.03101 -0.08992,0.03101 z m 0.384472,-0.95188 h 0.818555 L 20.32,83.415947 Z"/>
<path d="m 15.08187,106.67937 v -2.70061 h -0.63562 q -0.06511,0 -0.111621,-0.0465 -0.04651,-0.0465 -0.04651,-0.11162 0,-0.0651 0.04651,-0.11162 0.04651,-0.0465 0.111621,-0.0465 h 1.5875 q 0.06511,0 0.111621,0.0465 0.04651,0.0465 0.04651,0.11162 0,0.0651 -0.04651,0.11162 -0.04651,0.0465 -0.111621,0.0465 h -0.63562 v 2.70061 q 0,0.0651 -0.04651,0.11162 -0.04651,0.0465 -0.111621,0.0465 -0.06511,0 -0.111621,-0.0465 -0.04651,-0.0465 -0.04651,-0.11162 z"/>
<path d="m 32.1478,63.249991 q -0.06511,0 -0.108521,-0.04651 -0.04341,-0.04651 -0.04961,-0.111621 v -2.85874 q 0,-0.06511 0.04651,-0.111621 0.04651,-0.04651 0.111621,-0.04651 0.04961,0 0.08992,0.02791 0.04031,0.02791 0.05891,0.07441 l 0.964282,2.480468 0.970483,-2.480468 q 0.0186,-0.05271 0.05891,-0.07751 0.04031,-0.02481 0.08992,-0.02481 0.06511,0 0.10852,0.04651 0.04341,0.04651 0.04341,0.111621 v 2.85874 q 0,0.06511 -0.04651,0.111621 -0.04651,0.04651 -0.111621,0.04651 -0.06511,0 -0.111621,-0.04651 -0.04651,-0.04651 -0.04651,-0.111621 v -2.037085 l -0.806152,2.092896 q -0.0186,0.04651 -0.05891,0.07441 -0.04031,0.02791 -0.08992,0.02791 -0.04961,0 -0.08992,-0.02791 -0.04031,-0.0279 -0.05891,-0.07441 l -0.806152,-2.092896 v 2.037085 q 0,0.06511 -0.04651,0.111621 -0.04651,0.04651 -0.111621,0.04651 z"/>
<path d="m 35.16467,63.249991 q -0.06511,0 -0.111621,-0.04651 -0.04651,-0.04651 -0.04651,-0.111621 0,-0.0186 0.0062,-0.04651 l 0.79375,-2.855639 q 0.0124,-0.04961 0.05581,-0.08062 0.04341,-0.03411 0.09612,-0.03411 0.05271,0 0.09612,0.03411 0.04341,0.03101 0.05581,0.08062 l 0.79375,2.85874 q 0.0062,0.02481 0.0062,0.04341 0,0.06511 -0.04651,0.111621 -0.04651,0.04651 -0.111621,0.04651 -0.04651,0 -0.09302,-0.03101 -0.04651,-0.03411 -0.05891,-0.08062 l -0.145725,-0.523991 h -0.992187 l -0.145728,0.523999 q -0.0124,0.04651 -0.06201,0.08062 -0.04651,0.03101 -0.08992,0.03101 z m 0.384472,-0.95188 h 0.818555 L 35.95842,60.828434 Z"/>
<path d="m 37.384689,63.249991 q -0.06511,0 -0.111621,-0.04651 -0.04651,-0.04651 -0.04651,-0.111621 0,-0.04031 0.0186,-0.07751 l 0.750347,-1.351859 -0.750342,-1.351855 q -0.0186,-0.03721 -0.0186,-0.07751 0,-0.06511 0.04651,-0.111621 0.04651,-0.04651 0.111621,-0.04651 0.04341,0 0.08062,0.0217 0.03721,0.0217 0.05891,0.05891 l 0.654223,1.178223 0.654224,-1.178223 q 0.0217,-0.03721 0.05891,-0.05891 0.03721,-0.0217 0.08062,-0.0217 0.06511,0 0.111621,0.04651 0.04651,0.04651 0.04651,0.111621 0,0.04031 -0.0186,0.07751 l -0.750342,1.351855 0.750342,1.351856 q 0.0186,0.03721 0.0186,0.07751 0,0.06511 -0.04651,0.111621 -0.04651,0.04651 -0.111621,0.04651 -0.04341,0 -0.08062,-0.0217 -0.03721,-0.0217 -0.05891,-0.05891 l -0.654224,-1.178223 -0.654223,1.178223 q -0.0217,0.03721 -0.05891,0.05891 -0.03721,0.0217 -0.08062,0.0217 z"/>
<path d="m 8.6515649,123.72439 q 0,-0.062 0.046509,-0.10852 0.046509,-0.0496 0.1116211,-0.0496 h 0.4774902 q 0.065112,0 0.1116211,0.0465 0.046509,0.0465 0.046509,0.11162 0,0.0651 -0.046509,0.11162 -0.046509,0.0465 -0.1116211,0.0465 H 8.8096948 q -0.065112,0 -0.1116211,-0.0465 -0.046509,-0.0465 -0.046509,-0.11162 z"/>
<path d="m 10.716555,122.77561 q 0.384473,0 0.666626,0.28525 0.285254,0.28216 0.285254,0.74414 0,0.43409 -0.300757,0.73484 -0.297656,0.29766 -0.682129,0.29766 -0.499194,0 -0.8743649,-0.37517 -0.046509,-0.0465 -0.046509,-0.11162 0,-0.0651 0.046509,-0.11162 0.046509,-0.0465 0.1116211,-0.0465 0.065112,0 0.1116208,0.0465 0.282154,0.28215 0.651123,0.28215 0.254248,0 0.458887,-0.20464 0.207739,-0.20774 0.207739,-0.5116 0,-0.33176 -0.192236,-0.52089 -0.189136,-0.19224 -0.443384,-0.19224 -0.306958,0 -0.523999,0.21704 -0.04651,0.0465 -0.111621,0.0465 -0.06511,0 -0.111621,-0.0465 -0.046509,-0.0465 -0.046509,-0.11162 v -1.37666 q 0,-0.0651 0.046509,-0.11162 0.046509,-0.0465 0.111621,-0.0465 h 1.27124 q 0.06511,0 0.111621,0.0465 0.04651,0.0465 0.04651,0.11162 0,0.0651 -0.04651,0.11162 -0.04651,0.0465 -0.111621,0.0465 h -1.11311 v 0.90847 q 0.217041,-0.11162 0.47749,-0.11162 z"/>
<path d="m 20.32,122.77561 q 0.384472,0 0.666626,0.28525 0.285254,0.28216 0.285254,0.74414 0,0.43409 -0.300757,0.73484 -0.297656,0.29766 -0.682129,0.29766 -0.499194,0 -0.874365,-0.37517 -0.04651,-0.0465 -0.04651,-0.11162 0,-0.0651 0.04651,-0.11162 0.04651,-0.0465 0.111621,-0.0465 0.06511,0 0.111621,0.0465 0.282153,0.28215 0.651123,0.28215 0.254248,0 0.458887,-0.20464 0.207739,-0.20774 0.207739,-0.5116 0,-0.33176 -0.192236,-0.52089 -0.189136,-0.19224 -0.443384,-0.19224 -0.306958,0 -0.523999,0.21704 -0.04651,0.0465 -0.111621,0.0465 -0.06511,0 -0.111621,-0.0465 -0.04651,-0.0465 -0.04651,-0.11162 v -1.37666 q 0,-0.0651 0.04651,-0.11162 0.04651,-0.0465 0.111621,-0.0465 h 1.27124 q 0.06511,0 0.111621,0.0465 0.04651,0.0465 0.04651,0.11162 0,0.0651 -0.04651,0.11162 -0.04651,0.0465 -0.111621,0.0465 h -1.11311 v 0.90847 q 0.217041,-0.11162 0.47749,-0.11162 z"/>
<path d="m 34.685633,67.425 q -0.458887,0 -0.784449,-0.32557 -0.483691,-0.48369 -0.483691,-1.26193 0,-0.77825 0.483691,-1.26194 0.325562,-0.32556 0.784449,-0.32556 0.437182,0 0.747241,0.31005 0.04651,0.0465 0.04651,0.11163 0,0.0651 -0.04651,0.11162 -0.04651,0.0465 -0.111621,0.0465 -0.06511,0 -0.111621,-0.0465 -0.217041,-0.21704 -0.523999,-0.21704 -0.328663,0 -0.561207,0.23254 -0.390673,0.39067 -0.390673,1.0387 0,0.64802 0.390673,1.03869 0.232544,0.23255 0.561207,0.23255 0.306958,0 0.523999,-0.21704 0.04651,-0.0465 0.111621,-0.0465 0.06511,0 0.111621,0.0465 0.04651,0.0465 0.04651,0.11162 0,0.0651 -0.04651,0.11162 -0.310059,0.31006 -0.747241,0.31006 z"/>
<path d="m 35.956873,64.25 q 0.04341,0 0.08992,0.0341 0.04961,0.031 0.06201,0.0775 l 0.641822,2.30993 0.641821,-2.30993 q 0.0124,-0.0465 0.05891,-0.0775 0.04651,-0.0341 0.09302,-0.0341 0.06511,0 0.111621,0.0465 0.04651,0.0465 0.04651,0.11162 0,0.0186 -0.0062,0.0434 l -0.79375,2.85874 q -0.0124,0.0496 -0.05581,0.0837 -0.04341,0.031 -0.09612,0.031 -0.05271,0 -0.09612,-0.031 -0.04341,-0.0341 -0.05581,-0.0837 l -0.79375,-2.85563 q -0.0062,-0.0279 -0.0062,-0.0465 0,-0.0651 0.04651,-0.11162 0.04651,-0.0465 0.111621,-0.0465 z"/>
<path d="m 40.770224,102.25471 v 0.86351 h 0.863513 v 0.26355 h -0.863513 v 0.86352 h -0.260449 v -0.86352 h -0.863513 v -0.26355 h 0.863513 v -0.86351 z"/>
<path d="m 31.488037,103.11452 v 0.27096 h -2.016073 v -0.27096 z"/>
<path d="m 30.32187,124.67937 v -2.85874 q 0,-0.0651 0.04651,-0.11162 0.04651,-0.0465 0.11162,-0.0465 0.06511,0 0.111621,0.0465 0.04651,0.0465 0.04651,0.11162 v 2.85874 q 0,0.0651 -0.04651,0.11162 -0.04651,0.0465 -0.111621,0.0465 -0.06511,0 -0.111621,-0.0465 -0.04651,-0.0465 -0.04651,-0.11162 z"/>
<path d="m 39.450926,121.82063 q 0,-0.0651 0.04651,-0.11162 0.04651,-0.0465 0.11162,-0.0465 h 1.27124 q 0.06511,0 0.111621,0.0465 0.04651,0.0465 0.04651,0.11162 0,0.0496 -0.03101,0.093 l -0.641821,0.89917 q 0.291455,0.0744 0.505395,0.28835 0.325562,0.32556 0.325562,0.78445 0,0.39378 -0.279053,0.67283 -0.279053,0.27905 -0.672827,0.27905 -0.5302,0 -0.905371,-0.37517 -0.04651,-0.0465 -0.04651,-0.11162 0,-0.0651 0.04651,-0.11162 0.04651,-0.0465 0.111621,-0.0465 0.06511,0 0.111621,0.0465 0.282153,0.28215 0.682129,0.28215 0.26355,0 0.449585,-0.18603 0.186035,-0.18604 0.186035,-0.44959 0,-0.32866 -0.232544,-0.5612 -0.232544,-0.23255 -0.561206,-0.23255 -0.06511,0 -0.111621,-0.0465 -0.04651,-0.0465 -0.04651,-0.11162 0,-0.0496 0.03101,-0.093 l 0.613916,-0.86196 h -0.964282 q -0.06511,0 -0.111621,-0.0465 -0.04651,-0.0465 -0.04651,-0.11162 z"/>
<path d="m 41.670945,124.67937 v -2.85874 q 0,-0.0651 0.04651,-0.11162 0.04651,-0.0465 0.111621,-0.0465 0.06511,0 0.111621,0.0465 0.04651,0.0465 0.04651,0.11162 v 2.85874 q 0,0.0651 -0.04651,0.11162 -0.04651,0.0465 -0.111621,0.0465 -0.06511,0 -0.111621,-0.0465 -0.04651,-0.0465 -0.04651,-0.11162 z"/>
</g></g></svg>