<!--
    Copyright (C) 2023 Jacek Lewański

    This program is free software: you can redistribute it and/or modify
    it under the terms of the GNU General Public License as published by
    the Free Software Foundation, either version 3 of the License, or
    (at your option) any later version.

    This program is distributed in the hope that it will be useful,
    but WITHOUT ANY WARRANTY; without even the implied warranty of
    MERCHANTABILITY or FITNESS FOR A PARTICULAR PURPOSE.  See the
    GNU General Public License for more details.

    You should have received a copy of the GNU General Public License
    along with this program. If not, see <https://www.gnu.org/licenses/>.
-->
<svg width="81.28mm" height="128.5mm" viewBox="0 0 81.28 128.5" version="1.1" xmlns="http://www.w3.org/2000/svg" xmlns:svg="http://www.w3.org/2000/svg">
<rect style="fill:#cccccc" width="81.28" height="128.5" x="0" y="0"/><rect style="fill:#212121" width="81.28" height="40" x="0" y="6.25"/>
<g style="fill:none;stroke-width:0.511;stroke-linejoin:round"><g style="stroke:#212121">
<path d="m 10.16,74.25 v 20"/>
<path d="M 10.16,94.25 V 114.25 H 30.48 V 94.25"/>
<path d="M 20.32,46.25 V 66.25 L 60.96,66.25 V 46.25"/>
<path d="m 30.48,74.25 v 20"/>
<path d="m 50.8,74.25 v 20"/>
<path d="M 50.8,94.25 V 114.25 H 71.12 V 94.25"/>
<path d="m 71.12,74.25 v 20"/>
</g><g style="stroke:#cccccc"><path d="M 20.32,46.25 20.32,5.25"/><path d="M 60.96,46.25 60.96,5.25"/></g></g><g style="fill:#ffffff">
<circle cx="10.16" cy="14.25" r="5.5"/>
<circle cx="10.16" cy="54.25" r="5.5"/>
<circle cx="10.16" cy="74.25" r="5.5"/>
<circle cx="30.48" cy="14.25" r="5.5"/>
<circle cx="30.48" cy="74.25" r="5.5"/>
<circle cx="50.8" cy="14.25" r="5.5"/>
<circle cx="50.8" cy="74.25" r="5.5"/>
<circle cx="71.12" cy="14.25" r="5.5"/>
<circle cx="71.12" cy="54.25" r="5.5"/>
<circle cx="71.12" cy="74.25" r="5.5"/>
</g><g style="fill:#cc0000">
<circle cx="10.16" cy="34.25" r="5.5"/>
<circle cx="40.64" cy="34.25" r="5.5"/>
<circle cx="71.12" cy="34.25" r="5.5"/>
<circle cx="30.48" cy="54.25" r="5.5"/>
<circle cx="50.8" cy="54.25" r="5.5"/>
</g><g style="stroke-width:0.3;stroke-linejoin:round"><g style="fill:#212121">
<path d="m 18.030524,4.7125888 h -0.47749 q -0.06511,0 -0.111621,-0.046509 -0.04651,-0.046509 -0.04651,-0.1116211 v -2.85874 q 0,-0.065112 0.04651,-0.1116211 0.04651,-0.046509 0.111621,-0.046509 h 0.47749 q 0.458887,0 0.784449,0.3255615 0.483691,0.4836914 0.483691,1.2619385 0,0.7782471 -0.483691,1.2619385 -0.325562,0.3255615 -0.784449,0.3255615 z M 17.711164,4.396329 h 0.31936 q 0.328663,0 0.561207,-0.2325439 0.390673,-0.3906739 0.390673,-1.0386963 0,-0.6480225 -0.390673,-1.0386963 -0.232544,-0.2325439 -0.561207,-0.2325439 h -0.31936 z"/>
<path d="M 19.776154,4.5544589 V 1.6957187 q 0,-0.065112 0.04651,-0.1116211 0.04651,-0.046509 0.111621,-0.046509 0.06511,0 0.111621,0.046509 0.04651,0.046509 0.04651,0.1116211 v 2.8587402 q 0,0.065112 -0.04651,0.1116211 -0.04651,0.046509 -0.111621,0.046509 -0.06511,0 -0.111621,-0.046509 -0.04651,-0.046509 -0.04651,-0.1116211 z"/>
<path d="m 21.834943,4.7125888 q -0.458886,0 -0.784448,-0.3255615 -0.483691,-0.4836914 -0.483691,-1.2619385 0,-0.7782471 0.483691,-1.2619385 0.325562,-0.3255615 0.784448,-0.3255615 0.437183,0 0.747242,0.3100586 0.04651,0.046509 0.04651,0.1116211 0,0.065112 -0.04651,0.1116211 -0.04651,0.046509 -0.111622,0.046509 -0.06511,0 -0.111621,-0.046509 -0.217041,-0.217041 -0.523999,-0.217041 -0.328662,0 -0.561206,0.2325439 -0.390674,0.3906738 -0.390674,1.0386963 0,0.6480224 0.390674,1.0386963 0.232544,0.2325439 0.561206,0.2325439 0.269751,0 0.477491,-0.1736328 V 3.4413486 h -0.31626 q -0.06511,0 -0.111621,-0.046509 -0.04651,-0.046509 -0.04651,-0.1116211 0,-0.065112 0.04651,-0.1116211 0.04651,-0.046509 0.111621,-0.046509 h 0.474389 q 0.06511,0 0.111622,0.046509 0.04651,0.046509 0.04651,0.1116211 v 1.0076904 q 0,0.065112 -0.04651,0.1116211 -0.310059,0.3100586 -0.747242,0.3100588 z"/>
<path d="M 23.267414,4.5544589 V 1.6957187 q 0,-0.065112 0.04651,-0.1116211 0.04651,-0.046509 0.111621,-0.046509 0.06511,0 0.111621,0.046509 0.04651,0.046509 0.04651,0.1116211 v 2.8587402 q 0,0.065112 -0.04651,0.1116211 -0.04651,0.046509 -0.111621,0.046509 -0.06511,0 -0.111621,-0.046509 -0.04651,-0.046509 -0.04651,-0.1116211 z"/>
<path d="M 24.851814,4.5544589 V 1.8538486 h -0.635621 q -0.06511,0 -0.111621,-0.046509 -0.04651,-0.046509 -0.04651,-0.1116211 0,-0.065112 0.04651,-0.1116211 0.04651,-0.046509 0.111621,-0.046509 h 1.5875 q 0.06511,0 0.111621,0.046509 0.04651,0.046509 0.04651,0.1116211 0,0.065112 -0.04651,0.1116211 -0.04651,0.046509 -0.111621,0.046509 h -0.63562 v 2.7006103 q 0,0.065112 -0.04651,0.1116211 -0.04651,0.046509 -0.111622,0.046509 -0.06511,0 -0.111621,-0.046509 -0.04651,-0.046509 -0.04651,-0.1116211 z"/>
<path d="m 26.436213,4.7125888 q -0.06511,0 -0.111621,-0.046509 -0.04651,-0.046509 -0.04651,-0.1116211 0,-0.018603 0.0062,-0.046509 l 0.79375,-2.8556396 q 0.0124,-0.049609 0.05581,-0.080615 0.04341,-0.034106 0.09612,-0.034106 0.05271,0 0.09612,0.034106 0.04341,0.031006 0.05581,0.080615 l 0.79375,2.8587402 q 0.0062,0.024805 0.0062,0.043408 0,0.065112 -0.04651,0.1116211 -0.04651,0.046509 -0.111621,0.046509 -0.04651,0 -0.09302,-0.031006 -0.04651,-0.034106 -0.05891,-0.080615 L 27.726056,4.0769687 h -0.992187 l -0.145728,0.523999 q -0.0124,0.046509 -0.06201,0.080615 -0.04651,0.031006 -0.08992,0.031006 z M 26.820685,3.7607089 H 27.63924 L 27.229963,2.2910312 Z"/>
<path d="M 28.656232,4.5544589 V 1.6957187 q 0,-0.065112 0.04651,-0.1116211 0.04651,-0.046509 0.111621,-0.046509 0.06511,0 0.111621,0.046509 0.04651,0.046509 0.04651,0.1116211 V 4.396329 h 1.42937 q 0.06511,0 0.111621,0.046509 0.04651,0.046509 0.04651,0.1116211 0,0.065112 -0.04651,0.1116211 -0.04651,0.046509 -0.111621,0.046509 h -1.5875 q -0.06511,0 -0.111621,-0.046509 -0.04651,-0.046509 -0.04651,-0.1116211 z"/>
<path d="m 34.051252,4.7125888 q -0.458887,0 -0.784448,-0.3255615 -0.483691,-0.4836914 -0.483691,-1.2619385 0,-0.7782471 0.483691,-1.2619385 0.325561,-0.3255615 0.784448,-0.3255615 0.437183,0 0.747241,0.3100586 0.04651,0.046509 0.04651,0.1116211 0,0.065112 -0.04651,0.1116211 -0.04651,0.046509 -0.111621,0.046509 -0.06511,0 -0.111621,-0.046509 -0.217041,-0.217041 -0.523999,-0.217041 -0.328662,0 -0.561206,0.2325439 -0.390674,0.3906738 -0.390674,1.0386963 0,0.6480224 0.390674,1.0386963 0.232544,0.2325439 0.561206,0.2325439 0.306958,0 0.523999,-0.217041 0.04651,-0.046509 0.111621,-0.046509 0.06511,0 0.111621,0.046509 0.04651,0.046509 0.04651,0.1116211 0,0.065112 -0.04651,0.1116211 -0.310058,0.3100586 -0.747241,0.3100586 z"/>
<path d="M 35.325592,4.5544589 V 1.6957187 q 0,-0.065112 0.04651,-0.1116211 0.04651,-0.046509 0.111621,-0.046509 0.06511,0 0.111621,0.046509 0.04651,0.046509 0.04651,0.1116211 V 2.808829 h 1.27124 V 1.6957187 q 0,-0.065112 0.04651,-0.1116211 0.04651,-0.046509 0.111621,-0.046509 0.06511,0 0.111621,0.046509 0.04651,0.046509 0.04651,0.1116211 v 2.8587402 q 0,0.065112 -0.04651,0.1116211 -0.04651,0.046509 -0.111621,0.046509 -0.06511,0 -0.111621,-0.046509 -0.04651,-0.046509 -0.04651,-0.1116211 V 3.1250888 h -1.27124 v 1.4293701 q 0,0.065112 -0.04651,0.1116211 -0.04651,0.046509 -0.111621,0.046509 -0.06511,0 -0.111621,-0.046509 -0.04651,-0.046509 -0.04651,-0.1116211 z"/>
<path d="m 37.864972,4.7125888 q -0.06511,0 -0.111621,-0.046509 -0.04651,-0.046509 -0.04651,-0.1116211 0,-0.018603 0.0062,-0.046509 l 0.79375,-2.8556396 q 0.0124,-0.049609 0.05581,-0.080615 0.04341,-0.034106 0.09612,-0.034106 0.05271,0 0.09612,0.034106 0.04341,0.031006 0.05581,0.080615 l 0.79375,2.8587402 q 0.0062,0.024805 0.0062,0.043408 0,0.065112 -0.04651,0.1116211 -0.04651,0.046509 -0.111621,0.046509 -0.04651,0 -0.09302,-0.031006 -0.04651,-0.034106 -0.05891,-0.080615 L 39.154816,4.0769687 h -0.992187 l -0.145728,0.523999 q -0.0124,0.046509 -0.06201,0.080615 -0.04651,0.031006 -0.08992,0.031006 z M 38.249445,3.7607089 H 39.068 L 38.658722,2.2910312 Z"/>
<path d="m 39.929963,3.1250888 q 0,-0.8712646 0.440284,-1.3084473 0.275952,-0.2790527 0.669726,-0.2790527 0.393775,0 0.672827,0.2790527 0.437183,0.4371827 0.437183,1.3084473 0,0.8712646 -0.437183,1.3084472 -0.279052,0.2790528 -0.672827,0.2790528 -0.393774,0 -0.672827,-0.2790528 -0.437183,-0.4371826 -0.437183,-1.3084472 z m 1.11001,-1.2712402 q -0.26355,0 -0.449585,0.1860351 -0.344165,0.3441651 -0.344165,1.0852051 0,0.74104 0.344165,1.0852051 0.186035,0.1860351 0.449585,0.1860351 0.26355,0 0.449585,-0.1860351 0.344165,-0.3441651 0.344165,-1.0852051 0,-0.74104 -0.344165,-1.0852051 -0.186035,-0.1860351 -0.449585,-0.1860351 z"/>
<path d="M 43.263093,4.5544589 V 1.8538486 h -0.63562 q -0.06511,0 -0.111621,-0.046509 -0.04651,-0.046509 -0.04651,-0.1116211 0,-0.065112 0.04651,-0.1116211 0.04651,-0.046509 0.111621,-0.046509 h 1.5875 q 0.06511,0 0.111621,0.046509 0.04651,0.046509 0.04651,0.1116211 0,0.065112 -0.04651,0.1116211 -0.04651,0.046509 -0.111621,0.046509 h -0.63562 v 2.7006103 q 0,0.065112 -0.04651,0.1116211 -0.04651,0.046509 -0.111621,0.046509 -0.06511,0 -0.111621,-0.046509 -0.04651,-0.046509 -0.04651,-0.1116211 z"/>
<path d="M 44.847491,4.5544589 V 1.6957187 q 0,-0.065112 0.04651,-0.1116211 0.04651,-0.046509 0.111621,-0.046509 0.06511,0 0.111621,0.046509 0.04651,0.046509 0.04651,0.1116211 v 2.8587402 q 0,0.065112 -0.04651,0.1116211 -0.04651,0.046509 -0.111621,0.046509 -0.06511,0 -0.111621,-0.046509 -0.04651,-0.046509 -0.04651,-0.1116211 z"/>
<path d="m 46.906281,4.7125888 q -0.458886,0 -0.784448,-0.3255615 -0.483691,-0.4836914 -0.483691,-1.2619385 0,-0.7782471 0.483691,-1.2619385 0.325562,-0.3255615 0.784448,-0.3255615 0.437183,0 0.747242,0.3100586 0.04651,0.046509 0.04651,0.1116211 0,0.065112 -0.04651,0.1116211 -0.04651,0.046509 -0.111622,0.046509 -0.06511,0 -0.111621,-0.046509 -0.217041,-0.217041 -0.523999,-0.217041 -0.328662,0 -0.561206,0.2325439 -0.390674,0.3906738 -0.390674,1.0386963 0,0.6480224 0.390674,1.0386963 0.232544,0.2325439 0.561206,0.2325439 0.306958,0 0.523999,-0.217041 0.04651,-0.046509 0.111621,-0.046509 0.06511,0 0.111622,0.046509 0.04651,0.046509 0.04651,0.1116211 0,0.065112 -0.04651,0.1116211 -0.310059,0.3100586 -0.747242,0.3100586 z"/>
<path d="m 50.875033,4.7125888 q -0.5302,0 -0.905371,-0.3751709 -0.04651,-0.046509 -0.04651,-0.1116211 0,-0.065112 0.04651,-0.1116211 0.04651,-0.046509 0.111621,-0.046509 0.06511,0 0.111621,0.046509 0.282153,0.2821533 0.682129,0.2821533 0.26355,0 0.449585,-0.1860351 0.186035,-0.1860352 0.186035,-0.449585 0,-0.1395264 -0.07441,-0.254248 -0.07442,-0.1178223 -0.198442,-0.1767334 L 50.49056,2.9762607 q -0.189136,-0.089917 -0.300757,-0.2635498 -0.10852,-0.1736328 -0.10852,-0.3813721 0,-0.3286621 0.232544,-0.561206 0.232544,-0.232544 0.561206,-0.232544 0.437182,0 0.747241,0.3100586 0.04651,0.046509 0.04651,0.1116211 0,0.065112 -0.04651,0.1116211 -0.04651,0.046509 -0.111621,0.046509 -0.06511,0 -0.111621,-0.046509 -0.217041,-0.217041 -0.523999,-0.217041 -0.198438,0 -0.337964,0.1395263 -0.139526,0.1395264 -0.139526,0.3379639 0,0.1147217 0.06201,0.2139404 0.06201,0.096118 0.164331,0.1457276 l 0.747242,0.3534668 q 0.207739,0.099219 0.331762,0.2945556 0.124024,0.1922363 0.124024,0.4216797 0,0.3937744 -0.279053,0.6728271 -0.279053,0.2790528 -0.672826,0.2790528 z"/>
<path d="m 52.301299,1.5375888 q 0.04341,0 0.08062,0.021704 0.03721,0.021704 0.05891,0.058911 l 0.654223,1.1782227 0.654224,-1.1782227 q 0.0217,-0.037207 0.05891,-0.058911 0.03721,-0.021704 0.08061,-0.021704 0.06511,0 0.111621,0.046509 0.04651,0.046509 0.04651,0.1116211 0,0.040308 -0.0186,0.077515 L 53.25318,3.1684974 v 1.3859619 q 0,0.065112 -0.04651,0.1116211 -0.04651,0.046509 -0.111621,0.046509 -0.06511,0 -0.111621,-0.046509 -0.04651,-0.046509 -0.04651,-0.1116211 V 3.168497 L 52.161773,1.7732333 q -0.0186,-0.037207 -0.0186,-0.077515 0,-0.065112 0.04651,-0.1116211 0.04651,-0.046509 0.111621,-0.046509 z"/>
<path d="m 55.31507,4.7125888 q -0.530201,0 -0.905371,-0.3751709 -0.04651,-0.046509 -0.04651,-0.1116211 0,-0.065112 0.04651,-0.1116211 0.04651,-0.046509 0.111621,-0.046509 0.06511,0 0.111621,0.046509 0.282153,0.2821533 0.682129,0.2821533 0.263549,0 0.449585,-0.1860351 0.186035,-0.1860352 0.186035,-0.449585 0,-0.1395264 -0.07441,-0.254248 -0.07442,-0.1178223 -0.198442,-0.1767334 L 54.930597,2.9762607 Q 54.741461,2.8863437 54.62984,2.7127109 54.52132,2.5390781 54.52132,2.3313388 q 0,-0.3286621 0.232544,-0.561206 0.232544,-0.232544 0.561206,-0.232544 0.437182,0 0.747241,0.3100586 0.04651,0.046509 0.04651,0.1116211 0,0.065112 -0.04651,0.1116211 -0.04651,0.046509 -0.111621,0.046509 -0.06511,0 -0.111621,-0.046509 -0.217041,-0.217041 -0.523999,-0.217041 -0.198438,0 -0.337964,0.1395263 -0.139527,0.1395264 -0.139527,0.3379639 0,0.1147217 0.06201,0.2139404 0.06201,0.096118 0.164331,0.1457276 l 0.747241,0.3534668 q 0.20774,0.099219 0.331763,0.2945556 0.124023,0.1922363 0.124023,0.4216797 0,0.3937744 -0.279052,0.6728271 -0.279053,0.2790528 -0.672827,0.2790528 z"/>
<path d="M 57.37696,4.5544589 V 1.8538486 h -0.63562 q -0.06511,0 -0.111621,-0.046509 -0.04651,-0.046509 -0.04651,-0.1116211 0,-0.065112 0.04651,-0.1116211 0.04651,-0.046509 0.111621,-0.046509 h 1.5875 q 0.06511,0 0.111621,0.046509 0.04651,0.046509 0.04651,0.1116211 0,0.065112 -0.04651,0.1116211 -0.04651,0.046509 -0.111621,0.046509 h -0.63562 v 2.7006103 q 0,0.065112 -0.04651,0.1116211 -0.04651,0.046509 -0.111621,0.046509 -0.06511,0 -0.111621,-0.046509 -0.04651,-0.046509 -0.04651,-0.1116211 z"/>
<path d="M 58.96136,4.5544589 V 1.6957187 q 0,-0.065112 0.04651,-0.1116211 0.04651,-0.046509 0.111621,-0.046509 h 1.5875 q 0.06511,-0.0031 0.111621,0.046509 0.04651,0.046509 0.04651,0.1116211 0,0.065112 -0.04651,0.1116211 -0.04651,0.046509 -0.114722,0.046509 h -1.426269 v 0.9549804 h 1.11311 q 0.06511,0 0.111621,0.046509 0.04651,0.046509 0.04651,0.1116211 0,0.065112 -0.04651,0.1116211 -0.04651,0.046509 -0.111621,0.046509 h -1.11311 v 1.2712402 h 1.42937 q 0.06511,0 0.111621,0.046509 0.04651,0.046509 0.04651,0.1116211 0,0.065112 -0.04651,0.1116211 -0.04651,0.046509 -0.111621,0.046509 h -1.5875 q -0.06511,0 -0.111621,-0.046509 -0.04651,-0.046509 -0.04651,-0.1116219 z"/>
<path d="m 61.500739,4.7125888 q -0.06511,0 -0.108521,-0.046509 -0.04341,-0.046509 -0.04961,-0.1116211 v -2.85874 q 0,-0.065112 0.04651,-0.1116211 0.04651,-0.046509 0.111622,-0.046509 0.04961,0 0.08992,0.027905 0.04031,0.027905 0.05891,0.074414 l 0.964282,2.4804687 0.970483,-2.4804687 q 0.0186,-0.05271 0.05891,-0.077515 0.04031,-0.024805 0.08992,-0.024805 0.06511,0 0.108521,0.046509 0.04341,0.046509 0.04341,0.1116211 v 2.8587402 q 0,0.065112 -0.04651,0.1116211 -0.04651,0.046509 -0.111621,0.046509 -0.06511,0 -0.111621,-0.046509 -0.04651,-0.046509 -0.04651,-0.1116211 V 2.517374 l -0.806152,2.0928954 q -0.0186,0.046509 -0.05891,0.074414 -0.04031,0.027905 -0.08992,0.027905 -0.04961,0 -0.08992,-0.027905 -0.04031,-0.027905 -0.05891,-0.074414 L 61.658868,2.517374 v 2.0370849 q 0,0.065112 -0.04651,0.1116211 -0.04651,0.046509 -0.111621,0.046509 z"/>
<path d="m 25.874078,64.837496 q -0.458887,0 -0.784449,-0.325562 -0.483692,-0.483691 -0.483692,-1.261938 0,-0.778247 0.483692,-1.261938 0.325562,-0.325562 0.784449,-0.325562 0.437183,0 0.74724,0.310059 0.04651,0.04651 0.04651,0.111621 0,0.06511 -0.04651,0.111621 -0.04651,0.04651 -0.11162,0.04651 -0.06511,0 -0.111621,-0.04651 -0.217041,-0.217041 -0.523999,-0.217041 -0.328663,0 -0.561206,0.232544 -0.390674,0.390674 -0.390674,1.038696 0,0.648022 0.390674,1.038696 0.232544,0.232544 0.561206,0.232544 0.306958,0 0.523999,-0.217041 0.04651,-0.04651 0.111621,-0.04651 0.06511,0 0.11162,0.04651 0.04651,0.04651 0.04651,0.111621 0,0.06511 -0.04651,0.111621 -0.310058,0.310059 -0.74724,0.310059 z"/>
<path d="m 27.145317,64.679366 v -2.85874 q 0,-0.06511 0.04651,-0.111621 0.04651,-0.04651 0.111621,-0.04651 0.06511,0 0.111621,0.04651 0.04651,0.04651 0.04651,0.111621 v 2.70061 h 1.42937 q 0.06511,0 0.11162,0.04651 0.04651,0.04651 0.04651,0.111621 0,0.06511 -0.04651,0.111621 -0.04651,0.04651 -0.11162,0.04651 h -1.5875 q -0.06511,0 -0.111621,-0.04651 -0.04651,-0.04651 -0.04651,-0.111621 z"/>
<path d="m 29.371538,63.249996 q 0,-0.871265 0.440283,-1.308447 0.275952,-0.279053 0.669727,-0.279053 0.393775,0 0.672827,0.279053 0.437182,0.437182 0.437182,1.308447 0,0.871265 -0.437182,1.308447 -0.279053,0.279053 -0.672827,0.279053 -0.393775,0 -0.672828,-0.279053 -0.437182,-0.437182 -0.437182,-1.308447 z m 1.11001,-1.27124 q -0.26355,0 -0.449585,0.186035 -0.344166,0.344165 -0.344166,1.085205 0,0.74104 0.344166,1.085205 0.186035,0.186035 0.449585,0.186035 0.263549,0 0.449584,-0.186035 0.344165,-0.344165 0.344165,-1.085205 0,-0.74104 -0.344165,-1.085205 -0.186035,-0.186035 -0.449584,-0.186035 z"/>
<path d="m 33.179057,64.837496 q -0.458886,0 -0.784448,-0.325562 -0.483691,-0.483691 -0.483691,-1.261938 0,-0.778247 0.483691,-1.261938 0.325562,-0.325562 0.784448,-0.325562 0.437183,0 0.747242,0.310059 0.04651,0.04651 0.04651,0.111621 0,0.06511 -0.04651,0.111621 -0.04651,0.04651 -0.111621,0.04651 -0.06511,0 -0.111621,-0.04651 -0.217042,-0.217041 -0.524,-0.217041 -0.328662,0 -0.561206,0.232544 -0.390673,0.390674 -0.390673,1.038696 0,0.648022 0.390673,1.038696 0.232545,0.232544 0.561206,0.232544 0.306958,0 0.524,-0.217041 0.04651,-0.04651 0.111621,-0.04651 0.06511,0 0.111621,0.04651 0.04651,0.04651 0.04651,0.111621 0,0.06511 -0.04651,0.111621 -0.310059,0.310059 -0.747242,0.310059 z"/>
<path d="m 34.450297,64.679366 v -2.85874 q 0,-0.06511 0.04651,-0.111621 0.04651,-0.04651 0.111621,-0.04651 0.06511,0 0.111621,0.04651 0.04651,0.04651 0.04651,0.111621 v 1.206128 l 1.317749,-1.317749 q 0.04651,-0.04651 0.111621,-0.04651 0.06511,0 0.111621,0.04651 0.04651,0.04651 0.04651,0.111621 0,0.06511 -0.04651,0.111621 l -1.054199,1.054199 1.072802,1.606104 q 0.02791,0.04031 0.02791,0.08682 0,0.06511 -0.04651,0.111621 -0.04651,0.04651 -0.111621,0.04651 -0.08372,0 -0.130225,-0.07131 l -1.038696,-1.553394 -0.260449,0.260449 v 1.206128 q 0,0.06511 -0.04651,0.111621 -0.04651,0.04651 -0.111621,0.04651 -0.06511,0 -0.111621,-0.04651 -0.04651,-0.04651 -0.04651,-0.111621 z"/>
<path d="m 47.152161,64.8375 h -0.47749 q -0.06511,0 -0.111621,-0.04651 -0.04651,-0.04651 -0.04651,-0.111621 v -2.85874 q 0,-0.06511 0.04651,-0.111621 0.04651,-0.04651 0.111621,-0.04651 h 0.47749 q 0.458887,0 0.784448,0.325562 0.483691,0.483691 0.483691,1.261938 0,0.778247 -0.483691,1.261938 -0.325561,0.325562 -0.784448,0.325562 z m -0.31936,-0.31626 h 0.31936 q 0.328662,0 0.561206,-0.232544 0.390674,-0.390674 0.390674,-1.038696 0,-0.648022 -0.390674,-1.038696 -0.232544,-0.232544 -0.561206,-0.232544 h -0.31936 z"/>
<path d="m 48.897791,64.8375 q -0.06511,0 -0.111621,-0.04651 -0.04651,-0.04651 -0.04651,-0.111621 0,-0.0186 0.0062,-0.04651 l 0.79375,-2.855639 q 0.0124,-0.04961 0.05581,-0.08062 0.04341,-0.03411 0.09612,-0.03411 0.05271,0 0.09612,0.03411 0.04341,0.03101 0.05581,0.08062 l 0.79375,2.85874 q 0.0062,0.02481 0.0062,0.04341 0,0.06511 -0.04651,0.111621 -0.04651,0.04651 -0.111621,0.04651 -0.04651,0 -0.09302,-0.03101 -0.04651,-0.03411 -0.05891,-0.08062 L 50.187634,64.20188 h -0.992187 l -0.145728,0.523999 q -0.0124,0.04651 -0.06201,0.08062 -0.04651,0.03101 -0.08992,0.03101 z m 0.384472,-0.95188 h 0.818555 l -0.409277,-1.469678 z"/>
<path d="M 51.753431,64.67937 V 61.97876 H 51.11781 q -0.06511,0 -0.111621,-0.04651 -0.04651,-0.04651 -0.04651,-0.111621 0,-0.06511 0.04651,-0.111621 0.04651,-0.04651 0.111621,-0.04651 h 1.5875 q 0.06511,0 0.111622,0.04651 0.04651,0.04651 0.04651,0.111621 0,0.06511 -0.04651,0.111621 -0.04651,0.04651 -0.111622,0.04651 h -0.63562 v 2.70061 q 0,0.06511 -0.04651,0.111621 -0.04651,0.04651 -0.111622,0.04651 -0.06511,0 -0.111621,-0.04651 -0.04651,-0.04651 -0.04651,-0.111621 z"/>
<path d="m 53.33783,64.8375 q -0.06511,0 -0.111621,-0.04651 -0.04651,-0.04651 -0.04651,-0.111621 0,-0.0186 0.0062,-0.04651 l 0.79375,-2.855639 q 0.0124,-0.04961 0.05581,-0.08062 0.04341,-0.03411 0.09612,-0.03411 0.05271,0 0.09612,0.03411 0.04341,0.03101 0.05581,0.08062 l 0.79375,2.85874 q 0.0062,0.02481 0.0062,0.04341 0,0.06511 -0.04651,0.111621 -0.04651,0.04651 -0.111621,0.04651 -0.04651,0 -0.09302,-0.03101 -0.04651,-0.03411 -0.05891,-0.08062 L 54.627674,64.20188 h -0.992188 l -0.145727,0.523999 q -0.0124,0.04651 -0.06201,0.08062 -0.04651,0.03101 -0.08992,0.03101 z m 0.384472,-0.95188 h 0.818555 L 54.13158,62.415942 Z"/>
<path d="m 3.6534192,64.679456 v -2.85874 q 0,-0.06511 0.046509,-0.111621 0.046509,-0.04651 0.1116211,-0.04651 h 1.5875 q 0.065112,-0.0031 0.1116211,0.04651 0.046509,0.04651 0.046509,0.111621 0,0.06511 -0.046509,0.111621 -0.046509,0.04651 -0.1147217,0.04651 H 3.969679 v 0.95498 h 1.1131103 q 0.065112,0 0.1116211,0.04651 0.046509,0.04651 0.046509,0.111621 0,0.06511 -0.046509,0.111621 -0.046509,0.04651 -0.1116211,0.04651 H 3.969679 v 1.27124 h 1.4293701 q 0.065112,0 0.1116211,0.04651 0.046509,0.04651 0.046509,0.111621 0,0.06511 -0.046509,0.111621 -0.046509,0.04651 -0.1116211,0.04651 h -1.5875 q -0.065112,0 -0.1116211,-0.04651 -0.046509,-0.04651 -0.046509,-0.111621 z"/>
<path d="m 6.0346691,64.837586 q -0.065112,0 -0.1116211,-0.04651 -0.046509,-0.04651 -0.046509,-0.111621 0,-0.04031 0.018603,-0.07751 L 6.6454846,63.250086 5.8951428,61.898231 q -0.018603,-0.03721 -0.018603,-0.07751 0,-0.06511 0.046509,-0.111621 0.046509,-0.04651 0.1116211,-0.04651 0.043408,0 0.080615,0.0217 0.037207,0.0217 0.058911,0.05891 L 6.8284195,62.921423 7.4826432,61.7432 q 0.021704,-0.03721 0.058911,-0.05891 0.037207,-0.0217 0.080615,-0.0217 0.065112,0 0.1116211,0.04651 0.046509,0.04651 0.046509,0.111621 0,0.04031 -0.018603,0.07751 l -0.7503418,1.351855 0.7503418,1.351855 q 0.018603,0.03721 0.018603,0.07751 0,0.06511 -0.046509,0.111621 -0.046509,0.04651 -0.1116211,0.04651 -0.043408,0 -0.080615,-0.0217 -0.037207,-0.0217 -0.058911,-0.05891 L 6.8284191,63.578748 6.1741955,64.756971 q -0.021704,0.03721 -0.058911,0.05891 -0.037207,0.0217 -0.080615,0.0217 z"/>
<path d="m 8.254689,64.679456 v -2.85874 q 0,-0.06511 0.046509,-0.111621 0.046509,-0.04651 0.1116211,-0.04651 H 9.364699 q 0.3286621,0 0.5612061,0.232544 0.2325439,0.232544 0.2325439,0.561206 0,0.328662 -0.2325439,0.561206 -0.232544,0.232544 -0.5612061,0.232544 h -0.79375 v 1.42937 q 0,0.06511 -0.046509,0.111621 -0.046509,0.04651 -0.1116211,0.04651 -0.065112,0 -0.1116211,-0.04651 -0.046509,-0.04651 -0.046509,-0.111621 z m 1.5874999,-2.22312 q 0,-0.198437 -0.1395263,-0.337964 -0.1395264,-0.139526 -0.3379639,-0.139526 h -0.79375 v 0.95498 h 0.79375 q 0.1984375,0 0.3379639,-0.139526 0.1395263,-0.139526 0.1395263,-0.337964 z"/>
<path d="m 13.649708,64.837586 q -0.458887,0 -0.784449,-0.325562 -0.483691,-0.483691 -0.483691,-1.261938 0,-0.778247 0.483691,-1.261938 0.325562,-0.325562 0.784449,-0.325562 0.437182,0 0.747241,0.310059 0.04651,0.04651 0.04651,0.111621 0,0.06511 -0.04651,0.111621 -0.04651,0.04651 -0.111621,0.04651 -0.06511,0 -0.111621,-0.04651 -0.217041,-0.217041 -0.523999,-0.217041 -0.328662,0 -0.561206,0.232544 -0.390674,0.390674 -0.390674,1.038696 0,0.648022 0.390674,1.038696 0.232544,0.232544 0.561206,0.232544 0.306958,0 0.523999,-0.217041 0.04651,-0.04651 0.111621,-0.04651 0.06511,0 0.111621,0.04651 0.04651,0.04651 0.04651,0.111621 0,0.06511 -0.04651,0.111621 -0.310059,0.310059 -0.747241,0.310059 z"/>
<path d="m 14.920947,61.662586 q 0.04341,0 0.08992,0.03411 0.04961,0.03101 0.06201,0.07752 l 0.641821,2.309937 0.641822,-2.309937 q 0.0124,-0.04651 0.05891,-0.07752 0.04651,-0.03411 0.09302,-0.03411 0.06511,0 0.111621,0.04651 0.04651,0.04651 0.04651,0.111621 0,0.0186 -0.0062,0.04341 l -0.79375,2.85874 q -0.0124,0.04961 -0.05581,0.08372 -0.04341,0.03101 -0.09612,0.03101 -0.05271,0 -0.09612,-0.03101 -0.04341,-0.03411 -0.05581,-0.08372 l -0.79375,-2.855639 q -0.0062,-0.02791 -0.0062,-0.04651 0,-0.06511 0.04651,-0.111621 0.04651,-0.04651 0.111621,-0.04651 z"/>
<path d="m 64.613419,64.679456 v -2.85874 q 0,-0.06511 0.04651,-0.111621 0.04651,-0.04651 0.111621,-0.04651 h 1.5875 q 0.06511,-0.0031 0.111621,0.04651 0.04651,0.04651 0.04651,0.111621 0,0.06511 -0.04651,0.111621 -0.04651,0.04651 -0.114722,0.04651 H 64.92968 v 0.95498 h 1.11311 q 0.06511,0 0.111621,0.04651 0.04651,0.04651 0.04651,0.111621 0,0.06511 -0.04651,0.111621 -0.04651,0.04651 -0.111621,0.04651 h -1.11311 v 1.27124 h 1.42937 q 0.06511,0 0.111621,0.04651 0.04651,0.04651 0.04651,0.111621 0,0.06511 -0.04651,0.111621 -0.04651,0.04651 -0.111621,0.04651 h -1.5875 q -0.06511,0 -0.111621,-0.04651 -0.04651,-0.04651 -0.04651,-0.111621 z"/>
<path d="m 66.994669,64.837586 q -0.06511,0 -0.111621,-0.04651 -0.04651,-0.04651 -0.04651,-0.111621 0,-0.04031 0.0186,-0.07751 l 0.750341,-1.351855 -0.750341,-1.351855 q -0.0186,-0.03721 -0.0186,-0.07751 0,-0.06511 0.04651,-0.111621 0.04651,-0.04651 0.111621,-0.04651 0.04341,0 0.08062,0.0217 0.03721,0.0217 0.05891,0.05891 l 0.654224,1.178223 0.654224,-1.178223 q 0.0217,-0.03721 0.05891,-0.05891 0.03721,-0.0217 0.08061,-0.0217 0.06511,0 0.111621,0.04651 0.04651,0.04651 0.04651,0.111621 0,0.04031 -0.0186,0.07751 l -0.750341,1.351855 0.750341,1.351855 q 0.0186,0.03721 0.0186,0.07751 0,0.06511 -0.04651,0.111621 -0.04651,0.04651 -0.111621,0.04651 -0.04341,0 -0.08061,-0.0217 -0.03721,-0.0217 -0.05891,-0.05891 l -0.654224,-1.178223 -0.654224,1.178223 q -0.0217,0.03721 -0.05891,0.05891 -0.03721,0.0217 -0.08062,0.0217 z"/>
<path d="m 69.214689,64.679456 v -2.85874 q 0,-0.06511 0.04651,-0.111621 0.04651,-0.04651 0.111621,-0.04651 h 0.95188 q 0.328662,0 0.561206,0.232544 0.232544,0.232544 0.232544,0.561206 0,0.328662 -0.232544,0.561206 -0.232544,0.232544 -0.561206,0.232544 h -0.79375 v 1.42937 q 0,0.06511 -0.04651,0.111621 -0.04651,0.04651 -0.111621,0.04651 -0.06511,0 -0.111621,-0.04651 -0.04651,-0.04651 -0.04651,-0.111621 z m 1.5875,-2.22312 q 0,-0.198437 -0.139526,-0.337964 -0.139527,-0.139526 -0.337964,-0.139526 h -0.79375 v 0.95498 h 0.79375 q 0.198437,0 0.337964,-0.139526 0.139526,-0.139526 0.139526,-0.337964 z"/>
<path d="m 74.609708,64.837586 q -0.458887,0 -0.784448,-0.325562 -0.483692,-0.483691 -0.483692,-1.261938 0,-0.778247 0.483692,-1.261938 0.325561,-0.325562 0.784448,-0.325562 0.437183,0 0.747241,0.310059 0.04651,0.04651 0.04651,0.111621 0,0.06511 -0.04651,0.111621 -0.04651,0.04651 -0.111621,0.04651 -0.06511,0 -0.111621,-0.04651 -0.217041,-0.217041 -0.523999,-0.217041 -0.328662,0 -0.561206,0.232544 -0.390674,0.390674 -0.390674,1.038696 0,0.648022 0.390674,1.038696 0.232544,0.232544 0.561206,0.232544 0.306958,0 0.523999,-0.217041 0.04651,-0.04651 0.111621,-0.04651 0.06511,0 0.111621,0.04651 0.04651,0.04651 0.04651,0.111621 0,0.06511 -0.04651,0.111621 -0.310058,0.310059 -0.747241,0.310059 z"/>
<path d="m 75.880948,61.662586 q 0.04341,0 0.08992,0.03411 0.04961,0.03101 0.06201,0.07752 l 0.641822,2.309937 0.641821,-2.309937 q 0.0124,-0.04651 0.05891,-0.07752 0.04651,-0.03411 0.09302,-0.03411 0.06511,0 0.111621,0.04651 0.04651,0.04651 0.04651,0.111621 0,0.0186 -0.0062,0.04341 l -0.79375,2.85874 q -0.0124,0.04961 -0.05581,0.08372 -0.04341,0.03101 -0.09612,0.03101 -0.05271,0 -0.09612,-0.03101 -0.04341,-0.03411 -0.05581,-0.08372 l -0.79375,-2.855639 q -0.0062,-0.02791 -0.0062,-0.04651 0,-0.06511 0.04651,-0.111621 0.04651,-0.04651 0.111621,-0.04651 z"/>
<path d="m 35.690222,102.25471 v 0.86351 h 0.863513 v 0.26356 h -0.863513 v 0.86351 h -0.260449 v -0.86351 H 34.56626 v -0.26356 h 0.863513 v -0.86351 z"/>
<path d="m 56.010222,102.25471 v 0.86351 h 0.863513 v 0.26356 h -0.863513 v 0.86351 h -0.260449 v -0.86351 H 54.88626 v -0.26356 h 0.863513 v -0.86351 z"/>
<path d="m 26.408036,103.11452 v 0.27096 h -2.016073 v -0.27096 z"/>
<path d="m 46.728033,103.11452 v 0.27096 h -2.016072 v -0.27096 z"/>
<path d="m 14.690538,125.19028 q -0.560862,0 -0.958771,-0.39791 -0.591179,-0.59118 -0.591179,-1.54237 0,-0.95119 0.591179,-1.54237 0.397909,-0.39791 0.958771,-0.39791 0.534335,0 0.913296,0.37896 0.05684,0.0568 0.05684,0.13643 0,0.0796 -0.05684,0.13642 -0.05684,0.0569 -0.136426,0.0569 -0.07958,0 -0.136426,-0.0569 -0.265273,-0.26527 -0.640444,-0.26527 -0.401699,0 -0.685919,0.28422 -0.477491,0.47749 -0.477491,1.26952 0,0.79203 0.477491,1.26952 0.28422,0.28422 0.685919,0.28422 0.375171,0 0.640444,-0.26527 0.05684,-0.0568 0.136426,-0.0568 0.07958,0 0.136426,0.0568 0.05684,0.0568 0.05684,0.13642 0,0.0796 -0.05684,0.13643 -0.378961,0.37896 -0.913296,0.37896 z"/>
<path d="m 16.244278,124.99701 v -3.49402 q 0,-0.0796 0.05684,-0.13643 0.05684,-0.0568 0.136426,-0.0568 0.07958,0 0.136426,0.0568 0.05684,0.0568 0.05684,0.13643 v 3.30075 h 1.74701 q 0.07958,0 0.136426,0.0568 0.05684,0.0568 0.05684,0.13643 0,0.0796 -0.05684,0.13643 -0.05684,0.0568 -0.136426,0.0568 h -1.94028 q -0.07958,0 -0.136426,-0.0568 -0.05684,-0.0569 -0.05684,-0.13643 z"/>
<path d="m 18.965217,123.25 q 0,-1.06488 0.538125,-1.59922 0.337275,-0.34106 0.818555,-0.34106 0.481281,0 0.822346,0.34106 0.534335,0.53434 0.534335,1.59922 0,1.06488 -0.534335,1.59922 -0.341065,0.34106 -0.822346,0.34106 -0.48128,0 -0.822345,-0.34106 -0.534335,-0.53434 -0.534335,-1.59922 z m 1.35668,-1.55374 q -0.322116,0 -0.549493,0.22738 -0.420647,0.42064 -0.420647,1.32636 0,0.90572 0.420647,1.32636 0.227377,0.22738 0.549493,0.22738 0.322117,0 0.549494,-0.22738 0.420646,-0.42064 0.420646,-1.32636 0,-0.90572 -0.420646,-1.32636 -0.227377,-0.22738 -0.549494,-0.22738 z"/>
<path d="m 23.618858,125.19028 q -0.560862,0 -0.958771,-0.39791 -0.591179,-0.59118 -0.591179,-1.54237 0,-0.95119 0.591179,-1.54237 0.397909,-0.39791 0.958771,-0.39791 0.534335,0 0.913296,0.37896 0.05684,0.0568 0.05684,0.13643 0,0.0796 -0.05684,0.13642 -0.05684,0.0569 -0.136426,0.0569 -0.07958,0 -0.136426,-0.0569 -0.265273,-0.26527 -0.640444,-0.26527 -0.401699,0 -0.685919,0.28422 -0.477491,0.47749 -0.477491,1.26952 0,0.79203 0.477491,1.26952 0.28422,0.28422 0.685919,0.28422 0.375171,0 0.640444,-0.26527 0.05684,-0.0568 0.136426,-0.0568 0.07958,0 0.136426,0.0568 0.05684,0.0568 0.05684,0.13642 0,0.0796 -0.05684,0.13643 -0.378961,0.37896 -0.913296,0.37896 z"/>
<path d="m 25.172597,124.99701 v -3.49402 q 0,-0.0796 0.05684,-0.13643 0.05684,-0.0568 0.136426,-0.0568 0.07958,0 0.136426,0.0568 0.05684,0.0568 0.05684,0.13643 v 1.47416 l 1.610584,-1.61059 q 0.05684,-0.0568 0.136426,-0.0568 0.07958,0 0.136426,0.0568 0.05684,0.0568 0.05684,0.13643 0,0.0796 -0.05684,0.13643 l -1.288467,1.28846 1.311205,1.96302 q 0.03411,0.0493 0.03411,0.10611 0,0.0796 -0.05684,0.13643 -0.05684,0.0568 -0.136426,0.0568 -0.102319,0 -0.159163,-0.0872 l -1.269519,-1.8986 -0.318328,0.31833 v 1.47416 q 0,0.0796 -0.05684,0.13643 -0.05684,0.0568 -0.136426,0.0568 -0.07958,0 -0.136426,-0.0568 -0.05684,-0.0569 -0.05684,-0.13643 z"/>
<path d="m 56.501507,125.19024 h -0.583599 q -0.07958,0 -0.136426,-0.0568 -0.05685,-0.0569 -0.05685,-0.13643 v -3.49402 q 0,-0.0796 0.05685,-0.13643 0.05684,-0.0568 0.136426,-0.0568 h 0.583599 q 0.560863,0 0.958772,0.39791 0.591179,0.59118 0.591179,1.54237 0,0.95119 -0.591179,1.54237 -0.397909,0.39783 -0.958772,0.39783 z m -0.390329,-0.38654 h 0.390329 q 0.401699,0 0.68592,-0.28422 0.47749,-0.47749 0.47749,-1.26952 0,-0.79203 -0.47749,-1.26952 -0.284221,-0.28422 -0.68592,-0.28422 h -0.390329 z"/>
<path d="m 58.635057,125.19024 q -0.07958,0 -0.136426,-0.0568 -0.05684,-0.0569 -0.05684,-0.13643 0,-0.0227 0.0076,-0.0568 l 0.97014,-3.49023 q 0.01516,-0.0606 0.06821,-0.0985 0.05305,-0.0417 0.117477,-0.0417 0.06442,0 0.117478,0.0417 0.05306,0.0379 0.06821,0.0985 l 0.97014,3.49402 q 0.0076,0.0303 0.0076,0.053 0,0.0796 -0.05684,0.13643 -0.05684,0.0568 -0.136426,0.0568 -0.05684,0 -0.113688,-0.0379 -0.05684,-0.0417 -0.072,-0.0985 l -0.178112,-0.64044 h -1.212675 l -0.178112,0.64044 q -0.01516,0.0568 -0.07579,0.0985 -0.05684,0.0379 -0.109899,0.0379 z m 0.469912,-1.16341 h 1.000457 l -0.500229,-1.79627 z"/>
<path d="m 62.125288,124.99697 v -3.30075 h -0.77687 q -0.07958,0 -0.136426,-0.0568 -0.05684,-0.0568 -0.05684,-0.13643 0,-0.0796 0.05684,-0.13643 0.05684,-0.0568 0.136426,-0.0568 h 1.94028 q 0.07958,0 0.136426,0.0568 0.05684,0.0568 0.05684,0.13643 0,0.0796 -0.05684,0.13643 -0.05685,0.0568 -0.136426,0.0568 h -0.77687 v 3.30075 q 0,0.0796 -0.05684,0.13643 -0.05685,0.0568 -0.136426,0.0568 -0.07958,0 -0.136426,-0.0568 -0.05684,-0.0569 -0.05684,-0.13643 z"/>
<path d="m 64.061779,125.19024 q -0.07958,0 -0.136426,-0.0568 -0.05684,-0.0569 -0.05684,-0.13643 0,-0.0227 0.0076,-0.0568 l 0.97014,-3.49023 q 0.01516,-0.0606 0.06821,-0.0985 0.05305,-0.0417 0.117477,-0.0417 0.06442,0 0.117478,0.0417 0.05306,0.0379 0.06821,0.0985 l 0.97014,3.49402 q 0.0076,0.0303 0.0076,0.053 0,0.0796 -0.05684,0.13643 -0.05684,0.0568 -0.136426,0.0568 -0.05684,0 -0.113688,-0.0379 -0.05684,-0.0417 -0.072,-0.0985 l -0.178112,-0.64044 h -1.212675 l -0.178112,0.64044 q -0.01516,0.0568 -0.07579,0.0985 -0.05684,0.0379 -0.109898,0.0379 z m 0.469911,-1.16341 h 1.000457 l -0.500229,-1.79627 z"/>
<path d="m 37.248298,113.27995 q 0,-0.24253 -0.170532,-0.41307 -0.170533,-0.17053 -0.413068,-0.17053 h -0.97014 v 1.1672 h 0.97014 q 0.242535,0 0.413068,-0.17053 0.170532,-0.17053 0.170532,-0.41307 z m 0.19327,2.91042 q -0.05684,0 -0.106109,-0.0303 -0.04548,-0.0303 -0.072,-0.0834 l -0.814766,-1.82659 H 35.69456 v 1.74701 q 0,0.0796 -0.05684,0.13643 -0.05684,0.0568 -0.136426,0.0568 -0.07958,0 -0.136426,-0.0568 -0.05684,-0.0568 -0.05684,-0.13643 v -3.49402 q 0,-0.0796 0.05684,-0.13642 0.05684,-0.0568 0.136426,-0.0568 h 1.16341 q 0.401699,0 0.68592,0.28422 0.28422,0.28422 0.28422,0.68213 0.0038,0.40549 -0.280431,0.68971 -0.204639,0.20085 -0.48507,0.26148 l 0.750343,1.69017 q 0.01516,0.0379 0.01516,0.0796 0,0.0796 -0.05684,0.13643 -0.05684,0.0568 -0.136426,0.0568 z"/>
<path d="m 38.218438,116.19037 q -0.07958,0 -0.136426,-0.0568 -0.05684,-0.0568 -0.05684,-0.13643 0,-0.0227 0.0076,-0.0568 l 0.97014,-3.49023 q 0.01516,-0.0606 0.06821,-0.0985 0.05306,-0.0417 0.117478,-0.0417 0.06442,0 0.117478,0.0417 0.05306,0.0379 0.06821,0.0985 l 0.97014,3.49402 q 0.0076,0.0303 0.0076,0.053 0,0.0796 -0.05684,0.13643 -0.05684,0.0568 -0.136426,0.0568 -0.05684,0 -0.113688,-0.0379 -0.05684,-0.0417 -0.072,-0.0985 l -0.178111,-0.64045 h -1.212675 l -0.178112,0.64045 q -0.01516,0.0568 -0.07579,0.0985 -0.05684,0.0379 -0.109899,0.0379 z m 0.469912,-1.16341 h 1.000457 l -0.500229,-1.79627 z"/>
<path d="m 41.708668,115.9971 v -3.30075 h -0.776869 q -0.07958,0 -0.136426,-0.0568 -0.05684,-0.0568 -0.05684,-0.13643 0,-0.0796 0.05684,-0.13642 0.05684,-0.0568 0.136426,-0.0568 h 1.94028 q 0.07958,0 0.136425,0.0568 0.05684,0.0568 0.05684,0.13642 0,0.0796 -0.05684,0.13643 -0.05684,0.0568 -0.136425,0.0568 h -0.77687 v 3.30075 q 0,0.0796 -0.05684,0.13643 -0.05684,0.0568 -0.136425,0.0568 -0.07958,0 -0.136426,-0.0568 -0.05684,-0.0568 -0.05684,-0.13643 z"/>
<path d="m 43.645159,115.9971 v -3.49402 q 0,-0.0796 0.05684,-0.13642 0.05685,-0.0568 0.136426,-0.0568 h 1.94028 q 0.07958,-0.004 0.136426,0.0568 0.05684,0.0568 0.05684,0.13642 0,0.0796 -0.05684,0.13643 -0.05684,0.0568 -0.140215,0.0568 h -1.74322 v 1.1672 h 1.360469 q 0.07958,0 0.136426,0.0568 0.05684,0.0568 0.05684,0.13642 0,0.0796 -0.05684,0.13643 -0.05684,0.0568 -0.136426,0.0568 h -1.360469 v 1.55374 h 1.747009 q 0.07958,0 0.136426,0.0568 0.05684,0.0568 0.05684,0.13642 0,0.0796 -0.05684,0.13643 -0.05684,0.0568 -0.136426,0.0568 h -1.94028 q -0.07958,0 -0.136426,-0.0568 -0.05684,-0.0568 -0.05684,-0.13643 z"/>
</g><g style="fill:#cccccc">
<path d="m 33.734995,44.679459 v -2.85874 q 0,-0.06511 0.04651,-0.111621 0.04651,-0.04651 0.111621,-0.04651 h 0.95188 q 0.328662,0 0.561206,0.232544 0.232544,0.232544 0.232544,0.561206 0,0.328662 -0.232544,0.561206 -0.232544,0.232544 -0.561206,0.232544 h -0.79375 v 1.42937 q 0,0.06511 -0.04651,0.111621 -0.04651,0.04651 -0.111621,0.04651 -0.06511,0 -0.111621,-0.04651 -0.04651,-0.04651 -0.04651,-0.111621 z m 1.5875,-2.22312 q 0,-0.198437 -0.139526,-0.337964 -0.139526,-0.139526 -0.337964,-0.139526 h -0.79375 v 0.95498 h 0.79375 q 0.198438,0 0.337964,-0.139526 0.139526,-0.139526 0.139526,-0.337964 z"/>
<path d="m 36.119346,43.885709 v -2.06499 q 0,-0.06511 0.04651,-0.111621 0.04651,-0.04651 0.111621,-0.04651 0.06511,0 0.111621,0.04651 0.04651,0.04651 0.04651,0.111621 v 2.06499 q 0,0.26355 0.186035,0.449585 0.186035,0.186035 0.449585,0.186035 0.263549,0 0.449585,-0.186035 0.186035,-0.186035 0.186035,-0.449585 v -2.06499 q 0,-0.06511 0.04651,-0.111621 0.04651,-0.04651 0.111621,-0.04651 0.06511,0 0.111621,0.04651 0.04651,0.04651 0.04651,0.111621 v 2.06499 q 0,0.393775 -0.279052,0.672827 -0.279053,0.279053 -0.672827,0.279053 -0.393775,0 -0.672828,-0.279053 -0.279052,-0.279052 -0.279052,-0.672827 z"/>
<path d="m 38.658726,44.679459 v -2.85874 q 0,-0.06511 0.04651,-0.111621 0.04651,-0.04651 0.111622,-0.04651 0.06511,0 0.111621,0.04651 0.04651,0.04651 0.04651,0.111621 v 2.70061 h 1.42937 q 0.06511,0 0.111622,0.04651 0.04651,0.04651 0.04651,0.111621 0,0.06511 -0.04651,0.111621 -0.04651,0.04651 -0.111622,0.04651 H 38.81686 q -0.06511,0 -0.111622,-0.04651 -0.04651,-0.04651 -0.04651,-0.111621 z"/>
<path d="m 41.833726,44.837589 q -0.530201,0 -0.905372,-0.375171 -0.04651,-0.04651 -0.04651,-0.111621 0,-0.06511 0.04651,-0.111621 0.04651,-0.04651 0.111622,-0.04651 0.06511,0 0.111621,0.04651 0.282153,0.282153 0.682129,0.282153 0.263549,0 0.449584,-0.186035 0.186036,-0.186035 0.186036,-0.449585 0,-0.139526 -0.07441,-0.254248 -0.07441,-0.117822 -0.198438,-0.176733 l -0.747241,-0.353467 q -0.189136,-0.08992 -0.300757,-0.26355 -0.10852,-0.173633 -0.10852,-0.381372 0,-0.328662 0.232543,-0.561206 0.232544,-0.232544 0.561207,-0.232544 0.437182,0 0.747241,0.310059 0.04651,0.04651 0.04651,0.111621 0,0.06511 -0.04651,0.111621 -0.04651,0.04651 -0.111621,0.04651 -0.06511,0 -0.111621,-0.04651 -0.217041,-0.217041 -0.523999,-0.217041 -0.198438,0 -0.337964,0.139526 -0.139527,0.139527 -0.139527,0.337964 0,0.114722 0.06201,0.21394 0.06201,0.09612 0.164331,0.145728 l 0.747241,0.353467 q 0.20774,0.09922 0.331763,0.294556 0.124023,0.192236 0.124023,0.421679 0,0.393775 -0.279052,0.672827 -0.279053,0.279053 -0.672827,0.279053 z"/>
<path d="m 43.259995,44.679459 v -2.85874 q 0,-0.06511 0.04651,-0.111621 0.04651,-0.04651 0.111621,-0.04651 h 1.5875 q 0.06511,-0.0031 0.111621,0.04651 0.04651,0.04651 0.04651,0.111621 0,0.06511 -0.04651,0.111621 -0.04651,0.04651 -0.114722,0.04651 h -1.42627 v 0.95498 h 1.11311 q 0.06511,0 0.111621,0.04651 0.04651,0.04651 0.04651,0.111621 0,0.06511 -0.04651,0.111621 -0.04651,0.04651 -0.111621,0.04651 h -1.11311 v 1.27124 h 1.42937 q 0.06511,0 0.111621,0.04651 0.04651,0.04651 0.04651,0.111621 0,0.06511 -0.04651,0.111621 -0.04651,0.04651 -0.111621,0.04651 h -1.5875 q -0.06511,0 -0.111621,-0.04651 -0.04651,-0.04651 -0.04651,-0.111621 z"/>
<path d="m 46.276865,44.837589 h -0.47749 q -0.06511,0 -0.111621,-0.04651 -0.04651,-0.04651 -0.04651,-0.111621 v -2.858739 q 0,-0.06511 0.04651,-0.111621 0.04651,-0.04651 0.111621,-0.04651 h 0.47749 q 0.458887,0 0.784449,0.325561 0.483691,0.483692 0.483691,1.261939 0,0.778247 -0.483691,1.261939 -0.325562,0.325561 -0.784449,0.325561 z m -0.31936,-0.31626 h 0.31936 q 0.328662,0 0.561206,-0.232544 0.390674,-0.390673 0.390674,-1.038696 0,-0.648022 -0.390674,-1.038696 -0.232544,-0.232544 -0.561206,-0.232544 h -0.31936 z"/>
<path d="m 23.418417,24.837586 q -0.5302,0 -0.905371,-0.375171 -0.04651,-0.04651 -0.04651,-0.111621 0,-0.06511 0.04651,-0.111621 0.04651,-0.04651 0.111621,-0.04651 0.06511,0 0.111621,0.04651 0.282153,0.282153 0.682129,0.282153 0.26355,0 0.449585,-0.186035 0.186035,-0.186036 0.186035,-0.449585 0,-0.139527 -0.07441,-0.254248 -0.07441,-0.117823 -0.198438,-0.176734 l -0.747241,-0.353466 q -0.189135,-0.08992 -0.300757,-0.26355 -0.10852,-0.173632 -0.10852,-0.381372 0,-0.328663 0.232544,-0.561206 0.232544,-0.232545 0.561206,-0.232545 0.437183,0 0.747241,0.310059 0.04651,0.04651 0.04651,0.111621 0,0.06511 -0.04651,0.111621 -0.04651,0.04651 -0.111621,0.04651 -0.06511,0 -0.111621,-0.04651 -0.217041,-0.217041 -0.523999,-0.217041 -0.198438,0 -0.337964,0.139527 -0.139526,0.139527 -0.139526,0.337964 0,0.114722 0.06201,0.21394 0.06201,0.09612 0.164331,0.145727 l 0.747242,0.353467 q 0.207739,0.09922 0.331762,0.294556 0.124024,0.192236 0.124024,0.42168 0,0.393774 -0.279053,0.672827 -0.279053,0.279052 -0.672827,0.279052 z"/>
<path d="m 25.480307,24.679456 v -2.700611 h -0.635621 q -0.06511,0 -0.111621,-0.04651 -0.04651,-0.04651 -0.04651,-0.111621 0,-0.06511 0.04651,-0.11162 0.04651,-0.04651 0.111621,-0.04651 h 1.5875 q 0.06511,0 0.111622,0.04651 0.04651,0.04651 0.04651,0.11162 0,0.06511 -0.04651,0.111621 -0.04651,0.04651 -0.111622,0.04651 h -0.63562 v 2.700611 q 0,0.06511 -0.04651,0.111621 -0.04651,0.04651 -0.111622,0.04651 -0.06511,0 -0.111621,-0.04651 -0.04651,-0.04651 -0.04651,-0.111621 z"/>
<path d="m 27.064706,24.679456 v -2.858741 q 0,-0.06511 0.04651,-0.111621 0.04651,-0.04651 0.111621,-0.04651 h 1.5875 q 0.06511,-0.0031 0.111621,0.04651 0.04651,0.04651 0.04651,0.111621 0,0.06511 -0.04651,0.111621 -0.04651,0.04651 -0.114722,0.04651 h -1.426269 v 0.95498 h 1.11311 q 0.06511,0 0.111621,0.04651 0.04651,0.04651 0.04651,0.111622 0,0.06511 -0.04651,0.11162 -0.04651,0.04651 -0.111621,0.04651 h -1.11311 v 1.271241 h 1.42937 q 0.06511,0 0.111621,0.04651 0.04651,0.04651 0.04651,0.111622 0,0.06511 -0.04651,0.111621 -0.04651,0.04651 -0.111621,0.04651 h -1.5875 q -0.06511,0 -0.111621,-0.04651 -0.04651,-0.04651 -0.04651,-0.111621 z"/>
<path d="m 29.445956,24.679456 v -2.858741 q 0,-0.06511 0.04651,-0.111621 0.04651,-0.04651 0.111621,-0.04651 h 0.95188 q 0.328662,0 0.561206,0.232544 0.232544,0.232545 0.232544,0.561206 0,0.328663 -0.232544,0.561207 -0.232544,0.232543 -0.561206,0.232543 h -0.79375 v 1.429371 q 0,0.06511 -0.04651,0.111621 -0.04651,0.04651 -0.111621,0.04651 -0.06511,0 -0.111621,-0.04651 -0.04651,-0.04651 -0.04651,-0.111621 z m 1.5875,-2.22312 q 0,-0.198437 -0.139526,-0.337964 -0.139527,-0.139527 -0.337964,-0.139527 h -0.79375 v 0.954982 h 0.79375 q 0.198437,0 0.337964,-0.139528 0.139526,-0.139526 0.139526,-0.337963 z"/>
<path d="m 31.827206,24.679456 v -2.858741 q 0,-0.06511 0.04651,-0.111621 0.04651,-0.04651 0.111621,-0.04651 h 0.95188 q 0.328662,0 0.561206,0.232544 0.232544,0.232545 0.232544,0.561206 0,0.328663 -0.232544,0.561207 -0.232544,0.232543 -0.561206,0.232543 h -0.79375 v 1.429371 q 0,0.06511 -0.04651,0.111621 -0.04651,0.04651 -0.111621,0.04651 -0.06511,0 -0.111621,-0.04651 -0.04651,-0.04651 -0.04651,-0.111621 z m 1.5875,-2.22312 q 0,-0.198437 -0.139526,-0.337964 -0.139526,-0.139527 -0.337964,-0.139527 h -0.79375 v 0.954982 h 0.79375 q 0.198438,0 0.337964,-0.139528 0.139526,-0.139526 0.139526,-0.337963 z"/>
<path d="m 34.208456,24.679456 v -2.858741 q 0,-0.06511 0.04651,-0.111621 0.04651,-0.04651 0.111621,-0.04651 h 1.5875 q 0.06511,-0.0031 0.111621,0.04651 0.04651,0.04651 0.04651,0.111621 0,0.06511 -0.04651,0.111621 -0.04651,0.04651 -0.114722,0.04651 h -1.426269 v 0.95498 h 1.11311 q 0.06511,0 0.111621,0.04651 0.04651,0.04651 0.04651,0.111622 0,0.06511 -0.04651,0.11162 -0.04651,0.04651 -0.111621,0.04651 h -1.11311 v 1.271241 h 1.42937 q 0.06511,0 0.111621,0.04651 0.04651,0.04651 0.04651,0.111622 0,0.06511 -0.04651,0.111621 -0.04651,0.04651 -0.111621,0.04651 h -1.5875 q -0.06511,0 -0.111621,-0.04651 -0.04651,-0.04651 -0.04651,-0.111621 z"/>
<path d="m 37.225325,24.837586 h -0.47749 q -0.06511,0 -0.111621,-0.04651 -0.04651,-0.04651 -0.04651,-0.111621 v -2.858741 q 0,-0.06511 0.04651,-0.111621 0.04651,-0.04651 0.111621,-0.04651 h 0.47749 q 0.458887,0 0.784449,0.325562 0.483691,0.483691 0.483691,1.261938 0,0.778249 -0.483691,1.261939 -0.325562,0.325561 -0.784449,0.325561 z m -0.31936,-0.31626 h 0.31936 q 0.328662,0 0.561206,-0.232543 0.390674,-0.390675 0.390674,-1.038697 0,-0.648023 -0.390674,-1.038696 -0.232544,-0.232545 -0.561206,-0.232545 h -0.31936 z"/>
<path d="m 44.369383,24.837499 q -0.5302,0 -0.905371,-0.375171 -0.04651,-0.04651 -0.04651,-0.111621 0,-0.06511 0.04651,-0.111621 0.04651,-0.04651 0.111621,-0.04651 0.06511,0 0.111621,0.04651 0.282153,0.282153 0.682129,0.282153 0.26355,0 0.449585,-0.186035 0.186035,-0.186035 0.186035,-0.449585 0,-0.139526 -0.07441,-0.254248 -0.07441,-0.117822 -0.198437,-0.176734 l -0.747242,-0.353466 q -0.189135,-0.08992 -0.300756,-0.26355 -0.108521,-0.173633 -0.108521,-0.381372 0,-0.328662 0.232544,-0.561206 0.232544,-0.232544 0.561206,-0.232544 0.437183,0 0.747241,0.310058 0.04651,0.04651 0.04651,0.111622 0,0.06511 -0.04651,0.111621 -0.04651,0.04651 -0.111621,0.04651 -0.06511,0 -0.111621,-0.04651 -0.217041,-0.217041 -0.523999,-0.217041 -0.198437,0 -0.337964,0.139526 -0.139526,0.139526 -0.139526,0.337964 0,0.114721 0.06201,0.21394 0.06201,0.09612 0.164331,0.145728 l 0.747241,0.353467 q 0.207739,0.09922 0.331762,0.294555 0.124024,0.192237 0.124024,0.42168 0,0.393774 -0.279053,0.672827 -0.279053,0.279053 -0.672827,0.279053 z"/>
<path d="m 45.953783,24.837499 q -0.06511,0 -0.108521,-0.04651 -0.04341,-0.04651 -0.04961,-0.111621 v -2.85874 q 0,-0.06511 0.04651,-0.111621 0.04651,-0.04651 0.111622,-0.04651 0.04961,0 0.08992,0.0279 0.04031,0.02791 0.05891,0.07441 l 0.964282,2.480469 0.970483,-2.480469 q 0.0186,-0.05271 0.05891,-0.07751 0.04031,-0.0248 0.08992,-0.0248 0.06511,0 0.108521,0.04651 0.04341,0.04651 0.04341,0.111621 v 2.85874 q 0,0.06511 -0.04651,0.111621 -0.04651,0.04651 -0.111621,0.04651 -0.06511,0 -0.111621,-0.04651 -0.04651,-0.04651 -0.04651,-0.111621 v -2.037085 l -0.806152,2.092895 q -0.0186,0.04651 -0.05891,0.07441 -0.04031,0.02791 -0.08992,0.02791 -0.04961,0 -0.08992,-0.02791 -0.04031,-0.02791 -0.05891,-0.07441 l -0.806154,-2.092894 v 2.037085 q 0,0.06511 -0.04651,0.111621 -0.04651,0.04651 -0.111621,0.04651 z"/>
<path d="m 48.815623,23.249999 q 0,-0.871265 0.440283,-1.308447 0.275953,-0.279053 0.669727,-0.279053 0.393774,0 0.672827,0.279053 0.437183,0.437182 0.437183,1.308447 0,0.871264 -0.437183,1.308447 -0.279053,0.279053 -0.672827,0.279053 -0.393774,0 -0.672827,-0.279053 -0.437183,-0.437183 -0.437183,-1.308447 z m 1.11001,-1.27124 q -0.26355,0 -0.449585,0.186035 -0.344165,0.344165 -0.344165,1.085205 0,0.74104 0.344165,1.085205 0.186035,0.186035 0.449585,0.186035 0.26355,0 0.449585,-0.186035 0.344165,-0.344165 0.344165,-1.085205 0,-0.74104 -0.344165,-1.085205 -0.186035,-0.186035 -0.449585,-0.186035 z"/>
<path d="m 51.358104,23.249999 q 0,-0.871265 0.440283,-1.308447 0.275952,-0.279053 0.669727,-0.279053 0.393774,0 0.672827,0.279053 0.437182,0.437182 0.437182,1.308447 0,0.871264 -0.437182,1.308447 -0.279053,0.279053 -0.672827,0.279053 -0.393775,0 -0.672828,-0.279053 -0.437182,-0.437183 -0.437182,-1.308447 z m 1.11001,-1.27124 q -0.26355,0 -0.449585,0.186035 -0.344165,0.344165 -0.344165,1.085205 0,0.74104 0.344165,1.085205 0.186035,0.186035 0.449585,0.186035 0.263549,0 0.449584,-0.186035 0.344165,-0.344165 0.344165,-1.085205 0,-0.74104 -0.344165,-1.085205 -0.186035,-0.186035 -0.449584,-0.186035 z"/>
<path d="m 54.691234,24.679369 v -2.70061 h -0.63562 q -0.06511,0 -0.111622,-0.04651 -0.04651,-0.04651 -0.04651,-0.111621 0,-0.06511 0.04651,-0.111621 0.04651,-0.04651 0.111622,-0.04651 h 1.587499 q 0.06511,0 0.111622,0.04651 0.04651,0.04651 0.04651,0.111621 0,0.06511 -0.04651,0.111621 -0.04651,0.04651 -0.111622,0.04651 h -0.63562 v 2.70061 q 0,0.06511 -0.04651,0.111621 -0.04651,0.04651 -0.111621,0.04651 -0.06511,0 -0.111622,-0.04651 -0.04651,-0.04651 -0.04651,-0.111621 z"/>
<path d="m 56.278733,24.679369 v -2.85874 q 0,-0.06511 0.04651,-0.111621 0.04651,-0.04651 0.111621,-0.04651 0.06511,0 0.111621,0.04651 0.04651,0.04651 0.04651,0.111621 v 1.11311 h 1.27124 v -1.11311 q 0,-0.06511 0.04651,-0.111621 0.04651,-0.04651 0.111621,-0.04651 0.06511,0 0.111621,0.04651 0.04651,0.04651 0.04651,0.111621 v 2.85874 q 0,0.06511 -0.04651,0.111621 -0.04651,0.04651 -0.111621,0.04651 -0.06511,0 -0.111621,-0.04651 -0.04651,-0.04651 -0.04651,-0.111621 v -1.42937 h -1.27124 v 1.42937 q 0,0.06511 -0.04651,0.111621 -0.04651,0.04651 -0.111621,0.04651 -0.06511,0 -0.111621,-0.04651 -0.04651,-0.04651 -0.04651,-0.111621 z"/>
<path d="m 8.4159204,24.679368 v -2.70061 H 7.7803003 q -0.065112,0 -0.1116211,-0.04651 -0.046509,-0.04651 -0.046509,-0.111621 0,-0.06511 0.046509,-0.111621 0.046509,-0.04651 0.1116211,-0.04651 h 1.5875 q 0.065112,0 0.1116211,0.04651 0.046509,0.04651 0.046509,0.111621 0,0.06511 -0.046509,0.111621 -0.046509,0.04651 -0.1116211,0.04651 H 8.7321802 v 2.70061 q 0,0.06511 -0.046509,0.111621 -0.046509,0.04651 -0.1116211,0.04651 -0.065112,0 -0.1116211,-0.04651 -0.046509,-0.04651 -0.046509,-0.111621 z"/>
<path d="m 11.58782,22.456248 q 0,-0.198437 -0.139526,-0.337964 -0.139527,-0.139526 -0.337964,-0.139526 h -0.79375 v 0.95498 h 0.79375 q 0.198437,0 0.337964,-0.139526 0.139526,-0.139526 0.139526,-0.337964 z m 0.15813,2.38125 q -0.04651,0 -0.08682,-0.02481 -0.03721,-0.02481 -0.05891,-0.06821 L 10.933596,23.249998 H 10.31658 v 1.42937 q 0,0.06511 -0.04651,0.111621 -0.04651,0.04651 -0.111621,0.04651 -0.06511,0 -0.111621,-0.04651 -0.04651,-0.04651 -0.04651,-0.111621 v -2.85874 q 0,-0.06511 0.04651,-0.111621 0.04651,-0.04651 0.111621,-0.04651 h 0.951879 q 0.328663,0 0.561207,0.232544 0.232543,0.232544 0.232543,0.558105 0.0031,0.331763 -0.229443,0.564307 -0.167432,0.164331 -0.396875,0.21394 l 0.613916,1.382862 q 0.0124,0.03101 0.0124,0.06511 0,0.06511 -0.04651,0.111621 -0.04651,0.04651 -0.11162,0.04651 z"/>
<path d="m 12.38157,24.679368 v -2.85874 q 0,-0.06511 0.04651,-0.111621 0.04651,-0.04651 0.111621,-0.04651 0.06511,0 0.111621,0.04651 0.04651,0.04651 0.04651,0.111621 v 2.85874 q 0,0.06511 -0.04651,0.111621 -0.04651,0.04651 -0.111621,0.04651 -0.06511,0 -0.111621,-0.04651 -0.04651,-0.04651 -0.04651,-0.111621 z"/>
<path d="m 69.375919,24.679368 v -2.70061 h -0.63562 q -0.06511,0 -0.111621,-0.04651 -0.04651,-0.04651 -0.04651,-0.111621 0,-0.06511 0.04651,-0.111621 0.04651,-0.04651 0.111621,-0.04651 h 1.5875 q 0.06511,0 0.111621,0.04651 0.04651,0.04651 0.04651,0.111621 0,0.06511 -0.04651,0.111621 -0.04651,0.04651 -0.111621,0.04651 h -0.63562 v 2.70061 q 0,0.06511 -0.04651,0.111622 -0.04651,0.04651 -0.111621,0.04651 -0.06511,0 -0.111621,-0.04651 -0.04651,-0.04651 -0.04651,-0.111622 z"/>
<path d="m 72.547818,22.456248 q 0,-0.198437 -0.139526,-0.337963 -0.139526,-0.139527 -0.337964,-0.139527 h -0.79375 v 0.954981 h 0.79375 q 0.198438,0 0.337964,-0.139527 0.139526,-0.139526 0.139526,-0.337964 z m 0.15813,2.38125 q -0.04651,0 -0.08682,-0.02481 -0.03721,-0.02481 -0.05891,-0.06821 l -0.666623,-1.494482 h -0.617017 v 1.42937 q 0,0.06511 -0.04651,0.111622 -0.04651,0.04651 -0.111621,0.04651 -0.06511,0 -0.111621,-0.04651 -0.04651,-0.04651 -0.04651,-0.111622 v -2.85874 q 0,-0.06511 0.04651,-0.111621 0.04651,-0.04651 0.111621,-0.04651 h 0.95188 q 0.328662,0 0.561206,0.232544 0.232544,0.232544 0.232544,0.558105 0.0031,0.331763 -0.229443,0.564307 -0.167432,0.164331 -0.396875,0.213941 l 0.613916,1.382861 q 0.0124,0.03101 0.0124,0.06511 0,0.06511 -0.04651,0.111621 -0.04651,0.04651 -0.111621,0.04651 z"/>
<path d="m 73.341569,24.679368 v -2.85874 q 0,-0.06511 0.04651,-0.111621 0.04651,-0.04651 0.111621,-0.04651 0.06511,0 0.111622,0.04651 0.04651,0.04651 0.04651,0.111621 v 2.85874 q 0,0.06511 -0.04651,0.111622 -0.04651,0.04651 -0.111622,0.04651 -0.06511,0 -0.111621,-0.04651 -0.04651,-0.04651 -0.04651,-0.111622 z"/>
<path d="m 68.659668,44.837501 q -0.5302,0 -0.905371,-0.375171 -0.04651,-0.04651 -0.04651,-0.111621 0,-0.06511 0.04651,-0.111621 0.04651,-0.04651 0.111621,-0.04651 0.06511,0 0.111621,0.04651 0.282153,0.282153 0.682129,0.282153 0.26355,0 0.449585,-0.186035 0.186035,-0.186035 0.186035,-0.449585 0,-0.139527 -0.07441,-0.254248 -0.07441,-0.117822 -0.198438,-0.176734 l -0.747241,-0.353466 q -0.189136,-0.08992 -0.300757,-0.26355 -0.10852,-0.173633 -0.10852,-0.381372 0,-0.328662 0.232544,-0.561206 0.232544,-0.232544 0.561206,-0.232544 0.437182,0 0.747241,0.310058 0.04651,0.04651 0.04651,0.111621 0,0.06511 -0.04651,0.111622 -0.04651,0.04651 -0.111621,0.04651 -0.06511,0 -0.111621,-0.04651 -0.217041,-0.217041 -0.523999,-0.217041 -0.198438,0 -0.337964,0.139526 -0.139526,0.139526 -0.139526,0.337964 0,0.114721 0.06201,0.21394 0.06201,0.09612 0.164331,0.145728 l 0.747242,0.353467 q 0.207739,0.09922 0.331762,0.294555 0.124024,0.192237 0.124024,0.42168 0,0.393774 -0.279053,0.672827 -0.279053,0.279053 -0.672827,0.279053 z"/>
<path d="m 69.94021,43.250001 q 0,-0.871265 0.440283,-1.308447 0.275952,-0.279053 0.669727,-0.279053 0.393774,0 0.672827,0.279053 0.437182,0.437182 0.437182,1.308447 0,0.762744 -0.334863,1.190625 l 0.127124,0.127124 q 0.04651,0.04651 0.04651,0.111621 0,0.06511 -0.04651,0.111621 -0.04651,0.04651 -0.111621,0.04651 -0.06511,0 -0.111621,-0.04651 l -0.127124,-0.127124 q -0.248047,0.173633 -0.551904,0.173633 -0.393775,0 -0.672828,-0.279053 -0.437182,-0.437183 -0.437182,-1.308447 z m 1.531689,0.840259 0.124024,0.124023 q 0.244946,-0.341064 0.244946,-0.964282 0,-0.74104 -0.344165,-1.085205 -0.186035,-0.186035 -0.449585,-0.186035 -0.26355,0 -0.449585,0.186035 -0.344165,0.344165 -0.344165,1.085205 0,0.74104 0.344165,1.085205 0.186035,0.186035 0.449585,0.186035 0.207739,0 0.322461,-0.08682 l -0.120923,-0.120923 q -0.04651,-0.04651 -0.04651,-0.111621 0,-0.06511 0.04651,-0.111621 0.04651,-0.04651 0.111621,-0.04651 0.06511,0 0.111621,0.04651 z"/>
<path d="m 74.215918,42.456251 q 0,-0.198438 -0.139527,-0.337964 -0.139526,-0.139526 -0.337964,-0.139526 h -0.79375 v 0.95498 h 0.79375 q 0.198438,0 0.337964,-0.139526 0.139527,-0.139527 0.139527,-0.337964 z m 0.158129,2.38125 q -0.04651,0 -0.08682,-0.02481 -0.03721,-0.02481 -0.05891,-0.06821 l -0.666626,-1.494482 h -0.617017 v 1.42937 q 0,0.06511 -0.04651,0.111621 -0.04651,0.04651 -0.111622,0.04651 -0.06511,0 -0.111621,-0.04651 -0.04651,-0.04651 -0.04651,-0.111621 v -2.85874 q 0,-0.06511 0.04651,-0.111621 0.04651,-0.04651 0.111621,-0.04651 h 0.95188 q 0.328662,0 0.561206,0.232544 0.232544,0.232544 0.232544,0.558105 0.0031,0.331763 -0.229443,0.564307 -0.167432,0.164331 -0.396875,0.21394 l 0.613916,1.382862 q 0.0124,0.03101 0.0124,0.06511 0,0.06511 -0.04651,0.111621 -0.04651,0.04651 -0.111622,0.04651 z"/>
<path d="m 7.6996651,44.8375 q -0.5302002,0 -0.9053711,-0.375171 -0.046509,-0.04651 -0.046509,-0.111621 0,-0.06511 0.046509,-0.111621 0.046509,-0.04651 0.1116211,-0.04651 0.065112,0 0.1116211,0.04651 0.2821533,0.282153 0.6821289,0.282153 0.2635498,0 0.4495849,-0.186035 0.1860352,-0.186035 0.1860352,-0.449585 0,-0.139527 -0.074414,-0.254248 -0.074414,-0.117823 -0.1984375,-0.176734 L 7.3151924,43.101172 Q 7.1260567,43.011255 7.0144356,42.837622 6.9059151,42.663989 6.9059151,42.45625 q 0,-0.328662 0.2325439,-0.561206 0.232544,-0.232544 0.5612061,-0.232544 0.4371826,0 0.7472412,0.310058 0.046509,0.04651 0.046509,0.111621 0,0.06511 -0.046509,0.111621 -0.046509,0.04651 -0.1116211,0.04651 -0.065112,0 -0.1116211,-0.04651 -0.217041,-0.217041 -0.523999,-0.217041 -0.1984375,0 -0.3379639,0.139527 -0.1395263,0.139526 -0.1395263,0.337964 0,0.114721 0.062012,0.21394 0.062012,0.09612 0.164331,0.145728 l 0.7472412,0.353466 q 0.2077393,0.09922 0.3317627,0.294556 0.1240235,0.192236 0.1240235,0.42168 0,0.393774 -0.2790528,0.672827 Q 8.0934398,44.8375 7.6996651,44.8375 Z"/>
<path d="m 8.9802071,43.25 q 0,-0.871265 0.4402832,-1.308448 0.2759522,-0.279052 0.6697267,-0.279052 0.393774,0 0.672827,0.279052 0.437183,0.437183 0.437183,1.308448 0,0.762744 -0.334864,1.190625 l 0.127124,0.127124 q 0.04651,0.04651 0.04651,0.111621 0,0.06511 -0.04651,0.111621 -0.04651,0.04651 -0.111621,0.04651 -0.06511,0 -0.111621,-0.04651 L 10.642121,44.663867 Q 10.394074,44.8375 10.090217,44.8375 9.6964425,44.8375 9.4173897,44.558447 8.9802071,44.121264 8.9802071,43.25 Z m 1.5316899,0.840258 0.124023,0.124024 q 0.244946,-0.341065 0.244946,-0.964282 0,-0.74104 -0.344165,-1.085205 -0.186035,-0.186036 -0.449585,-0.186036 -0.2635495,0 -0.4495847,0.186036 -0.344165,0.344165 -0.344165,1.085205 0,0.74104 0.344165,1.085205 0.1860352,0.186035 0.4495847,0.186035 0.20774,0 0.322461,-0.08682 l -0.120923,-0.120919 q -0.04651,-0.04651 -0.04651,-0.111621 0,-0.06511 0.04651,-0.111622 0.04651,-0.04651 0.111621,-0.04651 0.06511,0 0.111622,0.04651 z"/>
<path d="m 13.255915,42.45625 q 0,-0.198438 -0.139527,-0.337964 -0.139526,-0.139527 -0.337963,-0.139527 h -0.79375 v 0.954981 h 0.79375 q 0.198437,0 0.337963,-0.139526 0.139527,-0.139527 0.139527,-0.337964 z m 0.15813,2.38125 q -0.04651,0 -0.08682,-0.02481 -0.03721,-0.0248 -0.05891,-0.06821 L 12.601691,43.25 h -0.617016 v 1.42937 q 0,0.06511 -0.04651,0.111621 -0.04651,0.04651 -0.111621,0.04651 -0.06511,0 -0.111621,-0.04651 -0.04651,-0.04651 -0.04651,-0.111621 v -2.85874 q 0,-0.06511 0.04651,-0.111622 0.04651,-0.04651 0.111621,-0.04651 h 0.95188 q 0.328662,0 0.561206,0.232544 0.232544,0.232544 0.232544,0.558105 0.0031,0.331763 -0.229444,0.564307 -0.167431,0.164331 -0.396875,0.21394 l 0.613916,1.382861 q 0.0124,0.03101 0.0124,0.06511 0,0.06511 -0.04651,0.111621 -0.04651,0.04651 -0.111621,0.04651 z"/>
</g></g></svg>